<svg width="414" height="749" viewBox="0 0 414 749" fill="none" xmlns="http://www.w3.org/2000/svg">
<g clip-path="url(#clip0_86_1044)">
<path d="M230.928 349.238C219.413 355.886 214.702 369.794 219.24 381.842C220.098 384.121 222.834 384.837 224.943 383.62L263.696 361.245C265.805 360.028 266.553 357.3 265.009 355.418C256.843 345.464 242.443 342.589 230.928 349.238Z" fill="#FF1A87"/>
<path fill-rule="evenodd" clip-rule="evenodd" d="M161.543 660.812C165.933 665.202 173.051 665.202 177.441 660.812C182.23 656.023 189.995 656.023 194.785 660.812C199.574 665.601 199.574 673.366 194.785 678.155C180.816 692.124 158.168 692.124 144.2 678.155C130.231 664.187 130.231 641.539 144.2 627.571C148.989 622.781 156.754 622.781 161.543 627.571C166.332 632.36 166.332 640.125 161.543 644.914C157.153 649.304 157.153 656.422 161.543 660.812Z" fill="#FFD916"/>
<path fill-rule="evenodd" clip-rule="evenodd" d="M403.087 433.877C407.477 438.267 414.595 438.267 418.985 433.877C423.774 429.088 431.539 429.088 436.329 433.877C441.118 438.666 441.118 446.431 436.329 451.22C422.36 465.189 399.712 465.189 385.744 451.22C371.775 437.252 371.775 414.604 385.744 400.636C390.533 395.846 398.298 395.846 403.087 400.636C407.876 405.425 407.876 413.19 403.087 417.979C398.697 422.369 398.697 429.487 403.087 433.877Z" fill="#FFD916"/>
<path d="M380.339 206.715C380.34 213.516 374.827 219.029 368.026 219.03V219.03C361.225 219.03 355.712 213.517 355.712 206.716L355.71 149.838C355.71 143.037 361.223 137.524 368.024 137.524V137.524C374.824 137.523 380.338 143.036 380.338 149.837L380.339 206.715Z" fill="#FF5903"/>
<path d="M349.499 203.14C343.651 206.517 336.173 204.513 332.797 198.665V198.665C329.42 192.818 331.423 185.34 337.271 181.963L386.684 153.433C392.532 150.057 400.009 152.06 403.386 157.908V157.908C406.762 163.756 404.759 171.234 398.911 174.61L349.499 203.14Z" fill="#FF5903"/>
<path d="M337.198 174.604C331.35 171.228 329.346 163.75 332.722 157.902V157.902C336.099 152.054 343.576 150.05 349.424 153.426L398.838 181.954C404.686 185.33 406.69 192.807 403.314 198.655V198.655C399.938 204.503 392.46 206.507 386.612 203.131L337.198 174.604Z" fill="#FF5903"/>
<path d="M111.715 156.676C109.275 150.38 112.4 143.298 118.696 140.857V140.857C124.992 138.416 132.074 141.541 134.515 147.837L144.542 173.702C146.983 179.998 143.858 187.08 137.562 189.521V189.521C131.266 191.962 124.183 188.837 121.742 182.541L111.715 156.676Z" fill="#FFD916"/>
<path d="M-4.71163 317.445C-10.1672 321.424 -17.8156 320.227 -21.7948 314.772V314.772C-25.774 309.316 -24.5772 301.668 -19.1216 297.688L3.29019 281.342C8.74578 277.363 16.3942 278.559 20.3734 284.015V284.015C24.3526 289.471 23.1557 297.119 17.7001 301.098L-4.71163 317.445Z" fill="#FFD916"/>
<path d="M-18.7131 526.457C-24.3944 522.807 -26.0413 515.243 -22.3916 509.562V509.562C-18.7419 503.88 -11.1776 502.234 -5.49634 505.883L17.8426 520.876C23.5239 524.526 25.1708 532.09 21.5211 537.772V537.772C17.8714 543.453 10.3071 545.1 4.62585 541.45L-18.7131 526.457Z" fill="#FF1A87"/>
<path d="M241.05 125.839C237.674 131.687 230.196 133.69 224.348 130.314V130.314C218.5 126.938 216.496 119.46 219.873 113.612L233.743 89.5886C237.119 83.7406 244.597 81.737 250.445 85.1133V85.1133C256.292 88.4896 258.296 95.9673 254.92 101.815L241.05 125.839Z" fill="#FF1A87"/>
<path d="M318.002 601.689C313.89 607.045 306.215 608.053 300.859 603.941V603.941C295.503 599.829 294.494 592.153 298.607 586.797L315.5 564.794C319.612 559.438 327.287 558.43 332.644 562.542V562.542C338 566.654 339.008 574.33 334.896 579.686L318.002 601.689Z" fill="#FF5903"/>
<path d="M124.343 532.435C119.806 527.369 120.235 519.584 125.3 515.048V515.048C130.366 510.511 138.151 510.94 142.688 516.006V516.006C147.225 521.072 146.796 528.857 141.73 533.394V533.394C136.665 537.931 128.88 537.501 124.343 532.435V532.435Z" fill="#FF1A87"/>
<path d="M10.2931 400.208C5.75636 395.142 6.18481 387.357 11.2507 382.821V382.821C16.3165 378.284 24.1014 378.713 28.6382 383.779V383.779C33.1749 388.845 32.7465 396.63 27.6806 401.167V401.167C22.6147 405.704 14.8298 405.274 10.2931 400.208V400.208Z" fill="#FF1A87"/>
<path d="M317.553 443.306C313.016 438.241 313.445 430.456 318.51 425.919V425.919C323.576 421.382 331.361 421.812 335.898 426.877V426.877C340.435 431.943 340.006 439.728 334.94 444.265V444.265C329.875 448.802 322.09 448.372 317.553 443.306V443.306Z" fill="#FF5903"/>
<path d="M366.215 111.602C361.678 106.536 362.107 98.751 367.173 94.2142V94.2142C372.238 89.6775 380.023 90.107 384.56 95.1728V95.1728C389.097 100.239 388.668 108.024 383.602 112.56V112.56C378.537 117.097 370.752 116.668 366.215 111.602V111.602Z" fill="#FFD916"/>
<path d="M137.215 264.602C132.678 259.536 133.107 251.751 138.173 247.214V247.214C143.238 242.677 151.023 243.107 155.56 248.173V248.173C160.097 253.239 159.668 261.024 154.602 265.56V265.56C149.537 270.097 141.752 269.668 137.215 264.602V264.602Z" fill="#FF1A87"/>
<path d="M256.215 601.602C251.678 596.536 252.107 588.751 257.173 584.214V584.214C262.238 579.677 270.023 580.107 274.56 585.173V585.173C279.097 590.239 278.668 598.024 273.602 602.56V602.56C268.537 607.097 260.752 606.668 256.215 601.602V601.602Z" fill="#FFD916"/>
<path d="M389.703 600.686C385.167 595.62 385.595 587.835 390.661 583.298V583.298C395.727 578.761 403.512 579.191 408.048 584.257V584.257C412.585 589.323 412.157 597.108 407.091 601.644V601.644C402.025 606.181 394.24 605.752 389.703 600.686V600.686Z" fill="#FFD916"/>
<path d="M153.075 110.249C148.539 105.183 148.967 97.3984 154.033 92.8617V92.8617C159.099 88.325 166.884 88.7544 171.42 93.8203V93.8203C175.957 98.8861 175.529 106.671 170.463 111.208V111.208C165.397 115.745 157.612 115.315 153.075 110.249V110.249Z" fill="#FF5903"/>
<path fill-rule="evenodd" clip-rule="evenodd" d="M85.5407 231.195C86.3931 229.792 87.355 226.735 85.7731 220.255C84.1604 213.648 88.2089 206.985 94.8157 205.372C101.422 203.759 108.086 207.808 109.698 214.414C112.18 224.583 112.028 235.029 106.588 243.983C101.148 252.937 91.9467 257.885 81.7781 260.367C75.2975 261.949 73.0278 264.211 72.1754 265.614C71.323 267.017 70.3611 270.073 71.943 276.554C73.5557 283.161 69.5072 289.824 62.9004 291.437C56.2936 293.049 49.6304 289.001 48.0177 282.394C45.5356 272.226 45.6879 261.779 51.1281 252.826C56.5683 243.872 65.7694 238.924 75.938 236.442C82.4186 234.86 84.6883 232.598 85.5407 231.195Z" fill="#FF5903"/>
<path fill-rule="evenodd" clip-rule="evenodd" d="M334.204 259.166C335.626 259.987 338.703 260.88 345.147 259.153C351.716 257.393 358.468 261.291 360.228 267.861C361.989 274.43 358.09 281.182 351.521 282.942C341.411 285.651 330.964 285.732 321.89 280.494C312.817 275.256 307.664 266.167 304.955 256.057C303.229 249.613 300.916 247.395 299.495 246.574C298.073 245.753 294.996 244.86 288.552 246.587C281.983 248.347 275.231 244.448 273.471 237.879C271.711 231.31 275.609 224.558 282.178 222.798C292.288 220.089 302.735 220.007 311.809 225.246C320.882 230.484 326.035 239.572 328.744 249.683C330.47 256.126 332.783 258.345 334.204 259.166Z" fill="#FFD916"/>
<path fill-rule="evenodd" clip-rule="evenodd" d="M280.98 507.988C282.402 507.167 284.714 504.949 286.44 498.505C288.201 491.936 294.953 488.038 301.522 489.798C308.091 491.558 311.989 498.31 310.229 504.879C307.52 514.99 302.367 524.078 293.294 529.316C284.221 534.554 273.774 534.473 263.663 531.764C257.22 530.037 254.142 530.931 252.72 531.751C251.299 532.572 248.987 534.791 247.26 541.234C245.5 547.803 238.748 551.702 232.179 549.941C225.61 548.181 221.711 541.429 223.471 534.86C226.18 524.75 231.333 515.662 240.407 510.423C249.48 505.185 259.927 505.266 270.037 507.975C276.481 509.702 279.558 508.809 280.98 507.988Z" fill="#FFD916"/>
<path d="M250.556 677.188C248.481 675.582 248.481 672.418 250.556 670.812V670.812C252.108 669.609 252.563 667.44 251.628 665.702V665.702C250.378 663.38 251.649 660.49 254.189 659.877V659.877C256.09 659.418 257.377 657.624 257.221 655.651V655.651C257.012 653.015 259.333 650.898 261.9 651.384V651.384C263.821 651.748 265.717 650.639 266.367 648.772V648.772C267.234 646.278 270.205 645.3 272.355 646.802V646.802C273.964 647.926 276.141 647.694 277.484 646.256V646.256C279.279 644.335 282.385 644.665 283.746 646.922V646.922C284.765 648.612 286.847 649.297 288.652 648.537V648.537C291.063 647.521 293.768 649.102 294.105 651.725V651.725C294.357 653.688 295.984 655.171 297.937 655.22V655.22C300.548 655.285 302.384 657.845 301.638 660.379V660.379C301.08 662.276 301.971 664.302 303.736 665.151V665.151C306.095 666.286 306.744 669.38 305.045 671.388V671.388C303.774 672.891 303.774 675.109 305.045 676.612V676.612C306.744 678.62 306.095 681.714 303.736 682.849V682.849C301.971 683.698 301.08 685.724 301.638 687.621V687.621C302.384 690.156 300.548 692.715 297.937 692.78V692.78C295.984 692.829 294.357 694.312 294.104 696.275V696.275C293.768 698.898 291.063 700.479 288.652 699.463V699.463C286.847 698.703 284.765 699.388 283.746 701.078V701.078C282.385 703.335 279.279 703.665 277.484 701.744V701.744C276.141 700.306 273.964 700.074 272.355 701.198V701.198C270.205 702.7 267.234 701.722 266.367 699.228V699.228C265.717 697.361 263.821 696.252 261.9 696.616V696.616C259.333 697.102 257.012 694.985 257.221 692.349V692.349C257.377 690.376 256.09 688.582 254.189 688.123V688.123C251.649 687.51 250.378 684.62 251.628 682.298V682.298C252.563 680.56 252.108 678.391 250.556 677.188V677.188Z" fill="#FF1A87"/>
<path d="M-19.4443 218.188C-21.5186 216.582 -21.5186 213.418 -19.4443 211.812V211.812C-17.8919 210.609 -17.4367 208.44 -18.372 206.702V206.702C-19.6216 204.38 -18.3511 201.49 -15.811 200.877V200.877C-13.9099 200.418 -12.6229 198.624 -12.7794 196.651V196.651C-12.9884 194.015 -10.667 191.898 -8.10014 192.384V192.384C-6.17907 192.748 -4.28289 191.639 -3.63345 189.772V189.772C-2.7657 187.278 0.205196 186.3 2.35488 187.802V187.802C3.96376 188.926 6.14128 188.694 7.48432 187.256V187.256C9.2788 185.335 12.3855 185.665 13.7463 187.922V187.922C14.7648 189.612 16.8472 190.297 18.6516 189.537V189.537C21.0625 188.521 23.7678 190.102 24.1045 192.725V192.725C24.3565 194.688 25.9836 196.171 27.9374 196.22V196.22C30.5479 196.285 32.3841 198.845 31.6384 201.379V201.379C31.0803 203.276 31.9709 205.302 33.7362 206.151V206.151C36.0949 207.286 36.7444 210.38 35.0453 212.388V212.388C33.7737 213.891 33.7737 216.109 35.0453 217.612V217.612C36.7444 219.62 36.0949 222.714 33.7362 223.849V223.849C31.9709 224.698 31.0803 226.724 31.6384 228.621V228.621C32.384 231.156 30.5479 233.715 27.9374 233.78V233.78C25.9836 233.829 24.3565 235.312 24.1045 237.275V237.275C23.7678 239.898 21.0625 241.479 18.6516 240.463V240.463C16.8472 239.703 14.7648 240.388 13.7463 242.078V242.078C12.3855 244.335 9.27879 244.665 7.48431 242.744V242.744C6.14127 241.306 3.96376 241.074 2.35487 242.198V242.198C0.205189 243.7 -2.76571 242.722 -3.63345 240.228V240.228C-4.2829 238.361 -6.17907 237.252 -8.10015 237.616V237.616C-10.667 238.102 -12.9884 235.985 -12.7794 233.349V233.349C-12.6229 231.376 -13.9099 229.582 -15.811 229.123V229.123C-18.3511 228.51 -19.6217 225.62 -18.372 223.298V223.298C-17.4367 221.56 -17.8919 219.391 -19.4443 218.188V218.188Z" fill="#FF1A87"/>
<path fill-rule="evenodd" clip-rule="evenodd" d="M48.9991 133.777C52.0941 128.416 50.2574 121.562 44.8968 118.467C39.0489 115.09 37.0453 107.613 40.4216 101.765C43.7979 95.9169 51.2756 93.9133 57.1235 97.2896C74.1799 107.137 80.0238 128.947 70.1763 146.003C60.3288 163.06 38.5188 168.904 21.4624 159.056C15.6145 155.68 13.6109 148.202 16.9872 142.354C20.3634 136.507 27.8411 134.503 33.6891 137.879C39.0496 140.974 45.9042 139.137 48.9991 133.777Z" fill="#FF1A87"/>
<path d="M31.3155 452.504C26.1227 448.112 25.4731 440.343 29.8645 435.15V435.15C34.256 429.957 42.0256 429.307 47.2184 433.699L90.6488 470.427C95.8416 474.818 96.4912 482.588 92.0998 487.781V487.781C87.7083 492.973 79.9387 493.623 74.7459 489.232L31.3155 452.504Z" fill="#FFD916"/>
<path d="M53.9605 431.263C55.1586 424.618 61.5171 420.202 68.1625 421.4V421.4C74.808 422.598 79.2239 428.957 78.0257 435.602L67.9017 491.754C66.7036 498.4 60.3451 502.816 53.6996 501.618V501.618C47.0542 500.419 42.6383 494.061 43.8364 487.415L53.9605 431.263Z" fill="#FFD916"/>
<path d="M83.6939 440.3C90.0481 438.015 97.0517 441.313 99.3368 447.667V447.667C101.622 454.022 98.3232 461.025 91.969 463.31L38.2777 482.619C31.9235 484.904 24.9199 481.605 22.6348 475.251V475.251C20.3497 468.897 23.6484 461.893 30.0026 459.608L83.6939 440.3Z" fill="#FFD916"/>
<path d="M62.17 606.696C53.7562 601.838 50.8735 591.08 55.7312 582.666L64.5268 567.431C69.3845 559.018 80.1431 556.135 88.5569 560.993L103.791 569.788C112.205 574.646 115.088 585.405 110.23 593.818L101.435 609.053C96.5768 617.467 85.8182 620.349 77.4045 615.492L62.17 606.696Z" fill="#FF5903"/>
<path d="M341.527 652.476C339.39 648.954 341.455 644.384 345.511 643.66L352.771 642.366C354.099 642.129 355.304 641.442 356.185 640.42L360.998 634.832C363.687 631.711 368.672 632.262 370.613 635.896L374.087 642.401C374.723 643.591 375.749 644.525 376.993 645.047L383.794 647.897C387.594 649.49 388.61 654.402 385.754 657.371L380.641 662.685C379.706 663.657 379.134 664.922 379.023 666.266L378.413 673.616C378.073 677.722 373.716 680.205 370.009 678.406L363.375 675.186C362.161 674.597 360.782 674.445 359.469 674.754L352.291 676.445C348.281 677.39 344.572 674.014 345.138 669.933L346.15 662.628C346.335 661.292 346.054 659.933 345.354 658.78L341.527 652.476Z" fill="#FFD916"/>
<path d="M270.994 134.844C268.856 131.322 270.921 126.751 274.978 126.028L282.238 124.734C283.566 124.497 284.771 123.81 285.651 122.788L290.464 117.2C293.153 114.078 298.138 114.63 300.079 118.264L303.554 124.769C304.19 125.959 305.216 126.893 306.46 127.414L313.261 130.265C317.061 131.858 318.077 136.769 315.22 139.738L310.107 145.053C309.172 146.025 308.601 147.29 308.49 148.634L307.88 155.983C307.54 160.089 303.182 162.573 299.476 160.774L292.841 157.554C291.628 156.965 290.249 156.812 288.936 157.122L281.758 158.813C277.748 159.758 274.039 156.382 274.605 152.301L275.617 144.996C275.802 143.66 275.521 142.301 274.821 141.148L270.994 134.844Z" fill="#FFD916"/>
<path d="M49.2453 712.905C43.9781 713.66 40.5099 707.573 43.844 703.426L53.724 691.138C54.742 689.872 55.1891 688.241 54.9587 686.633L52.723 671.025C51.9686 665.757 58.055 662.289 62.2018 665.623L74.4898 675.503C75.7558 676.521 77.3874 676.968 78.9955 676.738L94.6036 674.502C99.8707 673.748 103.339 679.834 100.005 683.981L90.1248 696.269C89.1069 697.535 88.6598 699.167 88.8901 700.775L91.1258 716.383C91.8803 721.65 85.7938 725.118 81.647 721.784L69.359 711.904C68.093 710.886 66.4614 710.439 64.8533 710.669L49.2453 712.905Z" fill="#FF1A87"/>
<path d="M-5.91815 644.477C-10.4152 644.866 -13.6474 640.241 -11.736 636.152L1.38096 608.09C3.29235 604 8.91372 603.514 11.4994 607.214L29.2438 632.604C31.8295 636.304 29.4402 641.416 24.9431 641.805L-5.91815 644.477Z" fill="#FFD916"/>
<path d="M376.322 271.359C375.154 266.999 379.144 263.009 383.504 264.177L413.425 272.195C417.785 273.363 419.245 278.813 416.054 282.005L394.15 303.909C390.958 307.101 385.508 305.64 384.339 301.28L376.322 271.359Z" fill="#FF1A87"/>
<path d="M342.872 534.324C338.231 532.258 335.448 527.438 335.979 522.385L338.614 497.318C339.145 492.265 342.869 488.129 347.839 487.073L372.493 481.832C377.463 480.776 382.547 483.04 385.088 487.44L397.69 509.268C400.231 513.668 399.649 519.203 396.249 522.979L379.384 541.71C375.984 545.486 370.54 546.643 365.898 544.576L342.872 534.324Z" fill="#FF1A87"/>
<path d="M186.446 220.787C181.804 218.721 179.021 213.901 179.552 208.848L182.187 183.781C182.718 178.728 186.442 174.592 191.412 173.535L216.066 168.295C221.036 167.239 226.121 169.502 228.661 173.902L241.264 195.731C243.804 200.131 243.222 205.666 239.822 209.442L222.957 228.173C219.557 231.948 214.113 233.106 209.472 231.039L186.446 220.787Z" fill="#FF5903"/>
<path d="M213.314 574.259C205.41 560.569 188.875 554.968 174.551 560.363C171.842 561.383 170.99 564.636 172.438 567.143L199.038 613.216C200.486 615.723 203.729 616.613 205.967 614.777C217.801 605.069 221.218 587.949 213.314 574.259Z" fill="#FF5903"/>
</g>
<defs>
<clipPath id="clip0_86_1044">
<rect width="414" height="749" fill="white"/>
</clipPath>
</defs>
</svg>
