<svg width="468" height="396" viewBox="0 0 468 396" fill="none" xmlns="http://www.w3.org/2000/svg">
<path d="M165.809 100.096L177.2 88.5808L165.809 77.066L173.434 62.7109L159.682 55.2582L162.916 39.8156L147.804 36.5787L146.734 21.0017L131.267 22.0892L125.939 7.35668L111.079 12.8326L101.675 0L88.6 9.80677L75.5251 0L66.1019 12.8326L51.2614 7.35668L45.9517 22.07L30.4847 20.9825L29.3962 36.5787L14.2836 39.8156L17.5175 55.2582L3.75284 62.7301L11.3914 77.0852L0 88.6L11.3914 100.115L3.79714 114.47L17.5618 121.942L14.3279 137.384L29.4405 140.621L30.51 156.198L45.9771 155.111L51.2867 169.824L66.1462 164.348L75.5251 177.2L88.6 167.368L101.681 177.2L111.098 164.361L125.939 169.818L131.255 155.104L146.715 156.192L147.785 140.615L162.897 137.378L159.663 121.935L173.428 114.463L165.809 100.096ZM88.6 166.191H88.9101L88.6 166.613L88.2899 166.191H88.6ZM164.574 99.7501L164.777 99.9548L164.524 100.089C164.543 99.9804 164.543 99.8653 164.574 99.7501Z" fill="#FF1A87"/>
<path d="M455.458 206.096L466.85 194.581L455.458 183.066L463.084 168.711L449.332 161.258L452.566 145.816L437.453 142.579L436.384 127.002L420.917 128.089L415.588 113.357L400.729 118.833L391.324 106L378.25 115.807L365.175 106L355.752 118.833L340.911 113.357L335.601 128.07L320.134 126.983L319.046 142.579L303.933 145.816L307.167 161.258L293.402 168.73L301.041 183.085L289.65 194.6L301.041 206.115L293.447 220.47L307.211 227.942L303.978 243.384L319.09 246.621L320.16 262.198L335.627 261.111L340.936 275.824L355.796 270.348L365.175 283.2L378.25 273.368L391.331 283.2L400.748 270.361L415.588 275.818L420.904 261.104L436.365 262.192L437.434 246.615L452.547 243.378L449.313 227.935L463.078 220.463L455.458 206.096ZM378.25 272.191H378.56L378.25 272.613L377.94 272.191H378.25ZM454.224 205.75L454.427 205.955L454.173 206.089C454.192 205.98 454.192 205.865 454.224 205.75Z" fill="#FF1A87"/>
<path d="M356.163 242.106L378.708 219.316L356.163 196.526L371.256 168.115L344.038 153.365L350.439 122.802L320.528 116.395L318.412 85.5659L287.8 87.7182L277.253 58.5601L247.844 69.3979L229.231 44L203.354 63.4092L177.477 44L158.827 69.3979L129.455 58.5601L118.946 87.6803L88.3344 85.5279L86.1801 116.395L56.2697 122.802L62.6701 153.365L35.4276 168.153L50.5456 196.564L28.0001 219.354L50.5456 242.144L35.5153 270.555L62.7578 285.343L56.3574 315.906L86.2678 322.313L88.3846 353.142L118.996 350.99L129.505 380.11L158.914 369.272L177.477 394.708L203.354 375.248L229.244 394.708L247.882 369.298L277.253 380.097L287.775 350.977L318.374 353.13L320.491 322.3L350.401 315.894L344.001 285.33L371.243 270.542L356.163 242.106ZM353.658 197.248C353.658 197.02 353.595 196.792 353.558 196.564L354.059 196.843L353.658 197.248ZM53.0507 197.197L52.6499 196.792L53.1509 196.514C53.0507 196.792 53.0507 197.02 53.0507 197.197ZM53.0507 241.371C53.0507 241.599 53.1133 241.827 53.1509 242.043L52.6499 241.777L53.0507 241.371ZM203.354 372.919H203.968L203.354 373.754L202.74 372.919H203.354ZM353.72 241.422L354.121 241.827L353.62 242.093C353.658 241.878 353.658 241.65 353.72 241.422Z" fill="#FFD916"/>
<rect x="273.471" y="219.146" width="55.375" height="7.38333" rx="3.69167" transform="rotate(-165 273.471 219.146)" fill="#071EC3"/>
<rect x="159" y="186.091" width="35.6129" height="7.38333" rx="3.69167" transform="rotate(-15 159 186.091)" fill="#071EC3"/>
<rect x="165.033" y="198.616" width="35.6129" height="7.38333" rx="3.69167" transform="rotate(-60 165.033 198.616)" fill="#071EC3"/>
<rect x="178.139" y="203.31" width="35.6129" height="7.38333" rx="3.69167" transform="rotate(-105 178.139 203.31)" fill="#071EC3"/>
<rect x="190.65" y="197.238" width="35.6129" height="7.38333" rx="3.69167" transform="rotate(-150 190.65 197.238)" fill="#071EC3"/>
</svg>
