<svg width="441" height="421" viewBox="0 0 441 421" fill="none" xmlns="http://www.w3.org/2000/svg">
<path d="M176.775 100.859L188.166 89.3445L176.775 77.8297L184.401 63.4745L170.649 56.0219L173.883 40.5793L158.77 37.3423L157.701 21.7654L142.233 22.8529L136.905 8.12035L122.045 13.5963L112.641 0.763672L99.5663 10.5704L86.4915 0.763672L77.0682 13.5963L62.2277 8.12035L56.9181 22.8337L41.451 21.7462L40.3625 37.3423L25.2499 40.5793L28.4838 56.0219L14.7192 63.4937L22.3577 77.8488L10.9663 89.3636L22.3577 100.878L14.7635 115.234L28.5281 122.705L25.2942 138.148L40.4068 141.385L41.4763 156.962L56.9434 155.874L62.253 170.588L77.1125 165.112L86.4915 177.964L99.5663 168.131L112.647 177.964L122.064 165.125L136.905 170.581L142.221 155.868L157.682 156.956L158.751 141.379L173.864 138.142L170.63 122.699L184.394 115.227L176.775 100.859ZM99.5663 166.954H99.8764L99.5663 167.376L99.2562 166.954H99.5663ZM175.541 100.514L175.743 100.719L175.49 100.853C175.509 100.744 175.509 100.629 175.541 100.514Z" fill="#FF1A87"/>
<path d="M429.331 277.71L440.722 266.195L429.331 254.68L436.957 240.325L423.205 232.872L426.439 217.43L411.326 214.193L410.257 198.616L394.79 199.703L389.461 184.971L374.602 190.447L365.197 177.614L352.122 187.421L339.048 177.614L329.624 190.447L314.784 184.971L309.474 199.684L294.007 198.597L292.919 214.193L277.806 217.43L281.04 232.872L267.275 240.344L274.914 254.699L263.522 266.214L274.914 277.729L267.32 292.084L281.084 299.556L277.85 314.998L292.963 318.235L294.032 333.812L309.5 332.725L314.809 347.438L329.669 341.962L339.048 354.814L352.122 344.982L365.204 354.814L374.621 341.975L389.461 347.432L394.777 332.718L410.238 333.806L411.307 318.229L426.42 314.992L423.186 299.549L436.951 292.078L429.331 277.71ZM352.122 343.805H352.433L352.122 344.227L351.812 343.805H352.122ZM428.097 277.364L428.299 277.569L428.046 277.703C428.065 277.594 428.065 277.479 428.097 277.364Z" fill="#FF1A87"/>
<path d="M329.035 268.272L351.581 245.482L329.035 222.692L344.128 194.281L316.911 179.531L323.311 148.968L293.401 142.561L291.284 111.732L260.672 113.884L250.126 84.7261L220.716 95.5639L202.104 70.166L176.227 89.5752L150.349 70.166L131.699 95.5639L102.327 84.7261L91.8187 113.846L61.2069 111.694L59.0525 142.561L29.1421 148.968L35.5426 179.531L8.30006 194.319L23.4181 222.73L0.872559 245.52L23.4181 268.31L8.38773 296.721L35.6302 311.509L29.2298 342.072L59.1402 348.479L61.257 379.308L91.8688 377.156L102.378 406.276L131.787 395.438L150.349 420.874L176.227 401.414L202.116 420.874L220.754 395.464L250.126 406.263L260.647 377.143L291.246 379.296L293.363 348.466L323.274 342.06L316.873 311.496L344.116 296.708L329.035 268.272ZM326.53 223.414C326.53 223.186 326.468 222.958 326.43 222.73L326.931 223.009L326.53 223.414ZM25.9231 223.363L25.5223 222.958L26.0233 222.68C25.9231 222.958 25.9231 223.186 25.9231 223.363ZM25.9231 267.537C25.9231 267.765 25.9858 267.993 26.0233 268.209L25.5223 267.943L25.9231 267.537ZM176.227 399.085H176.84L176.227 399.92L175.613 399.085H176.227ZM326.593 267.588L326.994 267.993L326.493 268.259C326.53 268.044 326.53 267.816 326.593 267.588Z" fill="#FFD916"/>
<rect x="245.509" y="262.777" width="55.375" height="7.38333" rx="3.69167" transform="rotate(-150 245.509 262.777)" fill="#071EC3"/>
<rect x="143.495" y="201.22" width="35.6129" height="7.38333" rx="3.69167" fill="#071EC3"/>
<rect x="146.081" y="214.88" width="35.6129" height="7.38333" rx="3.69167" transform="rotate(-45 146.081 214.88)" fill="#071EC3"/>
<rect x="157.524" y="222.807" width="35.6129" height="7.38333" rx="3.69167" transform="rotate(-90 157.524 222.807)" fill="#071EC3"/>
<rect x="171.181" y="220.179" width="35.6129" height="7.38333" rx="3.69167" transform="rotate(-135 171.181 220.179)" fill="#071EC3"/>
</svg>
