<svg width="468" height="396" viewBox="0 0 468 396" fill="none" xmlns="http://www.w3.org/2000/svg">
<path d="M457.472 182.866C460.2 183.362 462.669 184.809 464.447 186.956C466.226 189.103 467.2 191.812 467.2 194.61C467.2 197.409 466.226 200.118 464.447 202.265C462.669 204.411 460.2 205.859 457.472 206.354C459.824 207.579 461.7 209.564 462.802 211.993C463.904 214.421 464.168 217.152 463.55 219.75C462.933 222.347 461.47 224.661 459.397 226.32C457.323 227.979 454.758 228.889 452.112 228.903H451.865C453.568 230.832 454.604 233.266 454.817 235.841C455.03 238.415 454.408 240.99 453.046 243.177C451.684 245.364 449.655 247.045 447.265 247.967C444.874 248.889 442.251 249.002 439.791 248.29C440.813 250.63 441.063 253.239 440.504 255.733C439.946 258.228 438.608 260.475 436.688 262.144C434.769 263.812 432.369 264.814 429.842 265.002C427.316 265.19 424.796 264.553 422.655 263.186C422.744 263.75 422.79 264.32 422.795 264.891C422.795 267.367 422.033 269.781 420.615 271.8C419.196 273.82 417.191 275.344 414.876 276.162C412.562 276.98 410.052 277.051 407.696 276.367C405.339 275.682 403.252 274.274 401.722 272.339C401.474 275.106 400.277 277.698 398.339 279.67C396.401 281.642 393.842 282.87 391.103 283.142C388.365 283.415 385.618 282.715 383.335 281.162C381.053 279.61 379.379 277.303 378.6 274.639C377.821 277.303 376.147 279.61 373.865 281.162C371.582 282.715 368.835 283.415 366.097 283.142C363.358 282.87 360.799 281.642 358.861 279.67C356.923 277.698 355.726 275.106 355.478 272.339C353.948 274.275 351.86 275.682 349.503 276.367C347.145 277.052 344.636 276.98 342.321 276.161C340.006 275.342 338.001 273.817 336.583 271.796C335.164 269.776 334.404 267.361 334.405 264.885C334.41 264.314 334.456 263.744 334.545 263.179C332.404 264.54 329.887 265.172 327.364 264.982C324.841 264.792 322.445 263.791 320.528 262.125C318.61 260.459 317.272 258.216 316.711 255.726C316.15 253.235 316.394 250.629 317.409 248.29C314.95 248.997 312.33 248.88 309.942 247.957C307.555 247.033 305.528 245.353 304.168 243.168C302.807 240.983 302.185 238.411 302.395 235.839C302.606 233.267 303.637 230.833 305.335 228.903H305.088C302.431 228.903 299.851 227.999 297.764 226.338C295.678 224.677 294.206 222.355 293.587 219.746C292.968 217.137 293.237 214.394 294.351 211.959C295.465 209.524 297.359 207.538 299.728 206.322C297 205.827 294.531 204.379 292.753 202.233C290.974 200.086 290 197.377 290 194.578C290 191.78 290.974 189.071 292.753 186.924C294.531 184.777 297 183.33 299.728 182.834C297.359 181.619 295.465 179.633 294.351 177.198C293.237 174.762 292.968 172.019 293.587 169.411C294.206 166.802 295.678 164.48 297.764 162.819C299.851 161.158 302.431 160.254 305.088 160.254H305.335C303.661 158.321 302.65 155.895 302.453 153.336C302.255 150.777 302.881 148.221 304.238 146.05C305.594 143.879 307.609 142.208 309.982 141.286C312.355 140.363 314.96 140.239 317.409 140.931C316.396 138.592 316.154 135.987 316.716 133.499C317.279 131.01 318.617 128.77 320.535 127.106C322.452 125.442 324.848 124.442 327.369 124.254C329.891 124.066 332.406 124.699 334.545 126.06C334.456 125.496 334.41 124.926 334.405 124.355C334.404 121.879 335.164 119.463 336.583 117.443C338.001 115.423 340.006 113.898 342.321 113.079C344.636 112.26 347.145 112.188 349.503 112.873C351.86 113.557 353.948 114.965 355.478 116.9C355.719 114.131 356.911 111.535 358.846 109.557C360.782 107.58 363.34 106.347 366.08 106.07C368.82 105.793 371.57 106.49 373.855 108.04C376.141 109.59 377.819 111.897 378.6 114.562C379.378 111.898 381.052 109.591 383.334 108.039C385.616 106.486 388.362 105.786 391.101 106.057C393.839 106.329 396.398 107.556 398.337 109.527C400.276 111.498 401.473 114.089 401.722 116.856C403.252 114.92 405.34 113.513 407.697 112.828C410.055 112.143 412.564 112.215 414.879 113.034C417.194 113.853 419.199 115.378 420.617 117.399C422.036 119.419 422.796 121.834 422.795 124.31C422.79 124.881 422.744 125.451 422.655 126.016C424.797 124.653 427.315 124.021 429.839 124.21C432.363 124.4 434.76 125.402 436.678 127.07C438.596 128.737 439.934 130.981 440.494 133.473C441.054 135.965 440.808 138.572 439.791 140.912C442.247 140.21 444.861 140.331 447.244 141.254C449.626 142.178 451.648 143.855 453.007 146.035C454.366 148.216 454.99 150.782 454.784 153.349C454.578 155.917 453.554 158.348 451.865 160.279H452.112C454.769 160.28 457.349 161.183 459.436 162.844C461.522 164.506 462.994 166.828 463.613 169.436C464.232 172.045 463.963 174.788 462.849 177.223C461.735 179.659 459.841 181.644 457.472 182.86V182.866Z" fill="#FF5903"/>
<path d="M167.472 76.8664C170.2 77.3618 172.669 78.8093 174.447 80.956C176.226 83.1027 177.2 85.812 177.2 88.6103C177.2 91.4086 176.226 94.1179 174.447 96.2646C172.669 98.4112 170.2 99.8588 167.472 100.354C169.824 101.579 171.7 103.564 172.802 105.993C173.904 108.421 174.168 111.152 173.55 113.75C172.933 116.347 171.47 118.661 169.397 120.32C167.323 121.979 164.758 122.889 162.112 122.903H161.865C163.568 124.832 164.604 127.266 164.817 129.841C165.03 132.415 164.408 134.99 163.046 137.177C161.684 139.364 159.655 141.045 157.265 141.967C154.874 142.889 152.251 143.002 149.791 142.29C150.813 144.63 151.063 147.239 150.504 149.733C149.946 152.228 148.608 154.475 146.688 156.144C144.769 157.812 142.369 158.814 139.842 159.002C137.316 159.19 134.796 158.553 132.655 157.186C132.744 157.75 132.79 158.32 132.795 158.891C132.795 161.367 132.033 163.781 130.615 165.8C129.196 167.82 127.191 169.344 124.876 170.162C122.562 170.98 120.052 171.051 117.696 170.367C115.339 169.682 113.252 168.274 111.722 166.339C111.474 169.106 110.277 171.698 108.339 173.67C106.401 175.642 103.842 176.87 101.103 177.142C98.3647 177.415 95.6177 176.715 93.3355 175.162C91.0532 173.61 89.3786 171.303 88.6 168.639C87.8214 171.303 86.1468 173.61 83.8645 175.162C81.5823 176.715 78.8353 177.415 76.0966 177.142C73.358 176.87 70.7992 175.642 68.8609 173.67C66.9226 171.698 65.7261 169.106 65.4776 166.339C63.9479 168.275 61.8599 169.682 59.5027 170.367C57.1455 171.052 54.6357 170.98 52.3209 170.161C50.0061 169.342 48.0008 167.817 46.5826 165.796C45.1645 163.776 44.4036 161.361 44.4055 158.885C44.4098 158.314 44.4564 157.744 44.5447 157.179C42.4037 158.54 39.887 159.172 37.364 158.982C34.8411 158.792 32.445 157.791 30.5275 156.125C28.6101 154.459 27.2725 152.216 26.7111 149.726C26.1497 147.235 26.3941 144.629 27.4085 142.29C24.9497 142.997 22.3298 142.88 19.9422 141.957C17.5547 141.033 15.5284 139.353 14.1676 137.168C12.8068 134.983 12.1849 132.411 12.3954 129.839C12.6058 127.267 13.6373 124.833 15.3348 122.903H15.088C12.4306 122.903 9.85077 121.999 7.76433 120.338C5.67789 118.677 4.20646 116.355 3.58728 113.746C2.96809 111.137 3.23723 108.394 4.35131 105.959C5.46538 103.524 7.35946 101.538 9.72819 100.322C6.99985 99.8268 4.53076 98.3793 2.75252 96.2326C0.974274 94.0859 0 91.3766 0 88.5783C0 85.78 0.974274 83.0708 2.75252 80.9241C4.53076 78.7774 6.99985 77.3298 9.72819 76.8345C7.35946 75.6187 5.46538 73.6331 4.35131 71.1977C3.23723 68.7624 2.96809 66.0193 3.58728 63.4107C4.20646 60.8021 5.67789 58.48 7.76433 56.8188C9.85077 55.1576 12.4306 54.254 15.088 54.2539H15.3348C13.6611 52.3212 12.6503 49.8949 12.4526 47.3357C12.2549 44.7765 12.881 42.2213 14.2376 40.0501C15.5942 37.879 17.6089 36.208 19.982 35.2856C22.3551 34.3632 24.9598 34.2389 27.4085 34.931C26.3963 32.592 26.1537 29.9871 26.7164 27.4987C27.2791 25.0103 28.6174 22.7696 30.5348 21.1058C32.4522 19.4419 34.8476 18.4424 37.3692 18.2543C39.8908 18.0661 42.4058 18.6991 44.5447 20.0603C44.4564 19.4961 44.4098 18.926 44.4055 18.3548C44.4036 15.8788 45.1645 13.4635 46.5826 11.4433C48.0008 9.42308 50.0061 7.89795 52.3209 7.07907C54.6357 6.26018 57.1455 6.18806 59.5027 6.87269C61.8599 7.55732 63.9479 8.96483 65.4776 10.9003C65.7195 8.13144 66.9109 5.53454 68.8464 3.55741C70.7819 1.58028 73.3402 0.346865 76.0801 0.0698322C78.82 -0.207201 81.5698 0.48952 83.8554 2.03986C86.1409 3.5902 87.8189 5.89697 88.6 8.56241C89.3782 5.89819 91.0522 3.59123 93.3339 2.03879C95.6156 0.486344 98.3622 -0.214407 101.101 0.0571807C103.839 0.328768 106.398 1.5557 108.337 3.52671C110.276 5.49772 111.473 8.08946 111.722 10.8556C113.252 8.92011 115.34 7.51262 117.697 6.82799C120.055 6.14336 122.564 6.21546 124.879 7.03435C127.194 7.85323 129.199 9.37836 130.617 11.3986C132.036 13.4188 132.796 15.8341 132.795 18.3101C132.79 18.8813 132.744 19.4514 132.655 20.0156C134.797 18.6534 137.315 18.0207 139.839 18.2104C142.363 18.4001 144.76 19.4023 146.678 21.0696C148.596 22.7368 149.934 24.9813 150.494 27.4729C151.054 29.9646 150.808 32.5719 149.791 34.9118C152.247 34.2105 154.861 34.3306 157.244 35.2542C159.626 36.1777 161.648 37.8551 163.007 40.0354C164.366 42.2157 164.99 44.7815 164.784 47.3492C164.578 49.9168 163.554 52.3481 161.865 54.2794H162.112C164.769 54.2796 167.349 55.1831 169.436 56.8443C171.522 58.5056 172.994 60.8277 173.613 63.4363C174.232 66.0449 173.963 68.788 172.849 71.2233C171.735 73.6586 169.841 75.6442 167.472 76.86V76.8664Z" fill="#FF5903"/>
<path d="M359.456 196.622C364.856 197.602 369.743 200.467 373.262 204.716C376.782 208.965 378.71 214.327 378.71 219.865C378.71 225.403 376.782 230.766 373.262 235.014C369.743 239.263 364.856 242.128 359.456 243.108C364.111 245.532 367.825 249.461 370.006 254.268C372.187 259.074 372.709 264.48 371.487 269.621C370.265 274.762 367.37 279.34 363.266 282.624C359.162 285.908 354.085 287.708 348.848 287.736H348.36C351.73 291.553 353.78 296.372 354.201 301.467C354.623 306.563 353.393 311.658 350.697 315.987C348.002 320.315 343.986 323.643 339.254 325.468C334.523 327.293 329.332 327.517 324.464 326.106C326.486 330.737 326.98 335.902 325.875 340.839C324.769 345.775 322.121 350.223 318.322 353.525C314.522 356.828 309.773 358.811 304.772 359.183C299.772 359.554 294.785 358.294 290.548 355.588C290.723 356.705 290.815 357.833 290.824 358.964C290.825 363.863 289.317 368.642 286.509 372.638C283.702 376.634 279.733 379.651 275.152 381.27C270.571 382.889 265.605 383.031 260.941 381.675C256.277 380.32 252.145 377.535 249.118 373.705C248.626 379.18 246.258 384.311 242.422 388.214C238.586 392.117 233.522 394.547 228.101 395.086C222.681 395.625 217.244 394.239 212.727 391.167C208.21 388.095 204.896 383.529 203.355 378.256C201.814 383.529 198.5 388.095 193.983 391.167C189.466 394.239 184.029 395.625 178.609 395.086C173.188 394.547 168.124 392.117 164.288 388.214C160.452 384.311 158.084 379.18 157.592 373.705C154.564 377.535 150.432 380.321 145.766 381.676C141.101 383.031 136.134 382.888 131.552 381.268C126.971 379.647 123.002 376.628 120.195 372.63C117.388 368.632 115.883 363.851 115.886 358.951C115.895 357.821 115.987 356.692 116.162 355.576C111.924 358.269 106.943 359.519 101.95 359.143C96.9567 358.768 92.2143 356.785 88.4194 353.488C84.6244 350.191 81.977 345.752 80.8659 340.823C79.7548 335.895 80.2387 330.736 82.2463 326.106C77.3798 327.506 72.1946 327.275 67.4692 325.448C62.7439 323.62 58.7334 320.294 56.0401 315.969C53.3469 311.645 52.1161 306.555 52.5326 301.464C52.9491 296.373 54.9905 291.556 58.3502 287.736H57.8618C52.6024 287.736 47.4964 285.948 43.367 282.66C39.2375 279.372 36.3253 274.776 35.0998 269.613C33.8744 264.45 34.407 259.021 36.612 254.201C38.8169 249.381 42.5657 245.451 47.2538 243.045C41.8539 242.065 36.9672 239.2 33.4477 234.951C29.9283 230.702 28 225.34 28 219.802C28 214.264 29.9283 208.901 33.4477 204.653C36.9672 200.404 41.8539 197.539 47.2538 196.559C42.5657 194.153 38.8169 190.223 36.612 185.403C34.407 180.583 33.8744 175.154 35.0998 169.991C36.3253 164.828 39.2375 160.232 43.367 156.944C47.4964 153.656 52.6024 151.868 57.8618 151.868H58.3502C55.0378 148.043 53.0372 143.241 52.6459 138.175C52.2547 133.11 53.4937 128.053 56.1787 123.756C58.8637 119.459 62.8512 116.152 67.5479 114.326C72.2447 112.501 77.3998 112.255 82.2463 113.624C80.2429 108.995 79.7628 103.84 80.8764 98.9146C81.9901 93.9896 84.6388 89.555 88.4337 86.2618C92.2285 82.9687 96.9695 80.9907 101.96 80.6183C106.951 80.2458 111.928 81.4987 116.162 84.1927C115.987 83.076 115.895 81.9477 115.886 80.8172C115.883 75.9168 117.388 71.1364 120.195 67.1381C123.002 63.1398 126.971 60.1213 131.552 58.5005C136.134 56.8798 141.101 56.7371 145.766 58.0921C150.432 59.4471 154.564 62.2328 157.592 66.0635C158.07 60.5834 160.428 55.4437 164.259 51.5306C168.09 47.6175 173.153 45.1763 178.576 44.628C183.999 44.0797 189.441 45.4587 193.965 48.5271C198.488 51.5955 201.809 56.161 203.355 61.4363C204.895 56.1634 208.208 51.5975 212.724 48.5249C217.24 45.4524 222.676 44.0655 228.096 44.603C233.516 45.1405 238.58 47.5688 242.417 51.4698C246.255 55.3708 248.624 60.5003 249.118 65.975C252.146 62.1443 256.278 59.3586 260.944 58.0036C265.609 56.6486 270.576 56.7913 275.158 58.412C279.739 60.0328 283.708 63.0513 286.515 67.0496C289.322 71.0479 290.827 75.8283 290.824 80.7287C290.815 81.8592 290.723 82.9875 290.548 84.1042C294.787 81.4083 299.77 80.156 304.766 80.5314C309.761 80.9069 314.506 82.8904 318.302 86.1902C322.098 89.49 324.745 93.9322 325.854 98.8636C326.963 103.795 326.476 108.955 324.464 113.586C329.324 112.198 334.498 112.436 339.213 114.264C343.928 116.092 347.93 119.412 350.62 123.727C353.31 128.042 354.544 133.12 354.136 138.202C353.729 143.284 351.702 148.096 348.36 151.918H348.848C354.108 151.919 359.214 153.707 363.343 156.995C367.472 160.283 370.385 164.878 371.61 170.041C372.836 175.204 372.303 180.633 370.098 185.453C367.893 190.273 364.144 194.203 359.456 196.609V196.622Z" fill="#F2F2F2"/>
<rect x="273.471" y="219.346" width="55.375" height="7.38333" rx="3.69167" transform="rotate(-165 273.471 219.346)" fill="#071EC3"/>
<rect x="159" y="186.291" width="35.6129" height="7.38333" rx="3.69167" transform="rotate(-15 159 186.291)" fill="#071EC3"/>
<rect x="165.033" y="198.816" width="35.6129" height="7.38333" rx="3.69167" transform="rotate(-60 165.033 198.816)" fill="#071EC3"/>
<rect x="178.139" y="203.51" width="35.6129" height="7.38333" rx="3.69167" transform="rotate(-105 178.139 203.51)" fill="#071EC3"/>
<rect x="190.65" y="197.438" width="35.6129" height="7.38333" rx="3.69167" transform="rotate(-150 190.65 197.438)" fill="#071EC3"/>
</svg>
