<svg width="468" height="396" viewBox="0 0 468 396" fill="none" xmlns="http://www.w3.org/2000/svg">
<path d="M5.99995 89.1C5.99995 43.2051 43.2051 6 89.1 6C134.995 6 172.2 43.2051 172.2 89.1C172.2 134.995 134.995 172.2 89.1 172.2C43.2051 172.2 5.99995 134.995 5.99995 89.1Z" fill="#FFD916"/>
<path d="M296 195.1C296 149.205 333.205 112 379.1 112C424.995 112 462.2 149.205 462.2 195.1C462.2 240.995 424.995 278.2 379.1 278.2C333.205 278.2 296 240.995 296 195.1Z" fill="#FFD916"/>
<path d="M39 220.5C39 130.201 112.201 57 202.5 57C292.799 57 366 130.201 366 220.5C366 310.799 292.799 384 202.5 384C112.201 384 39 310.799 39 220.5Z" fill="#FF5903"/>
<rect x="273.471" y="219.346" width="55.375" height="7.38333" rx="3.69167" transform="rotate(-165 273.471 219.346)" fill="#071EC3"/>
<rect x="159" y="186.291" width="35.6129" height="7.38333" rx="3.69167" transform="rotate(-15 159 186.291)" fill="#071EC3"/>
<rect x="165.033" y="198.816" width="35.6129" height="7.38333" rx="3.69167" transform="rotate(-60 165.033 198.816)" fill="#071EC3"/>
<rect x="178.139" y="203.51" width="35.6129" height="7.38333" rx="3.69167" transform="rotate(-105 178.139 203.51)" fill="#071EC3"/>
<rect x="190.65" y="197.438" width="35.6129" height="7.38333" rx="3.69167" transform="rotate(-150 190.65 197.438)" fill="#071EC3"/>
</svg>
