<svg width="279" height="280" viewBox="0 0 279 280" fill="none" xmlns="http://www.w3.org/2000/svg">
<path d="M272.784 35.7704C275.111 33.4334 276.571 30.3718 276.924 27.0915C277.278 23.8112 276.502 20.5084 274.726 17.7289C272.95 14.9493 270.28 12.8593 267.157 11.8041C264.034 10.7489 260.645 10.7916 257.549 11.9252C256.927 9.27599 255.573 6.85562 253.64 4.9413C251.708 3.02698 249.276 1.69609 246.623 1.10107C243.969 0.50604 241.203 0.670929 238.639 1.57685C236.075 2.48277 233.818 4.09309 232.126 6.2234C230.772 4.51815 229.051 3.14083 227.091 2.19413C225.131 1.24742 222.982 0.75574 220.806 0.75574C218.63 0.75574 216.481 1.24742 214.521 2.19413C212.561 3.14083 210.84 4.51815 209.486 6.2234C208.131 4.51936 206.409 3.14318 204.449 2.19729C202.489 1.2514 200.341 0.760173 198.166 0.760173C195.99 0.760173 193.842 1.2514 191.882 2.19729C189.922 3.14318 188.2 4.51936 186.845 6.2234C185.491 4.51815 183.77 3.14083 181.81 2.19413C179.85 1.24742 177.701 0.75574 175.525 0.75574C173.349 0.75574 171.201 1.24742 169.24 2.19413C167.28 3.14083 165.559 4.51815 164.205 6.2234C162.85 4.51936 161.128 3.14318 159.168 2.19729C157.208 1.2514 155.061 0.760173 152.885 0.760173C150.709 0.760173 148.561 1.2514 146.601 2.19729C144.641 3.14318 142.92 4.51936 141.565 6.2234C140.21 4.51815 138.489 3.14083 136.529 2.19413C134.569 1.24742 132.421 0.75574 130.244 0.75574C128.068 0.75574 125.92 1.24742 123.96 2.19413C122 3.14083 120.278 4.51815 118.924 6.2234C117.569 4.51936 115.848 3.14318 113.888 2.19729C111.928 1.2514 109.78 0.760173 107.604 0.760173C105.428 0.760173 103.28 1.2514 101.32 2.19729C99.3603 3.14318 97.6387 4.51936 96.2837 6.2234C94.9295 4.51815 93.2082 3.14083 91.2482 2.19413C89.2881 1.24742 87.1399 0.75574 84.9635 0.75574C82.7872 0.75574 80.6389 1.24742 78.6789 2.19413C76.7188 3.14083 74.9975 4.51815 73.6433 6.2234C72.2883 4.51936 70.5668 3.14318 68.6068 2.19729C66.6469 1.2514 64.499 0.760173 62.3231 0.760173C60.1472 0.760173 57.9994 1.2514 56.0394 2.19729C54.0795 3.14318 52.3579 4.51936 51.0029 6.2234C49.4022 4.20683 47.293 2.65407 44.8929 1.7252C42.4929 0.796339 39.8887 0.524979 37.3489 0.9391C34.8092 1.35322 32.4257 2.43784 30.4443 4.08113C28.4628 5.72442 26.9551 7.86693 26.0766 10.2878C23.1641 8.77405 19.8244 8.29528 16.6045 8.92988C13.3846 9.56448 10.4755 11.2748 8.35383 13.7807C6.23213 16.2866 5.02363 19.4394 4.92632 22.7227C4.829 26.0059 5.84865 29.2249 7.81819 31.8523C4.95073 33.4255 2.69957 35.9236 1.43104 38.9403C0.162509 41.9569 -0.0487293 45.3145 0.831699 48.4666C1.71213 51.6187 3.6324 54.3798 6.28004 56.3006C8.92768 58.2214 12.1468 59.1888 15.4137 59.0455C15.2556 62.0633 16.0438 65.055 17.6681 67.6024C19.2923 70.1498 21.6713 72.1255 24.4724 73.2531C27.2735 74.3807 30.3567 74.6038 33.2908 73.8914C36.2249 73.1789 38.8631 71.5665 40.8367 69.2795C42.1409 71.1001 43.8493 72.5931 45.8276 73.6409C47.806 74.6888 50.0002 75.2629 52.2378 75.3182C54.4753 75.3734 56.6952 74.9083 58.7227 73.9594C60.7503 73.0105 62.5302 71.6037 63.9226 69.8497C65.2776 71.5537 66.9991 72.9299 68.9591 73.8758C70.919 74.8217 73.0669 75.3129 75.2428 75.3129C77.4187 75.3129 79.5665 74.8217 81.5265 73.8758C83.4864 72.9299 85.208 71.5537 86.563 69.8497C88.8148 72.6886 92.0489 74.5785 95.6258 75.1456C99.2028 75.7128 102.862 74.9159 105.88 72.9126C106.586 73.8309 107.4 74.6605 108.305 75.3833C106.601 76.7388 105.225 78.4616 104.279 80.4235C103.334 82.3853 102.842 84.5355 102.842 86.7138C102.842 88.8922 103.334 91.0424 104.279 93.0042C105.225 94.9661 106.601 96.6889 108.305 98.0443C106.603 99.4006 105.228 101.124 104.283 103.085C103.338 105.047 102.847 107.197 102.847 109.375C102.847 111.553 103.338 113.703 104.283 115.664C105.228 117.626 106.603 119.349 108.305 120.705C106.601 122.061 105.225 123.784 104.279 125.745C103.334 127.707 102.842 129.858 102.842 132.036C102.842 134.214 103.334 136.364 104.279 138.326C105.225 140.288 106.601 142.011 108.305 143.366C106.603 144.723 105.228 146.446 104.283 148.407C103.338 150.369 102.847 152.519 102.847 154.697C102.847 156.875 103.338 159.025 104.283 160.986C105.228 162.948 106.603 164.671 108.305 166.027C106.601 167.383 105.225 169.106 104.279 171.067C103.334 173.029 102.842 175.18 102.842 177.358C102.842 179.536 103.334 181.686 104.279 183.648C105.225 185.61 106.601 187.333 108.305 188.688C106.603 190.045 105.228 191.768 104.283 193.729C103.338 195.691 102.847 197.841 102.847 200.019C102.847 202.197 103.338 204.347 104.283 206.308C105.228 208.27 106.603 209.993 108.305 211.349C106.603 212.706 105.228 214.429 104.283 216.39C103.338 218.352 102.847 220.502 102.847 222.68C102.847 224.858 103.338 227.008 104.283 228.969C105.228 230.931 106.603 232.654 108.305 234.01C106.163 235.71 104.546 237.982 103.641 240.564C102.736 243.145 102.58 245.931 103.192 248.597C103.803 251.264 105.157 253.703 107.096 255.631C109.035 257.559 111.48 258.898 114.148 259.493C113.055 262.602 113.053 265.991 114.143 269.101C115.233 272.212 117.349 274.857 120.143 276.602C122.937 278.347 126.241 279.086 129.511 278.699C132.782 278.312 135.822 276.82 138.132 274.471C140.123 276.979 142.888 278.757 145.994 279.526C149.101 280.295 152.375 280.012 155.304 278.722C158.234 277.432 160.654 275.207 162.186 272.394C163.718 269.582 164.277 266.341 163.774 263.177C166.649 262.919 169.382 261.807 171.62 259.982C173.858 258.157 175.5 255.704 176.334 252.938C177.168 250.172 177.156 247.219 176.3 244.46C175.444 241.7 173.783 239.26 171.53 237.453C173.279 236.116 174.699 234.397 175.683 232.428C176.668 230.458 177.19 228.289 177.211 226.087C177.231 223.885 176.749 221.707 175.801 219.719C174.854 217.731 173.465 215.986 171.742 214.617C173.444 213.261 174.819 211.538 175.764 209.576C176.709 207.614 177.2 205.464 177.2 203.286C177.2 201.109 176.709 198.959 175.764 196.997C174.819 195.035 173.444 193.312 171.742 191.956C173.446 190.601 174.822 188.878 175.768 186.916C176.713 184.954 177.205 182.804 177.205 180.625C177.205 178.447 176.713 176.297 175.768 174.335C174.822 172.373 173.446 170.65 171.742 169.295C173.444 167.939 174.819 166.216 175.764 164.254C176.709 162.292 177.2 160.142 177.2 157.964C177.2 155.787 176.709 153.637 175.764 151.675C174.819 149.713 173.444 147.99 171.742 146.634C173.446 145.278 174.822 143.556 175.768 141.594C176.713 139.632 177.205 137.482 177.205 135.303C177.205 133.125 176.713 130.975 175.768 129.013C174.822 127.051 173.446 125.328 171.742 123.973C173.444 122.617 174.819 120.894 175.764 118.932C176.709 116.97 177.2 114.82 177.2 112.642C177.2 110.465 176.709 108.315 175.764 106.353C174.819 104.391 173.444 102.668 171.742 101.312C173.446 99.9565 174.822 98.2336 175.768 96.2718C176.713 94.3099 177.205 92.1597 177.205 89.9814C177.205 87.8031 176.713 85.6529 175.768 83.691C174.822 81.7292 173.446 80.0063 171.742 78.6509C173.047 77.6036 174.164 76.3402 175.043 74.9155C177.796 75.7185 180.726 75.6814 183.458 74.8089C186.19 73.9365 188.6 72.2683 190.38 70.0178C191.735 71.7218 193.457 73.098 195.417 74.0439C197.377 74.9898 199.524 75.481 201.7 75.481C203.876 75.481 206.024 74.9898 207.984 74.0439C209.944 73.098 211.666 71.7218 213.021 70.0178C214.389 71.7453 216.133 73.1368 218.121 74.086C220.109 75.0352 222.287 75.5169 224.489 75.4943C226.692 75.4718 228.859 74.9455 230.827 73.9558C232.795 72.966 234.511 71.539 235.844 69.7839C237.666 72.0572 240.132 73.7273 242.918 74.576C245.705 75.4246 248.682 75.4122 251.461 74.5405C254.24 73.6689 256.692 71.9784 258.496 69.69C260.3 67.4016 261.373 64.6217 261.573 61.7136C264.799 62.3122 268.131 61.7971 271.026 60.2526C273.921 58.7082 276.206 56.2259 277.507 53.2121C278.809 50.1983 279.05 46.8316 278.19 43.663C277.331 40.4944 275.422 37.7117 272.777 35.7704H272.784Z" fill="#F2F2F2"/>
</svg>
