<svg width="277" height="277" viewBox="0 0 277 277" fill="none" xmlns="http://www.w3.org/2000/svg">
<path d="M276.866 38.3119V38.0764C276.866 37.8053 276.866 37.527 276.866 37.2558C276.844 27.604 272.976 18.3561 266.113 11.5466C259.25 4.73717 249.955 0.923865 240.271 0.945629C230.587 0.967393 221.309 4.82244 214.477 11.6627C207.645 18.503 203.819 27.7681 203.841 37.4199V37.4699C203.841 37.7054 203.841 37.948 203.841 38.1835V41.209C203.339 58.0433 196.277 74.0205 184.153 85.7512C172.028 97.482 155.796 104.043 138.898 104.043C122.001 104.043 105.768 97.482 93.6442 85.7512C81.5199 74.0205 74.4579 58.0433 73.9562 41.209V38.1835C73.9562 37.948 73.9562 37.7054 73.9562 37.4699C74.0037 27.8096 70.199 18.5261 63.3791 11.6617C56.5592 4.79738 47.2827 0.91445 37.5904 0.867137C27.8982 0.819824 18.584 4.612 11.697 11.4094C4.80993 18.2069 0.914169 27.4528 0.866699 37.1131C0.866699 37.4342 0.866699 37.7553 0.866699 38.0764C0.866699 38.1549 0.866699 38.2334 0.866699 38.3119C0.866699 38.6045 0.866699 38.9042 0.866699 39.1967C0.866699 39.4893 0.866699 39.789 0.866699 40.0887C1.05317 76.2694 15.5829 110.91 41.2882 136.457C50.9169 146.061 61.9153 154.195 73.9276 160.597C93.9214 171.2 116.222 176.745 138.87 176.745C161.517 176.745 183.818 171.2 203.812 160.597V240.474C203.812 250.126 207.659 259.383 214.506 266.208C221.354 273.033 230.641 276.867 240.325 276.867C250.008 276.867 259.295 273.033 266.143 266.208C272.99 259.383 276.837 250.126 276.837 240.474V40.0887C276.837 39.789 276.837 39.4964 276.837 39.1967C276.837 38.897 276.873 38.6045 276.866 38.3119Z" fill="#F2F2F2"/>
</svg>
