<svg width="226" height="276" viewBox="0 0 226 276" fill="none" xmlns="http://www.w3.org/2000/svg">
<path d="M189.29 73.8267C198.989 73.8267 208.29 69.9619 215.148 63.0823C222.006 56.2028 225.859 46.8722 225.859 37.1431C225.859 27.414 222.006 18.0834 215.148 11.2039C208.29 4.32434 198.989 0.459473 189.29 0.459473L36.8283 0.459473C27.1359 0.459468 17.84 4.3194 10.9831 11.1911C4.12621 18.0629 0.269268 27.3843 0.259766 37.1071H0.259766L0.259766 138.052L0.259766 238.975C0.259766 248.704 4.11251 258.035 10.9704 264.914C17.8284 271.794 27.1297 275.659 36.8283 275.659H189.29C198.989 275.659 208.29 271.794 215.148 264.914C222.006 258.035 225.859 248.704 225.859 238.975C225.859 229.246 222.006 219.915 215.148 213.036C208.29 206.156 198.989 202.291 189.29 202.291H73.4327V174.75H189.29C198.989 174.75 208.29 170.885 215.148 164.005C222.006 157.126 225.859 147.795 225.859 138.066C225.859 128.337 222.006 119.007 215.148 112.127C208.29 105.247 198.989 101.383 189.29 101.383L73.4327 101.383V73.8267L189.29 73.8267Z" fill="#F2F2F2"/>
</svg>
