<svg width="226" height="276" viewBox="0 0 226 276" fill="none" xmlns="http://www.w3.org/2000/svg">
<path d="M217.546 232.336C219.492 229.695 220.468 226.462 220.308 223.183C220.147 219.904 218.861 216.782 216.667 214.343C214.472 211.905 211.504 210.3 208.264 209.801C205.025 209.302 201.712 209.938 198.887 211.603C197.986 209.234 196.471 207.148 194.496 205.562C192.521 203.976 190.159 202.947 187.655 202.58C185.15 202.214 182.593 202.524 180.247 203.479C177.902 204.433 175.854 205.997 174.315 208.01C172.988 206.278 171.281 204.875 169.326 203.909C167.371 202.943 165.22 202.441 163.04 202.441C160.86 202.441 158.71 202.943 156.755 203.909C154.8 204.875 153.093 206.278 151.766 208.01C150.44 206.278 148.734 204.875 146.779 203.909C144.825 202.943 142.675 202.441 140.495 202.441C138.316 202.441 136.166 202.943 134.211 203.909C132.257 204.875 130.551 206.278 129.225 208.01C127.898 206.278 126.191 204.875 124.236 203.909C122.281 202.943 120.13 202.441 117.95 202.441C115.77 202.441 113.62 202.943 111.665 203.909C109.71 204.875 108.003 206.278 106.676 208.01C105.349 206.278 103.642 204.875 101.687 203.909C99.7323 202.943 97.5816 202.441 95.4018 202.441C93.2219 202.441 91.0712 202.943 89.1162 203.909C87.1612 204.875 85.4542 206.278 84.1275 208.01C82.8 206.278 81.093 204.876 79.1381 203.91C77.1833 202.944 75.0329 202.441 72.8532 202.44H72.6953C71.756 200.001 70.1645 197.868 68.0951 196.274C69.8271 194.948 71.2306 193.24 72.1966 191.282C73.1626 189.325 73.6651 187.171 73.6651 184.987C73.6651 182.804 73.1626 180.65 72.1966 178.693C71.2306 176.735 69.8271 175.027 68.0951 173.701C69.0423 172.968 69.8956 172.121 70.6356 171.178C72.0861 172.514 73.7987 173.533 75.6641 174.17C77.5296 174.807 79.5071 175.047 81.4705 174.876C83.4339 174.705 85.3402 174.126 87.0678 173.176C88.7955 172.227 90.3066 170.927 91.5049 169.36C92.8317 171.092 94.5386 172.495 96.4937 173.461C98.4487 174.427 100.599 174.929 102.779 174.929C104.959 174.929 107.11 174.427 109.065 173.461C111.02 172.495 112.727 171.092 114.054 169.36C115.38 171.092 117.087 172.495 119.042 173.461C120.997 174.427 123.148 174.929 125.328 174.929C127.508 174.929 129.658 174.427 131.613 173.461C133.568 172.495 135.275 171.092 136.602 169.36C137.929 171.092 139.636 172.495 141.591 173.461C143.546 174.427 145.697 174.929 147.876 174.929C150.056 174.929 152.207 174.427 154.162 173.461C156.117 172.495 157.824 171.092 159.151 169.36C160.49 171.11 162.217 172.524 164.196 173.49C166.175 174.457 168.351 174.949 170.552 174.929C172.754 174.909 174.92 174.376 176.881 173.374C178.842 172.371 180.543 170.926 181.85 169.152C183.616 171.432 186.032 173.122 188.778 173.996C191.525 174.871 194.472 174.888 197.228 174.048C199.985 173.207 202.422 171.546 204.215 169.287C206.008 167.028 207.073 164.277 207.269 161.397C210.476 162.035 213.804 161.549 216.694 160.02C219.585 158.491 221.862 156.012 223.143 153C224.425 149.989 224.632 146.627 223.73 143.48C222.828 140.333 220.873 137.593 218.192 135.72C220.518 133.394 221.968 130.333 222.297 127.057C222.625 123.782 221.81 120.494 219.992 117.751C218.173 115.009 215.462 112.982 212.32 112.014C209.178 111.046 205.798 111.198 202.755 112.442C202.121 109.829 200.761 107.449 198.833 105.578C196.905 103.707 194.486 102.421 191.858 101.869C189.23 101.317 186.5 101.522 183.983 102.46C181.466 103.397 179.266 105.03 177.637 107.167C176.311 105.435 174.604 104.032 172.649 103.067C170.694 102.101 168.543 101.599 166.363 101.599C164.183 101.599 162.033 102.101 160.078 103.067C158.123 104.032 156.416 105.435 155.089 107.167C153.762 105.435 152.055 104.032 150.1 103.067C148.145 102.101 145.994 101.599 143.814 101.599C141.635 101.599 139.484 102.101 137.529 103.067C135.574 104.032 133.867 105.435 132.54 107.167C131.214 105.435 129.508 104.032 127.553 103.067C125.599 102.101 123.449 101.599 121.269 101.599C119.09 101.599 116.94 102.101 114.986 103.067C113.031 104.032 111.325 105.435 109.999 107.167C108.672 105.435 106.965 104.032 105.01 103.067C103.055 102.101 100.904 101.599 98.7245 101.599C96.5446 101.599 94.3939 102.101 92.4389 103.067C90.4839 104.032 88.777 105.435 87.4502 107.167C85.6212 104.776 83.0805 103.028 80.1948 102.177C77.3092 101.325 74.228 101.415 71.3963 102.431C70.5083 101.033 69.3811 99.8019 68.0664 98.795C69.7985 97.468 71.202 95.7593 72.168 93.8013C73.134 91.8433 73.6365 89.6888 73.6365 87.5049C73.6365 85.321 73.134 83.1664 72.168 81.2084C71.202 79.2505 69.7985 77.5417 68.0664 76.2147C69.2738 75.2865 70.3274 74.1732 71.1882 72.9161C74.0969 74.1815 77.3446 74.4367 80.4148 73.6411C83.485 72.8454 86.2014 71.0446 88.1319 68.5251C89.4587 70.2571 91.1657 71.6602 93.1207 72.6258C95.0757 73.5914 97.2264 74.0937 99.4062 74.0937C101.586 74.0937 103.737 73.5914 105.692 72.6258C107.647 71.6602 109.354 70.2571 110.681 68.5251C112.007 70.257 113.713 71.6601 115.667 72.6257C117.622 73.5914 119.772 74.0936 121.951 74.0936C124.131 74.0936 126.281 73.5914 128.235 72.6257C130.19 71.6601 131.896 70.257 133.222 68.5251C134.549 70.2571 136.256 71.6602 138.211 72.6258C140.166 73.5914 142.316 74.0937 144.496 74.0937C146.676 74.0937 148.827 73.5914 150.782 72.6258C152.737 71.6602 154.444 70.2571 155.771 68.5251C157.097 70.2571 158.804 71.6602 160.759 72.6258C162.714 73.5914 164.865 74.0937 167.045 74.0937C169.225 74.0937 171.375 73.5914 173.33 72.6258C175.285 71.6602 176.992 70.2571 178.319 68.5251C179.973 70.6887 182.211 72.3321 184.769 73.2603C187.327 74.1885 190.097 74.3626 192.751 73.762C195.404 73.1613 197.83 71.8111 199.741 69.8716C201.652 67.932 202.967 65.4843 203.53 62.8189C206.605 63.957 209.979 63.9963 213.079 62.9304C216.18 61.8645 218.818 59.7587 220.547 56.9692C222.275 54.1798 222.989 50.878 222.566 47.6224C222.144 44.3668 220.611 41.3574 218.228 39.1031C220.862 37.1566 222.745 34.3596 223.559 31.1842C224.373 28.0088 224.069 24.6494 222.697 21.6727C221.325 18.6961 218.969 16.2845 216.028 14.8449C213.087 13.4053 209.74 13.0258 206.552 13.7704C206.268 10.9331 205.141 8.24628 203.316 6.05765C201.491 3.86902 199.051 2.27934 196.314 1.49435C193.577 0.709364 190.667 0.765199 187.962 1.65463C185.256 2.54407 182.88 4.22615 181.14 6.4832C179.828 4.719 178.125 3.28352 176.166 2.28961C174.206 1.29569 172.044 0.770428 169.847 0.755106C167.651 0.739783 165.481 1.23482 163.508 2.2013C161.535 3.16778 159.812 4.57937 158.476 6.32509C157.149 4.59307 155.442 3.18996 153.487 2.22434C151.532 1.25872 149.382 0.756477 147.202 0.756477C145.022 0.756477 142.871 1.25872 140.916 2.22434C138.961 3.18996 137.254 4.59307 135.928 6.32509C134.601 4.59307 132.894 3.18996 130.939 2.22434C128.984 1.25872 126.833 0.756477 124.653 0.756477C122.473 0.756477 120.323 1.25872 118.368 2.22434C116.413 3.18996 114.706 4.59307 113.379 6.32509C112.053 4.59316 110.347 3.19006 108.392 2.22443C106.438 1.2588 104.288 0.75654 102.108 0.75654C99.9288 0.75654 97.7787 1.2588 95.8243 2.22443C93.8698 3.19006 92.1635 4.59316 90.8375 6.32509C89.5107 4.59307 87.8037 3.18996 85.8487 2.22434C83.8937 1.25872 81.7431 0.756477 79.5632 0.756477C77.3833 0.756477 75.2327 1.25872 73.2776 2.22434C71.3226 3.18996 69.6157 4.59307 68.2889 6.32509C66.9523 4.58345 65.2311 3.17549 63.2602 2.21159C61.2892 1.24768 59.1221 0.75404 56.9287 0.769356C54.7353 0.784672 52.5753 1.30853 50.618 2.29986C48.6606 3.2912 46.9592 4.72306 45.647 6.4832C43.9146 4.2202 41.5442 2.52965 38.8421 1.63012C36.1401 0.730601 33.2307 0.66347 30.4902 1.43741C27.7496 2.21135 25.3039 3.79078 23.4693 5.97147C21.6347 8.15217 20.4955 10.8338 20.1991 13.6698C18.1071 13.1703 15.9291 13.153 13.8295 13.6194C11.7299 14.0858 9.76342 15.0235 8.07853 16.362C6.39363 17.7005 5.03429 19.4046 4.10305 21.346C3.17182 23.2873 2.69301 25.415 2.70276 27.5687C2.7022 29.4964 3.09318 31.404 3.85192 33.1757C4.61066 34.9473 5.7213 36.5459 7.11632 37.8742C5.17022 39.0921 3.54761 40.7638 2.38727 42.7464C1.22693 44.7291 0.563369 46.9637 0.453344 49.2591C0.343319 51.5545 0.790099 53.8425 1.75548 55.9273C2.72085 58.0121 4.17611 59.8318 5.99678 61.2307C4.26719 62.5593 2.86605 64.2687 1.90178 66.2264C0.937516 68.1842 0.435979 70.3379 0.435979 72.5208C0.435979 74.7038 0.937516 76.8574 1.90178 78.8152C2.86605 80.7729 4.26719 82.4823 5.99678 83.811C4.26719 85.1396 2.86605 86.849 1.90178 88.8067C0.937516 90.7645 0.435979 92.9182 0.435979 95.1011C0.435979 97.284 0.937516 99.4377 1.90178 101.395C2.86605 103.353 4.26719 105.063 5.99678 106.391C4.26719 107.72 2.86605 109.429 1.90178 111.387C0.937516 113.345 0.435979 115.498 0.435979 117.681C0.435979 119.864 0.937516 122.018 1.90178 123.976C2.86605 125.934 4.26719 127.643 5.99678 128.972C4.26719 130.3 2.86605 132.01 1.90178 133.967C0.937516 135.925 0.435979 138.079 0.435979 140.262C0.435979 142.445 0.937516 144.598 1.90178 146.556C2.86605 148.514 4.26719 150.223 5.99678 151.552C4.26727 152.88 2.86615 154.588 1.90187 156.546C0.937595 158.503 0.436041 160.656 0.436041 162.838C0.436041 165.021 0.937595 167.174 1.90187 169.131C2.86615 171.088 4.26727 172.797 5.99678 174.125C4.26719 175.454 2.86605 177.163 1.90178 179.121C0.937516 181.078 0.435979 183.232 0.435979 185.415C0.435979 187.598 0.937516 189.752 1.90178 191.709C2.86605 193.667 4.26719 195.377 5.99678 196.705C4.26719 198.034 2.86605 199.743 1.90178 201.701C0.937516 203.659 0.435979 205.812 0.435979 207.995C0.435979 210.178 0.937516 212.332 1.90178 214.29C2.86605 216.247 4.26719 217.957 5.99678 219.285C4.10297 220.74 2.60531 222.649 1.64189 224.835C0.678462 227.022 0.280275 229.416 0.48404 231.798C0.687805 234.179 1.48696 236.47 2.80783 238.461C4.1287 240.452 5.92877 242.077 8.04209 243.188C5.97992 245.662 4.81599 248.763 4.74026 251.985C4.66452 255.206 5.68145 258.359 7.62508 260.927C9.56871 263.496 12.3243 265.329 15.4421 266.127C18.5599 266.925 21.8559 266.642 24.7921 265.323C25.4985 267.874 26.9011 270.177 28.8423 271.973C30.7836 273.77 33.1866 274.989 35.7814 275.494C38.3763 275.998 41.0603 275.768 43.532 274.83C46.0036 273.891 48.165 272.282 49.7735 270.181C51.0996 271.913 52.8058 273.316 54.7603 274.282C56.7147 275.247 58.8648 275.749 61.0442 275.749C63.2236 275.749 65.3737 275.247 67.3281 274.282C69.2826 273.316 70.9889 271.913 72.3149 270.181C73.6417 271.913 75.3487 273.316 77.3037 274.282C79.2587 275.247 81.4093 275.75 83.5892 275.75C85.7691 275.75 87.9197 275.247 89.8748 274.282C91.8298 273.316 93.5367 271.913 94.8635 270.181C96.1903 271.913 97.8973 273.316 99.8523 274.282C101.807 275.247 103.958 275.75 106.138 275.75C108.318 275.75 110.468 275.247 112.423 274.282C114.378 273.316 116.085 271.913 117.412 270.181C118.739 271.913 120.446 273.316 122.401 274.282C124.356 275.247 126.507 275.75 128.686 275.75C130.866 275.75 133.017 275.247 134.972 274.282C136.927 273.316 138.634 271.913 139.961 270.181C141.288 271.913 142.994 273.316 144.949 274.282C146.904 275.247 149.055 275.75 151.235 275.75C153.415 275.75 155.566 275.247 157.521 274.282C159.476 273.316 161.183 271.913 162.509 270.181C163.873 271.96 165.637 273.392 167.658 274.358C169.678 275.325 171.899 275.8 174.138 275.744C176.377 275.688 178.571 275.103 180.541 274.036C182.511 272.969 184.201 271.451 185.474 269.606C187.351 271.85 189.872 273.461 192.695 274.221C195.518 274.98 198.506 274.851 201.254 273.851C204.001 272.851 206.374 271.029 208.051 268.631C209.728 266.234 210.628 263.378 210.628 260.45C210.628 260.062 210.628 259.688 210.57 259.315C210.779 259.315 210.979 259.315 211.195 259.315C214.403 259.316 217.518 258.232 220.033 256.238C222.549 254.244 224.318 251.458 225.053 248.33C225.789 245.203 225.447 241.919 224.085 239.011C222.722 236.102 220.418 233.74 217.546 232.308V232.336Z" fill="#F2F2F2"/>
</svg>
