<svg width="227" height="278" viewBox="0 0 227 278" fill="none" xmlns="http://www.w3.org/2000/svg">
<path d="M226.444 37.2577C226.444 46.9771 222.584 56.2983 215.714 63.171C208.843 70.0436 199.524 73.9046 189.807 73.9046H73.7183L73.7183 240.964C73.7183 250.683 69.8584 260.005 62.9876 266.877C56.1168 273.75 46.7981 277.611 37.0813 277.611C27.3646 277.611 18.0458 273.75 11.1751 266.877C4.30429 260.005 0.444336 250.683 0.444336 240.964L0.444336 37.2577C0.444331 27.5446 4.29936 18.2288 11.1624 11.3572C18.0254 4.48558 27.3349 0.62038 37.0454 0.610857L189.771 0.610857C194.586 0.606136 199.354 1.55055 203.803 3.39012C208.252 5.22968 212.295 7.92832 215.701 11.3318C219.107 14.7352 221.809 18.7767 223.652 23.2253C225.496 27.6738 226.444 32.4422 226.444 37.2577V37.2577Z" fill="#F2F2F2"/>
</svg>
