<svg width="226" height="276" viewBox="0 0 226 276" fill="none" xmlns="http://www.w3.org/2000/svg">
<path d="M217.546 232.336C219.492 229.695 220.468 226.461 220.308 223.183C220.147 219.904 218.861 216.781 216.667 214.343C214.472 211.905 211.504 210.3 208.264 209.801C205.025 209.301 201.712 209.938 198.887 211.603C197.986 209.233 196.471 207.148 194.496 205.562C192.521 203.976 190.159 202.946 187.655 202.58C185.15 202.214 182.593 202.524 180.247 203.478C177.902 204.433 175.854 205.997 174.315 208.009C172.988 206.277 171.281 204.874 169.326 203.909C167.371 202.943 165.22 202.441 163.04 202.441C160.86 202.441 158.71 202.943 156.755 203.909C154.8 204.874 153.093 206.277 151.766 208.009C150.44 206.277 148.734 204.874 146.779 203.909C144.825 202.943 142.675 202.441 140.495 202.441C138.316 202.441 136.166 202.943 134.211 203.909C132.257 204.874 130.551 206.277 129.225 208.009C127.898 206.277 126.191 204.874 124.236 203.909C122.281 202.943 120.13 202.441 117.95 202.441C115.77 202.441 113.62 202.943 111.665 203.909C109.71 204.874 108.003 206.277 106.676 208.009C105.349 206.277 103.642 204.874 101.687 203.909C99.7323 202.943 97.5816 202.441 95.4018 202.441C93.2219 202.441 91.0712 202.943 89.1162 203.909C87.1612 204.874 85.4542 206.277 84.1275 208.009C82.8 206.278 81.093 204.875 79.1381 203.909C77.1833 202.944 75.0329 202.441 72.8532 202.44H72.6953C71.756 200.001 70.1645 197.867 68.0951 196.274C69.8271 194.947 71.2306 193.239 72.1966 191.282C73.1626 189.324 73.6651 187.17 73.6651 184.987C73.6651 182.804 73.1626 180.65 72.1966 178.692C71.2306 176.735 69.8271 175.027 68.0951 173.701C69.0423 172.968 69.8956 172.12 70.6356 171.178C72.0861 172.514 73.7987 173.533 75.6641 174.17C77.5296 174.806 79.5071 175.047 81.4705 174.876C83.4339 174.705 85.3402 174.126 87.0678 173.176C88.7955 172.226 90.3066 170.927 91.5049 169.36C92.8317 171.092 94.5386 172.495 96.4937 173.461C98.4487 174.426 100.599 174.928 102.779 174.928C104.959 174.928 107.11 174.426 109.065 173.461C111.02 172.495 112.727 171.092 114.054 169.36C115.38 171.092 117.087 172.495 119.042 173.461C120.997 174.426 123.148 174.928 125.328 174.928C127.508 174.928 129.658 174.426 131.613 173.461C133.568 172.495 135.275 171.092 136.602 169.36C137.929 171.092 139.636 172.495 141.591 173.461C143.546 174.426 145.697 174.928 147.876 174.928C150.056 174.928 152.207 174.426 154.162 173.461C156.117 172.495 157.824 171.092 159.151 169.36C160.49 171.109 162.217 172.523 164.196 173.49C166.175 174.456 168.351 174.949 170.552 174.929C172.754 174.908 174.92 174.376 176.881 173.373C178.842 172.371 180.543 170.925 181.85 169.151C183.616 171.432 186.032 173.122 188.778 173.996C191.525 174.87 194.472 174.888 197.228 174.047C199.985 173.206 202.422 171.546 204.215 169.287C206.008 167.028 207.073 164.276 207.269 161.397C210.476 162.035 213.804 161.549 216.694 160.02C219.585 158.491 221.862 156.012 223.143 153C224.425 149.988 224.632 146.627 223.73 143.48C222.828 140.333 220.873 137.593 218.192 135.719C220.518 133.393 221.968 130.333 222.297 127.057C222.625 123.782 221.81 120.493 219.992 117.751C218.173 115.009 215.462 112.981 212.32 112.014C209.178 111.046 205.798 111.197 202.755 112.442C202.121 109.829 200.761 107.449 198.833 105.578C196.905 103.707 194.486 102.421 191.858 101.869C189.23 101.317 186.5 101.522 183.983 102.459C181.466 103.397 179.266 105.029 177.637 107.167C176.311 105.435 174.604 104.032 172.649 103.066C170.694 102.101 168.543 101.598 166.363 101.598C164.183 101.598 162.033 102.101 160.078 103.066C158.123 104.032 156.416 105.435 155.089 107.167C153.762 105.435 152.055 104.032 150.1 103.066C148.145 102.101 145.994 101.598 143.814 101.598C141.635 101.598 139.484 102.101 137.529 103.066C135.574 104.032 133.867 105.435 132.54 107.167C131.214 105.435 129.508 104.032 127.553 103.066C125.599 102.101 123.449 101.598 121.269 101.598C119.09 101.598 116.94 102.101 114.986 103.066C113.031 104.032 111.325 105.435 109.999 107.167C108.672 105.435 106.965 104.032 105.01 103.066C103.055 102.101 100.904 101.598 98.7245 101.598C96.5446 101.598 94.3939 102.101 92.4389 103.066C90.4839 104.032 88.777 105.435 87.4502 107.167C85.6212 104.775 83.0805 103.028 80.1948 102.176C77.3092 101.325 74.228 101.414 71.3963 102.431C70.5083 101.032 69.3811 99.8015 68.0664 98.7946C69.7985 97.4677 71.202 95.7589 72.168 93.8009C73.134 91.8429 73.6365 89.6884 73.6365 87.5045C73.6365 85.3206 73.134 83.1661 72.168 81.2081C71.202 79.2501 69.7985 77.5413 68.0664 76.2144C69.2738 75.2861 70.3274 74.1729 71.1882 72.9157C74.0969 74.1811 77.3446 74.4363 80.4148 73.6407C83.485 72.845 86.2014 71.0442 88.1319 68.5247C89.4587 70.2567 91.1657 71.6598 93.1207 72.6255C95.0757 73.5911 97.2264 74.0933 99.4062 74.0933C101.586 74.0933 103.737 73.5911 105.692 72.6255C107.647 71.6598 109.354 70.2567 110.681 68.5247C112.007 70.2566 113.713 71.6597 115.667 72.6254C117.622 73.591 119.772 74.0933 121.951 74.0933C124.131 74.0933 126.281 73.591 128.235 72.6254C130.19 71.6597 131.896 70.2566 133.222 68.5247C134.549 70.2567 136.256 71.6598 138.211 72.6255C140.166 73.5911 142.316 74.0933 144.496 74.0933C146.676 74.0933 148.827 73.5911 150.782 72.6255C152.737 71.6598 154.444 70.2567 155.771 68.5247C157.097 70.2567 158.804 71.6598 160.759 72.6255C162.714 73.5911 164.865 74.0933 167.045 74.0933C169.225 74.0933 171.375 73.5911 173.33 72.6255C175.285 71.6598 176.992 70.2567 178.319 68.5247C179.973 70.6883 182.211 72.3317 184.769 73.2599C187.327 74.1881 190.097 74.3622 192.751 73.7616C195.404 73.161 197.83 71.8108 199.741 69.8712C201.652 67.9316 202.967 65.4839 203.53 62.8185C206.605 63.9566 209.979 63.996 213.079 62.93C216.18 61.8641 218.818 59.7583 220.547 56.9689C222.275 54.1794 222.989 50.8776 222.566 47.6221C222.144 44.3665 220.611 41.357 218.228 39.1028C220.862 37.1562 222.745 34.3592 223.559 31.1838C224.373 28.0084 224.069 24.649 222.697 21.6724C221.325 18.6958 218.969 16.2842 216.028 14.8446C213.087 13.4049 209.74 13.0254 206.552 13.77C206.268 10.9327 205.141 8.24591 203.316 6.05728C201.491 3.86865 199.051 2.27898 196.314 1.49399C193.577 0.708998 190.667 0.764833 187.962 1.65427C185.256 2.5437 182.88 4.22579 181.14 6.48283C179.828 4.71863 178.125 3.28316 176.166 2.28924C174.206 1.29533 172.044 0.770062 169.847 0.75474C167.651 0.739417 165.481 1.23445 163.508 2.20093C161.535 3.16742 159.812 4.579 158.476 6.32473C157.149 4.5927 155.442 3.1896 153.487 2.22397C151.532 1.25835 149.382 0.756111 147.202 0.756111C145.022 0.756111 142.871 1.25835 140.916 2.22397C138.961 3.1896 137.254 4.5927 135.928 6.32473C134.601 4.5927 132.894 3.1896 130.939 2.22397C128.984 1.25835 126.833 0.756111 124.653 0.756111C122.473 0.756111 120.323 1.25835 118.368 2.22397C116.413 3.1896 114.706 4.5927 113.379 6.32473C112.053 4.59279 110.347 3.18969 108.392 2.22406C106.438 1.25843 104.288 0.756173 102.108 0.756173C99.9288 0.756173 97.7787 1.25843 95.8243 2.22406C93.8698 3.18969 92.1635 4.59279 90.8375 6.32473C89.5107 4.5927 87.8037 3.1896 85.8487 2.22397C83.8937 1.25835 81.7431 0.756111 79.5632 0.756111C77.3833 0.756111 75.2327 1.25835 73.2776 2.22397C71.3226 3.1896 69.6157 4.5927 68.2889 6.32473C66.9523 4.58308 65.2311 3.17512 63.2602 2.21122C61.2892 1.24732 59.1221 0.753674 56.9287 0.76899C54.7353 0.784306 52.5753 1.30817 50.618 2.2995C48.6606 3.29083 46.9592 4.72269 45.647 6.48283C43.9146 4.21983 41.5442 2.52928 38.8421 1.62976C36.1401 0.730235 33.2307 0.663104 30.4902 1.43705C27.7496 2.21099 25.3039 3.79041 23.4693 5.97111C21.6347 8.1518 20.4955 10.8335 20.1991 13.6694C18.1071 13.1699 15.9291 13.1527 13.8295 13.619C11.7299 14.0854 9.76342 15.0232 8.07853 16.3616C6.39363 17.7001 5.03429 19.4043 4.10305 21.3456C3.17182 23.2869 2.69301 25.4146 2.70276 27.5683C2.7022 29.496 3.09318 31.4037 3.85192 33.1753C4.61066 34.9469 5.7213 36.5455 7.11632 37.8739C5.17022 39.0917 3.54761 40.7634 2.38727 42.7461C1.22693 44.7287 0.563369 46.9633 0.453344 49.2587C0.343319 51.5541 0.790099 53.8421 1.75548 55.9269C2.72085 58.0117 4.17611 59.8314 5.99678 61.2303C4.26719 62.559 2.86605 64.2683 1.90178 66.2261C0.937516 68.1838 0.435979 70.3375 0.435979 72.5204C0.435979 74.7034 0.937516 76.8571 1.90178 78.8148C2.86605 80.7726 4.26719 82.4819 5.99678 83.8106C4.26719 85.1392 2.86605 86.8486 1.90178 88.8064C0.937516 90.7641 0.435979 92.9178 0.435979 95.1007C0.435979 97.2837 0.937516 99.4374 1.90178 101.395C2.86605 103.353 4.26719 105.062 5.99678 106.391C4.26719 107.72 2.86605 109.429 1.90178 111.387C0.937516 113.344 0.435979 115.498 0.435979 117.681C0.435979 119.864 0.937516 122.018 1.90178 123.975C2.86605 125.933 4.26719 127.642 5.99678 128.971C4.26719 130.3 2.86605 132.009 1.90178 133.967C0.937516 135.925 0.435979 138.078 0.435979 140.261C0.435979 142.444 0.937516 144.598 1.90178 146.556C2.86605 148.513 4.26719 150.223 5.99678 151.551C4.26727 152.879 2.86615 154.588 1.90187 156.545C0.937595 158.502 0.436041 160.656 0.436041 162.838C0.436041 165.02 0.937595 167.174 1.90187 169.131C2.86615 171.088 4.26727 172.797 5.99678 174.125C4.26719 175.453 2.86605 177.163 1.90178 179.12C0.937516 181.078 0.435979 183.232 0.435979 185.415C0.435979 187.598 0.937516 189.751 1.90178 191.709C2.86605 193.667 4.26719 195.376 5.99678 196.705C4.26719 198.033 2.86605 199.743 1.90178 201.701C0.937516 203.658 0.435979 205.812 0.435979 207.995C0.435979 210.178 0.937516 212.332 1.90178 214.289C2.86605 216.247 4.26719 217.956 5.99678 219.285C4.10297 220.74 2.60531 222.648 1.64189 224.835C0.678462 227.022 0.280275 229.416 0.48404 231.797C0.687805 234.178 1.48696 236.47 2.80783 238.461C4.1287 240.451 5.92877 242.077 8.04209 243.188C5.97992 245.662 4.81599 248.763 4.74026 251.984C4.66452 255.206 5.68145 258.358 7.62508 260.927C9.56871 263.495 12.3243 265.328 15.4421 266.127C18.5599 266.925 21.8559 266.641 24.7921 265.322C25.4985 267.873 26.9011 270.176 28.8423 271.973C30.7836 273.77 33.1866 274.989 35.7814 275.493C38.3763 275.998 41.0603 275.768 43.532 274.83C46.0036 273.891 48.165 272.281 49.7735 270.181C51.0996 271.912 52.8058 273.316 54.7603 274.281C56.7147 275.247 58.8648 275.749 61.0442 275.749C63.2236 275.749 65.3737 275.247 67.3281 274.281C69.2826 273.316 70.9889 271.912 72.3149 270.181C73.6417 271.913 75.3487 273.316 77.3037 274.281C79.2587 275.247 81.4093 275.749 83.5892 275.749C85.7691 275.749 87.9197 275.247 89.8748 274.281C91.8298 273.316 93.5367 271.913 94.8635 270.181C96.1903 271.913 97.8973 273.316 99.8523 274.281C101.807 275.247 103.958 275.749 106.138 275.749C108.318 275.749 110.468 275.247 112.423 274.281C114.378 273.316 116.085 271.913 117.412 270.181C118.739 271.913 120.446 273.316 122.401 274.281C124.356 275.247 126.507 275.749 128.686 275.749C130.866 275.749 133.017 275.247 134.972 274.281C136.927 273.316 138.634 271.913 139.961 270.181C141.288 271.913 142.994 273.316 144.949 274.281C146.904 275.247 149.055 275.749 151.235 275.749C153.415 275.749 155.566 275.247 157.521 274.281C159.476 273.316 161.183 271.913 162.509 270.181C163.873 271.96 165.637 273.391 167.658 274.358C169.678 275.325 171.899 275.8 174.138 275.743C176.377 275.687 178.571 275.102 180.541 274.036C182.511 272.969 184.201 271.451 185.474 269.606C187.351 271.85 189.872 273.461 192.695 274.221C195.518 274.98 198.506 274.851 201.254 273.851C204.001 272.851 206.374 271.029 208.051 268.631C209.728 266.233 210.628 263.377 210.628 260.45C210.628 260.062 210.628 259.688 210.57 259.314C210.779 259.314 210.979 259.314 211.195 259.314C214.403 259.316 217.518 258.232 220.033 256.238C222.549 254.244 224.318 251.457 225.053 248.33C225.789 245.203 225.447 241.919 224.085 239.01C222.722 236.102 220.418 233.74 217.546 232.307V232.336Z" fill="#F2F2F2"/>
</svg>
