<svg width="227" height="278" viewBox="0 0 227 278" fill="none" xmlns="http://www.w3.org/2000/svg">
<path d="M226.836 36.9845C226.836 46.7039 222.976 56.0252 216.106 62.8978C209.235 69.7704 199.916 73.6314 190.199 73.6314L74.1104 73.6314L74.1104 240.691C74.1104 250.41 70.2505 259.731 63.3797 266.604C56.5089 273.477 47.1902 277.338 37.4734 277.338C27.7567 277.338 18.4379 273.477 11.5672 266.604C4.69638 259.731 0.836426 250.41 0.836426 240.691L0.836426 36.9845C0.836421 27.2714 4.69145 17.9556 11.5545 11.084C18.4175 4.21239 27.727 0.347187 37.4375 0.337664L190.164 0.337664C194.978 0.332943 199.746 1.27736 204.195 3.11692C208.644 4.95649 212.687 7.65513 216.093 11.0586C219.499 14.462 222.201 18.5035 224.044 22.9521C225.888 27.4006 226.836 32.169 226.836 36.9845V36.9845Z" fill="#F2F2F2"/>
</svg>
