<svg width="278" height="276" viewBox="0 0 278 276" fill="none" xmlns="http://www.w3.org/2000/svg">
<path d="M277.097 37.0204C277.096 36.4275 277.095 35.8417 277.044 35.2488C277.043 34.963 277 34.6772 276.985 34.3843C276.97 34.0914 276.941 33.7771 276.912 33.4771C276.883 33.177 276.825 32.7627 276.781 32.3984L276.694 31.7197C276.636 31.3339 276.564 30.9481 276.491 30.5624C276.491 30.3695 276.426 30.1695 276.39 29.9766C276.311 29.5837 276.224 29.1979 276.13 28.8121L276 28.2406C275.906 27.862 275.798 27.5262 275.69 27.1262C275.632 26.919 275.582 26.7118 275.517 26.5118C275.409 26.1618 275.3 25.7974 275.185 25.4831L274.947 24.7687C274.839 24.4615 274.717 24.1615 274.602 23.8614C274.486 23.5614 274.4 23.3328 274.292 23.0756C274.184 22.8184 274.062 22.5541 273.946 22.2898C273.831 22.0254 273.687 21.704 273.55 21.4182L273.219 20.7538C273.061 20.4324 272.903 20.118 272.73 19.8037C272.629 19.6108 272.514 19.4251 272.406 19.2322C272.227 18.9036 272.04 18.575 271.838 18.2463L271.515 17.732C271.306 17.4034 271.098 17.0676 270.875 16.7461L270.522 16.2389C270.299 15.9246 270.084 15.6103 269.847 15.2959C269.71 15.1102 269.559 14.9244 269.415 14.7387C269.272 14.553 268.984 14.1815 268.754 13.9029C268.524 13.6243 268.344 13.4242 268.136 13.1885C267.928 12.9527 267.777 12.767 267.583 12.5598C266.771 11.6651 265.915 10.8115 265.018 10.0023L264.386 9.45938L263.667 8.845C263.394 8.6164 263.114 8.40208 262.827 8.18777C262.54 7.97345 262.461 7.89487 262.267 7.75199C261.958 7.52339 261.635 7.30193 261.319 7.08047L260.816 6.73042C260.486 6.5161 260.155 6.30179 259.818 6.09461C259.646 5.98746 259.48 5.8803 259.301 5.78028C258.978 5.58025 258.64 5.39451 258.31 5.20877L257.736 4.89444C257.42 4.72299 257.104 4.56582 256.788 4.40866L256.12 4.08004C255.826 3.93716 255.532 3.80857 255.237 3.67998L254.462 3.35851L253.673 3.05132C253.371 2.92988 253.07 2.81558 252.761 2.70842C252.452 2.60126 252.302 2.55125 252.043 2.47267C251.785 2.39409 251.361 2.24407 251.017 2.14405L250.4 1.96545L249.28 1.66541L248.72 1.52968L247.544 1.30107L246.948 1.19392C246.568 1.12962 246.18 1.05818 245.793 1.00103L245.133 0.893874L244.028 0.765284L243.109 0.693846L242.263 0.629551C241.667 0.629551 241.072 0.586687 240.484 0.586687H240.419C239.824 0.586687 239.235 0.586687 238.64 0.629551C238.353 0.629551 238.066 0.672414 237.779 0.693846L236.861 0.765284C236.495 0.765284 236.144 0.843867 235.778 0.893874L235.09 0.9796C234.702 1.03675 234.315 1.10819 233.928 1.17248L233.34 1.27964L232.171 1.52968L231.59 1.66541C231.217 1.75828 230.873 1.8583 230.478 1.96545L229.855 2.14405C229.51 2.24407 229.173 2.35837 228.829 2.47267L228.112 2.70842L227.202 3.04418L226.406 3.35851L225.632 3.69427C225.331 3.82286 225.037 3.95145 224.75 4.09433L224.083 4.4158C223.768 4.58011 223.445 4.73728 223.13 4.90873C222.936 5.00874 222.75 5.1159 222.564 5.22306C222.227 5.4088 221.897 5.59454 221.568 5.79457L221.059 6.1089C220.722 6.31607 220.385 6.53039 220.063 6.74471L219.561 7.09476L218.608 7.76628L218.056 8.19491C217.777 8.41637 217.49 8.63069 217.211 8.85929C216.931 9.0879 216.738 9.25935 216.494 9.46652C216.251 9.67369 216.064 9.83086 215.849 10.0237C215.405 10.4238 214.968 10.8381 214.539 11.2596L73.9505 151.515L73.7737 37.0204C73.7663 32.2329 72.8115 27.4923 70.9638 23.0696C69.1162 18.6469 66.4119 14.6289 63.0056 11.2452C59.5992 7.8616 55.5577 5.17865 51.1119 3.34978C46.6662 1.52092 41.9034 0.581994 37.0959 0.586687V0.586687C27.3928 0.586687 18.093 4.42523 11.2424 11.2579C4.39183 18.0905 0.551581 27.3576 0.566497 37.0204L0.879133 239.542C0.879364 239.692 0.879596 239.842 0.879828 239.992C0.8805 240.428 0.881173 240.864 0.881857 241.307C0.88254 241.75 0.940602 242.185 0.977143 242.621C0.977364 242.764 0.977585 242.907 0.977805 243.05C1.02883 243.571 1.0942 244.1 1.16674 244.614L1.16698 244.771C1.25394 245.343 1.34807 245.907 1.45655 246.472C3.08556 254.797 7.57881 262.301 14.162 267.689C20.7453 273.077 29.0061 276.013 37.5211 275.99V275.99C42.4596 275.998 47.3467 275.007 51.8865 273.078C56.4262 271.149 60.5239 268.322 63.9315 264.767L204.025 125.04L204.202 239.542C204.217 249.205 208.086 258.472 214.958 265.305C221.829 272.137 231.141 275.976 240.844 275.976C250.547 275.976 259.847 272.137 266.698 265.305C273.548 258.472 277.388 249.205 277.374 239.542L277.061 37.0204H277.097Z" fill="#F2F2F2"/>
</svg>
