<svg width="344" height="278" viewBox="0 0 344 278" fill="none" xmlns="http://www.w3.org/2000/svg">
<path d="M337.191 239.239C339.587 236.977 341.124 233.962 341.544 230.704C341.964 227.445 341.24 224.143 339.494 221.354C337.749 218.565 335.089 216.459 331.964 215.394C328.839 214.328 325.44 214.367 322.34 215.504C321.762 212.848 320.431 210.411 318.506 208.482C316.581 206.552 314.141 205.21 311.474 204.614C308.807 204.018 306.024 204.192 303.453 205.116C300.882 206.04 298.631 207.675 296.964 209.829C295.627 208.1 293.908 206.7 291.94 205.736C289.972 204.772 287.808 204.271 285.614 204.271C283.421 204.271 281.256 204.772 279.288 205.736C277.32 206.7 275.602 208.1 274.265 209.829C273.242 208.517 271.999 207.39 270.59 206.499C271.595 203.674 271.675 200.604 270.817 197.73C269.959 194.857 268.208 192.327 265.815 190.504C267.555 189.174 268.963 187.465 269.933 185.509C270.902 183.552 271.406 181.4 271.406 179.219C271.406 177.038 270.902 174.886 269.933 172.929C268.963 170.973 267.555 169.264 265.815 167.934C267.555 166.604 268.964 164.895 269.933 162.937C270.902 160.98 271.407 158.828 271.407 156.646C271.407 154.464 270.902 152.312 269.933 150.354C268.964 148.397 267.555 146.688 265.815 145.358C267.555 144.028 268.963 142.319 269.933 140.363C270.902 138.406 271.406 136.254 271.406 134.073C271.406 131.892 270.902 129.74 269.933 127.783C268.963 125.826 267.555 124.117 265.815 122.788C267.555 121.458 268.964 119.748 269.933 117.791C270.902 115.834 271.407 113.681 271.407 111.5C271.407 109.318 270.902 107.166 269.933 105.208C268.964 103.251 267.555 101.542 265.815 100.211C267.555 98.8821 268.963 97.1732 269.933 95.2165C270.902 93.2599 271.406 91.1079 271.406 88.9267C271.406 86.7456 270.902 84.5936 269.933 82.6369C268.963 80.6803 267.555 78.9713 265.815 77.642C267.555 76.3119 268.964 74.6023 269.933 72.6451C270.902 70.6879 271.407 68.5353 271.407 66.3537C271.407 64.172 270.902 62.0194 269.933 60.0622C268.964 58.105 267.555 56.3954 265.815 55.0653C267.762 53.576 269.29 51.6143 270.255 49.3685C271.219 47.1227 271.587 44.6682 271.322 42.2405C271.058 39.8128 270.171 37.4934 268.745 35.5049C267.32 33.5163 265.404 31.9254 263.182 30.8848C265.103 28.2583 266.064 25.0591 265.908 21.8158C265.751 18.5725 264.486 15.4793 262.322 13.0475C260.158 10.6158 257.224 8.99101 254.006 8.4418C250.787 7.8926 247.476 8.45183 244.621 10.0271C243.493 6.96784 241.346 4.38448 238.537 2.70638C235.728 1.02827 232.426 0.35648 229.18 0.802672C225.934 1.24886 222.939 2.78616 220.693 5.15905C218.448 7.53193 217.086 10.5975 216.836 13.8462C213.762 13.2091 210.564 13.592 207.731 14.9361C204.897 16.2802 202.586 18.5113 201.151 21.2871C199.715 24.063 199.235 27.2304 199.784 30.3035C200.334 33.3766 201.882 36.1857 204.191 38.3C202.254 39.5315 200.644 41.2086 199.497 43.1896C198.35 45.1706 197.699 47.3971 197.601 49.6809C197.502 51.9646 197.958 54.2384 198.93 56.3099C199.902 58.3813 201.362 60.1895 203.185 61.5816C201.444 62.9099 200.032 64.619 199.061 66.5764C198.09 68.5339 197.585 70.6872 197.585 72.8699C197.585 75.0525 198.09 77.2059 199.061 79.1634C200.032 81.1208 201.444 82.8299 203.185 84.1582C201.444 85.4858 200.033 87.1942 199.061 89.1511C198.09 91.108 197.585 93.2608 197.585 95.443C197.585 97.6251 198.09 99.7779 199.061 101.735C200.033 103.692 201.444 105.4 203.185 106.728C201.444 108.056 200.032 109.765 199.061 111.723C198.09 113.68 197.585 115.833 197.585 118.016C197.585 120.199 198.09 122.352 199.061 124.31C200.032 126.267 201.444 127.976 203.185 129.304C201.444 130.632 200.033 132.34 199.061 134.297C198.09 136.254 197.585 138.407 197.585 140.589C197.585 142.771 198.09 144.924 199.061 146.881C200.033 148.838 201.444 150.546 203.185 151.874C201.444 153.202 200.032 154.911 199.061 156.869C198.09 158.826 197.585 160.98 197.585 163.162C197.585 165.345 198.09 167.498 199.061 169.456C200.032 171.413 201.444 173.122 203.185 174.451C201.444 175.778 200.033 177.487 199.061 179.443C198.09 181.4 197.585 183.553 197.585 185.735C197.585 187.917 198.09 190.07 199.061 192.027C200.033 193.984 201.444 195.692 203.185 197.02C200.746 198.876 198.97 201.463 198.122 204.399C196.181 204.594 194.301 205.182 192.597 206.126C190.892 207.069 189.4 208.349 188.212 209.887C186.874 208.158 185.154 206.757 183.186 205.793C181.217 204.829 179.052 204.328 176.858 204.328C174.664 204.328 172.499 204.829 170.53 205.793C168.562 206.757 166.842 208.158 165.505 209.887C164.168 208.158 162.449 206.757 160.481 205.793C158.513 204.829 156.349 204.328 154.155 204.328C151.961 204.328 149.797 204.829 147.829 205.793C145.861 206.757 144.142 208.158 142.805 209.887C141.467 208.158 139.748 206.757 137.779 205.793C135.811 204.829 133.646 204.328 131.452 204.328C129.257 204.328 127.093 204.829 125.124 205.793C123.156 206.757 121.436 208.158 120.098 209.887C118.761 208.158 117.043 206.757 115.075 205.793C113.107 204.829 110.942 204.328 108.749 204.328C106.555 204.328 104.39 204.829 102.422 205.793C100.455 206.757 98.7357 208.158 97.3988 209.887C96.061 208.158 94.3416 206.757 92.3731 205.793C90.4046 204.829 88.2396 204.328 86.0454 204.328C83.8511 204.328 81.6862 204.829 79.7177 205.793C77.7491 206.757 76.0297 208.158 74.692 209.887C73.8631 208.829 72.8891 207.892 71.7984 207.104C73.568 204.114 74.177 200.585 73.5108 197.18C72.8446 193.776 70.9492 190.731 68.1816 188.619C69.9208 187.29 71.3295 185.581 72.2989 183.624C73.2684 181.668 73.7725 179.516 73.7725 177.335C73.7725 175.153 73.2684 173.001 72.2989 171.045C71.3295 169.088 69.9208 167.379 68.1816 166.05C69.9209 164.72 71.3296 163.01 72.299 161.053C73.2684 159.096 73.7726 156.943 73.7726 154.762C73.7726 152.58 73.2684 150.427 72.299 148.47C71.3296 146.513 69.9209 144.803 68.1816 143.473C69.9209 142.143 71.3296 140.434 72.299 138.476C73.2684 136.519 73.7726 134.367 73.7726 132.185C73.7726 130.003 73.2684 127.851 72.299 125.893C71.3296 123.936 69.9209 122.227 68.1816 120.897C69.9208 119.567 71.3295 117.858 72.2989 115.902C73.2684 113.945 73.7725 111.793 73.7725 109.612C73.7725 107.431 73.2684 105.279 72.2989 103.322C71.3295 101.365 69.9208 99.6564 68.1816 98.3271C69.9209 96.997 71.3296 95.2874 72.299 93.3302C73.2684 91.3729 73.7726 89.2204 73.7726 87.0387C73.7726 84.8571 73.2684 82.7045 72.299 80.7473C71.3296 78.7901 69.9209 77.0805 68.1816 75.7504C69.9208 74.4211 71.3295 72.7121 72.2989 70.7555C73.2684 68.7988 73.7725 66.6468 73.7725 64.4657C73.7725 62.2845 73.2684 60.1325 72.2989 58.1759C71.3295 56.2192 69.9208 54.5102 68.1816 53.1809C70.1955 51.6575 71.7681 49.6311 72.7395 47.3077C73.7108 44.9844 74.0464 42.4468 73.7121 39.9527C73.3778 37.4587 72.3855 35.097 70.8361 33.1077C69.2866 31.1184 67.2352 29.5722 64.8902 28.6264C66.6492 25.8488 67.3907 22.553 66.9898 19.295C66.5889 16.037 65.07 13.0162 62.6894 10.7422C60.3088 8.46816 57.2122 7.08016 53.922 6.81232C50.6318 6.54447 47.3493 7.41317 44.6284 9.27187C43.252 6.31045 40.8961 3.9077 37.9536 2.4643C35.0111 1.0209 31.6599 0.624101 28.4587 1.34008C25.2576 2.05606 22.4001 3.84154 20.3627 6.39875C18.3254 8.95597 17.2313 12.1304 17.263 15.3925C14.2105 15.038 11.1242 15.6682 8.45922 17.19C5.79422 18.7119 3.69158 21.0449 2.46134 23.845C1.23109 26.6451 0.938341 29.7642 1.62627 32.7423C2.31419 35.7205 3.94638 38.4 6.28216 40.3858C4.40692 41.6519 2.86052 43.3423 1.76996 45.318C0.679399 47.2938 0.0757931 49.4986 0.00871763 51.7513C-0.0583578 54.0041 0.413011 56.2405 1.38411 58.277C2.35521 60.3134 3.79833 62.0917 5.59495 63.4659C3.8556 64.796 2.44687 66.5056 1.47746 68.4628C0.508058 70.4201 0.0039011 72.5726 0.0039011 74.7543C0.0039011 76.936 0.508058 79.0885 1.47746 81.0457C2.44687 83.0029 3.8556 84.7126 5.59495 86.0426C3.85569 87.3719 2.44697 89.0809 1.47756 91.0375C0.508143 92.9942 0.00397137 95.1462 0.00397137 97.3273C0.00397137 99.5085 0.508143 101.661 1.47756 103.617C2.44697 105.574 3.85569 107.283 5.59495 108.612C3.8556 109.942 2.44687 111.652 1.47746 113.609C0.508058 115.566 0.0039011 117.719 0.0039011 119.9C0.0039011 122.082 0.508058 124.235 1.47746 126.192C2.44687 128.149 3.8556 129.859 5.59495 131.189C3.85569 132.518 2.44697 134.227 1.47756 136.184C0.508143 138.14 0.00397137 140.292 0.00397137 142.473C0.00397137 144.655 0.508143 146.807 1.47756 148.763C2.44697 150.72 3.85569 152.429 5.59495 153.758C3.8556 155.088 2.44687 156.798 1.47746 158.755C0.508058 160.712 0.0039011 162.865 0.0039011 165.047C0.0039011 167.228 0.508058 169.381 1.47746 171.338C2.44687 173.295 3.8556 175.005 5.59495 176.335C3.8556 177.665 2.44687 179.375 1.47746 181.332C0.508058 183.289 0.0039011 185.442 0.0039011 187.623C0.0039011 189.805 0.508058 191.957 1.47746 193.915C2.44687 195.872 3.8556 197.582 5.59495 198.912C3.85569 200.241 2.44697 201.95 1.47756 203.906C0.508143 205.863 0.00397137 208.015 0.00397137 210.196C0.00397137 212.377 0.508143 214.529 1.47756 216.486C2.44697 218.443 3.85569 220.152 5.59495 221.481C3.684 222.944 2.17531 224.863 1.20866 227.06C0.242012 229.257 -0.151334 231.66 0.0650653 234.049C0.281465 236.437 1.10061 238.732 2.44661 240.722C3.79261 242.712 5.62193 244.332 7.76508 245.431C5.71848 247.93 4.58291 251.043 4.54334 254.265C4.50376 257.486 5.56252 260.627 7.54715 263.174C9.53177 265.721 12.3253 267.525 15.4728 268.291C18.6202 269.058 21.936 268.743 24.8802 267.397C25.6208 269.924 27.0506 272.197 29.0112 273.966C30.9717 275.735 33.3865 276.929 35.9878 277.417C38.5892 277.904 41.2756 277.667 43.7493 276.73C46.2231 275.793 48.3876 274.193 50.0031 272.108C51.3401 273.837 53.0589 275.238 55.0268 276.201C56.9947 277.165 59.1591 277.667 61.3529 277.667C63.5466 277.667 65.711 277.165 67.6789 276.201C69.6469 275.238 71.3657 273.837 72.7027 272.108C74.0404 273.837 75.7598 275.238 77.7284 276.202C79.6969 277.165 81.8618 277.667 84.0561 277.667C86.2503 277.667 88.4153 277.165 90.3838 276.202C92.3523 275.238 94.0718 273.837 95.4095 272.108C96.7465 273.837 98.4653 275.238 100.433 276.201C102.401 277.165 104.566 277.667 106.759 277.667C108.953 277.667 111.117 277.165 113.085 276.201C115.053 275.238 116.772 273.837 118.109 272.108C119.447 273.837 121.166 275.238 123.135 276.202C125.103 277.165 127.268 277.667 129.462 277.667C131.657 277.667 133.822 277.165 135.79 276.202C137.759 275.238 139.478 273.837 140.816 272.108C142.153 273.837 143.872 275.238 145.84 276.201C147.808 277.165 149.972 277.667 152.166 277.667C154.359 277.667 156.524 277.165 158.492 276.201C160.46 275.238 162.178 273.837 163.515 272.108C164.853 273.837 166.573 275.238 168.541 276.202C170.51 277.165 172.675 277.667 174.869 277.667C177.063 277.667 179.228 277.165 181.197 276.202C183.165 275.238 184.885 273.837 186.222 272.108C187.56 273.837 189.279 275.238 191.248 276.202C193.216 277.165 195.381 277.667 197.576 277.667C199.77 277.667 201.935 277.165 203.903 276.202C205.872 275.238 207.591 273.837 208.929 272.108C210.266 273.837 211.985 275.238 213.953 276.201C215.921 277.165 218.085 277.667 220.279 277.667C222.473 277.667 224.637 277.165 226.605 276.201C228.573 275.238 230.292 273.837 231.629 272.108C232.966 273.837 234.686 275.238 236.654 276.202C238.623 277.165 240.788 277.667 242.982 277.667C245.176 277.667 247.341 277.165 249.31 276.202C251.278 275.238 252.998 273.837 254.335 272.108C255.672 273.837 257.391 275.238 259.359 276.201C261.327 277.165 263.492 277.667 265.685 277.667C267.879 277.667 270.043 277.165 272.011 276.201C273.979 275.238 275.698 273.837 277.035 272.108C278.382 273.851 280.117 275.26 282.104 276.224C284.091 277.189 286.275 277.683 288.486 277.668C290.697 277.653 292.874 277.128 294.847 276.136C296.82 275.144 298.535 273.711 299.858 271.949C301.617 274.205 304.016 275.884 306.745 276.768C309.475 277.653 312.408 277.702 315.166 276.91C317.924 276.119 320.379 274.522 322.214 272.327C324.049 270.132 325.179 267.44 325.458 264.599C328.67 265.33 332.037 264.939 334.993 263.492C337.949 262.046 340.314 259.631 341.69 256.655C343.067 253.679 343.371 250.322 342.552 247.149C341.732 243.976 339.84 241.18 337.191 239.232V239.239Z" fill="#F2F2F2"/>
</svg>
