<svg width="343" height="279" viewBox="0 0 343 279" fill="none" xmlns="http://www.w3.org/2000/svg">
<path d="M336.601 239.489C338.992 237.222 340.527 234.201 340.946 230.936C341.365 227.67 340.642 224.361 338.9 221.565C337.158 218.77 334.503 216.66 331.383 215.593C328.263 214.525 324.87 214.564 321.776 215.703C321.198 213.041 319.87 210.599 317.948 208.666C316.026 206.732 313.591 205.387 310.928 204.789C308.266 204.192 305.488 204.366 302.922 205.292C300.356 206.218 298.108 207.857 296.444 210.016C295.11 208.283 293.394 206.88 291.429 205.914C289.465 204.948 287.304 204.445 285.114 204.445C282.924 204.445 280.764 204.948 278.799 205.914C276.835 206.88 275.119 208.283 273.784 210.016C272.764 208.701 271.523 207.572 270.116 206.679C271.12 203.847 271.199 200.771 270.343 197.891C269.487 195.011 267.739 192.476 265.35 190.649C267.086 189.317 268.493 187.604 269.46 185.643C270.428 183.682 270.931 181.525 270.931 179.34C270.931 177.154 270.428 174.997 269.46 173.036C268.493 171.075 267.086 169.363 265.35 168.03C267.086 166.698 268.493 164.984 269.46 163.023C270.428 161.061 270.931 158.904 270.931 156.718C270.931 154.531 270.428 152.374 269.46 150.413C268.493 148.451 267.086 146.738 265.35 145.405C267.086 144.073 268.493 142.36 269.46 140.399C270.428 138.438 270.931 136.282 270.931 134.096C270.931 131.91 270.428 129.753 269.46 127.792C268.493 125.831 267.086 124.119 265.35 122.787C267.086 121.454 268.493 119.74 269.46 117.779C270.428 115.817 270.931 113.66 270.931 111.474C270.931 109.287 270.428 107.13 269.46 105.169C268.493 103.207 267.086 101.494 265.35 100.161C267.086 98.8289 268.493 97.1163 269.46 95.1554C270.428 93.1945 270.931 91.0379 270.931 88.852C270.931 86.6661 270.428 84.5095 269.46 82.5486C268.493 80.5877 267.086 78.875 265.35 77.5428C267.086 76.2099 268.493 74.4966 269.46 72.5351C270.428 70.5737 270.931 68.4165 270.931 66.2301C270.931 64.0437 270.428 61.8865 269.46 59.925C268.493 57.9636 267.086 56.2503 265.35 54.9173C267.293 53.4248 268.819 51.4589 269.782 49.2082C270.744 46.9576 271.111 44.4978 270.847 42.0648C270.583 39.6318 269.698 37.3074 268.275 35.3146C266.852 33.3217 264.94 31.7274 262.722 30.6845C264.639 28.0524 265.598 24.8462 265.442 21.5959C265.286 18.3456 264.023 15.2457 261.863 12.8087C259.703 10.3717 256.774 8.74339 253.561 8.19299C250.348 7.6426 247.043 8.20304 244.192 9.78168C243.067 6.71584 240.924 4.1269 238.12 2.44516C235.315 0.763422 232.019 0.0901807 228.779 0.537338C225.538 0.984495 222.549 2.52512 220.307 4.90314C218.065 7.28115 216.706 10.3533 216.456 13.6091C213.388 12.9706 210.195 13.3543 207.367 14.7013C204.539 16.0483 202.231 18.2842 200.798 21.0661C199.366 23.848 198.887 27.0222 199.435 30.102C199.983 33.1817 201.528 35.9969 203.834 38.1158C201.9 39.3499 200.293 41.0307 199.148 43.016C198.003 45.0012 197.353 47.2326 197.255 49.5213C197.156 51.81 197.612 54.0887 198.582 56.1646C199.552 58.2405 201.009 60.0527 202.83 61.4477C201.091 62.7789 199.682 64.4916 198.713 66.4533C197.744 68.415 197.239 70.5731 197.239 72.7604C197.239 74.9478 197.744 77.1058 198.713 79.0675C199.682 81.0292 201.091 82.7419 202.83 84.0732C201.091 85.4037 199.683 87.1158 198.713 89.0769C197.744 91.038 197.239 93.1955 197.239 95.3823C197.239 97.5692 197.744 99.7267 198.713 101.688C199.683 103.649 201.091 105.361 202.83 106.691C201.091 108.023 199.682 109.735 198.713 111.697C197.744 113.659 197.239 115.817 197.239 118.004C197.239 120.192 197.744 122.35 198.713 124.311C199.682 126.273 201.091 127.986 202.83 129.317C201.091 130.647 199.683 132.36 198.713 134.321C197.744 136.282 197.239 138.439 197.239 140.626C197.239 142.813 197.744 144.97 198.713 146.932C199.683 148.893 201.091 150.605 202.83 151.935C201.091 153.266 199.682 154.979 198.713 156.941C197.744 158.903 197.239 161.061 197.239 163.248C197.239 165.435 197.744 167.593 198.713 169.555C199.682 171.517 201.091 173.23 202.83 174.561C201.091 175.891 199.683 177.603 198.713 179.564C197.744 181.526 197.239 183.683 197.239 185.87C197.239 188.057 197.744 190.214 198.713 192.175C199.683 194.136 201.091 195.849 202.83 197.179C200.394 199.04 198.622 201.632 197.775 204.574C195.838 204.77 193.961 205.359 192.26 206.304C190.558 207.25 189.069 208.533 187.882 210.074C186.547 208.341 184.83 206.937 182.865 205.971C180.9 205.005 178.739 204.503 176.549 204.503C174.358 204.503 172.197 205.005 170.232 205.971C168.267 206.937 166.551 208.341 165.215 210.074C163.881 208.341 162.165 206.937 160.2 205.971C158.236 205.005 156.075 204.503 153.885 204.503C151.695 204.503 149.535 205.005 147.57 205.971C145.606 206.937 143.89 208.341 142.555 210.074C141.22 208.341 139.504 206.937 137.538 205.971C135.573 205.005 133.412 204.503 131.222 204.503C129.031 204.503 126.87 205.005 124.905 205.971C122.94 206.937 121.224 208.341 119.888 210.074C118.554 208.341 116.838 206.937 114.873 205.971C112.909 205.005 110.748 204.503 108.558 204.503C106.369 204.503 104.208 205.005 102.243 205.971C100.279 206.937 98.5632 208.341 97.2286 210.074C95.8932 208.341 94.1767 206.937 92.2117 205.971C90.2466 205.005 88.0855 204.503 85.8951 204.503C83.7046 204.503 81.5435 205.005 79.5784 205.971C77.6134 206.937 75.8969 208.341 74.5615 210.074C73.7341 209.014 72.7618 208.075 71.6731 207.284C73.4396 204.289 74.0475 200.752 73.3825 197.34C72.7175 193.928 70.8253 190.876 68.0626 188.76C69.7988 187.428 71.205 185.715 72.1727 183.755C73.1404 181.794 73.6437 179.637 73.6437 177.451C73.6437 175.265 73.1404 173.109 72.1727 171.148C71.205 169.187 69.7988 167.474 68.0626 166.142C69.7989 164.809 71.2051 163.096 72.1728 161.134C73.1405 159.173 73.6438 157.016 73.6438 154.829C73.6438 152.643 73.1405 150.486 72.1728 148.524C71.2051 146.563 69.7989 144.849 68.0626 143.516C69.7989 142.184 71.2051 140.47 72.1728 138.509C73.1405 136.547 73.6438 134.39 73.6438 132.204C73.6438 130.017 73.1405 127.86 72.1728 125.899C71.2051 123.937 69.7989 122.224 68.0626 120.891C69.7988 119.559 71.205 117.846 72.1727 115.885C73.1404 113.924 73.6437 111.768 73.6437 109.582C73.6437 107.396 73.1404 105.239 72.1727 103.278C71.205 101.318 69.7988 99.6049 68.0626 98.2727C69.7989 96.9398 71.2051 95.2264 72.1728 93.265C73.1405 91.3035 73.6438 89.1463 73.6438 86.9599C73.6438 84.7735 73.1405 82.6163 72.1728 80.6549C71.2051 78.6934 69.7989 76.9801 68.0626 75.6472C69.7988 74.315 71.205 72.6023 72.1727 70.6415C73.1404 68.6806 73.6437 66.5239 73.6437 64.338C73.6437 62.1521 73.1404 59.9955 72.1727 58.0346C71.205 56.0737 69.7988 54.3611 68.0626 53.0289C70.073 51.5021 71.6428 49.4714 72.6125 47.143C73.5822 44.8146 73.9171 42.2715 73.5834 39.7721C73.2497 37.2726 72.2591 34.9059 70.7124 32.9122C69.1657 30.9186 67.1178 29.3691 64.777 28.4212C66.5328 25.6376 67.2731 22.3347 66.8729 19.0696C66.4727 15.8046 64.9565 12.7772 62.58 10.4983C60.2036 8.21941 57.1124 6.82841 53.828 6.55998C50.5435 6.29155 47.2668 7.16213 44.5507 9.02485C43.1767 6.05703 40.8249 3.64908 37.8876 2.20256C34.9503 0.756035 31.6049 0.358381 28.4094 1.07591C25.2138 1.79344 22.3613 3.58278 20.3275 6.14552C18.2937 8.70827 17.2016 11.8895 17.2333 15.1587C14.1861 14.8035 11.1052 15.435 8.44489 16.9601C5.78456 18.4853 3.68561 20.8233 2.45751 23.6295C1.22942 26.4357 0.937189 29.5615 1.62391 32.5461C2.31063 35.5306 3.93995 38.216 6.27164 40.2061C4.39969 41.4749 2.856 43.1689 1.76735 45.149C0.678701 47.129 0.0761528 49.3386 0.00919491 51.5962C-0.057763 53.8538 0.412779 56.0951 1.38217 58.1359C2.35157 60.1768 3.79216 61.959 5.58563 63.3361C3.84934 64.6691 2.44307 66.3824 1.47537 68.3438C0.50766 70.3053 0.00438683 72.4625 0.00438683 74.6489C0.00438683 76.8353 0.50766 78.9925 1.47537 80.9539C2.44307 82.9154 3.84934 84.6287 5.58563 85.9616C3.84943 87.2938 2.44318 89.0065 1.47546 90.9674C0.507745 92.9282 0.00445697 95.0849 0.00445697 97.2708C0.00445697 99.4567 0.507745 101.613 1.47546 103.574C2.44318 105.535 3.84943 107.248 5.58563 108.58C3.84934 109.913 2.44307 111.626 1.47537 113.588C0.50766 115.549 0.00438683 117.706 0.00438683 119.893C0.00438683 122.079 0.50766 124.236 1.47537 126.198C2.44307 128.159 3.84934 129.872 5.58563 131.205C3.84943 132.538 2.44318 134.25 1.47546 136.211C0.507745 138.172 0.00445697 140.329 0.00445697 142.515C0.00445697 144.7 0.507745 146.857 1.47546 148.818C2.44318 150.779 3.84943 152.492 5.58563 153.824C3.84934 155.157 2.44307 156.87 1.47537 158.831C0.50766 160.793 0.00438683 162.95 0.00438683 165.136C0.00438683 167.323 0.50766 169.48 1.47537 171.442C2.44307 173.403 3.84934 175.116 5.58563 176.449C3.84934 177.782 2.44307 179.495 1.47537 181.457C0.50766 183.418 0.00438683 185.576 0.00438683 187.762C0.00438683 189.948 0.50766 192.106 1.47537 194.067C2.44307 196.028 3.84934 197.742 5.58563 199.075C3.84943 200.407 2.44318 202.12 1.47546 204.08C0.507745 206.041 0.00445697 208.198 0.00445697 210.384C0.00445697 212.57 0.507745 214.726 1.47546 216.687C2.44318 218.648 3.84943 220.361 5.58563 221.693C3.67804 223.159 2.172 225.082 1.20704 227.284C0.242081 229.485 -0.150576 231.894 0.0654439 234.288C0.281464 236.681 1.09917 238.982 2.44282 240.976C3.78646 242.97 5.61257 244.593 7.75196 245.695C5.70895 248.199 4.57537 251.319 4.53587 254.548C4.49636 257.776 5.55326 260.923 7.53441 263.476C9.51556 266.028 12.3042 267.836 15.4461 268.605C18.588 269.373 21.8981 269.057 24.8371 267.708C25.5764 270.24 27.0037 272.519 28.9608 274.291C30.9179 276.064 33.3284 277.261 35.9252 277.75C38.522 278.238 41.2037 278 43.6731 277.061C46.1426 276.122 48.3033 274.519 49.9159 272.429C51.2506 274.162 52.9664 275.566 54.9309 276.532C56.8953 277.498 59.0559 278 61.2458 278C63.4357 278 65.5964 277.498 67.5608 276.532C69.5253 275.566 71.2411 274.162 72.5757 272.429C73.9111 274.162 75.6276 275.566 77.5926 276.532C79.5577 277.498 81.7188 278 83.9093 278C86.0997 278 88.2608 277.498 90.2259 276.532C92.1909 275.566 93.9074 274.162 95.2428 272.429C96.5774 274.162 98.2932 275.566 100.258 276.532C102.222 277.498 104.383 278 106.573 278C108.763 278 110.923 277.498 112.888 276.532C114.852 275.566 116.568 274.162 117.903 272.429C119.238 274.162 120.954 275.566 122.919 276.532C124.885 277.498 127.046 278 129.236 278C131.426 278 133.588 277.498 135.553 276.532C137.518 275.566 139.234 274.162 140.57 272.429C141.904 274.162 143.62 275.566 145.584 276.532C147.549 277.498 149.71 278 151.899 278C154.089 278 156.25 277.498 158.214 276.532C160.179 275.566 161.895 274.162 163.229 272.429C164.565 274.162 166.281 275.566 168.246 276.532C170.211 277.498 172.372 278 174.563 278C176.753 278 178.914 277.498 180.88 276.532C182.845 275.566 184.561 274.162 185.896 272.429C187.232 274.162 188.948 275.566 190.913 276.532C192.878 277.498 195.039 278 197.23 278C199.42 278 201.581 277.498 203.547 276.532C205.512 275.566 207.228 274.162 208.563 272.429C209.898 274.162 211.614 275.566 213.578 276.532C215.543 277.498 217.703 278 219.893 278C222.083 278 224.244 277.498 226.208 276.532C228.173 275.566 229.889 274.162 231.223 272.429C232.559 274.162 234.275 275.566 236.24 276.532C238.205 277.498 240.366 278 242.557 278C244.747 278 246.908 277.498 248.873 276.532C250.838 275.566 252.555 274.162 253.89 272.429C255.225 274.162 256.941 275.566 258.905 276.532C260.87 277.498 263.03 278 265.22 278C267.41 278 269.571 277.498 271.535 276.532C273.5 275.566 275.215 274.162 276.55 272.429C277.895 274.176 279.627 275.588 281.61 276.555C283.593 277.522 285.774 278.017 287.981 278.001C290.188 277.986 292.361 277.461 294.331 276.466C296.3 275.472 298.012 274.036 299.333 272.271C301.088 274.531 303.484 276.214 306.208 277.1C308.933 277.986 311.861 278.036 314.614 277.242C317.367 276.449 319.818 274.848 321.65 272.649C323.482 270.449 324.61 267.751 324.888 264.904C328.094 265.637 331.455 265.245 334.406 263.795C337.357 262.345 339.718 259.926 341.092 256.943C342.466 253.96 342.77 250.596 341.952 247.417C341.134 244.237 339.244 241.435 336.601 239.482V239.489Z" fill="#F2F2F2"/>
</svg>
