<svg width="281" height="280" viewBox="0 0 281 280" fill="none" xmlns="http://www.w3.org/2000/svg">
<path d="M140.291 74.4856C155.54 74.4873 170.316 79.7573 182.103 89.3977C193.89 99.0381 201.957 112.453 204.931 127.355C207.904 142.258 205.6 157.727 198.411 171.127C191.222 184.527 179.592 195.028 165.504 200.842C151.415 206.656 135.739 207.423 121.147 203.011C106.555 198.6 93.9494 189.284 85.4779 176.65C77.0065 164.016 73.1933 148.846 74.6882 133.724C76.1831 118.603 82.8935 104.466 93.6761 93.722C99.7834 87.6034 107.048 82.7528 115.05 79.4508C123.051 76.1489 131.63 74.4612 140.291 74.4856V74.4856ZM140.291 0.666504C62.9677 0.666504 0.287109 63.1232 0.287109 140.17C0.287109 217.21 62.9677 279.667 140.291 279.667C217.607 279.667 280.287 217.21 280.287 140.17C280.287 63.1232 217.607 0.666504 140.291 0.666504Z" fill="#F2F2F2"/>
</svg>
