<svg width="227" height="278" viewBox="0 0 227 278" fill="none" xmlns="http://www.w3.org/2000/svg">
<path d="M226.836 36.9843C226.836 46.7036 222.976 56.0249 216.106 62.8975C209.235 69.7701 199.916 73.6311 190.199 73.6311L74.1104 73.6311L74.1104 240.691C74.1104 250.41 70.2505 259.731 63.3797 266.604C56.5089 273.476 47.1902 277.337 37.4734 277.337C27.7567 277.337 18.4379 273.476 11.5672 266.604C4.69638 259.731 0.836426 250.41 0.836426 240.691L0.836426 36.9843C0.836421 27.2712 4.69145 17.9553 11.5545 11.0837C18.4175 4.21214 27.727 0.346943 37.4375 0.33742L190.164 0.33742C194.978 0.332699 199.746 1.27711 204.195 3.11668C208.644 4.95624 212.687 7.65488 216.093 11.0583C219.499 14.4618 222.201 18.5033 224.044 22.9518C225.888 27.4004 226.836 32.1687 226.836 36.9843V36.9843Z" fill="#F2F2F2"/>
</svg>
