<svg width="279" height="280" viewBox="0 0 279 280" fill="none" xmlns="http://www.w3.org/2000/svg">
<path d="M261.117 59.5268L278.369 53.0637L271.757 35.4842L275.573 17.0987L257.404 13.3395L244.261 0.222656L232.88 11.5881L221.498 0.222656L210.117 11.5881L198.728 0.222656L187.346 11.5881L175.965 0.222656L164.583 11.5881L153.194 0.222656L141.813 11.5881L130.431 0.222656L119.05 11.5881L107.661 0.222656L96.2793 11.5881L84.8978 0.222656L73.5162 11.5881L62.1274 0.222656L50.7458 11.5881L39.3643 0.222656L27.858 11.7127L7.94949 13.1343L9.28504 31.8349L0.369141 48.3079L16.5792 57.0573L25.1796 73.3325L41.8519 64.5537L52.3162 75.0032L63.6977 63.6304L75.0793 75.0032L86.4681 63.6304L97.8497 75.0032L105.995 66.8693L114.199 75.0618L102.818 86.4273L114.199 97.7928L102.818 109.166L114.199 120.531L102.818 131.897L114.199 143.262L102.818 154.635L114.199 166L102.818 177.366L114.199 188.731L102.818 200.104L114.199 211.469L102.818 222.835L114.162 234.164L102.818 245.742L116.092 258.712L120.04 276.804L138.415 272.803L156.086 279.223L162.382 261.922L177.271 250.974L166.829 236.802L177.704 225.942L166.315 214.576L177.704 203.211L166.315 191.838L177.704 180.473L166.315 169.107L177.704 157.742L166.315 146.369L177.704 135.004L166.315 123.638L177.704 112.273L166.315 100.9L177.704 89.5343L166.315 78.1688L174.519 69.9763L179.56 75.0032L190.942 63.6304L202.323 75.0032L213.705 63.6304L225.094 75.0032L235.932 64.1727L250.315 74.5123L261.117 59.5268Z" fill="#F2F2F2"/>
</svg>
