<svg width="300" height="299" viewBox="0 0 300 299" fill="none" xmlns="http://www.w3.org/2000/svg">
<path d="M286.755 168.932L300 156.869L287.745 143.445L298.714 128.949L284.574 118.293L292.505 102.475L276.923 94.7025L281.816 78.0379L265.276 73.2032L267.153 56.1033L250.091 54.2456L248.969 37.1457L231.79 38.265L227.692 21.5848L210.84 25.7121L203.812 9.91019L187.708 17.0999L177.744 2.55722L162.832 12.7628L150.016 0L137.223 12.7628L122.319 2.55722L112.323 17.0999L96.2188 9.94905L89.1601 25.7587L72.3082 21.5925L68.2024 38.2727L51.0622 37.1535L49.9403 54.2534L32.8702 56.1188L34.7478 73.2188L18.1686 78.0379L23.0613 94.7025L7.47935 102.475L15.4184 118.293L1.28551 128.949L12.263 143.445L0 156.869L13.2447 168.932L3.802 184.166L18.6984 193.392L12.2942 209.715L28.3982 216.019L25.0169 232.955L41.9 236.29L41.5182 253.39L58.6973 253.763L61.3151 270.707L78.3774 268.08L83.9635 284.403L100.504 278.775L109.019 293.994L124.601 285.312L135.992 299L150.016 287.38L164.039 299L175.43 285.312L191.012 293.994L199.527 278.775L216.06 284.411L221.646 268.088L238.708 270.707L241.326 253.771L258.466 253.398L258.131 236.29L275.022 232.924L271.641 215.988L287.753 209.684L281.341 193.361L296.253 184.135L286.755 168.932ZM200.01 199.385C188.443 210.926 173.223 218.109 156.942 219.71C140.662 221.31 124.329 217.229 110.726 208.163C97.1231 199.096 87.0923 185.604 82.3426 169.986C77.5929 154.369 78.4182 137.591 84.6778 122.512C90.9374 107.433 102.244 94.9859 116.671 87.2915C131.098 79.597 147.753 77.1313 163.799 80.3143C179.844 83.4974 194.286 92.1324 204.665 104.748C215.044 117.363 220.718 133.179 220.719 149.5C220.745 158.768 218.928 167.949 215.374 176.512C211.819 185.075 206.597 192.849 200.01 199.385Z" fill="#F2F2F2"/>
</svg>
