<svg width="280" height="278" viewBox="0 0 280 278" fill="none" xmlns="http://www.w3.org/2000/svg">
<path d="M279.89 59.5217C279.89 57.3536 279.395 55.214 278.442 53.2647C277.49 51.3153 276.105 49.6074 274.393 48.27C276.534 46.5948 278.153 44.3476 279.061 41.7904C279.968 39.2332 280.128 36.4715 279.521 33.8274C278.913 31.1833 277.564 28.7657 275.63 26.8567C273.697 24.9477 271.258 23.626 268.599 23.0457C269.737 19.9866 269.792 16.6318 268.755 13.5373C267.718 10.4427 265.651 7.7942 262.896 6.03058C260.142 4.26696 256.866 3.49409 253.61 3.84005C250.355 4.18601 247.316 5.63003 244.996 7.93282C243.147 5.48896 240.561 3.70016 237.617 2.82902C234.672 1.95788 231.526 2.05028 228.638 3.09267C225.75 4.13506 223.274 6.07253 221.572 8.62064C219.871 11.1688 219.034 14.1933 219.185 17.2503C216.977 16.86 214.708 16.9906 212.56 17.6316C210.412 18.2725 208.445 19.406 206.816 20.9411C205.187 22.4763 203.941 24.3704 203.179 26.4718C202.416 28.5731 202.159 30.8231 202.426 33.0416C200.269 32.7866 198.082 33.0232 196.03 33.7333C193.978 34.4435 192.114 35.6087 190.58 37.1412C189.046 38.6736 187.881 40.5333 187.173 42.5799C186.465 44.6264 186.232 46.8065 186.493 48.9556C184.339 48.6989 182.154 48.9329 180.104 49.6401C178.053 50.3472 176.191 51.509 174.656 53.0379C173.122 54.5668 171.956 56.4229 171.247 58.4662C170.537 60.5095 170.302 62.6867 170.56 64.8336C168.403 64.5737 166.216 64.8053 164.162 65.5108C162.108 66.2163 160.242 67.3773 158.704 68.9063C157.167 70.4353 155.997 72.2923 155.285 74.3373C154.572 76.3823 154.335 78.5618 154.591 80.7115C151.393 80.3247 148.158 81.0231 145.407 82.6941C142.657 84.365 140.552 86.9109 139.432 89.9207C138.041 89.6767 136.621 89.6378 135.217 89.8052C135.474 87.6586 135.238 85.482 134.528 83.4394C133.818 81.3968 132.652 79.5413 131.118 78.0127C129.584 76.4842 127.722 75.3223 125.672 74.6146C123.623 73.907 121.438 73.672 119.284 73.9273C119.542 71.7773 119.305 69.5971 118.593 67.5515C117.881 65.5059 116.712 63.6483 115.174 62.119C113.636 60.5896 111.769 59.4286 109.714 58.7236C107.66 58.0186 105.472 57.7881 103.315 58.0494C103.571 55.9027 103.335 53.7262 102.625 51.6836C101.915 49.6409 100.749 47.7855 99.2154 46.2569C97.6815 44.7283 95.8196 43.5664 93.7698 42.8588C91.7201 42.1511 89.536 41.9161 87.3819 42.1714C87.6381 40.0248 87.4023 37.8482 86.6922 35.8056C85.9821 33.763 84.8162 31.9075 83.2823 30.3789C81.7484 28.8504 79.8865 27.6885 77.8368 26.9808C75.787 26.2732 73.6029 26.0382 71.4488 26.2935C71.7735 23.7994 71.433 21.2641 70.4615 18.9429C69.4899 16.6217 67.9218 14.5966 65.9149 13.0716C63.9081 11.5466 61.5334 10.5756 59.0301 10.2562C56.5268 9.93693 53.9832 10.2806 51.6556 11.2528C50.9135 8.09454 49.1168 5.28123 46.56 3.27388C44.0033 1.26654 40.8381 0.184247 37.5832 0.204377C34.3284 0.224508 31.1769 1.34587 28.6454 3.38468C26.1138 5.4235 24.3523 8.25882 23.6496 11.426C20.6532 10.3177 17.3713 10.2378 14.3242 11.1988C11.277 12.1597 8.63882 14.1067 6.82775 16.731C5.01667 19.3554 4.13629 22.507 4.32615 25.6864C4.516 28.8658 5.76522 31.8912 7.87582 34.283C5.8408 35.4526 4.12512 37.1024 2.87951 39.0873C1.6339 41.0723 0.896467 43.3316 0.731988 45.667C0.567508 48.0024 0.981015 50.3423 1.93619 52.4811C2.89136 54.62 4.35896 56.4924 6.21009 57.9339C4.49817 59.2707 3.11381 60.9781 2.1618 62.9268C1.20979 64.8756 0.715065 67.0146 0.715065 69.1819C0.715065 71.3493 1.20979 73.4883 2.1618 75.4371C3.11381 77.3858 4.49817 79.0932 6.21009 80.43C4.49817 81.7669 3.11381 83.4743 2.1618 85.423C1.20979 87.3717 0.715065 89.5107 0.715065 91.6781C0.715065 93.8455 1.20979 95.9845 2.1618 97.9332C3.11381 99.8819 4.49817 101.589 6.21009 102.926C4.49806 104.264 3.11369 105.972 2.16167 107.921C1.20966 109.87 0.714942 112.01 0.714942 114.178C0.714942 116.346 1.20966 118.485 2.16167 120.435C3.11369 122.384 4.49806 124.092 6.21009 125.43C4.49817 126.766 3.11381 128.474 2.1618 130.422C1.20979 132.371 0.715065 134.51 0.715065 136.678C0.715065 138.845 1.20979 140.984 2.1618 142.933C3.11381 144.881 4.49817 146.589 6.21009 147.926C4.49817 149.263 3.11381 150.97 2.1618 152.919C1.20979 154.867 0.715065 157.006 0.715065 159.174C0.715065 161.341 1.20979 163.48 2.1618 165.429C3.11381 167.378 4.49817 169.085 6.21009 170.422C4.49817 171.759 3.11381 173.466 2.1618 175.415C1.20979 177.363 0.715065 179.502 0.715065 181.67C0.715065 183.837 1.20979 185.976 2.1618 187.925C3.11381 189.874 4.49817 191.581 6.21009 192.918C4.49806 194.256 3.11369 195.964 2.16167 197.913C1.20966 199.862 0.714942 202.002 0.714942 204.17C0.714942 206.338 1.20966 208.477 2.16167 210.426C3.11369 212.376 4.49806 214.084 6.21009 215.421C4.44182 216.806 3.02491 218.585 2.0737 220.616C1.12249 222.647 0.663609 224.872 0.734092 227.112C0.804575 229.352 1.40245 231.544 2.47946 233.511C3.55648 235.478 5.08247 237.166 6.93432 238.437C4.64409 240.44 3.05268 243.116 2.3904 246.08C1.72812 249.044 2.02933 252.141 3.25043 254.922C4.47153 257.704 6.54918 260.027 9.1827 261.554C11.8162 263.08 14.869 263.733 17.8992 263.416C17.882 266.665 18.9748 269.824 20.998 272.372C23.0211 274.92 25.8541 276.706 29.0312 277.437C32.2082 278.167 35.5402 277.799 38.4792 276.392C41.4183 274.985 43.7894 272.623 45.2027 269.695C47.9024 271.539 51.1531 272.408 54.4164 272.16C57.6798 271.911 60.76 270.559 63.147 268.328C65.534 266.096 67.0847 263.119 67.5421 259.89C67.9995 256.66 67.3363 253.372 65.6622 250.569C68.0029 249.634 70.0549 248.1 71.6113 246.123C73.1677 244.145 74.1736 241.794 74.5276 239.306C74.8815 236.818 74.5711 234.28 73.6275 231.95C72.684 229.619 71.1406 227.577 69.153 226.031C70.8651 224.693 72.2494 222.985 73.2015 221.036C74.1535 219.086 74.6482 216.947 74.6482 214.779C74.6482 212.611 74.1535 210.472 73.2015 208.522C72.2494 206.573 70.8651 204.865 69.153 203.527C70.865 202.19 72.2493 200.483 73.2013 198.534C74.1533 196.586 74.6481 194.447 74.6481 192.279C74.6481 190.112 74.1533 187.973 73.2013 186.024C72.2493 184.075 70.865 182.368 69.153 181.031C70.865 179.694 72.2493 177.987 73.2013 176.038C74.1533 174.089 74.6481 171.95 74.6481 169.783C74.6481 167.616 74.1533 165.477 73.2013 163.528C72.2493 161.579 70.865 159.872 69.153 158.535C70.8651 157.197 72.2494 155.489 73.2015 153.54C74.1535 151.591 74.6482 149.451 74.6482 147.283C74.6482 145.115 74.1535 142.976 73.2015 141.027C72.2494 139.077 70.8651 137.369 69.153 136.032C70.7197 134.804 72.012 133.265 72.9473 131.511C73.8827 129.758 74.4404 127.829 74.5848 125.848C76.1157 127.294 77.9483 128.385 79.9515 129.042C81.9548 129.7 84.0791 129.908 86.1725 129.652C85.9163 131.798 86.1521 133.975 86.8622 136.017C87.5723 138.06 88.7382 139.916 90.2721 141.444C91.806 142.973 93.6679 144.135 95.7176 144.842C97.7674 145.55 99.9515 145.785 102.106 145.53C101.829 147.811 102.109 150.124 102.92 152.275C103.732 154.426 105.051 156.35 106.767 157.884C108.483 159.419 110.545 160.518 112.778 161.09C115.011 161.662 117.35 161.689 119.596 161.169C119.661 164.314 120.764 167.35 122.734 169.808C124.704 172.266 127.432 174.01 130.495 174.769C133.558 175.527 136.787 175.26 139.683 174.007C142.579 172.755 144.98 170.587 146.515 167.838C148.77 169.49 151.46 170.45 154.254 170.6C157.049 170.75 159.827 170.084 162.246 168.683C164.666 167.282 166.623 165.207 167.876 162.713C169.129 160.219 169.624 157.415 169.3 154.645C171.462 154.918 173.659 154.696 175.723 153.997C177.787 153.297 179.664 152.138 181.211 150.607C182.758 149.077 183.935 147.215 184.652 145.163C185.369 143.112 185.607 140.924 185.349 138.767C187.503 139.022 189.687 138.787 191.737 138.08C193.786 137.372 195.648 136.21 197.182 134.682C198.716 133.153 199.882 131.297 200.592 129.255C201.302 127.212 201.538 125.036 201.282 122.889C204.117 123.236 206.991 122.734 209.538 121.446C210.118 122.105 210.758 122.709 211.45 123.25C209.738 124.587 208.354 126.294 207.402 128.243C206.45 130.192 205.955 132.331 205.955 134.498C205.955 136.665 206.45 138.804 207.402 140.753C208.354 142.702 209.738 144.409 211.45 145.746C209.738 147.083 208.354 148.79 207.402 150.739C206.45 152.688 205.955 154.827 205.955 156.994C205.955 159.162 206.45 161.301 207.402 163.249C208.354 165.198 209.738 166.905 211.45 168.242C209.738 169.58 208.354 171.288 207.402 173.237C206.45 175.186 205.955 177.326 205.955 179.494C205.955 181.662 206.45 183.801 207.402 185.751C208.354 187.7 209.738 189.408 211.45 190.746C209.738 192.082 208.354 193.79 207.402 195.739C206.45 197.687 205.955 199.826 205.955 201.994C205.955 204.161 206.45 206.3 207.402 208.249C208.354 210.197 209.738 211.905 211.45 213.242C209.703 214.605 208.298 216.353 207.344 218.349C206.39 220.346 205.915 222.535 205.954 224.746C205.993 226.956 206.547 229.127 207.571 231.089C208.595 233.05 210.062 234.748 211.856 236.048C209.566 237.924 207.915 240.46 207.13 243.308C206.345 246.156 206.463 249.176 207.47 251.954C208.476 254.733 210.32 257.132 212.75 258.824C215.18 260.516 218.075 261.416 221.039 261.402C220.684 264.653 221.458 267.927 223.231 270.679C225.003 273.431 227.668 275.495 230.782 276.527C233.895 277.56 237.27 277.499 240.343 276.354C243.417 275.21 246.005 273.051 247.676 270.236C250.185 272.345 253.343 273.533 256.625 273.605C259.906 273.676 263.113 272.626 265.712 270.628C268.311 268.631 270.146 265.807 270.911 262.627C271.676 259.446 271.325 256.1 269.917 253.146C272.402 252.353 274.622 250.901 276.341 248.946C278.059 246.99 279.211 244.604 279.671 242.046C280.131 239.487 279.883 236.852 278.953 234.423C278.023 231.994 276.447 229.864 274.393 228.261C276.105 226.924 277.489 225.217 278.441 223.268C279.393 221.319 279.888 219.18 279.888 217.013C279.888 214.845 279.393 212.706 278.441 210.758C277.489 208.809 276.105 207.101 274.393 205.765C276.105 204.428 277.489 202.72 278.441 200.772C279.393 198.823 279.888 196.684 279.888 194.517C279.888 192.349 279.393 190.21 278.441 188.261C277.489 186.313 276.105 184.605 274.393 183.269C276.105 181.932 277.489 180.224 278.441 178.276C279.393 176.327 279.888 174.188 279.888 172.02C279.888 169.853 279.393 167.714 278.441 165.765C277.489 163.817 276.105 162.109 274.393 160.772C276.105 159.435 277.489 157.727 278.441 155.777C279.393 153.828 279.888 151.689 279.888 149.521C279.888 147.353 279.393 145.213 278.441 143.264C277.489 141.315 276.105 139.607 274.393 138.269C276.105 136.932 277.489 135.225 278.441 133.276C279.393 131.327 279.888 129.188 279.888 127.021C279.888 124.854 279.393 122.715 278.441 120.766C277.489 118.817 276.105 117.11 274.393 115.773C276.105 114.436 277.489 112.729 278.441 110.78C279.393 108.831 279.888 106.692 279.888 104.525C279.888 102.357 279.393 100.218 278.441 98.2697C277.489 96.3209 276.105 94.6136 274.393 93.2767C276.105 91.9391 277.489 90.2311 278.441 88.2818C279.393 86.3325 279.888 84.1929 279.888 82.025C279.888 79.8571 279.393 77.7176 278.441 75.7683C277.489 73.819 276.105 72.1109 274.393 70.7734C276.106 69.4367 277.491 67.7289 278.444 65.7794C279.396 63.8299 279.891 61.6899 279.89 59.5217V59.5217ZM70.1018 114.373C69.899 114.178 69.689 113.983 69.4717 113.803C69.7035 113.803 69.9449 113.781 70.1959 113.738C70.138 113.954 70.1163 114.171 70.1018 114.38V114.373Z" fill="#F2F2F2"/>
</svg>
