<svg width="278" height="279" viewBox="0 0 278 279" fill="none" xmlns="http://www.w3.org/2000/svg">
<path d="M241.325 0.984131L37.0128 0.984131C27.2645 0.984131 17.9079 4.84935 11.0013 11.7295C4.09474 18.6096 0.203948 27.9411 0.184858 37.6711H0.184858C0.165768 47.4011 4.01995 56.7326 10.8995 63.6127C17.7791 70.4928 27.1205 74.3581 36.8688 74.3581L102.244 74.3581L101.916 241.6C101.897 251.33 105.751 260.662 112.63 267.542C119.51 274.422 128.851 278.287 138.6 278.287C148.348 278.287 157.705 274.422 164.611 267.542C171.518 260.662 175.408 251.33 175.428 241.6L175.756 74.394L241.131 74.394C250.879 74.394 260.236 70.5288 267.142 63.6487C274.049 56.7685 277.94 47.4371 277.959 37.7071C277.987 27.9796 274.144 18.6465 267.275 11.76C260.405 4.87353 251.071 0.997478 241.325 0.984131V0.984131Z" fill="#F2F2F2"/>
</svg>
