<svg width="227" height="278" viewBox="0 0 227 278" fill="none" xmlns="http://www.w3.org/2000/svg">
<path d="M226.731 36.9242C226.731 46.6436 222.871 55.9648 216.001 62.8375C209.13 69.7101 199.811 73.5711 190.094 73.5711H74.0054L74.0054 240.63C74.0054 250.35 70.1455 259.671 63.2747 266.544C56.4039 273.416 47.0852 277.277 37.3684 277.277C27.6517 277.277 18.3329 273.416 11.4622 266.544C4.5914 259.671 0.731445 250.35 0.731445 240.63L0.731445 36.9242C0.731441 27.2111 4.58647 17.8953 11.4495 11.0237C18.3125 4.15209 27.622 0.286884 37.3325 0.277361L190.059 0.277361C194.873 0.27264 199.641 1.21706 204.09 3.05662C208.539 4.89618 212.582 7.59482 215.988 10.9983C219.394 14.4017 222.096 18.4432 223.939 22.8918C225.783 27.3403 226.731 32.1087 226.731 36.9242V36.9242Z" fill="#F2F2F2"/>
</svg>
