<svg width="227" height="278" viewBox="0 0 227 278" fill="none" xmlns="http://www.w3.org/2000/svg">
<path d="M226.124 36.6508C226.124 46.3701 222.264 55.6914 215.393 62.564C208.522 69.4367 199.203 73.2976 189.487 73.2976L73.3975 73.2976L73.3975 240.357C73.3975 250.076 69.5376 259.398 62.6668 266.27C55.796 273.143 46.4773 277.004 36.7605 277.004C27.0438 277.004 17.725 273.143 10.8543 266.27C3.98349 259.398 0.123535 250.076 0.123535 240.357L0.123535 36.6508C0.12353 26.9377 3.97856 17.6218 10.8416 10.7502C17.7046 3.87865 27.0141 0.0134465 36.7246 0.00392386L189.451 0.00392386C194.265 -0.000797273 199.033 0.943618 203.482 2.78318C207.931 4.62274 211.974 7.32139 215.38 10.7248C218.786 14.1283 221.488 18.1698 223.331 22.6183C225.175 27.0669 226.124 31.8352 226.124 36.6508V36.6508Z" fill="#F2F2F2"/>
</svg>
