<svg width="280" height="279" viewBox="0 0 280 279" fill="none" xmlns="http://www.w3.org/2000/svg">
<path d="M140.004 73.8191C155.253 73.8208 170.029 79.0908 181.816 88.7312C193.602 98.3716 201.67 111.786 204.644 126.689C207.617 141.592 205.313 157.061 198.124 170.46C190.935 183.86 179.305 194.362 165.217 200.176C151.128 205.99 135.452 206.756 120.86 202.345C106.268 197.933 93.6623 188.617 85.1908 175.983C76.7193 163.349 72.9062 148.179 74.4011 133.058C75.896 117.937 82.6064 103.8 93.389 93.0555C99.4963 86.9369 106.761 82.0863 114.762 78.7843C122.764 75.4824 131.343 73.7947 140.004 73.8191V73.8191ZM140.004 0C62.6806 0 0 62.4567 0 139.504C0 216.543 62.6806 279 140.004 279C217.319 279 280 216.543 280 139.504C280 62.4567 217.319 0 140.004 0Z" fill="#F2F2F2"/>
</svg>
