<svg width="280" height="280" viewBox="0 0 280 280" fill="none" xmlns="http://www.w3.org/2000/svg">
<path d="M279.495 69.6572C279.489 67.4834 278.991 65.3394 278.039 63.3864C277.087 61.4334 275.705 59.7222 273.998 58.3817C275.85 56.9262 277.317 55.0362 278.268 52.8784C279.22 50.7206 279.627 48.3613 279.455 46.0083C279.282 43.6554 278.535 41.3811 277.279 39.3859C276.023 37.3907 274.297 35.736 272.253 34.5674C274.371 32.1669 275.63 29.1261 275.829 25.9271C276.028 22.7281 275.156 19.5541 273.351 16.9084C271.546 14.2628 268.912 12.2969 265.866 11.3226C262.821 10.3483 259.538 10.4212 256.538 11.53C255.936 8.8799 254.597 6.45505 252.677 4.53615C250.757 2.61725 248.334 1.28278 245.689 0.687198C243.043 0.0916201 240.284 0.259298 237.73 1.17082C235.176 2.08234 232.932 3.70044 231.257 5.83779C229.914 4.1228 228.201 2.73613 226.246 1.78256C224.29 0.829001 222.145 0.333496 219.97 0.333496C217.796 0.333496 215.65 0.829001 213.695 1.78256C211.739 2.73613 210.026 4.1228 208.684 5.83779C207.342 4.1229 205.629 2.73626 203.675 1.7827C201.72 0.829135 199.575 0.333621 197.401 0.333621C195.227 0.333621 193.082 0.829135 191.127 1.7827C189.172 2.73626 187.46 4.1229 186.118 5.83779C184.776 4.1228 183.062 2.73613 181.107 1.78256C179.152 0.829001 177.006 0.333496 174.832 0.333496C172.657 0.333496 170.511 0.829001 168.556 1.78256C166.601 2.73613 164.887 4.1228 163.545 5.83779C162.204 4.1229 160.491 2.73626 158.536 1.7827C156.582 0.829135 154.436 0.333621 152.262 0.333621C150.089 0.333621 147.943 0.829135 145.989 1.7827C144.034 2.73626 142.321 4.1229 140.98 5.83779C139.637 4.1228 137.924 2.73613 135.969 1.78256C134.013 0.829001 131.867 0.333496 129.693 0.333496C127.519 0.333496 125.373 0.829001 123.418 1.78256C121.462 2.73613 119.749 4.1228 118.407 5.83779C117.065 4.1229 115.352 2.73626 113.398 1.7827C111.443 0.829135 109.298 0.333621 107.124 0.333621C104.95 0.333621 102.805 0.829135 100.85 1.7827C98.8953 2.73626 97.1825 4.1229 95.841 5.83779C94.4988 4.1228 92.7853 2.73613 90.83 1.78256C88.8747 0.829001 86.7289 0.333496 84.5545 0.333496C82.3802 0.333496 80.2343 0.829001 78.2791 1.78256C76.3238 2.73613 74.6103 4.1228 73.2681 5.83779C71.9266 4.1229 70.2137 2.73626 68.2591 1.7827C66.3044 0.829135 64.159 0.333621 61.9852 0.333621C59.8115 0.333621 57.6661 0.829135 55.7114 1.7827C53.7568 2.73626 52.0439 4.1229 50.7024 5.83779C49.0911 3.78173 46.9517 2.20443 44.5138 1.27519C42.076 0.34596 39.4317 0.0998751 36.8649 0.563353C34.2981 1.02683 31.9057 2.18237 29.9444 3.90595C27.9831 5.62952 26.527 7.85604 25.7325 10.3465C22.8188 8.94758 19.5196 8.57498 16.3685 9.28901C13.2174 10.003 10.3988 11.7619 8.36841 14.2812C6.33806 16.8005 5.21478 19.9327 5.18025 23.1714C5.14573 26.4101 6.20199 29.5657 8.17817 32.1279C6.04169 33.2269 4.21453 34.8459 2.86417 36.8366C1.51382 38.8273 0.683472 41.126 0.449247 43.5219C0.215022 45.9179 0.584413 48.3345 1.52356 50.5501C2.4627 52.7658 3.94156 54.7097 5.82456 56.2036C4.11407 57.5485 2.73097 59.2658 1.77985 61.2255C0.828735 63.1852 0.33449 65.336 0.33449 67.5154C0.33449 69.6948 0.828735 71.8456 1.77985 73.8053C2.73097 75.765 4.11407 77.4823 5.82456 78.8272C4.11397 80.1729 2.73084 81.8907 1.77972 83.851C0.828602 85.8113 0.334365 87.9627 0.334365 90.1426C0.334365 92.3225 0.828602 94.4739 1.77972 96.4342C2.73084 98.3945 4.11397 100.112 5.82456 101.458C4.11407 102.803 2.73097 104.52 1.77985 106.48C0.828735 108.44 0.33449 110.59 0.33449 112.77C0.33449 114.949 0.828735 117.1 1.77985 119.06C2.73097 121.019 4.11407 122.737 5.82456 124.082C4.11397 125.427 2.73084 127.145 1.77972 129.105C0.828602 131.066 0.334365 133.217 0.334365 135.397C0.334365 137.577 0.828602 139.728 1.77972 141.689C2.73084 143.649 4.11397 145.367 5.82456 146.712C4.11407 148.057 2.73097 149.775 1.77985 151.734C0.828735 153.694 0.33449 155.845 0.33449 158.024C0.33449 160.204 0.828735 162.355 1.77985 164.314C2.73097 166.274 4.11407 167.991 5.82456 169.336C4.11397 170.682 2.73084 172.4 1.77972 174.36C0.828602 176.32 0.334365 178.472 0.334365 180.652C0.334365 182.831 0.828602 184.983 1.77972 186.943C2.73084 188.903 4.11397 190.621 5.82456 191.967C4.11407 193.312 2.73097 195.029 1.77985 196.989C0.828735 198.948 0.33449 201.099 0.33449 203.279C0.33449 205.458 0.828735 207.609 1.77985 209.569C2.73097 211.528 4.11407 213.246 5.82456 214.591C4.07881 215.963 2.6745 217.723 1.72211 219.731C0.769707 221.74 0.2952 223.943 0.335911 226.167C0.376623 228.391 0.931443 230.575 1.95672 232.547C2.98201 234.519 4.44978 236.226 6.24459 237.534C3.95193 239.421 2.29917 241.974 1.51385 244.842C0.728532 247.71 0.849274 250.751 1.85945 253.548C2.86964 256.344 4.71958 258.758 7.15458 260.456C9.58959 262.155 12.4899 263.055 15.4562 263.032C15.1211 266.288 15.9026 269.561 17.6718 272.312C19.441 275.063 22.0923 277.127 25.1887 278.165C28.285 279.203 31.6416 279.151 34.7051 278.02C37.7686 276.889 40.3561 274.744 42.0411 271.941C44.5515 274.061 47.7103 275.254 50.9916 275.323C54.273 275.392 57.4789 274.332 60.0755 272.32C62.6721 270.307 64.5028 267.463 65.2627 264.262C66.0226 261.061 65.6659 257.696 64.252 254.726C66.7292 253.927 68.9431 252.467 70.6567 250.504C72.3703 248.54 73.5192 246.146 73.9804 243.579C74.4416 241.011 74.1978 238.365 73.2751 235.926C72.3523 233.486 70.7854 231.344 68.7419 229.729C70.4537 228.384 71.838 226.666 72.79 224.706C73.7419 222.745 74.2366 220.594 74.2366 218.413C74.2366 216.233 73.7419 214.081 72.79 212.121C71.838 210.16 70.4537 208.443 68.7419 207.098C70.4536 205.754 71.8379 204.037 72.7898 202.077C73.7418 200.117 74.2365 197.966 74.2365 195.786C74.2365 193.606 73.7418 191.455 72.7898 189.495C71.8379 187.535 70.4536 185.818 68.7419 184.474C70.4537 183.129 71.838 181.412 72.79 179.451C73.7419 177.491 74.2366 175.339 74.2366 173.159C74.2366 170.978 73.7419 168.827 72.79 166.866C71.838 164.906 70.4537 163.188 68.7419 161.843C70.4536 160.499 71.8379 158.782 72.7898 156.822C73.7418 154.863 74.2365 152.711 74.2365 150.531C74.2365 148.352 73.7418 146.2 72.7898 144.241C71.8379 142.281 70.4536 140.564 68.7419 139.22C70.4537 137.875 71.838 136.157 72.79 134.197C73.7419 132.236 74.2366 130.085 74.2366 127.904C74.2366 125.724 73.7419 123.572 72.79 121.612C71.838 119.651 70.4537 117.934 68.7419 116.589C70.4536 115.245 71.8379 113.528 72.7898 111.568C73.7418 109.608 74.2365 107.457 74.2365 105.277C74.2365 103.097 73.7418 100.946 72.7898 98.9861C71.8379 97.0263 70.4536 95.3094 68.7419 93.9652C70.4537 92.6204 71.838 90.9028 72.79 88.9424C73.7419 86.982 74.2366 84.8302 74.2366 82.6498C74.2366 80.4695 73.7419 78.3176 72.79 76.3572C71.838 74.3969 70.4537 72.6792 68.7419 71.3344C69.6387 70.6301 70.4483 69.8209 71.1535 68.9239C72.4942 70.6387 74.2064 72.0253 76.1605 72.9789C78.1146 73.9324 80.2594 74.428 82.4327 74.428C84.6059 74.428 86.7507 73.9324 88.7048 72.9789C90.6589 72.0253 92.3711 70.6387 93.7119 68.9239C95.0525 70.64 96.7651 72.0278 98.7199 72.9822C100.675 73.9366 102.82 74.4326 104.995 74.4326C107.169 74.4326 109.315 73.9366 111.27 72.9822C113.224 72.0278 114.937 70.64 116.278 68.9239C117.619 70.6401 119.332 72.028 121.288 72.9824C123.243 73.9367 125.389 74.4327 127.564 74.4327C129.739 74.4327 131.885 73.9367 133.84 72.9824C135.796 72.028 137.509 70.6401 138.85 68.9239C140.191 70.64 141.904 72.0278 143.858 72.9822C145.813 73.9366 147.959 74.4326 150.133 74.4326C152.308 74.4326 154.453 73.9366 156.408 72.9822C158.363 72.0278 160.075 70.64 161.416 68.9239C162.757 70.6401 164.471 72.028 166.426 72.9824C168.381 73.9367 170.528 74.4327 172.703 74.4327C174.877 74.4327 177.024 73.9367 178.979 72.9824C180.934 72.028 182.648 70.6401 183.989 68.9239C185.33 70.64 187.042 72.0278 188.997 72.9822C190.952 73.9366 193.098 74.4326 195.272 74.4326C197.446 74.4326 199.592 73.9366 201.547 72.9822C203.501 72.0278 205.214 70.64 206.555 68.9239C207.245 69.7909 208.032 70.5754 208.901 71.2618C207.675 72.7413 206.758 74.4521 206.202 76.2931C205.647 78.1341 205.465 80.068 205.668 81.9805C205.87 83.8931 206.453 85.7456 207.382 87.4287C208.31 89.1118 209.565 90.5913 211.074 91.7798C209.363 93.1248 207.98 94.842 207.029 96.8017C206.078 98.7614 205.584 100.912 205.584 103.092C205.584 105.271 206.078 107.422 207.029 109.382C207.98 111.341 209.363 113.059 211.074 114.403C209.363 115.749 207.98 117.467 207.029 119.427C206.078 121.388 205.583 123.539 205.583 125.719C205.583 127.899 206.078 130.05 207.029 132.01C207.98 133.971 209.363 135.689 211.074 137.034C209.363 138.379 207.98 140.096 207.029 142.056C206.078 144.016 205.584 146.167 205.584 148.346C205.584 150.525 206.078 152.676 207.029 154.636C207.98 156.596 209.363 158.313 211.074 159.658C209.363 161.004 207.98 162.721 207.029 164.682C206.078 166.642 205.583 168.793 205.583 170.973C205.583 173.153 206.078 175.305 207.029 177.265C207.98 179.225 209.363 180.943 211.074 182.289C209.363 183.634 207.98 185.351 207.029 187.311C206.078 189.27 205.584 191.421 205.584 193.601C205.584 195.78 206.078 197.931 207.029 199.89C207.98 201.85 209.363 203.567 211.074 204.912C209.362 206.258 207.977 207.976 207.025 209.937C206.073 211.898 205.579 214.05 205.579 216.231C205.579 218.412 206.073 220.565 207.025 222.526C207.977 224.487 209.362 226.205 211.074 227.55C209.089 229.11 207.549 231.166 206.609 233.512C205.669 235.858 205.362 238.41 205.719 240.913C206.076 243.415 207.084 245.78 208.642 247.767C210.199 249.755 212.252 251.296 214.593 252.236C212.926 255.061 212.273 258.372 212.74 261.621C213.207 264.87 214.768 267.861 217.163 270.099C219.558 272.336 222.644 273.686 225.909 273.925C229.175 274.164 232.423 273.277 235.117 271.411C236.537 274.353 238.913 276.722 241.855 278.129C244.796 279.537 248.128 279.899 251.303 279.155C254.477 278.412 257.304 276.607 259.319 274.038C261.334 271.469 262.417 268.29 262.389 265.022C265.418 265.335 268.467 264.676 271.097 263.139C273.727 261.602 275.802 259.267 277.022 256.471C278.242 253.674 278.544 250.562 277.885 247.582C277.226 244.602 275.639 241.91 273.354 239.893C275.201 238.611 276.723 236.912 277.795 234.932C278.867 232.952 279.46 230.748 279.526 228.496C279.593 226.244 279.13 224.009 278.176 221.969C277.222 219.929 275.803 218.143 274.034 216.754C275.746 215.409 277.13 213.692 278.082 211.731C279.034 209.771 279.529 207.619 279.529 205.439C279.529 203.258 279.034 201.107 278.082 199.146C277.13 197.186 275.746 195.468 274.034 194.123C275.746 192.779 277.13 191.062 278.082 189.102C279.034 187.143 279.529 184.991 279.529 182.811C279.529 180.632 279.034 178.48 278.082 176.521C277.13 174.561 275.746 172.844 274.034 171.5C275.746 170.155 277.13 168.437 278.082 166.477C279.034 164.516 279.529 162.365 279.529 160.184C279.529 158.004 279.034 155.852 278.082 153.892C277.13 151.931 275.746 150.214 274.034 148.869C275.746 147.525 277.13 145.808 278.082 143.848C279.034 141.888 279.529 139.737 279.529 137.557C279.529 135.377 279.034 133.226 278.082 131.266C277.13 129.306 275.746 127.589 274.034 126.245C275.746 124.9 277.13 123.183 278.082 121.222C279.034 119.262 279.529 117.11 279.529 114.93C279.529 112.749 279.034 110.598 278.082 108.637C277.13 106.677 275.746 104.959 274.034 103.614C275.746 102.27 277.13 100.553 278.082 98.5935C279.034 96.6337 279.529 94.4824 279.529 92.3026C279.529 90.1228 279.034 87.9715 278.082 86.0117C277.13 84.0519 275.746 82.3349 274.034 80.9908C275.742 79.6399 277.12 77.9177 278.066 75.9543C279.012 73.9909 279.501 71.8377 279.495 69.6572Z" fill="#F2F2F2"/>
</svg>
