<svg width="430" height="360" viewBox="0 0 430 360" fill="none" xmlns="http://www.w3.org/2000/svg">
<path fill-rule="evenodd" clip-rule="evenodd" d="M407.296 196.059L429.442 173.674L407.296 151.288L422.122 123.38L395.387 108.892L401.674 78.8704L372.294 72.5775L370.214 42.2947L340.145 44.4089L329.786 15.7678L300.898 26.4134L282.615 1.46582L257.197 20.5309L231.779 1.46582L213.459 26.4134L184.608 15.7678L174.286 44.3716L144.217 42.2574L142.1 72.5775L112.72 78.8704L119.007 108.892L92.2478 123.418L107.098 151.325L84.952 173.711L107.098 196.096L92.334 224.004L119.093 238.53L112.806 268.551L142.187 274.844L144.266 305.127L174.335 303.013L184.657 331.617L213.545 320.971L231.779 345.956L257.197 326.841L282.628 345.956L300.935 320.996L329.786 331.604L340.121 303L370.177 305.114L372.257 274.832L401.637 268.539L395.35 238.517L422.109 223.991L407.296 196.059Z" fill="#FFD916"/>
<rect x="275.749" y="245.698" width="54.8089" height="7.74684" rx="3.87342" transform="rotate(-165 275.749 245.698)" fill="#071EC3"/>
<rect x="266.328" y="195.318" width="54.9418" height="7.74684" rx="3.87342" transform="rotate(135 266.328 195.318)" fill="#071EC3"/>
<path d="M118.136 333.403C109.854 348.092 91.2317 353.286 76.5427 345.004C61.8537 336.722 56.6599 318.1 64.9421 303.411L124.927 197.023C133.209 182.334 151.831 177.141 166.52 185.423C181.209 193.705 186.403 212.327 178.121 227.016L118.136 333.403Z" fill="#FF1A87"/>
<path d="M31.1874 240.966C14.3068 241.138 0.48311 227.61 0.311225 210.751C0.13934 193.892 13.6844 180.086 30.565 179.914L152.825 178.667C169.705 178.495 183.529 192.023 183.701 208.882C183.873 225.741 170.328 239.547 153.447 239.719L31.1874 240.966Z" fill="#FF1A87"/>
</svg>
