<svg width="430" height="360" viewBox="0 0 430 360" fill="none" xmlns="http://www.w3.org/2000/svg">
<path d="M411.089 150.866C416.393 151.829 421.193 154.643 424.65 158.817C428.107 162.99 430.001 168.257 430.001 173.697C430.001 179.137 428.107 184.404 424.65 188.578C421.193 192.751 416.393 195.565 411.089 196.528C415.66 198.909 419.309 202.768 421.452 207.49C423.594 212.211 424.106 217.521 422.906 222.57C421.705 227.62 418.862 232.117 414.831 235.343C410.8 238.569 405.813 240.337 400.669 240.364H400.189C403.499 244.114 405.513 248.847 405.927 253.852C406.341 258.857 405.133 263.862 402.485 268.114C399.837 272.366 395.892 275.634 391.245 277.427C386.597 279.22 381.499 279.44 376.717 278.054C378.703 282.603 379.189 287.676 378.102 292.525C377.016 297.374 374.416 301.743 370.684 304.987C366.952 308.231 362.286 310.179 357.374 310.544C352.463 310.909 347.565 309.671 343.403 307.013C343.574 308.11 343.665 309.218 343.673 310.329C343.674 315.141 342.193 319.835 339.435 323.76C336.677 327.686 332.779 330.649 328.279 332.239C323.78 333.83 318.902 333.969 314.32 332.638C309.739 331.306 305.681 328.57 302.708 324.808C302.224 330.187 299.898 335.227 296.13 339.06C292.362 342.894 287.387 345.281 282.063 345.81C276.739 346.34 271.399 344.979 266.962 341.961C262.525 338.944 259.269 334.459 257.756 329.279C256.242 334.459 252.987 338.944 248.55 341.961C244.113 344.979 238.772 346.34 233.448 345.81C228.124 345.281 223.15 342.894 219.381 339.06C215.613 335.227 213.287 330.187 212.804 324.808C209.83 328.571 205.771 331.307 201.188 332.638C196.606 333.969 191.727 333.829 187.227 332.237C182.726 330.645 178.828 327.68 176.071 323.753C173.314 319.825 171.835 315.13 171.838 310.316C171.847 309.206 171.937 308.098 172.109 307.001C167.947 309.646 163.054 310.874 158.149 310.505C153.245 310.136 148.586 308.189 144.859 304.95C141.131 301.711 138.531 297.351 137.439 292.51C136.348 287.669 136.823 282.602 138.795 278.054C134.015 279.429 128.922 279.202 124.28 277.407C119.638 275.612 115.699 272.345 113.054 268.097C110.408 263.849 109.199 258.849 109.608 253.849C110.017 248.848 112.023 244.117 115.323 240.364H114.843C109.677 240.364 104.661 238.608 100.605 235.378C96.549 232.149 93.6885 227.634 92.4847 222.563C91.281 217.492 91.8042 212.159 93.9701 207.424C96.1359 202.69 99.8182 198.83 104.423 196.466C99.119 195.503 94.3189 192.689 90.8619 188.516C87.4049 184.342 85.5108 179.075 85.5108 173.635C85.5108 168.195 87.4049 162.928 90.8619 158.755C94.3189 154.581 99.119 151.767 104.423 150.804C99.8182 148.441 96.1359 144.58 93.9701 139.846C91.8042 135.111 91.281 129.779 92.4847 124.707C93.6885 119.636 96.549 115.122 100.605 111.892C104.661 108.663 109.677 106.906 114.843 106.906H115.323C112.069 103.149 110.104 98.4315 109.72 93.4563C109.335 88.481 110.552 83.5135 113.19 79.2926C115.827 75.0718 119.744 71.8231 124.357 70.03C128.971 68.2369 134.034 67.9951 138.795 69.3406C136.827 64.7935 136.356 59.7293 137.449 54.8917C138.543 50.0541 141.145 45.6981 144.873 42.4633C148.6 39.2286 153.257 37.2857 158.159 36.9198C163.062 36.554 167.951 37.7846 172.109 40.4309C171.937 39.334 171.847 38.2257 171.838 37.1153C171.835 32.3017 173.314 27.6062 176.071 23.6788C178.828 19.7513 182.726 16.7864 187.227 15.1944C191.727 13.6024 196.606 13.4622 201.188 14.7932C205.771 16.1242 209.83 18.8605 212.804 22.6232C213.274 17.2403 215.591 12.1917 219.353 8.34805C223.116 4.50436 228.09 2.1065 233.416 1.56793C238.743 1.02936 244.089 2.38383 248.532 5.39781C252.975 8.41178 256.237 12.8963 257.756 18.0781C259.269 12.8987 262.523 8.41378 266.959 5.39572C271.395 2.37766 276.734 1.01535 282.058 1.54333C287.382 2.07132 292.356 4.45656 296.126 8.28836C299.895 12.1202 302.222 17.1587 302.708 22.5363C305.681 18.7735 309.741 16.0373 314.323 14.7063C318.906 13.3753 323.785 13.5155 328.285 15.1075C332.785 16.6994 336.684 19.6644 339.441 23.5918C342.198 27.5193 343.677 32.2148 343.673 37.0283C343.665 38.1388 343.574 39.2471 343.403 40.344C347.566 37.6958 352.461 36.4658 357.368 36.8346C362.275 37.2034 366.936 39.1517 370.664 42.393C374.393 45.6343 376.993 49.9976 378.083 54.8416C379.172 59.6855 378.693 64.7545 376.717 69.3033C381.49 67.9399 386.573 68.1734 391.204 69.9689C395.836 71.7644 399.767 75.0254 402.409 79.264C405.051 83.5026 406.263 88.4908 405.863 93.4825C405.463 98.4742 403.472 103.201 400.189 106.955H400.669C405.835 106.956 410.85 108.712 414.906 111.942C418.963 115.171 421.823 119.686 423.027 124.757C424.231 129.828 423.707 135.161 421.542 139.896C419.376 144.63 415.694 148.49 411.089 150.854V150.866Z" fill="#FFD916"/>
<rect x="275.749" y="245.698" width="54.8089" height="7.74684" rx="3.87342" transform="rotate(-165 275.749 245.698)" fill="#071EC3"/>
<rect x="266.328" y="195.318" width="54.9418" height="7.74684" rx="3.87342" transform="rotate(135 266.328 195.318)" fill="#071EC3"/>
<path d="M118.136 333.403C109.854 348.092 91.2317 353.286 76.5427 345.004C61.8537 336.722 56.6599 318.1 64.9421 303.411L124.927 197.023C133.209 182.334 151.831 177.141 166.52 185.423C181.209 193.705 186.403 212.327 178.121 227.016L118.136 333.403Z" fill="#FF1A87"/>
<path d="M31.1874 240.966C14.3068 241.138 0.48311 227.61 0.311225 210.751C0.13934 193.892 13.6844 180.086 30.565 179.914L152.825 178.667C169.705 178.495 183.529 192.023 183.701 208.882C183.873 225.741 170.328 239.547 153.447 239.719L31.1874 240.966Z" fill="#FF1A87"/>
</svg>
