<svg width="430" height="360" viewBox="0 0 430 360" fill="none" xmlns="http://www.w3.org/2000/svg">
<path d="M420 173.932C420 264.231 346.799 337.432 256.5 337.432C166.201 337.432 93 264.231 93 173.932C93 83.6336 166.201 10.4321 256.5 10.4321C346.799 10.4321 420 83.6336 420 173.932Z" fill="#FFD916"/>
<rect x="275.749" y="245.698" width="54.8089" height="7.74684" rx="3.87342" transform="rotate(-165 275.749 245.698)" fill="#071EC3"/>
<rect x="266.328" y="195.318" width="54.9418" height="7.74684" rx="3.87342" transform="rotate(135 266.328 195.318)" fill="#071EC3"/>
<path d="M118.136 333.403C109.854 348.092 91.2317 353.286 76.5427 345.004C61.8537 336.722 56.6599 318.1 64.9421 303.411L124.927 197.023C133.209 182.334 151.831 177.141 166.52 185.423C181.209 193.705 186.403 212.327 178.121 227.016L118.136 333.403Z" fill="#FF1A87"/>
<path d="M31.1874 240.966C14.3068 241.138 0.48311 227.61 0.311225 210.751C0.13934 193.892 13.6844 180.086 30.565 179.914L152.825 178.667C169.705 178.495 183.529 192.023 183.701 208.882C183.873 225.741 170.328 239.547 153.447 239.719L31.1874 240.966Z" fill="#FF1A87"/>
</svg>
