<svg width="431" height="360" viewBox="0 0 431 360" fill="none" xmlns="http://www.w3.org/2000/svg">
<path d="M411.164 149.971C416.468 150.934 421.268 153.748 424.725 157.921C428.182 162.095 430.076 167.362 430.076 172.802C430.076 178.242 428.182 183.509 424.725 187.682C421.268 191.856 416.468 194.67 411.164 195.633C415.736 198.013 419.385 201.873 421.527 206.594C423.669 211.315 424.181 216.626 422.981 221.675C421.781 226.725 418.937 231.222 414.906 234.448C410.875 237.674 405.888 239.442 400.744 239.469H400.264C403.574 243.219 405.588 247.952 406.002 252.957C406.416 257.962 405.208 262.967 402.56 267.219C399.912 271.471 395.967 274.739 391.32 276.532C386.673 278.324 381.574 278.544 376.792 277.159C378.778 281.708 379.264 286.781 378.178 291.63C377.091 296.479 374.491 300.848 370.759 304.092C367.027 307.336 362.361 309.284 357.45 309.649C352.538 310.013 347.64 308.776 343.478 306.118C343.65 307.215 343.74 308.323 343.748 309.434C343.749 314.246 342.269 318.94 339.511 322.865C336.753 326.791 332.854 329.754 328.354 331.344C323.855 332.934 318.977 333.074 314.395 331.742C309.814 330.411 305.756 327.675 302.783 323.913C302.3 329.292 299.974 334.331 296.205 338.165C292.437 341.998 287.463 344.385 282.138 344.915C276.814 345.444 271.474 344.083 267.037 341.066C262.6 338.048 259.345 333.563 257.831 328.384C256.317 333.563 253.062 338.048 248.625 341.066C244.188 344.083 238.848 345.444 233.524 344.915C228.199 344.385 223.225 341.998 219.457 338.165C215.688 334.331 213.362 329.292 212.879 323.913C209.905 327.676 205.846 330.412 201.264 331.743C196.681 333.074 191.802 332.934 187.302 331.342C182.802 329.75 178.903 326.785 176.146 322.858C173.389 318.93 171.91 314.235 171.913 309.421C171.922 308.311 172.012 307.202 172.184 306.105C168.022 308.751 163.129 309.979 158.224 309.61C153.32 309.241 148.661 307.294 144.934 304.055C141.206 300.816 138.606 296.456 137.514 291.615C136.423 286.774 136.898 281.707 138.87 277.159C134.09 278.534 128.997 278.307 124.355 276.512C119.714 274.716 115.774 271.45 113.129 267.202C110.483 262.954 109.274 257.954 109.683 252.954C110.093 247.953 112.098 243.221 115.398 239.469H114.918C109.752 239.469 104.737 237.712 100.68 234.483C96.6242 231.253 93.7636 226.739 92.5599 221.668C91.3561 216.596 91.8794 211.263 94.0452 206.529C96.211 201.795 99.8933 197.934 104.498 195.571C99.1942 194.608 94.3941 191.794 90.937 187.62C87.48 183.447 85.5859 178.18 85.5859 172.74C85.5859 167.3 87.48 162.033 90.937 157.859C94.3941 153.686 99.1942 150.872 104.498 149.909C99.8933 147.545 96.211 143.685 94.0452 138.951C91.8794 134.216 91.3561 128.883 92.5599 123.812C93.7636 118.741 96.6242 114.226 100.68 110.997C104.737 107.767 109.752 106.011 114.918 106.01H115.398C112.144 102.253 110.179 97.5362 109.795 92.561C109.41 87.5858 110.627 82.6182 113.265 78.3974C115.902 74.1765 119.819 70.9279 124.432 69.1348C129.046 67.3416 134.11 67.0998 138.87 68.4453C136.902 63.8983 136.431 58.834 137.525 53.9964C138.619 49.1588 141.22 44.8028 144.948 41.5681C148.675 38.3333 153.332 36.3904 158.234 36.0246C163.137 35.6588 168.026 36.8894 172.184 39.5357C172.012 38.4388 171.922 37.3305 171.913 36.22C171.91 31.4065 173.389 26.7109 176.146 22.7835C178.903 18.8561 182.802 15.8911 187.302 14.2991C191.802 12.7072 196.681 12.567 201.264 13.8979C205.846 15.2289 209.905 17.9652 212.879 21.7279C213.35 16.345 215.666 11.2965 219.429 7.45278C223.191 3.6091 228.165 1.21124 233.491 0.672666C238.818 0.134094 244.164 1.48857 248.607 4.50254C253.05 7.51651 256.312 12.001 257.831 17.1829C259.344 12.0034 262.598 7.51852 267.034 4.50046C271.47 1.4824 276.809 0.120084 282.133 0.648071C287.457 1.17606 292.432 3.5613 296.201 7.39309C299.97 11.2249 302.297 16.2634 302.783 21.641C305.757 17.8783 309.816 15.142 314.398 13.811C318.981 12.4801 323.86 12.6202 328.36 14.2122C332.86 15.8042 336.759 18.7691 339.516 22.6966C342.273 26.624 343.752 31.3195 343.748 36.1331C343.74 37.2435 343.65 38.3518 343.478 39.4487C347.641 36.8006 352.536 35.5705 357.443 35.9393C362.35 36.3081 367.011 38.2564 370.739 41.4977C374.468 44.739 377.068 49.1024 378.158 53.9463C379.247 58.7902 378.768 63.8592 376.792 68.4081C381.566 67.0446 386.648 67.2781 391.28 69.0736C395.911 70.8691 399.842 74.1301 402.484 78.3687C405.126 82.6073 406.338 87.5956 405.938 92.5872C405.538 97.5789 403.547 102.306 400.264 106.06H400.744C405.91 106.06 410.925 107.817 414.982 111.047C419.038 114.276 421.898 118.79 423.102 123.862C424.306 128.933 423.783 134.266 421.617 139C419.451 143.735 415.769 147.595 411.164 149.959V149.971Z" fill="#FFD916"/>
<rect x="275.824" y="244.802" width="54.8089" height="7.74684" rx="3.87342" transform="rotate(-165 275.824 244.802)" fill="#071EC3"/>
<rect x="266.402" y="194.422" width="54.9418" height="7.74684" rx="3.87342" transform="rotate(135 266.402 194.422)" fill="#071EC3"/>
<path d="M118.211 332.508C109.929 347.197 91.3069 352.391 76.6178 344.109C61.9288 335.826 56.735 317.204 65.0172 302.515L125.002 196.128C133.284 181.439 151.906 176.245 166.595 184.528C181.284 192.81 186.478 211.432 178.196 226.121L118.211 332.508Z" fill="#FF1A87"/>
<path d="M31.2626 240.071C14.382 240.243 0.558305 226.715 0.38642 209.856C0.214536 192.997 13.7596 179.191 30.6402 179.019L152.9 177.772C169.781 177.6 183.604 191.128 183.776 207.987C183.948 224.846 170.403 238.652 153.522 238.824L31.2626 240.071Z" fill="#FF1A87"/>
</svg>
