<svg width="400" height="400" viewBox="0 0 400 400" fill="none" xmlns="http://www.w3.org/2000/svg">
<path fill-rule="evenodd" clip-rule="evenodd" d="M374.286 225.949L400 199.957L374.286 173.964L391.5 141.56L360.457 124.736L367.757 89.8773L333.643 82.5704L331.229 47.4079L296.314 49.8628L284.286 16.6065L250.743 28.9675L229.514 0L200 22.1372L170.486 0L149.214 28.9675L115.714 16.6065L103.729 49.8195L68.8143 47.3646L66.3571 82.5704L32.2429 89.8773L39.5429 124.736L8.47143 141.603L25.7143 174.007L0 200L25.7143 225.993L8.57143 258.397L39.6429 275.264L32.3429 310.123L66.4571 317.43L68.8714 352.592L103.786 350.137L115.771 383.35L149.314 370.989L170.486 400L200 377.805L229.529 400L250.786 371.018L284.286 383.336L296.286 350.123L331.186 352.578L333.6 317.415L367.714 310.108L360.414 275.249L391.486 258.383L374.286 225.949ZM200 375.148H200.7L200 376.101L199.3 375.148H200Z" fill="#FF5903"/>
<path d="M69 200.126C69 127.707 127.729 69 200.174 69C272.619 69 331.348 127.707 331.348 200.126C331.348 272.545 272.619 331.252 200.174 331.252C127.729 331.252 69 272.545 69 200.126Z" fill="#FFD916"/>
<rect x="240.888" y="200.293" width="42" height="7" rx="3.5" transform="rotate(-30 240.888 200.293)" fill="#071EC3"/>
<rect x="277.26" y="224.355" width="42" height="7" rx="3.5" transform="rotate(-150 277.26 224.355)" fill="#071EC3"/>
<rect x="159.761" y="203.355" width="42" height="7" rx="3.5" transform="rotate(150 159.761 203.355)" fill="#071EC3"/>
<rect x="123.388" y="179.293" width="42" height="7" rx="3.5" transform="rotate(30 123.388 179.293)" fill="#071EC3"/>
</svg>
