<svg width="400" height="400" viewBox="0 0 400 400" fill="none" xmlns="http://www.w3.org/2000/svg">
<path fill-rule="evenodd" clip-rule="evenodd" d="M374.286 225.949L400 199.957L374.286 173.964L391.5 141.56L360.457 124.736L367.757 89.8773L333.643 82.5704L331.229 47.4079L296.314 49.8628L284.286 16.6065L250.743 28.9675L229.514 0L200 22.1372L170.486 0L149.214 28.9675L115.714 16.6065L103.729 49.8195L68.8143 47.3646L66.3571 82.5704L32.2429 89.8773L39.5429 124.736L8.47143 141.603L25.7143 174.007L0 200L25.7143 225.993L8.57143 258.397L39.6429 275.264L32.3429 310.123L66.4571 317.43L68.8714 352.592L103.786 350.137L115.771 383.35L149.314 370.989L170.486 400L200 377.805L229.529 400L250.786 371.018L284.286 383.336L296.286 350.123L331.186 352.578L333.6 317.415L367.714 310.108L360.414 275.249L391.486 258.383L374.286 225.949ZM200 375.148H200.7L200 376.101L199.3 375.148H200Z" fill="#FF5903"/>
<path d="M68.8999 202.355C68.8999 129.936 127.629 71.229 200.074 71.229C272.519 71.229 331.248 129.936 331.248 202.355C331.248 274.774 272.519 333.481 200.074 333.481C127.629 333.481 68.8999 274.774 68.8999 202.355Z" fill="#FFD916"/>
<rect width="42.3541" height="7.44955" rx="3.72478" transform="matrix(0.707237 0.706977 0.707237 -0.706977 255.33 187.496)" fill="#071EC3"/>
<path d="M263.229 184.828C264.684 186.282 264.684 188.64 263.229 190.094L238.543 214.771C237.088 216.225 234.729 216.225 233.275 214.771V214.771C231.82 213.317 231.82 210.959 233.275 209.504L257.96 184.828C259.415 183.373 261.774 183.373 263.229 184.828V184.828Z" fill="#071EC3"/>
<rect width="42.3541" height="7.44955" rx="3.72478" transform="matrix(0.707237 0.706977 0.707237 -0.706977 134.533 187.496)" fill="#071EC3"/>
<path d="M142.432 184.828C143.887 186.282 143.887 188.64 142.432 190.094L117.746 214.771C116.291 216.225 113.933 216.225 112.478 214.771V214.771C111.023 213.317 111.023 210.959 112.478 209.504L137.164 184.828C138.618 183.373 140.977 183.373 142.432 184.828V184.828Z" fill="#071EC3"/>
</svg>
