<svg width="333" height="147" viewBox="0 0 333 147" fill="none" xmlns="http://www.w3.org/2000/svg">
<path fill-rule="evenodd" clip-rule="evenodd" d="M104.847 84.8872C99.2478 84.8872 88.634 87.4969 72.5452 103.586C56.1431 119.988 29.5502 119.988 13.1482 103.586C-3.25383 87.1837 -3.25383 60.5907 13.1482 44.1887C38.3927 18.9442 69.1122 0.887207 104.847 0.887207C140.581 0.887207 171.301 18.9442 196.545 44.1887C212.634 60.2775 223.248 62.8872 228.847 62.8872C234.446 62.8872 245.059 60.2775 261.148 44.1887C277.55 27.7867 304.143 27.7867 320.545 44.1887C336.947 60.5907 336.947 87.1837 320.545 103.586C295.301 128.83 264.581 146.887 228.847 146.887C193.112 146.887 162.393 128.83 137.148 103.586C121.059 87.4969 110.446 84.8872 104.847 84.8872Z" fill="#FF5903"/>
</svg>
