<svg width="197" height="197" viewBox="0 0 197 197" fill="none" xmlns="http://www.w3.org/2000/svg">
<path d="M87.6982 6.12382C93.141 -0.992969 103.859 -0.992969 109.302 6.12382V6.12382C113.375 11.4502 120.724 13.0121 126.612 9.80311V9.80311C134.479 5.51542 144.27 9.87479 146.347 18.5901V18.5901C147.902 25.1129 153.98 29.5286 160.664 28.9918V28.9918C169.595 28.2746 176.767 36.2396 175.12 45.0465V45.0465C173.887 51.6378 177.644 58.1437 183.968 60.372V60.372C192.418 63.3493 195.731 73.5426 190.644 80.9183V80.9183C186.837 86.4385 187.622 93.9097 192.494 98.5178V98.5178C199.003 104.675 197.882 115.334 190.236 120.003V120.003C184.513 123.498 182.191 130.642 184.767 136.833V136.833C188.209 145.105 182.85 154.387 173.965 155.543V155.543C167.316 156.407 162.289 161.99 162.124 168.694V168.694C161.904 177.651 153.233 183.95 144.646 181.392V181.392C138.22 179.477 131.357 182.533 128.48 188.59V188.59C124.636 196.683 114.152 198.911 107.348 193.082V193.082C102.256 188.718 94.7438 188.718 89.6518 193.082V193.082C82.8482 198.911 72.3645 196.683 68.5202 188.59V188.59C65.643 182.533 58.7801 179.477 52.3537 181.392V181.392C43.7672 183.95 35.0962 177.651 34.876 168.694V168.694C34.7111 161.99 29.6844 156.407 23.0348 155.543V155.543C14.15 154.387 8.79106 145.105 12.2329 136.833V136.833C14.8089 130.642 12.4875 123.498 6.76445 120.003V120.003C-0.882292 115.334 -2.00262 104.675 4.50625 98.5178V98.5178C9.37766 93.9097 10.1629 86.4385 6.35602 80.9183V80.9183C1.2695 73.5426 4.58151 63.3493 13.0319 60.372V60.372C19.3565 58.1437 23.1126 51.6378 21.8801 45.0465V45.0465C20.2333 36.2396 27.405 28.2746 36.3358 28.9918V28.9918C43.0199 29.5286 49.0975 25.1129 50.6525 18.5901V18.5901C52.7302 9.87479 62.5215 5.51542 70.3885 9.80311V9.80311C76.2763 13.0121 83.6245 11.4502 87.6982 6.12382V6.12382Z" fill="#FF1A87"/>
</svg>
