<svg width="401" height="517" viewBox="0 0 401 517" fill="none" xmlns="http://www.w3.org/2000/svg">
<path d="M385.58 126.647C386.216 124.906 386.338 123.02 385.932 121.212C385.526 119.404 384.609 117.749 383.289 116.444C385.167 116.287 386.958 115.589 388.446 114.437C389.934 113.284 391.054 111.726 391.67 109.951C392.286 108.177 392.373 106.262 391.918 104.439C391.464 102.617 390.489 100.965 389.111 99.6842C391.171 99.5396 393.132 98.7455 394.71 97.4169C396.289 96.0883 397.402 94.294 397.889 92.2934C398.377 90.2927 398.213 88.1894 397.422 86.2876C396.631 84.3858 395.253 82.7839 393.489 81.7137C395.476 81.1634 397.237 79.9981 398.516 78.386C399.796 76.7738 400.528 74.7981 400.608 72.744C400.688 70.6899 400.111 68.6637 398.96 66.9578C397.809 65.2519 396.144 63.9546 394.205 63.253C394.131 63.225 394.057 63.209 393.982 63.185C395.63 62.0334 396.879 60.4007 397.556 58.5121C398.234 56.6235 398.306 54.572 397.765 52.6404C397.223 50.7088 396.093 48.9922 394.531 47.7274C392.969 46.4626 391.052 45.7118 389.044 45.5785C390.292 44.0072 391.021 42.0892 391.13 40.0883C391.239 38.0874 390.723 36.1019 389.654 34.4051C388.584 32.7084 387.013 31.3836 385.157 30.6131C383.301 29.8426 381.25 29.6643 379.288 30.1026C379.363 29.9286 379.445 29.7605 379.509 29.5825C380.201 27.6904 380.285 25.6308 379.75 23.6891C379.214 21.7474 378.085 20.0198 376.52 18.746C374.956 17.4722 373.032 16.7152 371.016 16.58C368.999 16.4448 366.991 16.9381 365.269 17.9915C365.658 15.8617 365.321 13.6634 364.311 11.7466C363.302 9.8299 361.677 8.30505 359.697 7.41499C357.717 6.52493 355.495 6.32086 353.385 6.83528C351.275 7.34971 349.398 8.55303 348.054 10.2536C347.97 8.10569 347.174 6.04622 345.788 4.39859C344.403 2.75095 342.508 1.60848 340.401 1.15058C338.294 0.692682 336.093 0.945295 334.146 1.86875C332.198 2.79221 330.613 4.3342 329.64 6.25257C328.868 4.46955 327.575 2.95881 325.931 1.91599C324.287 0.873169 322.367 0.346309 320.419 0.403642C318.471 0.460975 316.585 1.09986 315.005 2.23756C313.426 3.37525 312.226 4.95935 311.56 6.7847C311.431 7.1421 311.324 7.50684 311.239 7.87698C309.907 6.38426 308.145 5.33765 306.194 4.88006C304.243 4.42247 302.197 4.5762 300.337 5.32027C298.477 6.06434 296.893 7.36248 295.8 9.03741C294.708 10.7124 294.161 12.6825 294.234 14.6787C293.005 13.8997 291.616 13.4058 290.17 13.2332C288.724 13.0606 287.257 13.2138 285.878 13.6815C284.499 14.1493 283.243 14.9196 282.203 15.9356C281.163 16.9516 280.365 18.1875 279.868 19.5519C279.095 21.6567 279.081 23.9636 279.827 26.0776C277.818 25.4231 275.65 25.4386 273.65 26.1217C271.651 26.8049 269.929 28.1186 268.745 29.8639C267.562 31.6093 266.981 33.6914 267.09 35.7951C267.2 37.8988 267.994 39.9097 269.353 41.5235C267.347 41.3009 265.32 41.7062 263.555 42.6829C261.79 43.6597 260.374 45.1596 259.503 46.9746C258.632 48.7897 258.35 50.8298 258.694 52.8122C259.039 54.7945 259.995 56.6208 261.428 58.0377C259.576 58.1922 257.807 58.8724 256.33 59.9977C254.854 61.123 253.732 62.6463 253.097 64.3872C252.462 66.1283 252.341 68.0141 252.748 69.8215C253.155 71.6289 254.073 73.2823 255.394 74.5859C253.543 74.7402 251.775 75.4196 250.299 76.5438C248.823 77.668 247.701 79.1899 247.065 80.9295C246.43 82.6691 246.308 84.5536 246.713 86.3603C247.119 88.1669 248.035 89.82 249.354 91.124C247.503 91.2785 245.735 91.9579 244.259 93.0819C242.783 94.2059 241.661 95.7276 241.025 97.467C240.389 99.2064 240.267 101.091 240.671 102.897C241.076 104.704 241.992 106.358 243.309 107.662C241.459 107.818 239.692 108.498 238.217 109.622C236.742 110.746 235.621 112.268 234.986 114.007C234.351 115.746 234.229 117.63 234.635 119.436C235.04 121.242 235.956 122.895 237.273 124.198C235.422 124.352 233.653 125.031 232.177 126.155C230.7 127.279 229.578 128.801 228.942 130.541C228.307 132.281 228.185 134.166 228.591 135.973C228.997 137.78 229.914 139.433 231.233 140.737C229.381 140.891 227.613 141.57 226.137 142.694C224.66 143.819 223.538 145.341 222.903 147.081C222.267 148.821 222.145 150.706 222.551 152.513C222.957 154.32 223.874 155.973 225.193 157.277C223.342 157.431 221.574 158.11 220.099 159.234C218.623 160.358 217.501 161.879 216.866 163.618C216.231 165.358 216.108 167.242 216.514 169.048C216.919 170.854 217.835 172.507 219.153 173.811C217.196 173.974 215.334 174.723 213.812 175.96C212.291 177.197 211.18 178.864 210.627 180.742C210.073 182.62 210.102 184.62 210.711 186.481C211.319 188.342 212.479 189.975 214.036 191.167C211.934 191.409 209.969 192.326 208.437 193.78C206.906 195.234 205.891 197.146 205.548 199.226C205.204 201.306 205.55 203.441 206.532 205.308C207.515 207.175 209.082 208.672 210.995 209.572C209.147 210.445 207.624 211.878 206.642 213.666C205.66 215.453 205.27 217.504 205.527 219.526C205.784 221.548 206.676 223.437 208.075 224.924C209.473 226.41 211.307 227.419 213.315 227.805C211.862 229.181 210.872 230.972 210.479 232.931C210.086 234.89 210.31 236.923 211.12 238.75C211.93 240.578 213.287 242.111 215.005 243.141C216.723 244.171 218.719 244.646 220.718 244.503C220.411 245.016 220.152 245.558 219.946 246.119C219.302 247.876 219.181 249.781 219.599 251.605C220.017 253.428 220.956 255.093 222.302 256.396C223.647 257.7 225.343 258.588 227.184 258.954C229.025 259.319 230.932 259.145 232.676 258.454C232.069 260.49 232.15 262.668 232.905 264.654C233.661 266.64 235.05 268.324 236.859 269.447C238.668 270.569 240.797 271.069 242.918 270.87C245.04 270.67 247.037 269.781 248.603 268.341C248.411 270.504 248.952 272.668 250.141 274.488C251.329 276.307 253.096 277.677 255.158 278.377C257.221 279.077 259.459 279.067 261.515 278.349C263.571 277.631 265.326 276.246 266.498 274.416C266.964 276.455 268.078 278.289 269.675 279.645C271.272 281.001 273.266 281.807 275.359 281.942C277.453 282.076 279.534 281.534 281.293 280.394C283.051 279.254 284.393 277.578 285.119 275.617C286.102 277.133 287.49 278.347 289.127 279.12C290.764 279.892 292.586 280.194 294.386 279.991C296.186 279.788 297.893 279.088 299.316 277.97C300.738 276.851 301.819 275.36 302.436 273.662C302.71 272.902 302.888 272.111 302.966 271.308C304.497 272.604 306.393 273.397 308.393 273.577C310.394 273.756 312.402 273.314 314.14 272.31C315.878 271.306 317.262 269.791 318.1 267.972C318.939 266.153 319.192 264.119 318.825 262.151C319.081 262.271 319.342 262.385 319.615 262.483C321.48 263.162 323.508 263.257 325.428 262.754C327.348 262.251 329.068 261.176 330.357 259.671C331.646 258.166 332.442 256.305 332.639 254.337C332.836 252.368 332.424 250.387 331.459 248.658C333.516 249.085 335.657 248.836 337.561 247.949C339.464 247.063 341.029 245.585 342.02 243.738C343.011 241.892 343.375 239.775 343.058 237.705C342.741 235.634 341.76 233.722 340.261 232.254C342.183 232.243 344.059 231.665 345.652 230.593C347.245 229.52 348.483 228.002 349.21 226.229C349.938 224.455 350.121 222.507 349.738 220.63C349.355 218.753 348.423 217.031 347.058 215.682C348.909 215.527 350.677 214.848 352.153 213.724C353.629 212.599 354.751 211.078 355.386 209.338C356.022 207.598 356.144 205.714 355.738 203.907C355.333 202.101 354.417 200.447 353.098 199.143C354.947 198.986 356.712 198.306 358.185 197.181C359.659 196.057 360.779 194.537 361.413 192.799C362.048 191.062 362.17 189.179 361.766 187.375C361.363 185.57 360.449 183.918 359.134 182.613C360.986 182.459 362.754 181.779 364.23 180.655C365.705 179.531 366.827 178.009 367.463 176.27C368.098 174.53 368.22 172.645 367.815 170.839C367.409 169.032 366.493 167.379 365.175 166.075C367.026 165.921 368.794 165.241 370.27 164.117C371.746 162.993 372.868 161.471 373.503 159.731C374.138 157.992 374.26 156.107 373.855 154.301C373.449 152.494 372.533 150.841 371.215 149.537C373.065 149.38 374.831 148.7 376.305 147.575C377.779 146.45 378.9 144.929 379.534 143.19C380.168 141.452 380.29 139.568 379.886 137.763C379.481 135.957 378.566 134.305 377.249 133.001C379.101 132.845 380.87 132.164 382.346 131.038C383.823 129.912 384.945 128.388 385.58 126.647Z" fill="#FF5903"/>
<path d="M44.1092 205.128C44.7452 206.868 45.8674 208.389 47.3432 209.513C48.819 210.637 50.5868 211.317 52.4377 211.472C51.1014 212.796 50.1792 214.478 49.783 216.313C49.3869 218.149 49.5338 220.06 50.206 221.814C50.8782 223.569 52.0468 225.091 53.5699 226.196C55.0931 227.302 56.9054 227.943 58.787 228.042C57.3023 229.472 56.3124 231.336 55.9603 233.364C55.6083 235.392 55.9123 237.478 56.8284 239.323C57.7445 241.167 59.2254 242.673 61.0569 243.624C62.8884 244.574 64.9757 244.92 67.0172 244.61C65.8485 246.305 65.2505 248.326 65.3095 250.381C65.3685 252.436 66.0814 254.42 67.3454 256.045C68.6094 257.67 70.3589 258.853 72.3414 259.423C74.3239 259.992 76.4368 259.919 78.3749 259.214C78.4492 259.188 78.5174 259.152 78.5897 259.124C78.0686 261.063 78.1639 263.115 78.8626 264.997C79.5614 266.88 80.829 268.499 82.4907 269.633C84.1524 270.767 86.1262 271.36 88.1399 271.328C90.1536 271.297 92.1079 270.644 93.7333 269.459C93.792 271.461 94.4717 273.396 95.679 274.998C96.8862 276.599 98.5617 277.789 100.475 278.403C102.388 279.017 104.446 279.025 106.364 278.427C108.282 277.828 109.967 276.652 111.187 275.06C111.242 275.24 111.288 275.422 111.354 275.6C112.044 277.493 113.308 279.125 114.97 280.27C116.633 281.415 118.612 282.015 120.633 281.989C122.653 281.962 124.616 281.309 126.247 280.12C127.879 278.932 129.098 277.267 129.737 275.356C130.813 277.237 132.489 278.705 134.499 279.527C136.508 280.348 138.736 280.476 140.827 279.889C142.918 279.303 144.752 278.036 146.037 276.29C147.322 274.544 147.983 272.421 147.916 270.257C149.363 271.857 151.303 272.932 153.431 273.311C155.558 273.691 157.752 273.354 159.666 272.354C161.58 271.354 163.106 269.748 164.003 267.788C164.9 265.828 165.117 263.627 164.619 261.531C166.448 262.456 168.525 262.781 170.55 262.459C172.576 262.137 174.447 261.183 175.896 259.736C177.345 258.288 178.296 256.421 178.614 254.401C178.933 252.382 178.601 250.314 177.667 248.493C179.651 248.783 181.676 248.455 183.465 247.555C185.255 246.655 186.722 245.226 187.666 243.464C188.61 241.702 188.986 239.692 188.741 237.709C188.497 235.726 187.644 233.867 186.299 232.385C187.744 232.196 189.127 231.685 190.347 230.891C191.567 230.097 192.592 229.04 193.347 227.798C194.102 226.556 194.567 225.161 194.708 223.715C194.849 222.27 194.663 220.812 194.162 219.448C193.395 217.339 191.915 215.561 189.977 214.421C191.938 213.636 193.59 212.235 194.682 210.431C195.774 208.626 196.246 206.517 196.026 204.421C195.807 202.326 194.909 200.358 193.467 198.817C192.026 197.276 190.12 196.245 188.037 195.88C189.718 194.765 191.01 193.157 191.732 191.278C192.454 189.399 192.572 187.342 192.068 185.394C191.565 183.445 190.465 181.701 188.922 180.403C187.379 179.105 185.469 178.318 183.457 178.151C184.777 176.848 185.695 175.194 186.101 173.387C186.508 171.579 186.386 169.693 185.751 167.952C185.115 166.212 183.992 164.689 182.515 163.564C181.038 162.44 179.269 161.761 177.416 161.607C178.736 160.304 179.653 158.65 180.059 156.844C180.465 155.037 180.343 153.152 179.707 151.412C179.072 149.672 177.949 148.15 176.473 147.026C174.996 145.902 173.228 145.223 171.376 145.069C172.695 143.765 173.611 142.112 174.016 140.305C174.422 138.499 174.3 136.614 173.664 134.875C173.029 133.135 171.907 131.613 170.431 130.489C168.955 129.365 167.187 128.685 165.336 128.531C166.653 127.226 167.568 125.574 167.973 123.767C168.377 121.961 168.255 120.078 167.62 118.339C166.984 116.6 165.863 115.079 164.388 113.954C162.913 112.83 161.146 112.15 159.296 111.995C160.614 110.691 161.531 109.038 161.936 107.231C162.342 105.424 162.219 103.54 161.584 101.8C160.949 100.061 159.827 98.5387 158.351 97.4145C156.875 96.2904 155.107 95.6109 153.256 95.4566C154.574 94.1522 155.49 92.499 155.895 90.6924C156.301 88.8857 156.179 87.0011 155.543 85.2615C154.908 83.5218 153.786 81.9998 152.31 80.8754C150.835 79.751 149.067 79.0712 147.216 78.9164C148.533 77.6121 149.448 75.9594 149.853 74.1534C150.257 72.3474 150.135 70.4637 149.5 68.7248C148.864 66.986 147.743 65.4647 146.268 64.3408C144.793 63.2168 143.026 62.5372 141.175 62.3822C142.568 61.0037 143.51 59.2378 143.877 57.3163C144.245 55.3948 144.021 53.4075 143.235 51.6151C142.449 49.8227 141.137 48.309 139.473 47.2727C137.808 46.2364 135.868 45.7258 133.907 45.808C135.356 44.2757 136.265 42.3149 136.497 40.222C136.73 38.1291 136.272 36.0178 135.194 34.2069C134.116 32.3961 132.475 30.9841 130.521 30.1844C128.566 29.3847 126.404 29.2406 124.36 29.774C125.147 28.0338 125.401 26.1009 125.091 24.2174C124.78 22.3339 123.919 20.5835 122.616 19.1853C121.312 17.7871 119.623 16.8033 117.761 16.3571C115.899 15.9108 113.946 16.022 112.147 16.6766C111.691 16.8442 111.248 17.0448 110.822 17.2768C111.048 15.2913 110.652 13.2849 109.69 11.532C108.727 9.7792 107.245 8.36558 105.445 7.48461C103.645 6.60365 101.617 6.29839 99.6361 6.6106C97.6558 6.92281 95.8206 7.83723 94.3817 9.22875C94.0522 7.23232 93.104 5.38869 91.6701 3.95635C90.2363 2.524 88.3885 1.57474 86.3861 1.24165C84.3836 0.908564 82.3267 1.20835 80.5037 2.09898C78.6808 2.9896 77.1833 4.42642 76.221 6.20799C75.3731 4.25956 73.9067 2.6425 72.0471 1.60533C70.1875 0.568149 68.0375 0.168242 65.9277 0.46706C63.8178 0.765878 61.8648 1.74689 60.3688 3.25933C58.8727 4.77177 57.9164 6.73196 57.6468 8.83866C56.3996 7.05931 54.5894 5.74836 52.506 5.1156C50.4227 4.48285 48.1865 4.56486 46.1555 5.34851C44.1244 6.13216 42.4158 7.57215 41.3031 9.43805C40.1904 11.3039 39.738 13.4879 40.0181 15.6404C38.3469 14.3779 36.3112 13.6872 34.2141 13.6712C32.1171 13.6551 30.0709 14.3146 28.3805 15.5514C26.69 16.7881 25.4456 18.536 24.8327 20.5347C24.2197 22.5334 24.271 24.6759 24.979 26.6432C23.0482 26.0416 20.9773 26.0557 19.055 26.6834C17.1326 27.311 15.4549 28.521 14.2557 30.1445C13.0564 31.768 12.3956 33.7241 12.3654 35.7398C12.3352 37.7555 12.937 39.7304 14.087 41.3889C12.0792 41.3768 10.1169 41.9844 8.46947 43.1283C6.82209 44.2722 5.57042 45.8963 4.88634 47.7776C4.20226 49.6588 4.11932 51.705 4.6489 53.6351C5.17849 55.5652 6.29463 57.2846 7.84406 58.5572C7.57106 58.6313 7.29605 58.7113 7.02506 58.8093C5.15951 59.4845 3.54573 60.7121 2.40014 62.3273C1.25455 63.9426 0.63192 65.8683 0.615756 67.8462C0.599591 69.8241 1.19066 71.7597 2.3097 73.3933C3.42875 75.0269 5.02225 76.2805 6.87651 76.9859C5.02543 77.9768 3.54607 79.5384 2.65976 81.437C1.77344 83.3357 1.52783 85.4693 1.95967 87.5186C2.39151 89.568 3.47758 91.4229 5.05539 92.8058C6.63319 94.1887 8.61791 95.0254 10.7126 95.1905C9.24716 96.4301 8.18315 98.0746 7.65494 99.9164C7.12672 101.758 7.15798 103.715 7.74477 105.539C8.33156 107.363 9.44756 108.973 10.9518 110.165C12.4561 111.358 14.2812 112.079 16.1967 112.239C14.8782 113.543 13.9621 115.196 13.5566 117.003C13.1511 118.809 13.2733 120.694 13.9086 122.433C14.544 124.173 15.6659 125.695 17.1418 126.819C18.6177 127.943 20.3857 128.623 22.2369 128.777C20.9186 130.081 20.0027 131.735 19.5973 133.541C19.1919 135.348 19.3141 137.232 19.9494 138.972C20.5847 140.712 21.7065 142.234 23.1823 143.358C24.658 144.483 26.4259 145.162 28.2771 145.317C26.9586 146.621 26.0424 148.274 25.6369 150.081C25.2314 151.888 25.3536 153.772 25.9889 155.512C26.6243 157.251 27.7463 158.773 29.2221 159.897C30.698 161.022 32.4661 161.701 34.3172 161.855C32.9985 163.16 32.0824 164.813 31.6772 166.621C31.2719 168.428 31.3946 170.313 32.0307 172.052C32.6667 173.792 33.7895 175.314 35.2662 176.438C36.7429 177.562 38.5118 178.24 40.3634 178.394C39.0451 179.698 38.1292 181.351 37.7238 183.158C37.3185 184.964 37.4406 186.849 38.0759 188.589C38.7112 190.328 39.833 191.85 41.3088 192.975C42.7845 194.099 44.5525 194.779 46.4036 194.934C45.0846 196.238 44.1677 197.89 43.7612 199.697C43.3546 201.503 43.4753 203.388 44.1092 205.128Z" fill="#FF5903"/>
<path d="M41.1883 339.483C36.0081 342.479 31.8409 346.946 29.2183 352.312C26.5957 357.679 25.6366 363.702 26.4631 369.614C27.2897 375.526 29.8646 381.059 33.8594 385.507C37.8541 389.954 43.0877 393.115 48.8926 394.587C45.4445 399.234 43.4138 404.773 43.0437 410.54C42.6736 416.308 43.9798 422.06 46.8058 427.107C49.6318 432.154 53.8578 436.282 58.9776 438.996C64.0974 441.711 69.8939 442.897 75.6729 442.413C75.3945 443.365 75.1597 444.339 74.9683 445.333C73.9292 450.82 74.444 456.486 76.455 461.697C78.466 466.909 81.8937 471.459 86.3538 474.837C90.814 478.216 96.1302 480.29 101.707 480.827C107.283 481.363 112.899 480.341 117.926 477.876C118.114 483.964 120.154 489.851 123.775 494.758C127.396 499.665 132.427 503.36 138.202 505.353C143.977 507.346 150.224 507.544 156.115 505.92C162.005 504.296 167.261 500.926 171.187 496.258C173.136 502.032 176.799 507.079 181.691 510.731C186.583 514.383 192.473 516.467 198.58 516.708C204.687 516.949 210.724 515.335 215.89 512.079C221.056 508.824 225.108 504.081 227.508 498.479C231.288 502.6 236.144 505.59 241.533 507.115C246.923 508.64 252.631 508.638 258.02 507.112C263.408 505.585 268.264 502.593 272.042 498.471C275.82 494.349 278.372 489.259 279.411 483.773C279.599 482.777 279.737 481.785 279.822 480.796C285.026 483.342 290.856 484.339 296.615 483.669C302.373 482.999 307.815 480.689 312.291 477.017C316.766 473.345 320.086 468.466 321.851 462.963C323.617 457.46 323.755 451.566 322.248 445.988C328.192 446.725 334.221 445.681 339.567 442.99C344.914 440.298 349.334 436.081 352.266 430.875C355.197 425.67 356.506 419.712 356.026 413.762C355.546 407.812 353.298 402.139 349.57 397.467C355.624 396.421 361.213 393.557 365.589 389.259C369.966 384.961 372.921 379.434 374.06 373.417C375.198 367.4 374.466 361.179 371.961 355.588C369.456 349.996 365.298 345.3 360.043 342.127C365.222 339.13 369.388 334.663 372.01 329.297C374.632 323.93 375.59 317.907 374.764 311.995C373.937 306.084 371.362 300.551 367.368 296.104C363.374 291.656 358.141 288.495 352.336 287.023C355.784 282.376 357.815 276.837 358.185 271.069C358.555 265.302 357.249 259.55 354.423 254.503C351.597 249.456 347.371 245.328 342.251 242.614C337.131 239.899 331.335 238.713 325.556 239.197C325.837 238.245 326.073 237.271 326.263 236.277C327.301 230.79 326.786 225.124 324.774 219.913C322.763 214.703 319.335 210.153 314.876 206.775C310.416 203.396 305.1 201.322 299.524 200.785C293.947 200.248 288.331 201.269 283.305 203.734C283.118 197.646 281.079 191.758 277.458 186.85C273.837 181.942 268.806 178.247 263.03 176.254C257.254 174.26 251.007 174.063 245.116 175.688C239.225 177.312 233.969 180.683 230.043 185.352C228.095 179.578 224.432 174.531 219.54 170.879C214.648 167.227 208.758 165.143 202.651 164.902C196.543 164.661 190.507 166.275 185.341 169.531C180.175 172.786 176.123 177.529 173.723 183.131C169.943 179.011 165.087 176.021 159.699 174.496C154.31 172.972 148.602 172.973 143.214 174.499C137.826 176.025 132.971 179.016 129.192 183.138C125.414 187.259 122.862 192.347 121.822 197.833C121.634 198.833 121.499 199.821 121.421 200.81C116.217 198.263 110.386 197.265 104.628 197.935C98.8692 198.605 93.4263 200.914 88.9504 204.587C84.4744 208.259 81.1551 213.139 79.3896 218.642C77.624 224.146 77.4871 230.039 78.9951 235.618C73.0499 234.878 67.0183 235.92 61.6699 238.611C56.3215 241.302 51.8989 245.52 48.9663 250.727C46.0337 255.934 44.7242 261.893 45.2048 267.845C45.6854 273.796 47.9344 279.47 51.6648 284.143C45.6098 285.188 40.0194 288.051 35.6417 292.348C31.264 296.646 28.3077 302.174 27.1685 308.192C26.0292 314.21 26.7613 320.431 29.2668 326.023C31.7722 331.615 35.9316 336.311 41.1883 339.483Z" fill="#F2F2F2"/>
<path d="M204.254 301.53V303.833C204.254 306.027 206.038 307.806 208.24 307.806H249.915C252.117 307.806 253.902 306.027 253.902 303.833V301.53C253.902 299.336 252.117 297.557 249.915 297.557H208.24C206.038 297.557 204.254 299.336 204.254 301.53Z" fill="#071EC3"/>
<path d="M230.227 277.944H227.917C225.715 277.944 223.93 279.723 223.93 281.917V323.45C223.93 325.644 225.715 327.423 227.917 327.423H230.227C232.429 327.423 234.214 325.644 234.214 323.45V281.917C234.214 279.723 232.429 277.944 230.227 277.944Z" fill="#071EC3"/>
<path d="M210.707 319.361L212.34 320.989C213.897 322.541 216.421 322.541 217.978 320.989L247.447 291.621C249.004 290.07 249.004 287.554 247.447 286.002L245.813 284.374C244.256 282.823 241.732 282.823 240.175 284.374L210.707 313.742C209.15 315.294 209.15 317.809 210.707 319.361Z" fill="#071EC3"/>
<path d="M212.34 284.375L210.707 286.003C209.15 287.555 209.15 290.07 210.707 291.622L240.175 320.99C241.732 322.541 244.256 322.541 245.813 320.99L247.447 319.362C249.004 317.81 249.004 315.294 247.447 313.743L217.978 284.375C216.422 282.823 213.897 282.823 212.34 284.375Z" fill="#071EC3"/>
<path d="M142.025 270.492L140.392 272.12C138.835 273.672 138.835 276.187 140.392 277.739L169.86 307.107C171.417 308.659 173.941 308.659 175.498 307.107L177.132 305.479C178.689 303.927 178.689 301.412 177.132 299.86L147.663 270.492C146.106 268.941 143.582 268.941 142.025 270.492Z" fill="#071EC3"/>
<path d="M140.395 333.247L142.029 334.875C143.586 336.427 146.11 336.427 147.667 334.875L177.135 305.507C178.692 303.956 178.692 301.44 177.135 299.889L175.502 298.26C173.945 296.709 171.421 296.709 169.864 298.26L140.395 327.628C138.838 329.18 138.838 331.696 140.395 333.247Z" fill="#071EC3"/>
</svg>
