<svg width="473" height="514" viewBox="0 0 473 514" fill="none" xmlns="http://www.w3.org/2000/svg">
<path d="M390.928 127.936C391.562 126.199 391.684 124.318 391.279 122.515C390.874 120.712 389.96 119.062 388.643 117.76C390.516 117.603 392.303 116.908 393.786 115.758C395.27 114.609 396.387 113.055 397.002 111.285C397.616 109.515 397.702 107.605 397.249 105.788C396.796 103.97 395.823 102.323 394.449 101.045C396.504 100.901 398.46 100.109 400.034 98.7842C401.608 97.4592 402.718 95.6697 403.204 93.6744C403.69 91.6792 403.527 89.5816 402.738 87.6848C401.949 85.7881 400.575 84.1906 398.815 83.1232C400.797 82.5745 402.553 81.4123 403.829 79.8045C405.106 78.1966 405.836 76.2262 405.916 74.1777C405.995 72.1292 405.42 70.1084 404.272 68.4071C403.124 66.7058 401.464 65.412 399.53 64.7123C399.456 64.6843 399.382 64.6684 399.308 64.6444C400.951 63.4959 402.196 61.8676 402.872 59.9841C403.548 58.1006 403.62 56.0546 403.08 54.1282C402.54 52.2018 401.413 50.4899 399.855 49.2285C398.298 47.9671 396.386 47.2183 394.383 47.0854C395.627 45.5183 396.354 43.6054 396.463 41.6099C396.572 39.6144 396.057 37.6343 394.991 35.9421C393.924 34.2499 392.357 32.9287 390.506 32.1603C388.655 31.3918 386.61 31.214 384.653 31.6511C384.728 31.4776 384.81 31.31 384.874 31.1324C385.564 29.2455 385.647 27.1914 385.113 25.2549C384.579 23.3184 383.454 21.5955 381.893 20.3251C380.332 19.0547 378.413 18.2998 376.403 18.1649C374.392 18.0301 372.389 18.5221 370.672 19.5727C371.06 17.4486 370.724 15.2562 369.717 13.3446C368.71 11.433 367.09 9.9123 365.115 9.02464C363.14 8.13698 360.924 7.93345 358.82 8.44649C356.715 8.95953 354.844 10.1596 353.503 11.8556C353.42 9.71348 352.625 7.65956 351.244 6.01636C349.862 4.37316 347.972 3.23376 345.871 2.7771C343.769 2.32043 341.575 2.57237 339.632 3.49333C337.69 4.4143 336.109 5.95214 335.139 7.86534C334.368 6.08713 333.08 4.58046 331.44 3.54045C329.8 2.50043 327.885 1.97499 325.942 2.03217C324 2.08935 322.119 2.72651 320.544 3.86115C318.968 4.99578 317.771 6.57561 317.107 8.39605C316.979 8.75248 316.872 9.11624 316.787 9.48538C315.459 7.99668 313.701 6.95289 311.756 6.49653C309.81 6.04017 307.77 6.1935 305.915 6.93556C304.06 7.67763 302.479 8.97226 301.39 10.6427C300.301 12.3131 299.755 14.2779 299.828 16.2688C298.603 15.4919 297.217 14.9993 295.775 14.8272C294.333 14.655 292.87 14.8078 291.495 15.2743C290.12 15.7408 288.867 16.509 287.829 17.5223C286.792 18.5356 285.996 19.7681 285.5 21.1289C284.73 23.2279 284.716 25.5287 285.46 27.637C283.457 26.9842 281.294 26.9997 279.3 27.681C277.306 28.3623 275.588 29.6725 274.408 31.4131C273.228 33.1538 272.648 35.2303 272.758 37.3283C272.867 39.4264 273.659 41.4319 275.014 43.0413C273.013 42.8193 270.992 43.2235 269.232 44.1976C267.472 45.1717 266.06 46.6676 265.191 48.4777C264.322 50.2879 264.04 52.3226 264.384 54.2996C264.728 56.2766 265.681 58.0979 267.11 59.511C265.263 59.6651 263.499 60.3434 262.026 61.4657C260.554 62.588 259.435 64.1072 258.802 65.8435C258.168 67.5798 258.048 69.4605 258.454 71.2631C258.86 73.0656 259.775 74.7145 261.092 76.0146C259.246 76.1685 257.483 76.8461 256.011 77.9673C254.539 79.0884 253.42 80.6062 252.787 82.3412C252.153 84.0761 252.031 85.9555 252.435 87.7573C252.84 89.559 253.754 91.2077 255.068 92.5082C253.222 92.6623 251.459 93.3399 249.987 94.4609C248.515 95.5818 247.396 97.0994 246.762 98.8341C246.128 100.569 246.006 102.448 246.41 104.25C246.813 106.052 247.726 107.701 249.041 109.002C247.195 109.157 245.433 109.835 243.962 110.956C242.491 112.078 241.373 113.595 240.74 115.33C240.107 117.064 239.985 118.943 240.389 120.744C240.793 122.545 241.707 124.193 243.021 125.494C241.174 125.647 239.41 126.324 237.938 127.445C236.465 128.566 235.346 130.084 234.712 131.819C234.078 133.554 233.957 135.434 234.362 137.236C234.767 139.038 235.681 140.687 236.997 141.987C235.15 142.141 233.386 142.818 231.914 143.94C230.442 145.061 229.323 146.579 228.689 148.314C228.055 150.05 227.934 151.929 228.338 153.732C228.743 155.534 229.657 157.182 230.973 158.483C229.127 158.637 227.364 159.314 225.892 160.435C224.421 161.556 223.302 163.073 222.668 164.807C222.035 166.542 221.913 168.421 222.317 170.222C222.721 172.024 223.634 173.672 224.949 174.972C222.997 175.135 221.141 175.882 219.623 177.116C218.105 178.35 216.998 180.012 216.446 181.885C215.894 183.757 215.923 185.753 216.53 187.608C217.137 189.464 218.293 191.093 219.846 192.282C217.75 192.523 215.79 193.438 214.263 194.888C212.735 196.338 211.723 198.245 211.38 200.319C211.038 202.394 211.382 204.523 212.363 206.385C213.343 208.247 214.905 209.74 216.813 210.637C214.97 211.508 213.451 212.937 212.472 214.72C211.492 216.503 211.103 218.548 211.36 220.565C211.617 222.581 212.506 224.465 213.901 225.947C215.296 227.43 217.125 228.436 219.127 228.821C217.678 230.194 216.69 231.979 216.298 233.933C215.907 235.887 216.13 237.914 216.938 239.737C217.746 241.559 219.099 243.089 220.813 244.116C222.526 245.143 224.516 245.617 226.51 245.474C226.204 245.986 225.946 246.526 225.74 247.086C225.097 248.838 224.978 250.738 225.394 252.557C225.811 254.376 226.747 256.035 228.089 257.336C229.432 258.636 231.123 259.522 232.958 259.886C234.794 260.25 236.697 260.077 238.436 259.388C237.831 261.418 237.911 263.591 238.665 265.571C239.418 267.552 240.803 269.231 242.607 270.35C244.411 271.47 246.534 271.969 248.65 271.77C250.766 271.571 252.758 270.685 254.32 269.248C254.128 271.405 254.668 273.563 255.854 275.378C257.039 277.193 258.801 278.559 260.858 279.257C262.914 279.955 265.147 279.945 267.197 279.229C269.248 278.513 270.998 277.132 272.167 275.307C272.632 277.34 273.743 279.169 275.335 280.521C276.928 281.874 278.916 282.677 281.004 282.812C283.092 282.946 285.168 282.405 286.922 281.268C288.676 280.132 290.014 278.461 290.737 276.504C291.717 278.017 293.102 279.227 294.735 279.997C296.368 280.768 298.184 281.069 299.979 280.867C301.775 280.664 303.478 279.966 304.896 278.851C306.315 277.735 307.393 276.248 308.008 274.555C308.281 273.797 308.458 273.008 308.537 272.207C310.063 273.5 311.954 274.29 313.949 274.469C315.945 274.648 317.947 274.207 319.68 273.206C321.414 272.205 322.794 270.694 323.63 268.88C324.467 267.066 324.719 265.038 324.352 263.075C324.609 263.195 324.869 263.308 325.141 263.406C327.001 264.083 329.023 264.177 330.938 263.676C332.853 263.175 334.568 262.102 335.853 260.601C337.139 259.101 337.933 257.244 338.13 255.281C338.326 253.318 337.915 251.342 336.953 249.618C339.004 250.044 341.139 249.796 343.038 248.911C344.937 248.027 346.497 246.553 347.485 244.712C348.473 242.87 348.837 240.759 348.521 238.694C348.204 236.629 347.226 234.722 345.731 233.258C347.648 233.247 349.519 232.671 351.108 231.601C352.696 230.532 353.931 229.017 354.656 227.249C355.382 225.481 355.565 223.538 355.183 221.665C354.801 219.793 353.871 218.076 352.51 216.73C354.356 216.576 356.119 215.899 357.591 214.778C359.063 213.656 360.182 212.139 360.816 210.404C361.449 208.669 361.571 206.789 361.167 204.988C360.762 203.186 359.849 201.537 358.534 200.237C360.378 200.08 362.138 199.401 363.607 198.28C365.076 197.159 366.193 195.643 366.826 193.91C367.459 192.177 367.581 190.299 367.179 188.5C366.776 186.7 365.865 185.052 364.554 183.751C366.4 183.597 368.163 182.919 369.635 181.798C371.107 180.677 372.226 179.159 372.86 177.424C373.493 175.69 373.615 173.81 373.211 172.008C372.806 170.207 371.893 168.558 370.578 167.257C372.424 167.103 374.187 166.426 375.659 165.305C377.131 164.184 378.25 162.666 378.884 160.931C379.517 159.196 379.639 157.316 379.235 155.515C378.83 153.713 377.917 152.064 376.602 150.764C378.446 150.608 380.208 149.929 381.678 148.807C383.148 147.686 384.266 146.168 384.898 144.434C385.531 142.7 385.653 140.822 385.249 139.021C384.845 137.221 383.933 135.573 382.619 134.272C384.467 134.117 386.231 133.437 387.703 132.314C389.175 131.191 390.294 129.672 390.928 127.936V127.936Z" fill="#FF1A87"/>
<path d="M50.3766 206.206C51.0109 207.941 52.1301 209.458 53.6019 210.579C55.0737 211.7 56.8368 212.378 58.6827 212.533C57.35 213.853 56.4303 215.53 56.0352 217.361C55.6401 219.192 55.7867 221.098 56.4571 222.848C57.1274 224.597 58.2928 226.115 59.8119 227.218C61.331 228.32 63.1384 228.959 65.0149 229.058C63.5342 230.485 62.547 232.343 62.1959 234.366C61.8447 236.388 62.1479 238.469 63.0616 240.309C63.9753 242.148 65.4521 243.65 67.2787 244.598C69.1053 245.546 71.187 245.891 73.223 245.582C72.0574 247.272 71.461 249.287 71.5199 251.337C71.5787 253.387 72.2897 255.365 73.5503 256.986C74.8108 258.607 76.5557 259.786 78.5328 260.354C80.51 260.923 82.6172 260.85 84.5501 260.146C84.6241 260.12 84.6922 260.084 84.7643 260.057C84.2445 261.99 84.3397 264.037 85.0365 265.914C85.7333 267.791 86.9975 269.407 88.6548 270.538C90.312 271.669 92.2805 272.259 94.2888 272.228C96.297 272.197 98.2461 271.545 99.8671 270.363C99.9257 272.36 100.604 274.29 101.808 275.888C103.012 277.485 104.683 278.671 106.591 279.284C108.499 279.896 110.551 279.904 112.464 279.307C114.377 278.71 116.057 277.537 117.274 275.95C117.328 276.129 117.374 276.311 117.44 276.488C118.128 278.376 119.389 280.004 121.047 281.146C122.705 282.287 124.679 282.886 126.694 282.86C128.709 282.833 130.666 282.182 132.293 280.996C133.92 279.811 135.137 278.15 135.774 276.245C136.847 278.121 138.518 279.585 140.523 280.404C142.527 281.224 144.749 281.351 146.834 280.766C148.92 280.181 150.749 278.917 152.03 277.176C153.311 275.436 153.971 273.317 153.904 271.159C155.347 272.755 157.282 273.827 159.404 274.206C161.525 274.584 163.713 274.249 165.622 273.251C167.532 272.254 169.053 270.652 169.948 268.697C170.842 266.743 171.058 264.547 170.562 262.457C172.386 263.38 174.457 263.704 176.477 263.383C178.497 263.061 180.364 262.11 181.808 260.667C183.253 259.223 184.202 257.361 184.52 255.347C184.837 253.332 184.506 251.27 183.575 249.454C185.553 249.743 187.573 249.416 189.357 248.519C191.142 247.621 192.605 246.196 193.547 244.439C194.489 242.681 194.863 240.677 194.619 238.699C194.375 236.722 193.525 234.867 192.184 233.39C193.624 233.201 195.004 232.692 196.221 231.9C197.437 231.108 198.46 230.054 199.213 228.815C199.966 227.576 200.43 226.185 200.57 224.743C200.711 223.302 200.525 221.847 200.025 220.487C199.26 218.384 197.784 216.611 195.851 215.474C197.808 214.691 199.455 213.294 200.544 211.494C201.633 209.695 202.103 207.591 201.885 205.501C201.666 203.411 200.77 201.449 199.333 199.912C197.895 198.375 195.994 197.347 193.917 196.983C195.594 195.871 196.881 194.267 197.602 192.393C198.322 190.519 198.439 188.468 197.937 186.525C197.435 184.581 196.338 182.842 194.799 181.548C193.261 180.253 191.355 179.469 189.349 179.302C190.666 178.002 191.581 176.353 191.986 174.55C192.392 172.747 192.27 170.867 191.637 169.131C191.003 167.395 189.883 165.876 188.41 164.754C186.937 163.633 185.172 162.955 183.325 162.803C184.641 161.502 185.555 159.854 185.96 158.052C186.365 156.25 186.243 154.37 185.609 152.634C184.976 150.899 183.856 149.381 182.384 148.26C180.911 147.139 179.148 146.462 177.301 146.309C178.616 145.008 179.53 143.36 179.934 141.558C180.338 139.756 180.217 137.877 179.583 136.142C178.949 134.407 177.83 132.889 176.358 131.768C174.886 130.647 173.123 129.969 171.277 129.815C172.591 128.514 173.503 126.866 173.906 125.065C174.31 123.263 174.188 121.385 173.554 119.651C172.921 117.916 171.803 116.399 170.332 115.278C168.861 114.157 167.098 113.479 165.253 113.324C166.568 112.023 167.482 110.374 167.886 108.573C168.291 106.771 168.169 104.891 167.535 103.156C166.901 101.422 165.783 99.9037 164.311 98.7826C162.839 97.6614 161.075 96.9838 159.229 96.8299C160.544 95.5291 161.457 93.8803 161.862 92.0785C162.266 90.2767 162.144 88.3972 161.511 86.6623C160.877 84.9273 159.758 83.4094 158.286 82.288C156.815 81.1666 155.051 80.4887 153.205 80.3343C154.519 79.0335 155.432 77.3852 155.835 75.5841C156.239 73.7829 156.117 71.9043 155.483 70.1701C154.85 68.436 153.731 66.9188 152.26 65.7979C150.789 64.677 149.027 63.9992 147.181 63.8446C148.57 62.4698 149.51 60.7087 149.876 58.7924C150.243 56.876 150.019 54.894 149.235 53.1065C148.451 51.3189 147.144 49.8093 145.483 48.7758C143.823 47.7422 141.888 47.233 139.932 47.315C141.378 45.7868 142.285 43.8314 142.516 41.7441C142.748 39.6568 142.291 37.5512 141.216 35.7452C140.141 33.9392 138.505 32.5311 136.556 31.7335C134.606 30.9359 132.449 30.7922 130.411 31.3242C131.196 29.5887 131.449 27.661 131.14 25.7826C130.83 23.9042 129.972 22.1585 128.672 20.764C127.371 19.3696 125.687 18.3884 123.83 17.9434C121.973 17.4984 120.025 17.6092 118.231 18.2621C117.777 18.4292 117.335 18.6293 116.91 18.8607C117.135 16.8805 116.74 14.8795 115.78 13.1314C114.82 11.3833 113.342 9.97344 111.547 9.09485C109.752 8.21626 107.729 7.91182 105.754 8.22319C103.779 8.53456 101.949 9.44652 100.514 10.8343C100.185 8.84323 99.2395 7.00458 97.8095 5.57608C96.3795 4.14759 94.5367 3.20089 92.5396 2.8687C90.5425 2.53651 88.4912 2.83549 86.6732 3.72372C84.8551 4.61194 83.3616 6.04489 82.402 7.82167C81.5564 5.87848 80.0939 4.26578 78.2393 3.2314C76.3847 2.19701 74.2405 1.79818 72.1364 2.09619C70.0322 2.39421 68.0844 3.37257 66.5924 4.88094C65.1004 6.38931 64.1467 8.34422 63.8778 10.4452C62.6339 8.67069 60.8286 7.36328 58.7508 6.73222C56.6731 6.10117 54.443 6.18295 52.4174 6.9645C50.3918 7.74604 48.6878 9.18215 47.5781 11.043C46.4684 12.9039 46.0172 15.082 46.2966 17.2287C44.6299 15.9696 42.5996 15.2807 40.5082 15.2647C38.4168 15.2487 36.3762 15.9064 34.6903 17.1399C33.0043 18.3733 31.7633 20.1165 31.152 22.1098C30.5407 24.1031 30.5919 26.2398 31.2979 28.2018C29.3724 27.6019 27.307 27.6159 25.3899 28.2419C23.4727 28.8679 21.7995 30.0746 20.6035 31.6937C19.4075 33.3129 18.7485 35.2637 18.7183 37.274C18.6882 39.2842 19.2884 41.2538 20.4353 42.9078C18.4329 42.8958 16.4758 43.5018 14.8329 44.6426C13.1899 45.7834 11.9416 47.4031 11.2594 49.2793C10.5772 51.1555 10.4945 53.1962 11.0226 55.1211C11.5508 57.046 12.6639 58.7608 14.2092 60.0299C13.9369 60.1038 13.6626 60.1836 13.3924 60.2813C11.5318 60.9547 9.92241 62.179 8.7799 63.7899C7.63739 65.4007 7.01644 67.3213 7.00032 69.2939C6.9842 71.2665 7.57368 73.1968 8.68971 74.826C9.80574 76.4553 11.3949 77.7055 13.2442 78.409C11.3981 79.3972 9.92275 80.9546 9.03882 82.8481C8.15489 84.7417 7.90994 86.8695 8.34062 88.9133C8.77129 90.9572 9.85444 92.8071 11.428 94.1863C13.0016 95.5655 14.9809 96.3999 17.07 96.5646C15.6085 97.8008 14.5473 99.4409 14.0205 101.278C13.4938 103.115 13.5249 105.066 14.1101 106.885C14.6953 108.704 15.8083 110.31 17.3086 111.499C18.8088 112.688 20.629 113.408 22.5393 113.567C21.2244 114.868 20.3107 116.516 19.9063 118.318C19.5019 120.12 19.6237 121.999 20.2574 123.734C20.891 125.469 22.01 126.987 23.4819 128.108C24.9538 129.229 26.7171 129.907 28.5632 130.061C27.2485 131.361 26.335 133.01 25.9307 134.812C25.5265 136.614 25.6483 138.493 26.2819 140.228C26.9155 141.963 28.0343 143.481 29.506 144.602C30.9778 145.724 32.741 146.402 34.5871 146.556C33.2722 147.857 32.3585 149.505 31.9541 151.307C31.5497 153.109 31.6715 154.988 32.3052 156.723C32.9388 158.458 34.0578 159.976 35.5297 161.097C37.0016 162.218 38.7649 162.896 40.611 163.05C39.2959 164.351 38.3822 166 37.9781 167.802C37.5739 169.604 37.6963 171.484 38.3306 173.219C38.965 174.955 40.0847 176.472 41.5575 177.593C43.0302 178.714 44.7943 179.391 46.6409 179.544C45.3262 180.844 44.4127 182.493 44.0084 184.295C43.6042 186.097 43.726 187.976 44.3596 189.711C44.9932 191.446 46.112 192.964 47.5838 194.085C49.0555 195.207 50.8187 195.885 52.6648 196.039C51.3495 197.339 50.435 198.988 50.0295 200.789C49.624 202.591 49.7445 204.471 50.3766 206.206V206.206Z" fill="#FF1A87"/>
<path fill-rule="evenodd" clip-rule="evenodd" d="M54.659 317.597L32.3073 340.191L54.6589 362.785L39.6958 390.952L66.6792 405.575L60.3338 435.876L89.987 442.227L92.0856 472.791L122.434 470.658L132.89 499.565L162.046 488.82L180.499 514L206.154 494.758L231.808 514L250.298 488.821L279.417 499.565L289.836 470.695L320.184 472.829L322.32 442.227L351.973 435.876L345.628 405.575L372.636 390.914L357.648 362.747L380 340.154L357.648 317.56L372.549 289.393L345.541 274.732L351.887 244.431L322.233 238.08L320.135 207.516L289.786 209.65L279.368 180.78L250.211 191.524L231.808 166.307L206.154 185.6L180.486 166.307L162.009 191.499L132.89 180.792L122.459 209.662L92.1229 207.528L90.0243 238.093L60.3711 244.444L66.7165 274.745L39.7082 289.406L54.659 317.597Z" fill="#FFD916"/>
<path d="M210.089 302.348V304.645C210.089 306.833 211.869 308.607 214.065 308.607H255.628C257.824 308.607 259.604 306.833 259.604 304.645V302.348C259.604 300.16 257.824 298.386 255.628 298.386H214.065C211.869 298.386 210.089 300.16 210.089 302.348Z" fill="#071EC3"/>
<path d="M235.994 278.826H233.689C231.493 278.826 229.713 280.6 229.713 282.788V324.209C229.713 326.397 231.493 328.171 233.689 328.171H235.994C238.189 328.171 239.969 326.397 239.969 324.209V282.788C239.969 280.6 238.189 278.826 235.994 278.826Z" fill="#071EC3"/>
<path d="M216.524 320.131L218.153 321.755C219.706 323.302 222.224 323.302 223.776 321.755L253.165 292.466C254.718 290.919 254.718 288.41 253.165 286.863L251.536 285.239C249.983 283.692 247.466 283.692 245.913 285.239L216.524 314.528C214.971 316.075 214.971 318.584 216.524 320.131Z" fill="#071EC3"/>
<path d="M218.155 285.239L216.526 286.863C214.973 288.41 214.973 290.919 216.526 292.467L245.915 321.755C247.468 323.303 249.985 323.303 251.538 321.755L253.167 320.132C254.72 318.584 254.72 316.075 253.167 314.528L223.778 285.239C222.225 283.692 219.708 283.692 218.155 285.239Z" fill="#071EC3"/>
<path d="M148.029 271.394L146.399 273.018C144.847 274.565 144.847 277.074 146.399 278.621L175.789 307.91C177.341 309.458 179.859 309.458 181.411 307.91L183.041 306.287C184.593 304.739 184.593 302.23 183.041 300.683L153.651 271.394C152.099 269.847 149.581 269.847 148.029 271.394Z" fill="#071EC3"/>
<path d="M146.404 333.98L148.033 335.604C149.586 337.151 152.103 337.151 153.656 335.604L183.045 306.315C184.598 304.768 184.598 302.259 183.045 300.712L181.416 299.088C179.863 297.54 177.346 297.54 175.793 299.088L146.404 328.377C144.851 329.924 144.851 332.433 146.404 333.98Z" fill="#071EC3"/>
</svg>
