<svg width="400" height="517" viewBox="0 0 400 517" fill="none" xmlns="http://www.w3.org/2000/svg">
<path d="M384.964 126.276C385.6 124.535 385.722 122.649 385.317 120.841C384.911 119.033 383.994 117.378 382.674 116.073C384.551 115.916 386.343 115.218 387.831 114.066C389.318 112.913 390.438 111.355 391.055 109.58C391.671 107.806 391.757 105.891 391.303 104.068C390.849 102.246 389.873 100.594 388.495 99.3131C390.556 99.1685 392.517 98.3744 394.095 97.0458C395.673 95.7172 396.786 93.9229 397.274 91.9223C397.761 89.9216 397.598 87.8184 396.807 85.9165C396.015 84.0147 394.638 82.4128 392.873 81.3426C394.861 80.7923 396.621 79.6271 397.901 78.0149C399.181 76.4027 399.913 74.427 399.993 72.3729C400.073 70.3188 399.495 68.2926 398.345 66.5867C397.194 64.8808 395.529 63.5835 393.59 62.8819C393.516 62.8539 393.441 62.8379 393.367 62.8139C395.015 61.6623 396.263 60.0296 396.941 58.141C397.618 56.2524 397.691 54.2009 397.149 52.2693C396.608 50.3377 395.478 48.6211 393.916 47.3563C392.354 46.0915 390.437 45.3407 388.429 45.2074C389.677 43.6361 390.405 41.7181 390.514 39.7172C390.624 37.7163 390.108 35.7308 389.038 34.0341C387.969 32.3373 386.398 31.0125 384.541 30.242C382.685 29.4715 380.635 29.2932 378.673 29.7315C378.747 29.5575 378.83 29.3894 378.894 29.2114C379.586 27.3194 379.67 25.2597 379.134 23.318C378.599 21.3763 377.47 19.6487 375.905 18.3749C374.34 17.1011 372.416 16.3441 370.4 16.2089C368.384 16.0737 366.376 16.567 364.654 17.6204C365.043 15.4906 364.706 13.2923 363.696 11.3755C362.686 9.4588 361.062 7.93396 359.082 7.0439C357.102 6.15384 354.879 5.94977 352.769 6.46419C350.659 6.97861 348.783 8.18194 347.438 9.88248C347.355 7.7346 346.558 5.67513 345.173 4.02749C343.788 2.37986 341.893 1.23738 339.786 0.779486C337.678 0.321588 335.478 0.574201 333.53 1.49766C331.583 2.42111 329.998 3.9631 329.025 5.88147C328.252 4.09846 326.96 2.58772 325.316 1.5449C323.672 0.502075 321.752 -0.0247846 319.804 0.0325484C317.856 0.0898814 315.97 0.728766 314.39 1.86646C312.811 3.00416 311.61 4.58826 310.945 6.41361C310.816 6.77101 310.709 7.13575 310.623 7.50588C309.291 6.01317 307.53 4.96656 305.578 4.50897C303.627 4.05137 301.582 4.20511 299.722 4.94918C297.862 5.69325 296.277 6.99138 295.185 8.66632C294.093 10.3413 293.546 12.3114 293.619 14.3076C292.39 13.5287 291.001 13.0347 289.555 12.8621C288.108 12.6895 286.642 12.8427 285.263 13.3104C283.884 13.7782 282.628 14.5485 281.588 15.5645C280.547 16.5805 279.749 17.8164 279.252 19.1808C278.48 21.2856 278.466 23.5925 279.212 25.7065C277.203 25.052 275.034 25.0675 273.035 25.7506C271.035 26.4338 269.314 27.7475 268.13 29.4928C266.946 31.2382 266.365 33.3203 266.475 35.424C266.585 37.5277 267.379 39.5386 268.738 41.1524C266.731 40.9299 264.705 41.3351 262.94 42.3118C261.175 43.2886 259.759 44.7885 258.888 46.6035C258.017 48.4186 257.734 50.4587 258.079 52.4411C258.424 54.4234 259.379 56.2497 260.813 57.6666C258.96 57.8211 257.191 58.5013 255.715 59.6266C254.238 60.7519 253.116 62.2752 252.481 64.0162C251.847 65.7572 251.725 67.643 252.133 69.4504C252.54 71.2578 253.458 72.9112 254.778 74.2148C252.927 74.3691 251.159 75.0485 249.683 76.1727C248.207 77.2969 247.085 78.8188 246.45 80.5584C245.815 82.298 245.693 84.1825 246.098 85.9892C246.504 87.7958 247.42 89.4489 248.738 90.7529C246.887 90.9074 245.119 91.5868 243.643 92.7108C242.167 93.8348 241.045 95.3565 240.41 97.0959C239.774 98.8353 239.651 100.72 240.056 102.526C240.461 104.333 241.376 105.986 242.694 107.291C240.844 107.446 239.077 108.127 237.602 109.251C236.127 110.375 235.006 111.897 234.371 113.636C233.736 115.375 233.614 117.259 234.019 119.065C234.425 120.871 235.34 122.523 236.658 123.827C234.806 123.981 233.038 124.66 231.561 125.784C230.085 126.908 228.962 128.43 228.327 130.17C227.692 131.91 227.57 133.795 227.976 135.602C228.381 137.409 229.298 139.062 230.618 140.365C228.766 140.52 226.998 141.199 225.521 142.323C224.045 143.447 222.923 144.97 222.287 146.71C221.652 148.45 221.53 150.335 221.936 152.142C222.342 153.948 223.258 155.602 224.578 156.906C222.727 157.06 220.959 157.739 219.483 158.863C218.008 159.987 216.886 161.508 216.251 163.247C215.615 164.987 215.493 166.871 215.898 168.677C216.303 170.483 217.219 172.136 218.537 173.44C216.58 173.603 214.719 174.352 213.197 175.589C211.675 176.826 210.565 178.493 210.011 180.371C209.458 182.248 209.487 184.249 210.096 186.11C210.704 187.97 211.863 189.604 213.421 190.796C211.319 191.038 209.354 191.955 207.822 193.409C206.29 194.863 205.276 196.775 204.932 198.855C204.589 200.935 204.934 203.07 205.917 204.937C206.9 206.804 208.467 208.301 210.379 209.201C208.532 210.074 207.008 211.507 206.026 213.295C205.045 215.082 204.654 217.133 204.912 219.155C205.169 221.177 206.061 223.066 207.459 224.552C208.858 226.039 210.692 227.047 212.7 227.434C211.247 228.81 210.256 230.601 209.864 232.56C209.471 234.519 209.695 236.552 210.505 238.379C211.315 240.207 212.672 241.74 214.39 242.77C216.108 243.8 218.103 244.275 220.103 244.132C219.796 244.645 219.537 245.187 219.33 245.748C218.686 247.505 218.566 249.41 218.984 251.234C219.402 253.057 220.341 254.721 221.686 256.025C223.032 257.329 224.728 258.217 226.568 258.583C228.409 258.948 230.317 258.774 232.061 258.083C231.454 260.119 231.535 262.297 232.29 264.283C233.046 266.269 234.435 267.953 236.244 269.075C238.052 270.198 240.181 270.698 242.303 270.499C244.424 270.299 246.422 269.41 247.987 267.97C247.795 270.132 248.337 272.297 249.525 274.117C250.714 275.936 252.481 277.306 254.543 278.006C256.605 278.706 258.844 278.696 260.9 277.978C262.956 277.26 264.711 275.875 265.883 274.045C266.349 276.084 267.463 277.918 269.06 279.274C270.657 280.63 272.65 281.435 274.744 281.57C276.837 281.705 278.919 281.163 280.677 280.023C282.436 278.883 283.778 277.207 284.503 275.246C285.486 276.762 286.874 277.976 288.512 278.748C290.149 279.521 291.97 279.823 293.77 279.62C295.571 279.417 297.278 278.717 298.7 277.598C300.123 276.48 301.204 274.988 301.821 273.291C302.094 272.531 302.272 271.74 302.351 270.937C303.881 272.233 305.777 273.026 307.778 273.206C309.779 273.385 311.786 272.943 313.524 271.939C315.263 270.935 316.646 269.42 317.485 267.601C318.324 265.782 318.577 263.748 318.209 261.78C318.466 261.9 318.727 262.014 319 262.112C320.865 262.791 322.893 262.886 324.813 262.383C326.733 261.88 328.452 260.805 329.741 259.3C331.03 257.795 331.827 255.934 332.024 253.965C332.221 251.997 331.809 250.015 330.844 248.287C332.901 248.714 335.042 248.465 336.945 247.578C338.849 246.691 340.413 245.214 341.404 243.367C342.395 241.521 342.76 239.404 342.443 237.333C342.126 235.263 341.144 233.351 339.646 231.883C341.568 231.872 343.444 231.294 345.037 230.222C346.629 229.149 347.868 227.631 348.595 225.858C349.322 224.084 349.506 222.136 349.123 220.259C348.74 218.382 347.807 216.66 346.443 215.31C348.294 215.156 350.062 214.477 351.538 213.353C353.014 212.228 354.136 210.706 354.771 208.967C355.406 207.227 355.529 205.343 355.123 203.536C354.718 201.729 353.801 200.076 352.483 198.772C354.332 198.615 356.097 197.934 357.57 196.81C359.043 195.686 360.163 194.166 360.798 192.428C361.432 190.69 361.555 188.808 361.151 187.003C360.747 185.199 359.834 183.547 358.519 182.242C360.37 182.088 362.138 181.408 363.614 180.284C365.09 179.16 366.212 177.638 366.847 175.898C367.483 174.159 367.605 172.274 367.199 170.468C366.794 168.661 365.878 167.008 364.559 165.704C366.41 165.55 368.179 164.87 369.654 163.746C371.13 162.622 372.252 161.1 372.888 159.36C373.523 157.621 373.645 155.736 373.24 153.93C372.834 152.123 371.918 150.47 370.599 149.166C372.449 149.009 374.216 148.329 375.69 147.204C377.164 146.079 378.284 144.558 378.919 142.819C379.553 141.081 379.675 139.197 379.27 137.392C378.865 135.586 377.95 133.934 376.634 132.63C378.486 132.474 380.255 131.792 381.731 130.667C383.207 129.541 384.329 128.017 384.964 126.276V126.276Z" fill="#FF1A87"/>
<path d="M43.4937 204.758C44.1297 206.497 45.2519 208.018 46.7277 209.143C48.2035 210.267 49.9713 210.946 51.8223 211.101C50.4859 212.425 49.5637 214.107 49.1676 215.943C48.7715 217.779 48.9184 219.69 49.5906 221.444C50.2628 223.198 51.4313 224.72 52.9545 225.826C54.4777 226.931 56.29 227.572 58.1716 227.671C56.6869 229.102 55.697 230.965 55.3449 232.993C54.9928 235.021 55.2968 237.108 56.213 238.952C57.1291 240.796 58.6099 242.303 60.4415 243.253C62.273 244.204 64.3603 244.549 66.4018 244.24C65.2331 245.934 64.6351 247.955 64.6941 250.01C64.7531 252.066 65.466 254.049 66.73 255.674C67.9939 257.3 69.7435 258.482 71.726 259.052C73.7085 259.622 75.8214 259.549 77.7595 258.843C77.8338 258.817 77.902 258.781 77.9743 258.753C77.4531 260.692 77.5485 262.744 78.2472 264.627C78.9459 266.509 80.2136 268.129 81.8752 269.263C83.5369 270.397 85.5108 270.989 87.5245 270.958C89.5382 270.926 91.4925 270.273 93.1179 269.088C93.1766 271.09 93.8563 273.025 95.0636 274.627C96.2708 276.229 97.9463 277.418 99.8596 278.032C101.773 278.647 103.83 278.655 105.748 278.056C107.667 277.458 109.352 276.281 110.572 274.689C110.626 274.869 110.672 275.051 110.739 275.23C111.428 277.123 112.692 278.755 114.355 279.899C116.018 281.044 117.997 281.645 120.017 281.618C122.038 281.591 124 280.938 125.632 279.75C127.263 278.561 128.483 276.896 129.122 274.985C130.197 276.866 131.874 278.335 133.883 279.156C135.893 279.978 138.121 280.105 140.212 279.519C142.303 278.932 144.137 277.665 145.421 275.92C146.706 274.174 147.368 272.05 147.301 269.886C148.748 271.486 150.688 272.561 152.815 272.941C154.943 273.321 157.137 272.984 159.051 271.984C160.965 270.984 162.491 269.377 163.388 267.417C164.285 265.458 164.501 263.256 164.004 261.16C165.833 262.086 167.909 262.411 169.935 262.088C171.961 261.766 173.832 260.813 175.28 259.365C176.729 257.918 177.681 256.05 177.999 254.031C178.317 252.011 177.986 249.943 177.052 248.123C179.035 248.412 181.06 248.084 182.85 247.184C184.639 246.284 186.106 244.855 187.051 243.093C187.995 241.331 188.37 239.321 188.126 237.338C187.881 235.355 187.028 233.496 185.684 232.015C187.128 231.825 188.512 231.314 189.732 230.52C190.952 229.726 191.977 228.669 192.732 227.427C193.487 226.185 193.952 224.79 194.093 223.345C194.234 221.899 194.047 220.441 193.546 219.077C192.779 216.968 191.299 215.191 189.361 214.05C191.323 213.265 192.975 211.864 194.067 210.06C195.158 208.256 195.63 206.146 195.411 204.051C195.192 201.955 194.293 199.988 192.852 198.447C191.41 196.905 189.504 195.874 187.422 195.509C189.103 194.395 190.394 192.786 191.117 190.907C191.839 189.028 191.956 186.972 191.453 185.023C190.949 183.074 189.85 181.33 188.307 180.032C186.763 178.735 184.853 177.948 182.841 177.781C184.162 176.477 185.079 174.824 185.486 173.016C185.892 171.208 185.771 169.323 185.135 167.582C184.5 165.841 183.377 164.318 181.9 163.194C180.423 162.069 178.653 161.39 176.801 161.237C178.12 159.933 179.037 158.28 179.443 156.473C179.849 154.666 179.727 152.781 179.092 151.041C178.456 149.301 177.334 147.779 175.857 146.655C174.381 145.531 172.612 144.852 170.761 144.699C172.079 143.394 172.995 141.741 173.401 139.935C173.806 138.128 173.684 136.244 173.049 134.504C172.414 132.764 171.292 131.242 169.816 130.118C168.34 128.994 166.572 128.315 164.721 128.16C166.038 126.856 166.953 125.203 167.357 123.397C167.762 121.591 167.639 119.707 167.004 117.968C166.369 116.229 165.248 114.708 163.773 113.584C162.298 112.46 160.531 111.78 158.68 111.624C159.999 110.32 160.915 108.667 161.321 106.86C161.726 105.054 161.604 103.169 160.969 101.43C160.333 99.69 159.211 98.1681 157.735 97.0439C156.26 95.9198 154.491 95.2403 152.64 95.086C153.959 93.7816 154.875 92.1284 155.28 90.3218C155.685 88.5151 155.563 86.6305 154.928 84.8909C154.293 83.1512 153.171 81.6292 151.695 80.5048C150.219 79.3804 148.451 78.7006 146.6 78.5458C147.917 77.2415 148.832 75.5888 149.237 73.7828C149.642 71.9768 149.519 70.0931 148.884 68.3542C148.249 66.6154 147.128 65.0941 145.653 63.9702C144.177 62.8462 142.41 62.1666 140.56 62.0116C141.953 60.6331 142.894 58.8672 143.262 56.9457C143.63 55.0242 143.406 53.0369 142.619 51.2445C141.833 49.4521 140.522 47.9384 138.857 46.9021C137.193 45.8657 135.252 45.3552 133.291 45.4374C134.74 43.9051 135.65 41.9443 135.882 39.8514C136.114 37.7585 135.657 35.6472 134.579 33.8363C133.5 32.0255 131.86 30.6135 129.905 29.8138C127.951 29.014 125.788 28.87 123.744 29.4033C124.531 27.6632 124.785 25.7303 124.475 23.8468C124.165 21.9633 123.304 20.2129 122 18.8147C120.696 17.4165 119.008 16.4327 117.146 15.9865C115.283 15.5402 113.331 15.6514 111.531 16.306C111.076 16.4736 110.633 16.6742 110.207 16.9062C110.432 14.9207 110.037 12.9143 109.074 11.1614C108.112 9.4086 106.629 7.99497 104.829 7.11401C103.03 6.23304 101.001 5.92778 99.0207 6.23999C97.0403 6.5522 95.2051 7.46663 93.7662 8.85815C93.4367 6.86171 92.4886 5.01809 91.0547 3.58574C89.6208 2.15339 87.7731 1.20413 85.7706 0.871046C83.7681 0.537959 81.7112 0.837743 79.8883 1.72837C78.0654 2.619 76.5678 4.05581 75.6056 5.83739C74.7577 3.88895 73.2913 2.2719 71.4317 1.23472C69.572 0.197544 67.4221 -0.202364 65.3123 0.0964543C63.2024 0.395272 61.2494 1.37628 59.7533 2.88872C58.2573 4.40117 57.301 6.36135 57.0314 8.46805C55.7841 6.6887 53.974 5.37776 51.8906 4.745C49.8072 4.11224 47.5711 4.19425 45.54 4.9779C43.509 5.76155 41.8004 7.20154 40.6877 9.06744C39.575 10.9333 39.1225 13.1173 39.4027 15.2698C37.7315 14.0073 35.6957 13.3166 33.5987 13.3006C31.5017 13.2845 29.4555 13.944 27.765 15.1808C26.0746 16.4175 24.8302 18.1654 24.2172 20.1641C23.6043 22.1628 23.6556 24.3053 24.3635 26.2726C22.4328 25.671 20.3618 25.6851 18.4395 26.3128C16.5172 26.9404 14.8394 28.1504 13.6402 29.7739C12.441 31.3974 11.7802 33.3535 11.75 35.3692C11.7197 37.3849 12.3216 39.3598 13.4715 41.0183C11.4637 41.0062 9.50143 41.6138 7.85404 42.7577C6.20666 43.9016 4.95499 45.5257 4.27091 47.407C3.58683 49.2882 3.50389 51.3344 4.03347 53.2645C4.56306 55.1946 5.6792 56.914 7.22863 58.1866C6.95563 58.2606 6.68062 58.3407 6.40962 58.4387C4.54408 59.1139 2.9303 60.3415 1.78471 61.9567C0.639115 63.5719 0.0164871 65.4976 0.000322898 67.4756C-0.0158413 69.4535 0.575231 71.3891 1.69427 73.0227C2.81331 74.6563 4.40682 75.9099 6.26108 76.6153C4.41 77.6062 2.93064 79.1678 2.04432 81.0664C1.15801 82.9651 0.9124 85.0987 1.34424 87.148C1.77608 89.1974 2.86214 91.0523 4.43995 92.4352C6.01776 93.8181 8.00248 94.6548 10.0972 94.8199C8.63173 96.0595 7.56772 97.704 7.0395 99.5458C6.51129 101.388 6.54255 103.344 7.12933 105.168C7.71612 106.992 8.83212 108.602 10.3364 109.795C11.8407 110.987 13.6658 111.709 15.5813 111.868C14.2628 113.172 13.3466 114.825 12.9412 116.632C12.5357 118.439 12.6578 120.323 13.2932 122.063C13.9285 123.802 15.0505 125.324 16.5264 126.448C18.0023 127.573 19.7703 128.252 21.6215 128.406C20.3032 129.711 19.3872 131.364 18.9819 133.171C18.5765 134.977 18.6987 136.862 19.334 138.601C19.9693 140.341 21.0911 141.863 22.5668 142.988C24.0426 144.112 25.8105 144.792 27.6616 144.947C26.3431 146.251 25.427 147.904 25.0215 149.71C24.616 151.517 24.7382 153.402 25.3735 155.141C26.0089 156.881 27.1308 158.403 28.6067 159.527C30.0826 160.651 31.8507 161.33 33.7018 161.485C32.3831 162.789 31.4669 164.443 31.0617 166.25C30.6565 168.057 30.7792 169.942 31.4152 171.682C32.0513 173.422 33.1741 174.943 34.6508 176.067C36.1275 177.191 37.8963 177.87 39.748 178.023C38.4297 179.327 37.5137 180.98 37.1084 182.787C36.703 184.594 36.8252 186.478 37.4605 188.218C38.0958 189.958 39.2176 191.48 40.6934 192.604C42.1691 193.729 43.937 194.408 45.7881 194.563C44.4692 195.867 43.5523 197.52 43.1457 199.326C42.7391 201.133 42.8599 203.017 43.4937 204.758V204.758Z" fill="#FF1A87"/>
<path d="M40.5729 339.112C35.3927 342.109 31.2255 346.575 28.6029 351.942C25.9803 357.308 25.0211 363.332 25.8477 369.244C26.6743 375.156 29.2492 380.688 33.2439 385.136C37.2387 389.584 42.4723 392.745 48.2771 394.216C44.8291 398.863 42.7984 404.402 42.4283 410.17C42.0582 415.938 43.3643 421.689 46.1903 426.736C49.0163 431.783 53.2423 435.911 58.3622 438.626C63.482 441.34 69.2785 442.526 75.0574 442.042C74.7791 442.994 74.5442 443.968 74.3528 444.963C73.3137 450.449 73.8286 456.116 75.8395 461.327C77.8505 466.538 81.2782 471.088 85.7384 474.467C90.1985 477.846 95.5148 479.919 101.091 480.456C106.668 480.993 112.284 479.971 117.31 477.505C117.499 483.593 119.538 489.48 123.159 494.387C126.78 499.294 131.811 502.989 137.587 504.982C143.362 506.975 149.609 507.173 155.499 505.549C161.39 503.925 166.646 500.556 170.572 495.888C172.521 501.661 176.184 506.708 181.075 510.36C185.967 514.012 191.857 516.097 197.965 516.337C204.072 516.578 210.109 514.964 215.275 511.709C220.441 508.453 224.492 503.71 226.893 498.108C230.672 502.229 235.529 505.219 240.918 506.744C246.307 508.269 252.016 508.268 257.404 506.741C262.793 505.214 267.648 502.222 271.426 498.1C275.205 493.978 277.756 488.889 278.795 483.403C278.984 482.406 279.121 481.414 279.207 480.426C284.411 482.971 290.241 483.968 295.999 483.298C301.757 482.628 307.2 480.319 311.675 476.647C316.151 472.974 319.47 468.095 321.236 462.592C323.002 457.089 323.139 451.196 321.632 445.617C327.576 446.354 333.606 445.311 338.952 442.619C344.298 439.928 348.719 435.71 351.65 430.505C354.581 425.299 355.89 419.341 355.41 413.391C354.93 407.441 352.683 401.769 348.955 397.097C355.009 396.05 360.597 393.187 364.974 388.889C369.35 384.591 372.306 379.064 373.445 373.047C374.583 367.029 373.851 360.809 371.346 355.217C368.841 349.626 364.683 344.929 359.427 341.757C364.606 338.759 368.773 334.293 371.394 328.926C374.016 323.56 374.975 317.537 374.148 311.625C373.321 305.713 370.747 300.181 366.752 295.733C362.758 291.286 357.525 288.125 351.721 286.653C355.169 282.006 357.2 276.467 357.57 270.699C357.94 264.931 356.634 259.179 353.808 254.133C350.982 249.086 346.756 244.958 341.636 242.243C336.516 239.528 330.719 238.342 324.941 238.827C325.222 237.874 325.457 236.901 325.647 235.906C326.685 230.42 326.17 224.754 324.159 219.543C322.148 214.332 318.72 209.782 314.26 206.404C309.8 203.025 304.484 200.951 298.908 200.414C293.332 199.877 287.716 200.899 282.689 203.364C282.502 197.275 280.463 191.387 276.843 186.479C273.222 181.572 268.19 177.876 262.414 175.883C256.639 173.89 250.392 173.692 244.501 175.317C238.61 176.942 233.353 180.312 229.428 184.981C227.479 179.208 223.816 174.161 218.924 170.509C214.033 166.857 208.143 164.772 202.035 164.531C195.928 164.291 189.891 165.905 184.725 169.16C179.559 172.416 175.508 177.159 173.107 182.76C169.328 178.64 164.472 175.65 159.083 174.126C153.695 172.601 147.987 172.602 142.598 174.128C137.21 175.654 132.355 178.646 128.577 182.767C124.799 186.888 122.247 191.977 121.207 197.462C121.018 198.462 120.884 199.451 120.805 200.439C115.601 197.893 109.771 196.895 104.012 197.565C98.2537 198.234 92.8108 200.544 88.3349 204.216C83.859 207.888 80.5397 212.768 78.7741 218.272C77.0086 223.775 76.8716 229.669 78.3796 235.248C72.4345 234.508 66.4029 235.55 61.0545 238.241C55.7061 240.932 51.2834 245.15 48.3509 250.356C45.4183 255.563 44.1087 261.522 44.5894 267.474C45.07 273.426 47.3189 279.1 51.0493 283.772C44.9943 284.817 39.404 287.68 35.0263 291.978C30.6485 296.276 27.6923 301.803 26.553 307.821C25.4138 313.839 26.1458 320.06 28.6513 325.652C31.1568 331.244 35.3161 335.94 40.5729 339.112Z" fill="#FFD916"/>
<path d="M203.638 301.159V303.462C203.638 305.656 205.423 307.435 207.625 307.435H249.3C251.501 307.435 253.286 305.656 253.286 303.462V301.159C253.286 298.965 251.501 297.186 249.3 297.186H207.625C205.423 297.186 203.638 298.965 203.638 301.159Z" fill="#071EC3"/>
<path d="M229.612 277.574H227.302C225.1 277.574 223.315 279.353 223.315 281.547V323.079C223.315 325.273 225.1 327.052 227.302 327.052H229.612C231.814 327.052 233.599 325.273 233.599 323.079V281.547C233.599 279.353 231.814 277.574 229.612 277.574Z" fill="#071EC3"/>
<path d="M210.091 318.99L211.725 320.618C213.282 322.17 215.806 322.17 217.363 320.618L246.831 291.25C248.388 289.699 248.388 287.183 246.831 285.632L245.198 284.004C243.641 282.452 241.117 282.452 239.56 284.004L210.091 313.372C208.534 314.923 208.534 317.439 210.091 318.99Z" fill="#071EC3"/>
<path d="M211.725 284.004L210.091 285.633C208.534 287.184 208.534 289.7 210.091 291.251L239.56 320.619C241.117 322.171 243.641 322.171 245.198 320.619L246.832 318.991C248.388 317.439 248.388 314.924 246.832 313.372L217.363 284.004C215.806 282.453 213.282 282.453 211.725 284.004Z" fill="#071EC3"/>
<path d="M141.41 270.122L139.776 271.75C138.219 273.301 138.219 275.817 139.776 277.368L169.245 306.736C170.802 308.288 173.326 308.288 174.883 306.736L176.516 305.108C178.073 303.557 178.073 301.041 176.516 299.489L147.048 270.122C145.491 268.57 142.967 268.57 141.41 270.122Z" fill="#071EC3"/>
<path d="M139.78 332.876L141.413 334.505C142.97 336.056 145.495 336.056 147.051 334.505L176.52 305.137C178.077 303.585 178.077 301.07 176.52 299.518L174.886 297.89C173.329 296.338 170.805 296.338 169.248 297.89L139.78 327.258C138.223 328.809 138.223 331.325 139.78 332.876Z" fill="#071EC3"/>
</svg>
