<svg width="401" height="517" viewBox="0 0 401 517" fill="none" xmlns="http://www.w3.org/2000/svg">
<path d="M385.81 126.647C386.446 124.906 386.569 123.02 386.163 121.212C385.757 119.404 384.84 117.749 383.52 116.444C385.398 116.287 387.189 115.589 388.677 114.437C390.165 113.284 391.285 111.726 391.901 109.951C392.517 108.177 392.604 106.262 392.149 104.439C391.695 102.617 390.719 100.965 389.341 99.6842C391.402 99.5396 393.363 98.7455 394.941 97.4169C396.52 96.0883 397.633 94.294 398.12 92.2934C398.608 90.2927 398.444 88.1894 397.653 86.2876C396.862 84.3858 395.484 82.7839 393.72 81.7137C395.707 81.1634 397.467 79.9981 398.747 78.386C400.027 76.7738 400.759 74.7981 400.839 72.744C400.919 70.6899 400.342 68.6637 399.191 66.9578C398.04 65.2519 396.375 63.9546 394.436 63.253C394.362 63.225 394.288 63.209 394.213 63.185C395.861 62.0334 397.11 60.4007 397.787 58.5121C398.465 56.6235 398.537 54.572 397.996 52.6404C397.454 50.7088 396.324 48.9922 394.762 47.7274C393.2 46.4626 391.283 45.7118 389.275 45.5785C390.523 44.0072 391.252 42.0892 391.361 40.0883C391.47 38.0874 390.954 36.1019 389.884 34.4051C388.815 32.7084 387.244 31.3836 385.388 30.6131C383.532 29.8426 381.481 29.6643 379.519 30.1026C379.594 29.9286 379.676 29.7605 379.74 29.5825C380.432 27.6904 380.516 25.6308 379.98 23.6891C379.445 21.7474 378.316 20.0198 376.751 18.746C375.186 17.4722 373.263 16.7152 371.246 16.58C369.23 16.4448 367.222 16.9381 365.5 17.9915C365.889 15.8617 365.552 13.6634 364.542 11.7466C363.533 9.8299 361.908 8.30505 359.928 7.41499C357.948 6.52493 355.726 6.32086 353.616 6.83528C351.506 7.34971 349.629 8.55303 348.285 10.2536C348.201 8.10569 347.405 6.04622 346.019 4.39859C344.634 2.75095 342.739 1.60848 340.632 1.15058C338.524 0.692682 336.324 0.945295 334.377 1.86875C332.429 2.79221 330.844 4.3342 329.871 6.25257C329.098 4.46955 327.806 2.95881 326.162 1.91599C324.518 0.873169 322.598 0.346309 320.65 0.403642C318.702 0.460975 316.816 1.09986 315.236 2.23756C313.657 3.37525 312.457 4.95935 311.791 6.7847C311.662 7.1421 311.555 7.50684 311.47 7.87698C310.138 6.38426 308.376 5.33765 306.425 4.88006C304.474 4.42247 302.428 4.5762 300.568 5.32027C298.708 6.06434 297.123 7.36248 296.031 9.03741C294.939 10.7124 294.392 12.6825 294.465 14.6787C293.236 13.8997 291.847 13.4058 290.401 13.2332C288.955 13.0606 287.488 13.2138 286.109 13.6815C284.73 14.1493 283.474 14.9196 282.434 15.9356C281.394 16.9516 280.596 18.1875 280.098 19.5519C279.326 21.6567 279.312 23.9636 280.058 26.0776C278.049 25.4231 275.881 25.4386 273.881 26.1217C271.882 26.8049 270.16 28.1186 268.976 29.8639C267.793 31.6093 267.212 33.6914 267.321 35.7951C267.431 37.8988 268.225 39.9097 269.584 41.5235C267.577 41.3009 265.551 41.7062 263.786 42.6829C262.021 43.6597 260.605 45.1596 259.734 46.9746C258.863 48.7897 258.581 50.8298 258.925 52.8122C259.27 54.7945 260.226 56.6208 261.659 58.0377C259.807 58.1922 258.037 58.8724 256.561 59.9977C255.085 61.123 253.962 62.6463 253.328 64.3872C252.693 66.1283 252.572 68.0141 252.979 69.8215C253.386 71.6289 254.304 73.2823 255.625 74.5859C253.774 74.7402 252.005 75.4196 250.53 76.5438C249.054 77.668 247.932 79.1899 247.296 80.9295C246.661 82.6691 246.539 84.5536 246.944 86.3603C247.35 88.1669 248.266 89.82 249.584 91.124C247.733 91.2785 245.965 91.9579 244.49 93.0819C243.014 94.2059 241.892 95.7276 241.256 97.467C240.62 99.2064 240.497 101.091 240.902 102.897C241.307 104.704 242.223 106.358 243.54 107.662C241.69 107.818 239.923 108.498 238.448 109.622C236.973 110.746 235.852 112.268 235.217 114.007C234.582 115.746 234.46 117.63 234.866 119.436C235.271 121.242 236.186 122.895 237.504 124.198C235.653 124.352 233.884 125.031 232.408 126.155C230.931 127.279 229.809 128.801 229.173 130.541C228.538 132.281 228.416 134.166 228.822 135.973C229.228 137.78 230.145 139.433 231.464 140.737C229.612 140.891 227.844 141.57 226.368 142.694C224.891 143.819 223.769 145.341 223.134 147.081C222.498 148.821 222.376 150.706 222.782 152.513C223.188 154.32 224.105 155.973 225.424 157.277C223.573 157.431 221.805 158.11 220.33 159.234C218.854 160.358 217.732 161.879 217.097 163.618C216.462 165.358 216.339 167.242 216.745 169.048C217.15 170.854 218.066 172.507 219.384 173.811C217.427 173.974 215.565 174.723 214.043 175.96C212.522 177.197 211.411 178.864 210.858 180.742C210.304 182.62 210.333 184.62 210.942 186.481C211.55 188.342 212.709 189.975 214.267 191.167C212.165 191.409 210.2 192.326 208.668 193.78C207.137 195.234 206.122 197.146 205.779 199.226C205.435 201.306 205.781 203.441 206.763 205.308C207.746 207.175 209.313 208.672 211.226 209.572C209.378 210.445 207.855 211.878 206.873 213.666C205.891 215.453 205.501 217.504 205.758 219.526C206.015 221.548 206.907 223.437 208.306 224.924C209.704 226.41 211.538 227.419 213.546 227.805C212.093 229.181 211.103 230.972 210.71 232.931C210.317 234.89 210.541 236.923 211.351 238.75C212.161 240.578 213.518 242.111 215.236 243.141C216.954 244.171 218.95 244.646 220.949 244.503C220.642 245.016 220.383 245.558 220.177 246.119C219.533 247.876 219.412 249.781 219.83 251.605C220.248 253.428 221.187 255.093 222.533 256.396C223.878 257.7 225.574 258.588 227.415 258.954C229.256 259.319 231.163 259.145 232.907 258.454C232.3 260.49 232.381 262.668 233.136 264.654C233.892 266.64 235.281 268.324 237.09 269.447C238.899 270.569 241.027 271.069 243.149 270.87C245.271 270.67 247.268 269.781 248.834 268.341C248.642 270.504 249.183 272.668 250.372 274.488C251.56 276.307 253.327 277.677 255.389 278.377C257.452 279.077 259.69 279.067 261.746 278.349C263.802 277.631 265.557 276.246 266.729 274.416C267.195 276.455 268.309 278.289 269.906 279.645C271.503 281.001 273.497 281.807 275.59 281.942C277.684 282.076 279.765 281.534 281.524 280.394C283.282 279.254 284.624 277.578 285.35 275.617C286.332 277.133 287.721 278.347 289.358 279.12C290.995 279.892 292.817 280.194 294.617 279.991C296.417 279.788 298.124 279.088 299.547 277.97C300.969 276.851 302.05 275.36 302.667 273.662C302.941 272.902 303.119 272.111 303.197 271.308C304.728 272.604 306.624 273.397 308.624 273.577C310.625 273.756 312.632 273.314 314.371 272.31C316.109 271.306 317.492 269.791 318.331 267.972C319.17 266.153 319.423 264.119 319.055 262.151C319.312 262.271 319.573 262.385 319.846 262.483C321.711 263.162 323.739 263.257 325.659 262.754C327.579 262.251 329.299 261.176 330.588 259.671C331.876 258.166 332.673 256.305 332.87 254.337C333.067 252.368 332.655 250.387 331.69 248.658C333.747 249.085 335.888 248.836 337.792 247.949C339.695 247.063 341.26 245.585 342.251 243.738C343.242 241.892 343.606 239.775 343.289 237.705C342.972 235.634 341.991 233.722 340.492 232.254C342.414 232.243 344.29 231.665 345.883 230.593C347.476 229.52 348.714 228.002 349.441 226.229C350.168 224.455 350.352 222.507 349.969 220.63C349.586 218.753 348.653 217.031 347.289 215.682C349.14 215.527 350.908 214.848 352.384 213.724C353.86 212.599 354.982 211.078 355.617 209.338C356.253 207.598 356.375 205.714 355.969 203.907C355.564 202.101 354.648 200.447 353.329 199.143C355.178 198.986 356.943 198.306 358.416 197.181C359.89 196.057 361.009 194.537 361.644 192.799C362.278 191.062 362.401 189.179 361.997 187.375C361.594 185.57 360.68 183.918 359.365 182.613C361.217 182.459 362.985 181.779 364.461 180.655C365.936 179.531 367.058 178.009 367.694 176.27C368.329 174.53 368.451 172.645 368.046 170.839C367.64 169.032 366.724 167.379 365.406 166.075C367.257 165.921 369.025 165.241 370.501 164.117C371.977 162.993 373.099 161.471 373.734 159.731C374.369 157.992 374.491 156.107 374.086 154.301C373.68 152.494 372.764 150.841 371.446 149.537C373.296 149.38 375.062 148.7 376.536 147.575C378.01 146.45 379.13 144.929 379.765 143.19C380.399 141.452 380.521 139.568 380.116 137.763C379.712 135.957 378.797 134.305 377.48 133.001C379.332 132.845 381.101 132.164 382.577 131.038C384.054 129.912 385.175 128.388 385.81 126.647Z" fill="#FFD916"/>
<path d="M44.3401 205.128C44.9761 206.868 46.0983 208.389 47.5741 209.513C49.0499 210.637 50.8177 211.317 52.6687 211.472C51.3323 212.796 50.4101 214.478 50.014 216.313C49.6179 218.149 49.7648 220.06 50.437 221.814C51.1092 223.569 52.2778 225.091 53.8009 226.196C55.3241 227.302 57.1364 227.943 59.018 228.042C57.5333 229.472 56.5434 231.336 56.1913 233.364C55.8392 235.392 56.1432 237.478 57.0594 239.323C57.9755 241.167 59.4563 242.673 61.2879 243.624C63.1194 244.574 65.2067 244.92 67.2482 244.61C66.0795 246.305 65.4815 248.326 65.5405 250.381C65.5995 252.436 66.3124 254.42 67.5764 256.045C68.8403 257.67 70.5899 258.853 72.5724 259.423C74.5549 259.992 76.6678 259.919 78.6059 259.214C78.6802 259.188 78.7484 259.152 78.8207 259.124C78.2995 261.063 78.3949 263.115 79.0936 264.997C79.7923 266.88 81.06 268.499 82.7217 269.633C84.3833 270.767 86.3572 271.36 88.3709 271.328C90.3846 271.297 92.3389 270.644 93.9643 269.459C94.023 271.461 94.7027 273.396 95.91 274.998C97.1172 276.599 98.7927 277.789 100.706 278.403C102.619 279.017 104.677 279.025 106.595 278.427C108.513 277.828 110.198 276.652 111.418 275.06C111.473 275.24 111.519 275.422 111.585 275.6C112.275 277.493 113.539 279.125 115.201 280.27C116.864 281.415 118.843 282.015 120.864 281.989C122.884 281.962 124.847 281.309 126.478 280.12C128.11 278.932 129.329 277.267 129.968 275.356C131.044 277.237 132.72 278.705 134.73 279.527C136.739 280.348 138.967 280.476 141.058 279.889C143.149 279.303 144.983 278.036 146.268 276.29C147.552 274.544 148.214 272.421 148.147 270.257C149.594 271.857 151.534 272.932 153.662 273.311C155.789 273.691 157.983 273.354 159.897 272.354C161.811 271.354 163.337 269.748 164.234 267.788C165.131 265.828 165.348 263.627 164.85 261.531C166.679 262.456 168.756 262.781 170.781 262.459C172.807 262.137 174.678 261.183 176.127 259.736C177.575 258.288 178.527 256.421 178.845 254.401C179.164 252.382 178.832 250.314 177.898 248.493C179.882 248.783 181.907 248.455 183.696 247.555C185.486 246.655 186.953 245.226 187.897 243.464C188.841 241.702 189.217 239.692 188.972 237.709C188.728 235.726 187.875 233.867 186.53 232.385C187.975 232.196 189.358 231.685 190.578 230.891C191.798 230.097 192.823 229.04 193.578 227.798C194.333 226.556 194.798 225.161 194.939 223.715C195.08 222.27 194.894 220.812 194.393 219.448C193.626 217.339 192.146 215.561 190.207 214.421C192.169 213.636 193.821 212.235 194.913 210.431C196.005 208.626 196.477 206.517 196.257 204.421C196.038 202.326 195.14 200.358 193.698 198.817C192.257 197.276 190.351 196.245 188.268 195.88C189.949 194.765 191.241 193.157 191.963 191.278C192.685 189.399 192.803 187.342 192.299 185.394C191.796 183.445 190.696 181.701 189.153 180.403C187.61 179.105 185.7 178.318 183.688 178.151C185.008 176.848 185.926 175.194 186.332 173.387C186.739 171.579 186.617 169.693 185.982 167.952C185.346 166.212 184.223 164.689 182.746 163.564C181.269 162.44 179.5 161.761 177.647 161.607C178.967 160.304 179.884 158.65 180.29 156.844C180.696 155.037 180.574 153.152 179.938 151.412C179.303 149.672 178.18 148.15 176.704 147.026C175.227 145.902 173.459 145.223 171.607 145.069C172.926 143.765 173.842 142.112 174.247 140.305C174.653 138.499 174.531 136.614 173.895 134.875C173.26 133.135 172.138 131.613 170.662 130.489C169.186 129.365 167.418 128.685 165.567 128.531C166.884 127.226 167.799 125.574 168.204 123.767C168.608 121.961 168.486 120.078 167.851 118.339C167.215 116.6 166.094 115.079 164.619 113.954C163.144 112.83 161.377 112.15 159.527 111.995C160.845 110.691 161.762 109.038 162.167 107.231C162.572 105.424 162.45 103.54 161.815 101.8C161.18 100.061 160.058 98.5387 158.582 97.4145C157.106 96.2904 155.338 95.6109 153.487 95.4566C154.805 94.1522 155.721 92.499 156.126 90.6924C156.532 88.8857 156.41 87.0011 155.774 85.2615C155.139 83.5218 154.017 81.9998 152.541 80.8754C151.066 79.751 149.298 79.0712 147.447 78.9164C148.764 77.6121 149.679 75.9594 150.084 74.1534C150.488 72.3474 150.366 70.4637 149.731 68.7248C149.095 66.986 147.974 65.4647 146.499 64.3408C145.024 63.2168 143.257 62.5372 141.406 62.3822C142.799 61.0037 143.741 59.2378 144.108 57.3163C144.476 55.3948 144.252 53.4075 143.466 51.6151C142.68 49.8227 141.368 48.309 139.704 47.2727C138.039 46.2364 136.099 45.7258 134.138 45.808C135.587 44.2757 136.496 42.3149 136.728 40.222C136.961 38.1291 136.503 36.0178 135.425 34.2069C134.347 32.3961 132.706 30.9841 130.752 30.1844C128.797 29.3847 126.635 29.2406 124.591 29.774C125.378 28.0338 125.632 26.1009 125.322 24.2174C125.011 22.3339 124.15 20.5835 122.847 19.1853C121.543 17.7871 119.854 16.8033 117.992 16.3571C116.13 15.9108 114.177 16.022 112.378 16.6766C111.922 16.8442 111.479 17.0448 111.053 17.2768C111.279 15.2913 110.883 13.2849 109.921 11.532C108.958 9.7792 107.476 8.36558 105.676 7.48461C103.876 6.60365 101.847 6.29839 99.8671 6.6106C97.8867 6.92281 96.0515 7.83723 94.6126 9.22875C94.2831 7.23232 93.335 5.38869 91.9011 3.95635C90.4672 2.524 88.6195 1.57474 86.617 1.24165C84.6145 0.908564 82.5576 1.20835 80.7347 2.09898C78.9118 2.9896 77.4142 4.42642 76.452 6.20799C75.6041 4.25956 74.1377 2.6425 72.2781 1.60533C70.4184 0.568149 68.2685 0.168242 66.1587 0.46706C64.0488 0.765878 62.0958 1.74689 60.5998 3.25933C59.1037 4.77177 58.1474 6.73196 57.8778 8.83866C56.6305 7.05931 54.8204 5.74836 52.737 5.1156C50.6536 4.48285 48.4175 4.56486 46.3864 5.34851C44.3554 6.13216 42.6468 7.57215 41.5341 9.43805C40.4214 11.3039 39.9689 13.4879 40.2491 15.6404C38.5779 14.3779 36.5421 13.6872 34.4451 13.6712C32.3481 13.6551 30.3019 14.3146 28.6114 15.5514C26.921 16.7881 25.6766 18.536 25.0636 20.5347C24.4507 22.5334 24.502 24.6759 25.2099 26.6432C23.2792 26.0416 21.2082 26.0557 19.2859 26.6834C17.3636 27.311 15.6858 28.521 14.4866 30.1445C13.2874 31.768 12.6266 33.7241 12.5964 35.7398C12.5661 37.7555 13.168 39.7304 14.3179 41.3889C12.3102 41.3768 10.3478 41.9844 8.70045 43.1283C7.05306 44.2722 5.80139 45.8963 5.11731 47.7776C4.43323 49.6588 4.35029 51.705 4.87988 53.6351C5.40946 55.5652 6.5256 57.2846 8.07503 58.5572C7.80203 58.6313 7.52702 58.7113 7.25603 58.8093C5.39048 59.4845 3.7767 60.7121 2.63111 62.3273C1.48552 63.9426 0.862892 65.8683 0.846728 67.8462C0.830564 69.8241 1.42164 71.7597 2.54068 73.3933C3.65972 75.0269 5.25322 76.2805 7.10748 76.9859C5.25641 77.9768 3.77704 79.5384 2.89073 81.437C2.00442 83.3357 1.7588 85.4693 2.19064 87.5186C2.62248 89.568 3.70855 91.4229 5.28636 92.8058C6.86417 94.1887 8.84888 95.0254 10.9436 95.1905C9.47813 96.4301 8.41413 98.0746 7.88591 99.9164C7.35769 101.758 7.38895 103.715 7.97574 105.539C8.56253 107.363 9.67853 108.973 11.1828 110.165C12.6871 111.358 14.5122 112.079 16.4277 112.239C15.1092 113.543 14.193 115.196 13.7876 117.003C13.3821 118.809 13.5042 120.694 14.1396 122.433C14.7749 124.173 15.8969 125.695 17.3728 126.819C18.8487 127.943 20.6167 128.623 22.4679 128.777C21.1496 130.081 20.2336 131.735 19.8283 133.541C19.4229 135.348 19.5451 137.232 20.1804 138.972C20.8157 140.712 21.9375 142.234 23.4132 143.358C24.889 144.483 26.6569 145.162 28.508 145.317C27.1895 146.621 26.2734 148.274 25.8679 150.081C25.4624 151.888 25.5846 153.772 26.2199 155.512C26.8553 157.251 27.9772 158.773 29.4531 159.897C30.929 161.022 32.6971 161.701 34.5482 161.855C33.2295 163.16 32.3133 164.813 31.9081 166.621C31.5029 168.428 31.6256 170.313 32.2616 172.052C32.8977 173.792 34.0205 175.314 35.4972 176.438C36.9739 177.562 38.7427 178.24 40.5944 178.394C39.2761 179.698 38.3601 181.351 37.9548 183.158C37.5494 184.964 37.6716 186.849 38.3069 188.589C38.9422 190.328 40.064 191.85 41.5398 192.975C43.0155 194.099 44.7834 194.779 46.6346 194.934C45.3156 196.238 44.3987 197.89 43.9921 199.697C43.5855 201.503 43.7063 203.388 44.3401 205.128Z" fill="#FFD916"/>
<path d="M41.4193 339.483C36.2391 342.479 32.0719 346.946 29.4493 352.312C26.8267 357.679 25.8675 363.702 26.6941 369.614C27.5207 375.526 30.0956 381.059 34.0904 385.507C38.0851 389.954 43.3187 393.115 49.1236 394.587C45.6755 399.234 43.6448 404.773 43.2747 410.54C42.9046 416.308 44.2108 422.06 47.0368 427.107C49.8628 432.154 54.0888 436.282 59.2086 438.996C64.3284 441.711 70.1249 442.897 75.9039 442.413C75.6255 443.365 75.3906 444.339 75.1993 445.333C74.1602 450.82 74.675 456.486 76.686 461.697C78.697 466.909 82.1247 471.459 86.5848 474.837C91.0449 478.216 96.3612 480.29 101.938 480.827C107.514 481.363 113.13 480.341 118.157 477.876C118.345 483.964 120.385 489.851 124.006 494.758C127.627 499.665 132.658 503.36 138.433 505.353C144.208 507.346 150.455 507.544 156.345 505.92C162.236 504.296 167.492 500.926 171.418 496.258C173.367 502.032 177.03 507.079 181.922 510.731C186.814 514.383 192.704 516.467 198.811 516.708C204.918 516.949 210.955 515.335 216.121 512.079C221.287 508.824 225.339 504.081 227.739 498.479C231.519 502.6 236.375 505.59 241.764 507.115C247.154 508.64 252.862 508.638 258.251 507.112C263.639 505.585 268.495 502.593 272.273 498.471C276.051 494.349 278.603 489.259 279.642 483.773C279.83 482.777 279.967 481.785 280.053 480.796C285.257 483.342 291.087 484.339 296.846 483.669C302.604 482.999 308.046 480.689 312.522 477.017C316.997 473.345 320.317 468.466 322.082 462.963C323.848 457.46 323.986 451.566 322.479 445.988C328.423 446.725 334.452 445.681 339.798 442.99C345.145 440.298 349.565 436.081 352.496 430.875C355.428 425.67 356.737 419.712 356.257 413.762C355.777 407.812 353.529 402.139 349.801 397.467C355.855 396.421 361.444 393.557 365.82 389.259C370.197 384.961 373.152 379.434 374.291 373.417C375.429 367.4 374.697 361.179 372.192 355.588C369.687 349.996 365.529 345.3 360.274 342.127C365.453 339.13 369.619 334.663 372.241 329.297C374.863 323.93 375.821 317.907 374.995 311.995C374.168 306.084 371.593 300.551 367.599 296.104C363.605 291.656 358.372 288.495 352.567 287.023C356.015 282.376 358.046 276.837 358.416 271.069C358.786 265.302 357.48 259.55 354.654 254.503C351.828 249.456 347.602 245.328 342.482 242.614C337.362 239.899 331.566 238.713 325.787 239.197C326.068 238.245 326.304 237.271 326.494 236.277C327.532 230.79 327.017 225.124 325.005 219.913C322.994 214.703 319.566 210.153 315.107 206.775C310.647 203.396 305.331 201.322 299.755 200.785C294.178 200.248 288.562 201.269 283.536 203.734C283.349 197.646 281.31 191.758 277.689 186.85C274.068 181.942 269.037 178.247 263.261 176.254C257.485 174.26 251.238 174.063 245.347 175.688C239.456 177.312 234.2 180.683 230.274 185.352C228.326 179.578 224.663 174.531 219.771 170.879C214.879 167.227 208.989 165.143 202.882 164.902C196.774 164.661 190.738 166.275 185.572 169.531C180.406 172.786 176.354 177.529 173.954 183.131C170.174 179.011 165.318 176.021 159.93 174.496C154.541 172.972 148.833 172.973 143.445 174.499C138.057 176.025 133.202 179.016 129.423 183.138C125.645 187.259 123.093 192.347 122.053 197.833C121.865 198.833 121.73 199.821 121.652 200.81C116.447 198.263 110.617 197.265 104.859 197.935C99.1002 198.605 93.6573 200.914 89.1814 204.587C84.7054 208.259 81.3861 213.139 79.6205 218.642C77.855 224.146 77.718 230.039 79.2261 235.618C73.2809 234.878 67.2493 235.92 61.9009 238.611C56.5525 241.302 52.1299 245.52 49.1973 250.727C46.2647 255.934 44.9552 261.893 45.4358 267.845C45.9164 273.796 48.1654 279.47 51.8957 284.143C45.8408 285.188 40.2504 288.051 35.8727 292.348C31.495 296.646 28.5387 302.174 27.3995 308.192C26.2602 314.21 26.9923 320.431 29.4978 326.023C32.0032 331.615 36.1626 336.311 41.4193 339.483Z" fill="#FF5903"/>
<path d="M204.484 301.53V303.833C204.484 306.027 206.269 307.806 208.471 307.806H250.146C252.348 307.806 254.133 306.027 254.133 303.833V301.53C254.133 299.336 252.348 297.557 250.146 297.557H208.471C206.269 297.557 204.484 299.336 204.484 301.53Z" fill="#071EC3"/>
<path d="M230.458 277.944H228.148C225.946 277.944 224.161 279.723 224.161 281.917V323.45C224.161 325.644 225.946 327.423 228.148 327.423H230.458C232.66 327.423 234.445 325.644 234.445 323.45V281.917C234.445 279.723 232.66 277.944 230.458 277.944Z" fill="#071EC3"/>
<path d="M210.938 319.361L212.571 320.989C214.128 322.541 216.652 322.541 218.209 320.989L247.678 291.621C249.235 290.07 249.235 287.554 247.678 286.002L246.044 284.374C244.487 282.823 241.963 282.823 240.406 284.374L210.938 313.742C209.381 315.294 209.381 317.809 210.938 319.361Z" fill="#071EC3"/>
<path d="M212.571 284.375L210.938 286.003C209.381 287.555 209.381 290.07 210.938 291.622L240.406 320.99C241.963 322.541 244.487 322.541 246.044 320.99L247.678 319.362C249.235 317.81 249.235 315.294 247.678 313.743L218.209 284.375C216.653 282.823 214.128 282.823 212.571 284.375Z" fill="#071EC3"/>
<path d="M142.256 270.492L140.623 272.12C139.066 273.672 139.066 276.187 140.623 277.739L170.091 307.107C171.648 308.659 174.172 308.659 175.729 307.107L177.363 305.479C178.92 303.927 178.92 301.412 177.363 299.86L147.894 270.492C146.337 268.941 143.813 268.941 142.256 270.492Z" fill="#071EC3"/>
<path d="M140.626 333.247L142.26 334.875C143.817 336.427 146.341 336.427 147.898 334.875L177.366 305.507C178.923 303.956 178.923 301.44 177.366 299.889L175.733 298.26C174.176 296.709 171.652 296.709 170.095 298.26L140.626 327.628C139.069 329.18 139.069 331.696 140.626 333.247Z" fill="#071EC3"/>
</svg>
