<svg width="473" height="514" viewBox="0 0 473 514" fill="none" xmlns="http://www.w3.org/2000/svg">
<path d="M390.928 131.936C391.562 130.199 391.684 128.318 391.279 126.515C390.874 124.712 389.96 123.062 388.643 121.76C390.516 121.603 392.303 120.908 393.786 119.758C395.27 118.609 396.387 117.055 397.002 115.285C397.616 113.515 397.702 111.605 397.249 109.788C396.796 107.97 395.823 106.323 394.449 105.045C396.504 104.901 398.46 104.109 400.034 102.784C401.608 101.459 402.718 99.6697 403.204 97.6744C403.69 95.6792 403.527 93.5816 402.738 91.6848C401.949 89.7881 400.575 88.1906 398.815 87.1232C400.797 86.5745 402.553 85.4123 403.829 83.8045C405.106 82.1966 405.836 80.2262 405.916 78.1777C405.995 76.1292 405.42 74.1084 404.272 72.4071C403.124 70.7058 401.464 69.412 399.53 68.7123C399.456 68.6843 399.382 68.6684 399.308 68.6444C400.951 67.4959 402.196 65.8676 402.872 63.9841C403.548 62.1006 403.62 60.0546 403.08 58.1282C402.54 56.2018 401.413 54.4899 399.855 53.2285C398.298 51.9671 396.386 51.2183 394.383 51.0854C395.627 49.5183 396.354 47.6054 396.463 45.6099C396.572 43.6144 396.057 41.6343 394.991 39.9421C393.924 38.2499 392.357 36.9287 390.506 36.1603C388.655 35.3918 386.61 35.214 384.653 35.6511C384.728 35.4776 384.81 35.31 384.874 35.1324C385.564 33.2455 385.647 31.1914 385.113 29.2549C384.579 27.3184 383.454 25.5955 381.893 24.3251C380.332 23.0547 378.413 22.2998 376.403 22.1649C374.392 22.0301 372.389 22.5221 370.672 23.5727C371.06 21.4486 370.724 19.2562 369.717 17.3446C368.71 15.433 367.09 13.9123 365.115 13.0246C363.14 12.137 360.924 11.9335 358.82 12.4465C356.715 12.9595 354.844 14.1596 353.503 15.8556C353.42 13.7135 352.625 11.6596 351.244 10.0164C349.862 8.37316 347.972 7.23376 345.871 6.7771C343.769 6.32043 341.575 6.57237 339.632 7.49333C337.69 8.4143 336.109 9.95214 335.139 11.8653C334.368 10.0871 333.08 8.58046 331.44 7.54045C329.8 6.50043 327.885 5.97499 325.942 6.03217C324 6.08935 322.119 6.72651 320.544 7.86115C318.968 8.99578 317.771 10.5756 317.107 12.396C316.979 12.7525 316.872 13.1162 316.787 13.4854C315.459 11.9967 313.701 10.9529 311.756 10.4965C309.81 10.0402 307.77 10.1935 305.915 10.9356C304.06 11.6776 302.479 12.9723 301.39 14.6427C300.301 16.3131 299.755 18.2779 299.828 20.2688C298.603 19.4919 297.217 18.9993 295.775 18.8272C294.333 18.655 292.87 18.8078 291.495 19.2743C290.12 19.7408 288.867 20.509 287.829 21.5223C286.792 22.5356 285.996 23.7681 285.5 25.1289C284.73 27.2279 284.716 29.5287 285.46 31.637C283.457 30.9842 281.294 30.9997 279.3 31.681C277.306 32.3623 275.588 33.6725 274.408 35.4131C273.228 37.1538 272.648 39.2303 272.758 41.3283C272.867 43.4264 273.659 45.4319 275.014 47.0413C273.013 46.8193 270.992 47.2235 269.232 48.1976C267.472 49.1717 266.06 50.6676 265.191 52.4777C264.322 54.2879 264.04 56.3226 264.384 58.2996C264.728 60.2766 265.681 62.0979 267.11 63.511C265.263 63.6651 263.499 64.3434 262.026 65.4657C260.554 66.588 259.435 68.1072 258.802 69.8435C258.168 71.5798 258.048 73.4605 258.454 75.2631C258.86 77.0656 259.775 78.7145 261.092 80.0146C259.246 80.1685 257.483 80.8461 256.011 81.9673C254.539 83.0884 253.42 84.6062 252.787 86.3412C252.153 88.0761 252.031 89.9555 252.435 91.7573C252.84 93.559 253.754 95.2077 255.068 96.5082C253.222 96.6623 251.459 97.3399 249.987 98.4609C248.515 99.5818 247.396 101.099 246.762 102.834C246.128 104.569 246.006 106.448 246.41 108.25C246.813 110.052 247.726 111.701 249.041 113.002C247.195 113.157 245.433 113.835 243.962 114.956C242.491 116.078 241.373 117.595 240.74 119.33C240.107 121.064 239.985 122.943 240.389 124.744C240.793 126.545 241.707 128.193 243.021 129.494C241.174 129.647 239.41 130.324 237.938 131.445C236.465 132.566 235.346 134.084 234.712 135.819C234.078 137.554 233.957 139.434 234.362 141.236C234.767 143.038 235.681 144.687 236.997 145.987C235.15 146.141 233.386 146.818 231.914 147.94C230.442 149.061 229.323 150.579 228.689 152.314C228.055 154.05 227.934 155.929 228.338 157.732C228.743 159.534 229.657 161.182 230.973 162.483C229.127 162.637 227.364 163.314 225.892 164.435C224.421 165.556 223.302 167.073 222.668 168.807C222.035 170.542 221.913 172.421 222.317 174.222C222.721 176.024 223.634 177.672 224.949 178.972C222.997 179.135 221.141 179.882 219.623 181.116C218.105 182.35 216.998 184.012 216.446 185.885C215.894 187.757 215.923 189.753 216.53 191.608C217.137 193.464 218.293 195.093 219.846 196.282C217.75 196.523 215.79 197.438 214.263 198.888C212.735 200.338 211.723 202.245 211.38 204.319C211.038 206.394 211.382 208.523 212.363 210.385C213.343 212.247 214.905 213.74 216.813 214.637C214.97 215.508 213.451 216.937 212.472 218.72C211.492 220.503 211.103 222.548 211.36 224.565C211.617 226.581 212.506 228.465 213.901 229.947C215.296 231.43 217.125 232.436 219.127 232.821C217.678 234.194 216.69 235.979 216.298 237.933C215.907 239.887 216.13 241.914 216.938 243.737C217.746 245.559 219.099 247.089 220.813 248.116C222.526 249.143 224.516 249.617 226.51 249.474C226.204 249.986 225.946 250.526 225.74 251.086C225.097 252.838 224.978 254.738 225.394 256.557C225.811 258.376 226.747 260.035 228.089 261.336C229.432 262.636 231.123 263.522 232.958 263.886C234.794 264.25 236.697 264.077 238.436 263.388C237.831 265.418 237.911 267.591 238.665 269.571C239.418 271.552 240.803 273.231 242.607 274.35C244.411 275.47 246.534 275.969 248.65 275.77C250.766 275.571 252.758 274.685 254.32 273.248C254.128 275.405 254.668 277.563 255.854 279.378C257.039 281.193 258.801 282.559 260.858 283.257C262.914 283.955 265.147 283.945 267.197 283.229C269.248 282.513 270.998 281.132 272.167 279.307C272.632 281.34 273.743 283.169 275.335 284.521C276.928 285.874 278.916 286.677 281.004 286.812C283.092 286.946 285.168 286.405 286.922 285.268C288.676 284.132 290.014 282.461 290.737 280.504C291.717 282.017 293.102 283.227 294.735 283.997C296.368 284.768 298.184 285.069 299.979 284.867C301.775 284.664 303.478 283.966 304.896 282.851C306.315 281.735 307.393 280.248 308.008 278.555C308.281 277.797 308.458 277.008 308.537 276.207C310.063 277.5 311.954 278.29 313.949 278.469C315.945 278.648 317.947 278.207 319.68 277.206C321.414 276.205 322.794 274.694 323.63 272.88C324.467 271.066 324.719 269.038 324.352 267.075C324.609 267.195 324.869 267.308 325.141 267.406C327.001 268.083 329.023 268.177 330.938 267.676C332.853 267.175 334.568 266.102 335.853 264.601C337.139 263.101 337.933 261.244 338.13 259.281C338.326 257.318 337.915 255.342 336.953 253.618C339.004 254.044 341.139 253.796 343.038 252.911C344.937 252.027 346.497 250.553 347.485 248.712C348.473 246.87 348.837 244.759 348.521 242.694C348.204 240.629 347.226 238.722 345.731 237.258C347.648 237.247 349.519 236.671 351.108 235.601C352.696 234.532 353.931 233.017 354.656 231.249C355.382 229.481 355.565 227.538 355.183 225.665C354.801 223.793 353.871 222.076 352.51 220.73C354.356 220.576 356.119 219.899 357.591 218.778C359.063 217.656 360.182 216.139 360.816 214.404C361.449 212.669 361.571 210.789 361.167 208.988C360.762 207.186 359.849 205.537 358.534 204.237C360.378 204.08 362.138 203.401 363.607 202.28C365.076 201.159 366.193 199.643 366.826 197.91C367.459 196.177 367.581 194.299 367.179 192.5C366.776 190.7 365.865 189.052 364.554 187.751C366.4 187.597 368.163 186.919 369.635 185.798C371.107 184.677 372.226 183.159 372.86 181.424C373.493 179.69 373.615 177.81 373.211 176.008C372.806 174.207 371.893 172.558 370.578 171.257C372.424 171.103 374.187 170.426 375.659 169.305C377.131 168.184 378.25 166.666 378.884 164.931C379.517 163.196 379.639 161.316 379.235 159.515C378.83 157.713 377.917 156.064 376.602 154.764C378.446 154.608 380.208 153.929 381.678 152.807C383.148 151.686 384.266 150.168 384.898 148.434C385.531 146.7 385.653 144.822 385.249 143.021C384.845 141.221 383.933 139.573 382.619 138.272C384.467 138.117 386.231 137.437 387.703 136.314C389.175 135.191 390.294 133.672 390.928 131.936V131.936Z" fill="#FF1A87"/>
<path d="M50.3766 210.206C51.0109 211.941 52.1301 213.458 53.6019 214.579C55.0737 215.7 56.8368 216.378 58.6827 216.533C57.35 217.853 56.4303 219.53 56.0352 221.361C55.6401 223.192 55.7867 225.098 56.4571 226.848C57.1274 228.597 58.2928 230.115 59.8119 231.218C61.331 232.32 63.1384 232.959 65.0149 233.058C63.5342 234.485 62.547 236.343 62.1959 238.366C61.8447 240.388 62.1479 242.469 63.0616 244.309C63.9753 246.148 65.4521 247.65 67.2787 248.598C69.1053 249.546 71.187 249.891 73.223 249.582C72.0574 251.272 71.461 253.287 71.5199 255.337C71.5787 257.387 72.2897 259.365 73.5503 260.986C74.8108 262.607 76.5557 263.786 78.5328 264.354C80.51 264.923 82.6172 264.85 84.5501 264.146C84.6241 264.12 84.6922 264.084 84.7643 264.057C84.2445 265.99 84.3397 268.037 85.0365 269.914C85.7333 271.791 86.9975 273.407 88.6548 274.538C90.312 275.669 92.2805 276.259 94.2888 276.228C96.297 276.197 98.2461 275.545 99.8671 274.363C99.9257 276.36 100.604 278.29 101.808 279.888C103.012 281.485 104.683 282.671 106.591 283.284C108.499 283.896 110.551 283.904 112.464 283.307C114.377 282.71 116.057 281.537 117.274 279.95C117.328 280.129 117.374 280.311 117.44 280.488C118.128 282.376 119.389 284.004 121.047 285.146C122.705 286.287 124.679 286.886 126.694 286.86C128.709 286.833 130.666 286.182 132.293 284.996C133.92 283.811 135.137 282.15 135.774 280.245C136.847 282.121 138.518 283.585 140.523 284.404C142.527 285.224 144.749 285.351 146.834 284.766C148.92 284.181 150.749 282.917 152.03 281.176C153.311 279.436 153.971 277.317 153.904 275.159C155.347 276.755 157.282 277.827 159.404 278.206C161.525 278.584 163.713 278.249 165.622 277.251C167.532 276.254 169.053 274.652 169.948 272.697C170.842 270.743 171.058 268.547 170.562 266.457C172.386 267.38 174.457 267.704 176.477 267.383C178.497 267.061 180.364 266.11 181.808 264.667C183.253 263.223 184.202 261.361 184.52 259.347C184.837 257.332 184.506 255.27 183.575 253.454C185.553 253.743 187.573 253.416 189.357 252.519C191.142 251.621 192.605 250.196 193.547 248.439C194.489 246.681 194.863 244.677 194.619 242.699C194.375 240.722 193.525 238.867 192.184 237.39C193.624 237.201 195.004 236.692 196.221 235.9C197.437 235.108 198.46 234.054 199.213 232.815C199.966 231.576 200.43 230.185 200.57 228.743C200.711 227.302 200.525 225.847 200.025 224.487C199.26 222.384 197.784 220.611 195.851 219.474C197.808 218.691 199.455 217.294 200.544 215.494C201.633 213.695 202.103 211.591 201.885 209.501C201.666 207.411 200.77 205.449 199.333 203.912C197.895 202.375 195.994 201.347 193.917 200.983C195.594 199.871 196.881 198.267 197.602 196.393C198.322 194.519 198.439 192.468 197.937 190.525C197.435 188.581 196.338 186.842 194.799 185.548C193.261 184.253 191.355 183.469 189.349 183.302C190.666 182.002 191.581 180.353 191.986 178.55C192.392 176.747 192.27 174.867 191.637 173.131C191.003 171.395 189.883 169.876 188.41 168.754C186.937 167.633 185.172 166.955 183.325 166.803C184.641 165.502 185.555 163.854 185.96 162.052C186.365 160.25 186.243 158.37 185.609 156.634C184.976 154.899 183.856 153.381 182.384 152.26C180.911 151.139 179.148 150.462 177.301 150.309C178.616 149.008 179.53 147.36 179.934 145.558C180.338 143.756 180.217 141.877 179.583 140.142C178.949 138.407 177.83 136.889 176.358 135.768C174.886 134.647 173.123 133.969 171.277 133.815C172.591 132.514 173.503 130.866 173.906 129.065C174.31 127.263 174.188 125.385 173.554 123.651C172.921 121.916 171.803 120.399 170.332 119.278C168.861 118.157 167.098 117.479 165.253 117.324C166.568 116.023 167.482 114.374 167.886 112.573C168.291 110.771 168.169 108.891 167.535 107.156C166.901 105.422 165.783 103.904 164.311 102.783C162.839 101.661 161.075 100.984 159.229 100.83C160.544 99.5291 161.457 97.8803 161.862 96.0785C162.266 94.2767 162.144 92.3972 161.511 90.6623C160.877 88.9273 159.758 87.4094 158.286 86.288C156.815 85.1666 155.051 84.4887 153.205 84.3343C154.519 83.0335 155.432 81.3852 155.835 79.5841C156.239 77.7829 156.117 75.9043 155.483 74.1701C154.85 72.436 153.731 70.9188 152.26 69.7979C150.789 68.677 149.027 67.9992 147.181 67.8446C148.57 66.4698 149.51 64.7087 149.876 62.7924C150.243 60.876 150.019 58.894 149.235 57.1065C148.451 55.3189 147.144 53.8093 145.483 52.7758C143.823 51.7422 141.888 51.233 139.932 51.315C141.378 49.7868 142.285 47.8314 142.516 45.7441C142.748 43.6568 142.291 41.5512 141.216 39.7452C140.141 37.9392 138.505 36.5311 136.556 35.7335C134.606 34.9359 132.449 34.7922 130.411 35.3242C131.196 33.5887 131.449 31.661 131.14 29.7826C130.83 27.9042 129.972 26.1585 128.672 24.764C127.371 23.3696 125.687 22.3884 123.83 21.9434C121.973 21.4984 120.025 21.6092 118.231 22.2621C117.777 22.4292 117.335 22.6293 116.91 22.8607C117.135 20.8805 116.74 18.8795 115.78 17.1314C114.82 15.3833 113.342 13.9734 111.547 13.0948C109.752 12.2163 107.729 11.9118 105.754 12.2232C103.779 12.5346 101.949 13.4465 100.514 14.8343C100.185 12.8432 99.2395 11.0046 97.8095 9.57608C96.3795 8.14759 94.5367 7.20089 92.5396 6.8687C90.5425 6.53651 88.4912 6.83549 86.6732 7.72372C84.8551 8.61194 83.3616 10.0449 82.402 11.8217C81.5564 9.87848 80.0939 8.26578 78.2393 7.2314C76.3847 6.19701 74.2405 5.79818 72.1364 6.09619C70.0322 6.39421 68.0844 7.37257 66.5924 8.88094C65.1004 10.3893 64.1467 12.3442 63.8778 14.4452C62.6339 12.6707 60.8286 11.3633 58.7508 10.7322C56.6731 10.1012 54.443 10.183 52.4174 10.9645C50.3918 11.746 48.6878 13.1822 47.5781 15.043C46.4684 16.9039 46.0172 19.082 46.2966 21.2287C44.6299 19.9696 42.5996 19.2807 40.5082 19.2647C38.4168 19.2487 36.3762 19.9064 34.6903 21.1399C33.0043 22.3733 31.7633 24.1165 31.152 26.1098C30.5407 28.1031 30.5919 30.2398 31.2979 32.2018C29.3724 31.6019 27.307 31.6159 25.3899 32.2419C23.4727 32.8679 21.7995 34.0746 20.6035 35.6937C19.4075 37.3129 18.7485 39.2637 18.7183 41.274C18.6882 43.2842 19.2884 45.2538 20.4353 46.9078C18.4329 46.8958 16.4758 47.5018 14.8329 48.6426C13.1899 49.7834 11.9416 51.4031 11.2594 53.2793C10.5772 55.1555 10.4945 57.1962 11.0226 59.1211C11.5508 61.046 12.6639 62.7608 14.2092 64.0299C13.9369 64.1038 13.6626 64.1836 13.3924 64.2813C11.5318 64.9547 9.92241 66.179 8.7799 67.7899C7.63739 69.4007 7.01644 71.3213 7.00032 73.2939C6.9842 75.2665 7.57368 77.1968 8.68971 78.826C9.80574 80.4553 11.3949 81.7055 13.2442 82.409C11.3981 83.3972 9.92275 84.9546 9.03882 86.8481C8.15489 88.7417 7.90994 90.8695 8.34062 92.9133C8.77129 94.9572 9.85444 96.8071 11.428 98.1863C13.0016 99.5655 14.9809 100.4 17.07 100.565C15.6085 101.801 14.5473 103.441 14.0205 105.278C13.4938 107.115 13.5249 109.066 14.1101 110.885C14.6953 112.704 15.8083 114.31 17.3086 115.499C18.8088 116.688 20.629 117.408 22.5393 117.567C21.2244 118.868 20.3107 120.516 19.9063 122.318C19.5019 124.12 19.6237 125.999 20.2574 127.734C20.891 129.469 22.01 130.987 23.4819 132.108C24.9538 133.229 26.7171 133.907 28.5632 134.061C27.2485 135.361 26.335 137.01 25.9307 138.812C25.5265 140.614 25.6483 142.493 26.2819 144.228C26.9155 145.963 28.0343 147.481 29.506 148.602C30.9778 149.724 32.741 150.402 34.5871 150.556C33.2722 151.857 32.3585 153.505 31.9541 155.307C31.5497 157.109 31.6715 158.988 32.3052 160.723C32.9388 162.458 34.0578 163.976 35.5297 165.097C37.0016 166.218 38.7649 166.896 40.611 167.05C39.2959 168.351 38.3822 170 37.9781 171.802C37.5739 173.604 37.6963 175.484 38.3306 177.219C38.965 178.955 40.0847 180.472 41.5575 181.593C43.0302 182.714 44.7943 183.391 46.6409 183.544C45.3262 184.844 44.4127 186.493 44.0084 188.295C43.6042 190.097 43.726 191.976 44.3596 193.711C44.9932 195.446 46.112 196.964 47.5838 198.085C49.0555 199.207 50.8187 199.885 52.6648 200.039C51.3495 201.339 50.435 202.988 50.0295 204.789C49.624 206.591 49.7445 208.471 50.3766 210.206V210.206Z" fill="#FF1A87"/>
<path d="M40.9998 344.02C40.9998 252.882 114.882 179 206.02 179C297.158 179 371.04 252.882 371.04 344.02C371.04 435.158 297.158 509.04 206.02 509.04C114.882 509.04 40.9998 435.158 40.9998 344.02Z" fill="#FFD916"/>
<path d="M210.089 306.348V308.645C210.089 310.833 211.869 312.607 214.065 312.607H255.628C257.824 312.607 259.604 310.833 259.604 308.645V306.348C259.604 304.16 257.824 302.386 255.628 302.386H214.065C211.869 302.386 210.089 304.16 210.089 306.348Z" fill="#071EC3"/>
<path d="M235.994 282.826H233.689C231.493 282.826 229.713 284.6 229.713 286.788V328.209C229.713 330.397 231.493 332.171 233.689 332.171H235.994C238.189 332.171 239.969 330.397 239.969 328.209V286.788C239.969 284.6 238.189 282.826 235.994 282.826Z" fill="#071EC3"/>
<path d="M216.524 324.131L218.153 325.755C219.706 327.302 222.224 327.302 223.776 325.755L253.165 296.466C254.718 294.919 254.718 292.41 253.165 290.863L251.536 289.239C249.983 287.692 247.466 287.692 245.913 289.239L216.524 318.528C214.971 320.075 214.971 322.584 216.524 324.131Z" fill="#071EC3"/>
<path d="M218.155 289.239L216.526 290.863C214.973 292.41 214.973 294.919 216.526 296.467L245.915 325.755C247.468 327.303 249.985 327.303 251.538 325.755L253.167 324.132C254.72 322.584 254.72 320.075 253.167 318.528L223.778 289.239C222.225 287.692 219.708 287.692 218.155 289.239Z" fill="#071EC3"/>
<path d="M148.029 275.394L146.399 277.018C144.847 278.565 144.847 281.074 146.399 282.621L175.789 311.91C177.341 313.458 179.859 313.458 181.411 311.91L183.041 310.287C184.593 308.739 184.593 306.23 183.041 304.683L153.651 275.394C152.099 273.847 149.581 273.847 148.029 275.394Z" fill="#071EC3"/>
<path d="M146.404 337.98L148.033 339.604C149.586 341.151 152.103 341.151 153.656 339.604L183.045 310.315C184.598 308.768 184.598 306.259 183.045 304.712L181.416 303.088C179.863 301.54 177.346 301.54 175.793 303.088L146.404 332.377C144.851 333.924 144.851 336.433 146.404 337.98Z" fill="#071EC3"/>
</svg>
