<svg width="401" height="517" viewBox="0 0 401 517" fill="none" xmlns="http://www.w3.org/2000/svg">
<path d="M385.579 126.759C386.215 125.018 386.338 123.132 385.932 121.324C385.526 119.516 384.609 117.861 383.289 116.556C385.167 116.399 386.958 115.701 388.446 114.548C389.933 113.396 391.053 111.838 391.67 110.063C392.286 108.289 392.372 106.374 391.918 104.551C391.464 102.729 390.488 101.077 389.11 99.796C391.171 99.6514 393.132 98.8574 394.71 97.5288C396.288 96.2002 397.402 94.4058 397.889 92.4052C398.376 90.4045 398.213 88.3013 397.422 86.3994C396.631 84.4976 395.253 82.8957 393.488 81.8255C395.476 81.2753 397.236 80.11 398.516 78.4978C399.796 76.8856 400.528 74.9099 400.608 72.8558C400.688 70.8017 400.11 68.7755 398.96 67.0696C397.809 65.3637 396.144 64.0664 394.205 63.3648C394.131 63.3368 394.056 63.3208 393.982 63.2968C395.63 62.1452 396.878 60.5125 397.556 58.6239C398.233 56.7353 398.306 54.6838 397.764 52.7522C397.223 50.8206 396.093 49.1041 394.531 47.8392C392.969 46.5744 391.052 45.8236 389.044 45.6903C390.292 44.119 391.02 42.201 391.13 40.2001C391.239 38.1992 390.723 36.2138 389.653 34.517C388.584 32.8202 387.013 31.4954 385.156 30.7249C383.3 29.9544 381.25 29.7761 379.288 30.2144C379.362 30.0404 379.445 29.8723 379.509 29.6943C380.201 27.8023 380.285 25.7426 379.749 23.8009C379.214 21.8592 378.085 20.1316 376.52 18.8578C374.955 17.584 373.031 16.827 371.015 16.6918C368.999 16.5566 366.991 17.0499 365.269 18.1034C365.658 15.9735 365.321 13.7752 364.311 11.8584C363.301 9.94171 361.677 8.41687 359.697 7.52681C357.717 6.63675 355.495 6.43268 353.384 6.9471C351.274 7.46152 349.398 8.66485 348.054 10.3654C347.97 8.21751 347.173 6.15804 345.788 4.5104C344.403 2.86277 342.508 1.7203 340.401 1.2624C338.293 0.804498 336.093 1.05711 334.145 1.98057C332.198 2.90402 330.613 4.44601 329.64 6.36438C328.867 4.58137 327.575 3.07063 325.931 2.02781C324.287 0.984985 322.367 0.458126 320.419 0.515459C318.471 0.572792 316.585 1.21168 315.005 2.34937C313.426 3.48707 312.225 5.07117 311.56 6.89652C311.431 7.25392 311.324 7.61866 311.238 7.98879C309.906 6.49608 308.145 5.44947 306.193 4.99188C304.242 4.53429 302.197 4.68802 300.337 5.43209C298.477 6.17616 296.892 7.47429 295.8 9.14923C294.708 10.8242 294.161 12.7943 294.234 14.7905C293.005 14.0116 291.616 13.5176 290.17 13.345C288.724 13.1724 287.257 13.3256 285.878 13.7934C284.499 14.2611 283.243 15.0314 282.203 16.0474C281.162 17.0634 280.364 18.2993 279.867 19.6637C279.095 21.7685 279.081 24.0754 279.827 26.1894C277.818 25.5349 275.65 25.5504 273.65 26.2336C271.65 26.9167 269.929 28.2304 268.745 29.9757C267.561 31.7211 266.98 33.8032 267.09 35.9069C267.2 38.0106 267.994 40.0215 269.353 41.6353C267.346 41.4128 265.32 41.818 263.555 42.7947C261.79 43.7715 260.374 45.2714 259.503 47.0865C258.632 48.9015 258.349 50.9416 258.694 52.924C259.039 54.9063 259.994 56.7326 261.428 58.1495C259.575 58.304 257.806 58.9842 256.33 60.1095C254.853 61.2348 253.731 62.7581 253.096 64.4991C252.462 66.2401 252.341 68.1259 252.748 69.9333C253.155 71.7407 254.073 73.3941 255.393 74.6977C253.542 74.852 251.774 75.5315 250.298 76.6556C248.823 77.7798 247.701 79.3017 247.065 81.0413C246.43 82.7809 246.308 84.6655 246.713 86.4721C247.119 88.2787 248.035 89.9318 249.353 91.2359C247.502 91.3903 245.734 92.0697 244.258 93.1937C242.782 94.3177 241.66 95.8394 241.025 97.5788C240.389 99.3182 240.266 101.203 240.671 103.009C241.076 104.816 241.991 106.469 243.309 107.774C241.459 107.929 239.692 108.609 238.217 109.734C236.742 110.858 235.621 112.38 234.986 114.119C234.351 115.858 234.229 117.742 234.634 119.548C235.04 121.354 235.955 123.006 237.273 124.31C235.421 124.464 233.653 125.143 232.176 126.267C230.7 127.391 229.578 128.913 228.942 130.653C228.307 132.393 228.185 134.278 228.591 136.085C228.997 137.892 229.913 139.545 231.233 140.848C229.381 141.002 227.613 141.682 226.136 142.806C224.66 143.93 223.538 145.453 222.903 147.193C222.267 148.933 222.145 150.818 222.551 152.624C222.957 154.431 223.874 156.085 225.193 157.389C223.342 157.543 221.574 158.222 220.099 159.346C218.623 160.47 217.501 161.991 216.866 163.73C216.23 165.469 216.108 167.354 216.513 169.16C216.919 170.966 217.834 172.619 219.152 173.923C217.196 174.086 215.334 174.835 213.812 176.072C212.29 177.309 211.18 178.976 210.626 180.854C210.073 182.731 210.102 184.732 210.711 186.593C211.319 188.453 212.478 190.087 214.036 191.279C211.934 191.521 209.969 192.438 208.437 193.892C206.906 195.346 205.891 197.258 205.547 199.338C205.204 201.418 205.549 203.553 206.532 205.42C207.515 207.287 209.082 208.784 210.995 209.684C209.147 210.557 207.623 211.99 206.642 213.778C205.66 215.565 205.27 217.616 205.527 219.638C205.784 221.66 206.676 223.549 208.074 225.035C209.473 226.522 211.307 227.53 213.315 227.916C211.862 229.293 210.872 231.084 210.479 233.043C210.086 235.002 210.31 237.034 211.12 238.862C211.93 240.69 213.287 242.223 215.005 243.253C216.723 244.282 218.719 244.758 220.718 244.615C220.411 245.128 220.152 245.669 219.945 246.231C219.301 247.988 219.181 249.893 219.599 251.717C220.017 253.54 220.956 255.204 222.301 256.508C223.647 257.812 225.343 258.7 227.184 259.065C229.024 259.431 230.932 259.257 232.676 258.566C232.069 260.602 232.15 262.78 232.905 264.766C233.661 266.752 235.05 268.435 236.859 269.558C238.667 270.681 240.796 271.181 242.918 270.981C245.04 270.782 247.037 269.893 248.603 268.453C248.41 270.615 248.952 272.78 250.14 274.599C251.329 276.419 253.096 277.789 255.158 278.489C257.22 279.189 259.459 279.179 261.515 278.461C263.571 277.743 265.326 276.358 266.498 274.528C266.964 276.567 268.078 278.401 269.675 279.757C271.272 281.113 273.265 281.918 275.359 282.053C277.452 282.188 279.534 281.645 281.292 280.506C283.051 279.366 284.393 277.69 285.119 275.729C286.101 277.245 287.489 278.458 289.127 279.231C290.764 280.004 292.585 280.306 294.385 280.103C296.186 279.9 297.893 279.2 299.315 278.081C300.738 276.963 301.819 275.471 302.436 273.774C302.709 273.014 302.887 272.223 302.966 271.419C304.496 272.716 306.392 273.509 308.393 273.688C310.394 273.868 312.401 273.425 314.139 272.422C315.878 271.418 317.261 269.903 318.1 268.084C318.939 266.265 319.192 264.231 318.824 262.263C319.081 262.383 319.342 262.497 319.615 262.595C321.48 263.274 323.508 263.369 325.428 262.866C327.348 262.363 329.068 261.287 330.356 259.783C331.645 258.278 332.442 256.417 332.639 254.448C332.836 252.48 332.424 250.498 331.459 248.77C333.516 249.197 335.657 248.948 337.56 248.061C339.464 247.174 341.029 245.697 342.02 243.85C343.01 242.004 343.375 239.887 343.058 237.816C342.741 235.746 341.759 233.834 340.261 232.366C342.183 232.355 344.059 231.777 345.652 230.705C347.245 229.632 348.483 228.114 349.21 226.34C349.937 224.567 350.121 222.619 349.738 220.742C349.355 218.865 348.422 217.143 347.058 215.793C348.909 215.639 350.677 214.96 352.153 213.835C353.629 212.711 354.751 211.189 355.386 209.45C356.022 207.71 356.144 205.826 355.738 204.019C355.333 202.212 354.417 200.559 353.098 199.255C354.947 199.098 356.712 198.417 358.185 197.293C359.658 196.169 360.778 194.649 361.413 192.911C362.047 191.173 362.17 189.291 361.766 187.486C361.362 185.682 360.449 184.029 359.134 182.725C360.985 182.571 362.753 181.891 364.229 180.767C365.705 179.643 366.827 178.121 367.462 176.381C368.098 174.642 368.22 172.757 367.815 170.951C367.409 169.144 366.493 167.491 365.174 166.187C367.026 166.032 368.794 165.353 370.269 164.229C371.745 163.105 372.867 161.583 373.503 159.843C374.138 158.104 374.26 156.219 373.855 154.412C373.449 152.606 372.533 150.953 371.215 149.649C373.064 149.492 374.831 148.811 376.305 147.687C377.779 146.562 378.899 145.041 379.534 143.302C380.168 141.563 380.29 139.68 379.885 137.875C379.48 136.069 378.566 134.417 377.249 133.112C379.101 132.957 380.87 132.275 382.346 131.149C383.822 130.024 384.944 128.5 385.579 126.759V126.759Z" fill="#FF1A87"/>
<path d="M44.109 205.241C44.745 206.98 45.8672 208.501 47.343 209.625C48.8188 210.75 50.5866 211.429 52.4375 211.584C51.1012 212.908 50.179 214.59 49.7828 216.426C49.3867 218.262 49.5336 220.172 50.2058 221.927C50.878 223.681 52.0466 225.203 53.5697 226.309C55.0929 227.414 56.9052 228.055 58.7868 228.154C57.3021 229.585 56.3122 231.448 55.9601 233.476C55.6081 235.504 55.9121 237.591 56.8282 239.435C57.7443 241.279 59.2252 242.786 61.0567 243.736C62.8882 244.686 64.9755 245.032 67.017 244.723C65.8484 246.417 65.2503 248.438 65.3093 250.493C65.3683 252.549 66.0812 254.532 67.3452 256.157C68.6092 257.783 70.3587 258.965 72.3412 259.535C74.3237 260.105 76.4366 260.032 78.3747 259.326C78.449 259.3 78.5172 259.264 78.5895 259.236C78.0684 261.175 78.1637 263.227 78.8625 265.109C79.5612 266.992 80.8288 268.612 82.4905 269.746C84.1522 270.88 86.126 271.472 88.1397 271.441C90.1534 271.409 92.1077 270.756 93.7331 269.571C93.7918 271.573 94.4715 273.508 95.6788 275.11C96.886 276.712 98.5615 277.901 100.475 278.515C102.388 279.129 104.445 279.138 106.364 278.539C108.282 277.94 109.967 276.764 111.187 275.172C111.241 275.352 111.288 275.534 111.354 275.712C112.044 277.605 113.307 279.238 114.97 280.382C116.633 281.527 118.612 282.128 120.633 282.101C122.653 282.074 124.615 281.421 126.247 280.233C127.878 279.044 129.098 277.379 129.737 275.468C130.813 277.349 132.489 278.817 134.498 279.639C136.508 280.46 138.736 280.588 140.827 280.002C142.918 279.415 144.752 278.148 146.037 276.402C147.321 274.657 147.983 272.533 147.916 270.369C149.363 271.969 151.303 273.044 153.43 273.424C155.558 273.803 157.752 273.467 159.666 272.467C161.58 271.467 163.106 269.86 164.003 267.9C164.9 265.941 165.117 263.739 164.619 261.643C166.448 262.569 168.524 262.894 170.55 262.571C172.576 262.249 174.447 261.296 175.896 259.848C177.344 258.401 178.296 256.533 178.614 254.514C178.932 252.494 178.601 250.426 177.667 248.606C179.651 248.895 181.675 248.567 183.465 247.667C185.255 246.767 186.722 245.338 187.666 243.576C188.61 241.814 188.986 239.804 188.741 237.821C188.496 235.838 187.643 233.979 186.299 232.498C187.743 232.308 189.127 231.797 190.347 231.003C191.567 230.209 192.592 229.152 193.347 227.91C194.102 226.668 194.567 225.273 194.708 223.828C194.849 222.382 194.662 220.924 194.162 219.56C193.394 217.451 191.915 215.674 189.976 214.533C191.938 213.748 193.59 212.347 194.682 210.543C195.773 208.739 196.245 206.629 196.026 204.533C195.807 202.438 194.909 200.471 193.467 198.929C192.026 197.388 190.119 196.357 188.037 195.992C189.718 194.878 191.009 193.269 191.732 191.39C192.454 189.511 192.572 187.455 192.068 185.506C191.565 183.557 190.465 181.813 188.922 180.515C187.379 179.218 185.469 178.431 183.456 178.264C184.777 176.96 185.695 175.306 186.101 173.499C186.508 171.691 186.386 169.806 185.75 168.065C185.115 166.324 183.992 164.801 182.515 163.677C181.038 162.552 179.269 161.873 177.416 161.72C178.736 160.416 179.652 158.763 180.058 156.956C180.464 155.149 180.342 153.264 179.707 151.524C179.071 149.784 177.949 148.262 176.473 147.138C174.996 146.014 173.228 145.335 171.376 145.181C172.695 143.877 173.611 142.224 174.016 140.418C174.422 138.611 174.3 136.726 173.664 134.987C173.029 133.247 171.907 131.725 170.431 130.601C168.955 129.477 167.187 128.798 165.336 128.643C166.653 127.339 167.568 125.686 167.972 123.88C168.377 122.074 168.255 120.19 167.619 118.451C166.984 116.712 165.863 115.191 164.388 114.067C162.913 112.943 161.146 112.263 159.296 112.107C160.614 110.803 161.53 109.15 161.936 107.343C162.341 105.537 162.219 103.652 161.584 101.913C160.948 100.173 159.827 98.651 158.351 97.5268C156.875 96.4027 155.107 95.7232 153.256 95.5689C154.574 94.2645 155.49 92.6113 155.895 90.8047C156.301 88.998 156.178 87.1134 155.543 85.3738C154.908 83.6341 153.786 82.1121 152.31 80.9877C150.834 79.8633 149.066 79.1835 147.215 79.0287C148.533 77.7244 149.448 76.0717 149.852 74.2657C150.257 72.4597 150.135 70.576 149.499 68.8371C148.864 67.0983 147.743 65.577 146.268 64.4531C144.793 63.3291 143.026 62.6495 141.175 62.4945C142.568 61.116 143.51 59.3501 143.877 57.4286C144.245 55.5071 144.021 53.5198 143.235 51.7274C142.449 49.935 141.137 48.4213 139.473 47.385C137.808 46.3487 135.868 45.8381 133.907 45.9203C135.356 44.388 136.265 42.4272 136.497 40.3343C136.73 38.2414 136.272 36.1301 135.194 34.3192C134.116 32.5084 132.475 31.0964 130.521 30.2967C128.566 29.497 126.403 29.3529 124.359 29.8863C125.146 28.1461 125.401 26.2132 125.09 24.3297C124.78 22.4462 123.919 20.6958 122.615 19.2976C121.312 17.8994 119.623 16.9156 117.761 16.4694C115.899 16.0231 113.946 16.1343 112.147 16.7889C111.691 16.9565 111.248 17.1571 110.822 17.3891C111.047 15.4036 110.652 13.3972 109.689 11.6444C108.727 9.89151 107.244 8.47788 105.445 7.59692C103.645 6.71595 101.616 6.41069 99.6359 6.7229C97.6556 7.03511 95.8204 7.94954 94.3815 9.34106C94.052 7.34462 93.1038 5.501 91.6699 4.06865C90.2361 2.6363 88.3884 1.68704 86.3859 1.35396C84.3834 1.02087 82.3265 1.32065 80.5035 2.21128C78.6806 3.10191 77.1831 4.53872 76.2208 6.3203C75.373 4.37186 73.9065 2.75481 72.0469 1.71763C70.1873 0.680454 68.0373 0.280546 65.9275 0.579364C63.8176 0.878183 61.8646 1.85919 60.3686 3.37163C58.8725 4.88408 57.9162 6.84426 57.6466 8.95096C56.3994 7.17161 54.5892 5.86067 52.5058 5.22791C50.4225 4.59515 48.1863 4.67716 46.1553 5.46081C44.1242 6.24446 42.4156 7.68445 41.3029 9.55035C40.1902 11.4162 39.7378 13.6002 40.0179 15.7527C38.3467 14.4902 36.311 13.7995 34.2139 13.7835C32.1169 13.7674 30.0708 14.4269 28.3803 15.6637C26.6898 16.9004 25.4454 18.6483 24.8325 20.647C24.2195 22.6457 24.2709 24.7882 24.9788 26.7555C23.048 26.1539 20.9771 26.168 19.0548 26.7957C17.1324 27.4233 15.4547 28.6333 14.2555 30.2568C13.0563 31.8803 12.3954 33.8364 12.3652 35.8521C12.335 37.8678 12.9368 39.8427 14.0868 41.5012C12.079 41.4891 10.1167 42.0967 8.46928 43.2406C6.82189 44.3845 5.57022 46.0086 4.88614 47.8899C4.20206 49.7711 4.11912 51.8173 4.64871 53.7474C5.17829 55.6775 6.29443 57.3969 7.84386 58.6695C7.57086 58.7436 7.29585 58.8236 7.02486 58.9216C5.15931 59.5968 3.54553 60.8244 2.39994 62.4396C1.25435 64.0549 0.631722 65.9806 0.615557 67.9585C0.599393 69.9364 1.19047 71.872 2.30951 73.5056C3.42855 75.1392 5.02205 76.3928 6.87631 77.0982C5.02524 78.0891 3.54587 79.6507 2.65956 81.5493C1.77325 83.448 1.52763 85.5816 1.95947 87.6309C2.39131 89.6803 3.47738 91.5352 5.05519 92.9181C6.63299 94.301 8.61771 95.1377 10.7124 95.3028C9.24696 96.5424 8.18296 98.1869 7.65474 100.029C7.12652 101.871 7.15778 103.827 7.74457 105.651C8.33136 107.475 9.44736 109.085 10.9516 110.278C12.4559 111.47 14.281 112.192 16.1965 112.351C14.878 113.655 13.9619 115.308 13.5564 117.115C13.1509 118.922 13.2731 120.806 13.9084 122.546C14.5438 124.285 15.6657 125.807 17.1416 126.931C18.6175 128.056 20.3856 128.735 22.2367 128.889C20.9184 130.194 20.0025 131.847 19.5971 133.654C19.1917 135.46 19.3139 137.345 19.9492 139.084C20.5845 140.824 21.7063 142.346 23.1821 143.47C24.6578 144.595 26.4257 145.275 28.2769 145.429C26.9584 146.734 26.0422 148.387 25.6367 150.193C25.2312 152 25.3534 153.884 25.9888 155.624C26.6241 157.364 27.7461 158.886 29.2219 160.01C30.6978 161.134 32.4659 161.813 34.317 161.968C32.9983 163.272 32.0822 164.926 31.677 166.733C31.2717 168.54 31.3944 170.425 32.0305 172.165C32.6665 173.904 33.7893 175.426 35.266 176.55C36.7427 177.674 38.5116 178.353 40.3632 178.506C39.0449 179.81 38.129 181.463 37.7236 183.27C37.3183 185.077 37.4404 186.961 38.0757 188.701C38.711 190.441 39.8328 191.963 41.3086 193.087C42.7843 194.211 44.5523 194.891 46.4034 195.046C45.0844 196.35 44.1675 198.003 43.761 199.809C43.3544 201.616 43.4751 203.5 44.109 205.241V205.241Z" fill="#FF1A87"/>
<path d="M41.188 339.595C36.0078 342.592 31.8406 347.058 29.218 352.425C26.5954 357.791 25.6362 363.815 26.4628 369.727C27.2894 375.639 29.8643 381.172 33.859 385.619C37.8538 390.067 43.0874 393.228 48.8922 394.699C45.4442 399.346 43.4135 404.885 43.0434 410.653C42.6733 416.421 43.9794 422.173 46.8054 427.219C49.6314 432.266 53.8575 436.394 58.9773 439.109C64.0971 441.823 69.8936 443.01 75.6725 442.525C75.3942 443.477 75.1593 444.451 74.968 445.446C73.9289 450.932 74.4437 456.599 76.4547 461.81C78.4656 467.021 81.8933 471.571 86.3535 474.95C90.8136 478.329 96.1299 480.403 101.706 480.939C107.283 481.476 112.899 480.454 117.926 477.988C118.114 484.076 120.153 489.964 123.774 494.87C127.395 499.777 132.427 503.472 138.202 505.465C143.977 507.459 150.224 507.656 156.114 506.032C162.005 504.408 167.261 501.039 171.187 496.371C173.136 502.144 176.799 507.191 181.691 510.843C186.582 514.495 192.472 516.58 198.58 516.821C204.687 517.061 210.724 515.447 215.89 512.192C221.056 508.936 225.108 504.193 227.508 498.591C231.287 502.712 236.144 505.703 241.533 507.227C246.922 508.752 252.631 508.751 258.019 507.224C263.408 505.698 268.263 502.705 272.042 498.583C275.82 494.461 278.371 489.372 279.41 483.886C279.599 482.889 279.736 481.897 279.822 480.909C285.026 483.454 290.856 484.452 296.614 483.781C302.372 483.111 307.815 480.802 312.29 477.13C316.766 473.458 320.085 468.578 321.851 463.075C323.617 457.572 323.755 451.679 322.247 446.1C328.191 446.837 334.221 445.794 339.567 443.102C344.913 440.411 349.334 436.193 352.265 430.988C355.196 425.782 356.506 419.824 356.025 413.874C355.545 407.924 353.298 402.252 349.57 397.58C355.624 396.533 361.213 393.67 365.589 389.372C369.965 385.074 372.921 379.547 374.06 373.53C375.198 367.512 374.466 361.292 371.961 355.7C369.456 350.109 365.298 345.413 360.042 342.24C365.222 339.242 369.388 334.776 372.01 329.409C374.631 324.043 375.59 318.02 374.763 312.108C373.937 306.196 371.362 300.664 367.368 296.216C363.373 291.769 358.14 288.608 352.336 287.136C355.784 282.489 357.815 276.95 358.185 271.182C358.555 265.414 357.249 259.663 354.423 254.616C351.597 249.569 347.371 245.441 342.251 242.726C337.131 240.012 331.335 238.825 325.556 239.31C325.837 238.358 326.072 237.384 326.262 236.389C327.301 230.903 326.785 225.237 324.774 220.026C322.763 214.815 319.335 210.266 314.875 206.887C310.415 203.509 305.099 201.435 299.523 200.898C293.947 200.361 288.331 201.382 283.305 203.847C283.117 197.758 281.078 191.87 277.458 186.963C273.837 182.055 268.805 178.36 263.03 176.366C257.254 174.373 251.007 174.175 245.116 175.8C239.225 177.425 233.969 180.795 230.043 185.464C228.094 179.691 224.431 174.644 219.54 170.992C214.648 167.34 208.758 165.255 202.65 165.014C196.543 164.774 190.506 166.388 185.34 169.643C180.174 172.899 176.123 177.642 173.722 183.244C169.943 179.123 165.087 176.134 159.698 174.609C154.31 173.084 148.602 173.085 143.214 174.611C137.825 176.138 132.97 179.129 129.192 183.25C125.414 187.372 122.862 192.46 121.822 197.945C121.633 198.946 121.499 199.934 121.42 200.922C116.216 198.376 110.386 197.378 104.627 198.048C98.8688 198.718 93.4259 201.027 88.95 204.699C84.4741 208.372 81.1548 213.251 79.3892 218.755C77.6237 224.258 77.4867 230.152 78.9947 235.731C73.0496 234.991 67.018 236.033 61.6696 238.724C56.3212 241.415 51.8985 245.633 48.966 250.839C46.0334 256.046 44.7239 262.006 45.2045 267.957C45.6851 273.909 47.9341 279.583 51.6644 284.255C45.6094 285.3 40.0191 288.163 35.6414 292.461C31.2637 296.759 28.3074 302.286 27.1681 308.304C26.0289 314.322 26.761 320.543 29.2664 326.135C31.7719 331.727 35.9313 336.423 41.188 339.595Z" fill="#FFD916"/>
<path d="M204.253 301.642V303.945C204.253 306.139 206.038 307.918 208.24 307.918H249.915C252.117 307.918 253.902 306.139 253.902 303.945V301.642C253.902 299.448 252.117 297.669 249.915 297.669H208.24C206.038 297.669 204.253 299.448 204.253 301.642Z" fill="#071EC3"/>
<path d="M230.227 278.057H227.917C225.715 278.057 223.93 279.835 223.93 282.03V323.562C223.93 325.756 225.715 327.535 227.917 327.535H230.227C232.429 327.535 234.214 325.756 234.214 323.562V282.03C234.214 279.835 232.429 278.057 230.227 278.057Z" fill="#071EC3"/>
<path d="M210.706 319.473L212.34 321.101C213.897 322.653 216.421 322.653 217.978 321.101L247.447 291.733C249.004 290.182 249.004 287.666 247.447 286.114L245.813 284.486C244.256 282.935 241.732 282.935 240.175 284.486L210.706 313.854C209.15 315.406 209.15 317.921 210.706 319.473Z" fill="#071EC3"/>
<path d="M212.34 284.487L210.707 286.115C209.15 287.667 209.15 290.183 210.707 291.734L240.175 321.102C241.732 322.654 244.256 322.654 245.813 321.102L247.447 319.474C249.004 317.922 249.004 315.407 247.447 313.855L217.978 284.487C216.421 282.936 213.897 282.936 212.34 284.487Z" fill="#071EC3"/>
<path d="M142.025 270.604L140.391 272.233C138.834 273.784 138.834 276.3 140.391 277.851L169.86 307.219C171.417 308.771 173.941 308.771 175.498 307.219L177.132 305.591C178.688 304.04 178.688 301.524 177.132 299.972L147.663 270.604C146.106 269.053 143.582 269.053 142.025 270.604Z" fill="#071EC3"/>
<path d="M140.395 333.359L142.029 334.988C143.586 336.539 146.11 336.539 147.667 334.988L177.135 305.62C178.692 304.068 178.692 301.552 177.135 300.001L175.502 298.373C173.945 296.821 171.42 296.821 169.864 298.373L140.395 327.741C138.838 329.292 138.838 331.808 140.395 333.359Z" fill="#071EC3"/>
</svg>
