<svg width="473" height="514" viewBox="0 0 473 514" fill="none" xmlns="http://www.w3.org/2000/svg">
<path d="M169.848 222.385L181.105 211.007L169.848 199.628L177.384 185.443L163.794 178.078L166.99 162.818L152.056 159.62L150.999 144.227L135.715 145.302L130.449 130.743L115.766 136.154L106.473 123.474L93.5523 133.164L80.6321 123.474L71.3203 136.154L56.6553 130.743L51.4084 145.283L36.1242 144.208L35.0486 159.62L20.1147 162.818L23.3103 178.078L9.70846 185.462L17.2567 199.647L6 211.026L17.2567 222.404L9.75224 236.59L23.3541 243.973L20.1585 259.233L35.0924 262.432L36.1493 277.825L51.4334 276.75L56.6803 291.289L71.364 285.878L80.6321 298.578L93.5523 288.862L106.479 298.578L115.784 285.891L130.449 291.283L135.702 276.744L150.98 277.818L152.037 262.426L166.971 259.227L163.775 243.967L177.377 236.583L169.848 222.385ZM93.5523 287.699H93.8587L93.5523 288.116L93.2459 287.699H93.5523ZM168.628 222.044L168.828 222.246L168.578 222.379C168.597 222.272 168.597 222.158 168.628 222.044Z" fill="#FF1A87"/>
<path d="M456.072 327.132L467.329 315.753L456.072 304.375L463.608 290.189L450.019 282.825L453.215 267.565L438.281 264.366L437.224 248.973L421.94 250.048L416.674 235.49L401.99 240.901L392.697 228.22L379.777 237.911L366.857 228.22L357.545 240.901L342.88 235.49L337.633 250.029L322.349 248.955L321.273 264.366L306.339 267.565L309.535 282.825L295.933 290.208L303.481 304.394L292.225 315.772L303.481 327.151L295.977 341.336L309.579 348.72L306.383 363.98L321.317 367.179L322.374 382.571L337.658 381.497L342.905 396.036L357.589 390.625L366.857 403.325L379.777 393.609L392.703 403.325L402.009 390.638L416.674 396.03L421.927 381.49L437.205 382.565L438.262 367.172L453.196 363.974L450 348.714L463.602 341.33L456.072 327.132ZM379.777 392.445H380.083L379.777 392.863L379.47 392.445H379.777ZM454.853 326.791L455.053 326.993L454.803 327.126C454.822 327.018 454.822 326.905 454.853 326.791Z" fill="#FF1A87"/>
<path d="M357.952 362.716L380.231 340.196L357.952 317.676L372.866 289.601L345.971 275.025L352.295 244.823L322.739 238.492L320.647 208.028L290.397 210.154L279.975 181.341L250.914 192.051L232.521 166.953L206.95 186.133L181.379 166.953L162.949 192.051L133.925 181.341L123.54 210.117L93.2903 207.99L91.1615 238.492L61.6047 244.823L67.9295 275.025L41.0091 289.638L55.9484 317.714L33.6694 340.234L55.9484 362.754L41.0957 390.829L68.0161 405.442L61.6914 435.644L91.2481 441.975L93.3398 472.44L123.59 470.313L133.974 499.089L163.036 488.379L181.379 513.514L206.95 494.285L232.534 513.514L250.951 488.404L279.975 499.076L290.372 470.3L320.61 472.427L322.701 441.963L352.258 435.632L345.933 405.43L372.854 390.817L357.952 362.716ZM355.476 318.389C355.476 318.164 355.414 317.939 355.377 317.714L355.872 317.989L355.476 318.389ZM58.4238 318.339L58.0277 317.939L58.5228 317.663C58.4238 317.939 58.4238 318.164 58.4238 318.339ZM58.4238 361.991C58.4238 362.216 58.4857 362.441 58.5228 362.654L58.0277 362.391L58.4238 361.991ZM206.95 491.982H207.556L206.95 492.808L206.344 491.982H206.95ZM355.538 362.041L355.934 362.441L355.439 362.704C355.476 362.491 355.476 362.266 355.538 362.041Z" fill="#FFD916"/>
<rect x="276.237" y="340.028" width="54.7202" height="7.29602" rx="3.64801" transform="rotate(-165 276.237 340.028)" fill="#071EC3"/>
<rect x="163.121" y="307.364" width="35.1918" height="7.29602" rx="3.64801" transform="rotate(-15 163.121 307.364)" fill="#071EC3"/>
<rect x="169.082" y="319.741" width="35.1918" height="7.29602" rx="3.64801" transform="rotate(-60 169.082 319.741)" fill="#071EC3"/>
<rect x="182.032" y="324.38" width="35.1918" height="7.29602" rx="3.64801" transform="rotate(-105 182.032 324.38)" fill="#071EC3"/>
<rect x="194.396" y="318.379" width="35.1918" height="7.29602" rx="3.64801" transform="rotate(-150 194.396 318.379)" fill="#071EC3"/>
</svg>
