<svg width="473" height="514" viewBox="0 0 473 514" fill="none" xmlns="http://www.w3.org/2000/svg">
<path d="M11.9306 209.936C11.9306 164.584 48.6955 127.819 94.0473 127.819C139.399 127.819 176.164 164.584 176.164 209.936C176.164 255.287 139.399 292.052 94.0473 292.052C48.6955 292.052 11.9306 255.287 11.9306 209.936Z" fill="#FF1A87"/>
<path d="M298.497 314.681C298.497 269.33 335.262 232.565 380.614 232.565C425.966 232.565 462.731 269.33 462.731 314.681C462.731 360.033 425.966 396.798 380.614 396.798C335.262 396.798 298.497 360.033 298.497 314.681Z" fill="#FF1A87"/>
<path d="M44.5376 339.781C44.5376 250.551 116.873 178.215 206.103 178.215C295.333 178.215 367.668 250.551 367.668 339.781C367.668 429.011 295.333 501.346 206.103 501.346C116.873 501.346 44.5376 429.011 44.5376 339.781Z" fill="#FFD916"/>
<rect x="276.235" y="338.64" width="54.7198" height="7.29597" rx="3.64799" transform="rotate(-165 276.235 338.64)" fill="#071EC3"/>
<rect x="163.12" y="305.976" width="35.1915" height="7.29597" rx="3.64799" transform="rotate(-15 163.12 305.976)" fill="#071EC3"/>
<rect x="169.081" y="318.353" width="35.1915" height="7.29597" rx="3.64799" transform="rotate(-60 169.081 318.353)" fill="#071EC3"/>
<rect x="182.032" y="322.992" width="35.1915" height="7.29597" rx="3.64799" transform="rotate(-105 182.032 322.992)" fill="#071EC3"/>
<rect x="194.395" y="316.991" width="35.1915" height="7.29597" rx="3.64799" transform="rotate(-150 194.395 316.991)" fill="#071EC3"/>
</svg>
