<svg width="473" height="514" viewBox="0 0 473 514" fill="none" xmlns="http://www.w3.org/2000/svg">
<path d="M458.059 303.703C460.755 304.192 463.195 305.623 464.952 307.744C466.709 309.865 467.672 312.543 467.672 315.308C467.672 318.073 466.709 320.75 464.952 322.871C463.195 324.993 460.755 326.423 458.059 326.913C460.383 328.123 462.238 330.085 463.327 332.484C464.416 334.884 464.676 337.583 464.066 340.15C463.456 342.717 462.01 345.003 459.961 346.642C457.912 348.282 455.378 349.181 452.763 349.195H452.519C454.201 351.1 455.225 353.506 455.435 356.05C455.646 358.594 455.032 361.138 453.686 363.3C452.34 365.461 450.335 367.122 447.973 368.033C445.61 368.944 443.019 369.056 440.588 368.352C441.598 370.664 441.845 373.243 441.292 375.708C440.74 378.172 439.418 380.393 437.521 382.042C435.625 383.691 433.253 384.681 430.756 384.867C428.26 385.052 425.77 384.423 423.655 383.072C423.742 383.629 423.788 384.193 423.792 384.757C423.793 387.203 423.04 389.589 421.638 391.585C420.236 393.58 418.255 395.086 415.967 395.894C413.68 396.703 411.201 396.773 408.872 396.097C406.543 395.42 404.481 394.029 402.969 392.117C402.724 394.851 401.541 397.413 399.626 399.361C397.711 401.31 395.182 402.523 392.476 402.792C389.77 403.062 387.055 402.37 384.8 400.836C382.545 399.302 380.89 397.022 380.121 394.39C379.351 397.022 377.696 399.302 375.441 400.836C373.186 402.37 370.471 403.062 367.765 402.792C365.059 402.523 362.53 401.31 360.615 399.361C358.7 397.413 357.517 394.851 357.272 392.117C355.76 394.03 353.697 395.421 351.367 396.097C349.038 396.774 346.558 396.702 344.271 395.893C341.983 395.084 340.002 393.577 338.6 391.581C337.199 389.584 336.447 387.198 336.449 384.751C336.453 384.186 336.499 383.623 336.586 383.066C334.471 384.41 331.984 385.035 329.491 384.847C326.998 384.659 324.63 383.67 322.735 382.023C320.84 380.377 319.519 378.161 318.964 375.7C318.409 373.239 318.651 370.664 319.653 368.352C317.223 369.051 314.634 368.936 312.275 368.023C309.916 367.111 307.914 365.45 306.569 363.291C305.224 361.132 304.61 358.59 304.818 356.049C305.026 353.507 306.045 351.102 307.722 349.195H307.478C304.852 349.194 302.303 348.302 300.241 346.66C298.18 345.018 296.726 342.724 296.114 340.146C295.502 337.568 295.768 334.858 296.869 332.451C297.97 330.045 299.841 328.083 302.182 326.881C299.486 326.392 297.046 324.961 295.289 322.84C293.532 320.719 292.569 318.041 292.569 315.276C292.569 312.511 293.532 309.834 295.289 307.712C297.046 305.591 299.486 304.161 302.182 303.671C299.841 302.47 297.97 300.508 296.869 298.101C295.768 295.695 295.502 292.984 296.114 290.406C296.726 287.829 298.18 285.534 300.241 283.892C302.303 282.251 304.852 281.358 307.478 281.358H307.722C306.068 279.448 305.069 277.05 304.874 274.522C304.679 271.993 305.297 269.468 306.638 267.322C307.979 265.177 309.969 263.525 312.314 262.614C314.659 261.703 317.233 261.58 319.653 262.264C318.653 259.952 318.413 257.378 318.969 254.919C319.525 252.46 320.848 250.246 322.742 248.602C324.637 246.958 327.004 245.97 329.496 245.784C331.988 245.598 334.473 246.224 336.586 247.569C336.499 247.011 336.453 246.448 336.449 245.884C336.447 243.437 337.199 241.05 338.6 239.054C340.002 237.058 341.983 235.55 344.271 234.741C346.558 233.932 349.038 233.861 351.367 234.537C353.697 235.214 355.76 236.605 357.272 238.517C357.511 235.781 358.688 233.215 360.601 231.261C362.513 229.308 365.041 228.089 367.749 227.815C370.456 227.541 373.174 228.23 375.432 229.762C377.691 231.294 379.349 233.573 380.121 236.207C380.889 233.574 382.544 231.295 384.798 229.761C387.053 228.227 389.767 227.534 392.473 227.802C395.179 228.071 397.708 229.283 399.624 231.231C401.54 233.179 402.723 235.74 402.969 238.473C404.481 236.56 406.544 235.17 408.874 234.493C411.203 233.817 413.683 233.888 415.97 234.697C418.258 235.506 420.239 237.013 421.641 239.01C423.042 241.006 423.794 243.393 423.792 245.839C423.788 246.404 423.742 246.967 423.655 247.525C425.771 246.179 428.259 245.553 430.753 245.741C433.247 245.928 435.616 246.919 437.512 248.566C439.407 250.214 440.729 252.432 441.282 254.894C441.836 257.356 441.593 259.932 440.588 262.245C443.014 261.552 445.598 261.67 447.952 262.583C450.306 263.496 452.304 265.153 453.647 267.308C454.99 269.462 455.606 271.998 455.403 274.535C455.199 277.072 454.188 279.475 452.519 281.383H452.763C455.389 281.383 457.938 282.276 460 283.918C462.062 285.559 463.516 287.854 464.127 290.432C464.739 293.009 464.473 295.72 463.372 298.127C462.271 300.533 460.4 302.495 458.059 303.697V303.703Z" fill="#FF1A87"/>
<path d="M171.49 198.957C174.186 199.446 176.626 200.877 178.383 202.998C180.141 205.119 181.103 207.797 181.103 210.562C181.103 213.327 180.141 216.004 178.383 218.126C176.626 220.247 174.186 221.677 171.49 222.167C173.814 223.377 175.669 225.339 176.758 227.738C177.847 230.138 178.107 232.837 177.497 235.404C176.887 237.971 175.442 240.257 173.393 241.896C171.343 243.536 168.809 244.435 166.194 244.449H165.95C167.633 246.355 168.656 248.761 168.867 251.304C169.077 253.848 168.463 256.393 167.117 258.554C165.771 260.715 163.766 262.376 161.404 263.287C159.041 264.199 156.45 264.31 154.019 263.606C155.029 265.918 155.276 268.497 154.724 270.962C154.171 273.427 152.85 275.647 150.953 277.296C149.056 278.945 146.684 279.935 144.188 280.121C141.691 280.306 139.201 279.677 137.086 278.326C137.173 278.884 137.219 279.447 137.223 280.011C137.224 282.458 136.471 284.843 135.069 286.839C133.667 288.834 131.686 290.34 129.399 291.148C127.111 291.957 124.632 292.028 122.303 291.351C119.975 290.674 117.912 289.283 116.401 287.371C116.155 290.105 114.973 292.667 113.057 294.615C111.142 296.564 108.613 297.777 105.907 298.047C103.201 298.316 100.486 297.624 98.2311 296.09C95.9759 294.556 94.3211 292.277 93.5517 289.644C92.7823 292.277 91.1275 294.556 88.8723 296.09C86.617 297.624 83.9025 298.316 81.1963 298.047C78.49 297.777 75.9615 296.564 74.0461 294.615C72.1307 292.667 70.9484 290.105 70.7029 287.371C69.1913 289.284 67.1279 290.675 64.7986 291.351C62.4693 292.028 59.9893 291.957 57.7018 291.147C55.4144 290.338 53.4328 288.831 52.0315 286.835C50.6301 284.838 49.8782 282.452 49.8801 280.005C49.8844 279.441 49.9304 278.877 50.0176 278.32C47.902 279.664 45.415 280.289 42.9219 280.101C40.4289 279.913 38.0611 278.924 36.1663 277.277C34.2716 275.631 32.9498 273.415 32.395 270.954C31.8403 268.493 32.0819 265.918 33.0842 263.606C30.6545 264.305 28.0656 264.19 25.7063 263.277C23.347 262.365 21.3447 260.704 20 258.545C18.6552 256.386 18.0407 253.845 18.2487 251.303C18.4567 248.761 19.4759 246.356 21.1533 244.449H20.9095C18.2835 244.449 15.7342 243.556 13.6725 241.914C11.6107 240.273 10.1567 237.978 9.54483 235.4C8.93297 232.822 9.19893 230.112 10.2998 227.705C11.4007 225.299 13.2724 223.337 15.6131 222.135C12.917 221.646 10.4772 220.215 8.71995 218.094C6.96275 215.973 6 213.296 6 210.53C6 207.765 6.96275 205.088 8.71995 202.967C10.4772 200.845 12.917 199.415 15.6131 198.925C13.2724 197.724 11.4007 195.762 10.2998 193.355C9.19893 190.949 8.93297 188.238 9.54483 185.66C10.1567 183.083 11.6107 180.788 13.6725 179.147C15.7342 177.505 18.2835 176.612 20.9095 176.612H21.1533C19.4995 174.702 18.5006 172.305 18.3053 169.776C18.1099 167.247 18.7286 164.722 20.0691 162.576C21.4097 160.431 23.4006 158.78 25.7456 157.868C28.0906 156.957 30.6645 156.834 33.0842 157.518C32.084 155.206 31.8443 152.632 32.4003 150.173C32.9563 147.714 34.2788 145.5 36.1735 143.856C38.0682 142.212 40.4352 141.224 42.927 141.038C45.4188 140.852 47.904 141.478 50.0176 142.823C49.9304 142.265 49.8844 141.702 49.8801 141.138C49.8782 138.691 50.6301 136.304 52.0315 134.308C53.4328 132.312 55.4144 130.805 57.7018 129.995C59.9893 129.186 62.4693 129.115 64.7986 129.791C67.1279 130.468 69.1913 131.859 70.7029 133.771C70.9419 131.035 72.1192 128.469 74.0318 126.515C75.9444 124.562 78.4724 123.343 81.1799 123.069C83.8874 122.795 86.6047 123.484 88.8632 125.016C91.1217 126.548 92.7798 128.827 93.5517 131.461C94.3206 128.828 95.9749 126.549 98.2296 125.015C100.484 123.481 103.198 122.788 105.904 123.057C108.61 123.325 111.139 124.537 113.055 126.485C114.971 128.433 116.154 130.994 116.401 133.727C117.912 131.815 119.975 130.424 122.305 129.747C124.634 129.071 127.114 129.142 129.402 129.951C131.689 130.76 133.671 132.267 135.072 134.264C136.473 136.26 137.225 138.647 137.223 141.093C137.219 141.658 137.173 142.221 137.086 142.779C139.202 141.433 141.69 140.808 144.184 140.995C146.679 141.182 149.047 142.173 150.943 143.82C152.838 145.468 154.16 147.686 154.713 150.148C155.267 152.61 155.024 155.187 154.019 157.499C156.446 156.806 159.029 156.924 161.383 157.837C163.737 158.75 165.735 160.407 167.078 162.562C168.422 164.716 169.037 167.252 168.834 169.789C168.631 172.326 167.619 174.729 165.95 176.637H166.194C168.82 176.637 171.369 177.53 173.431 179.172C175.493 180.813 176.947 183.108 177.559 185.686C178.17 188.263 177.904 190.974 176.804 193.381C175.703 195.787 173.831 197.749 171.49 198.951V198.957Z" fill="#FF1A87"/>
<path d="M361.203 317.296C366.539 318.265 371.368 321.096 374.845 325.294C378.323 329.492 380.229 334.791 380.229 340.264C380.229 345.737 378.323 351.035 374.845 355.234C371.368 359.432 366.539 362.263 361.203 363.232C365.802 365.627 369.473 369.51 371.628 374.259C373.783 379.009 374.298 384.351 373.091 389.431C371.884 394.511 369.023 399.035 364.968 402.28C360.912 405.526 355.896 407.304 350.72 407.332H350.238C353.568 411.104 355.593 415.866 356.01 420.901C356.426 425.936 355.211 430.971 352.548 435.248C349.884 439.525 345.915 442.813 341.24 444.617C336.564 446.42 331.435 446.642 326.624 445.248C328.622 449.824 329.111 454.928 328.019 459.806C326.926 464.684 324.309 469.079 320.555 472.343C316.801 475.606 312.107 477.566 307.166 477.933C302.225 478.3 297.297 477.055 293.11 474.381C293.283 475.484 293.374 476.599 293.382 477.717C293.383 482.558 291.894 487.28 289.119 491.229C286.345 495.178 282.423 498.159 277.896 499.759C273.369 501.359 268.462 501.499 263.853 500.159C259.244 498.82 255.162 496.068 252.17 492.283C251.684 497.694 249.344 502.764 245.554 506.621C241.763 510.477 236.758 512.879 231.402 513.411C226.046 513.944 220.674 512.575 216.21 509.539C211.747 506.503 208.471 501.992 206.949 496.781C205.426 501.992 202.151 506.503 197.687 509.539C193.224 512.575 187.851 513.944 182.495 513.411C177.139 512.879 172.135 510.477 168.344 506.621C164.553 502.764 162.213 497.694 161.727 492.283C158.735 496.069 154.651 498.821 150.041 500.16C145.431 501.499 140.523 501.358 135.995 499.757C131.468 498.155 127.546 495.172 124.773 491.221C121.999 487.27 120.511 482.547 120.515 477.704C120.523 476.587 120.614 475.472 120.787 474.368C116.6 477.03 111.678 478.265 106.743 477.894C101.809 477.523 97.1229 475.564 93.3729 472.306C89.6229 469.047 87.0068 464.661 85.9089 459.791C84.8109 454.92 85.289 449.823 87.2729 445.248C82.464 446.631 77.3401 446.403 72.6707 444.597C68.0012 442.791 64.0382 439.504 61.3768 435.231C58.7154 430.957 57.4992 425.928 57.9108 420.897C58.3224 415.867 60.3396 411.107 63.6595 407.332H63.1769C57.9798 407.331 52.9342 405.564 48.8536 402.315C44.773 399.066 41.8953 394.525 40.6843 389.423C39.4733 384.321 39.9997 378.957 42.1786 374.194C44.3574 369.431 48.0618 365.547 52.6944 363.17C47.3585 362.201 42.5295 359.37 39.0517 355.171C35.5739 350.973 33.6685 345.674 33.6685 340.201C33.6685 334.729 35.5739 329.43 39.0517 325.231C42.5295 321.033 47.3585 318.202 52.6944 317.233C48.0618 314.855 44.3574 310.972 42.1786 306.209C39.9997 301.446 39.4733 296.081 40.6843 290.98C41.8953 285.878 44.773 281.336 48.8536 278.087C52.9342 274.838 57.9798 273.071 63.1769 273.071H63.6595C60.3864 269.291 58.4094 264.546 58.0228 259.541C57.6361 254.536 58.8605 249.538 61.5137 245.292C64.1669 241.046 68.1072 237.778 72.7484 235.974C77.3896 234.17 82.4837 233.927 87.2729 235.28C85.2932 230.706 84.8188 225.611 85.9192 220.744C87.0197 215.878 89.6371 211.496 93.3871 208.241C97.137 204.987 101.822 203.033 106.754 202.665C111.685 202.297 116.604 203.535 120.787 206.197C120.614 205.093 120.523 203.978 120.515 202.861C120.511 198.019 121.999 193.295 124.773 189.344C127.546 185.393 131.468 182.41 135.995 180.809C140.523 179.207 145.431 179.066 150.041 180.405C154.651 181.744 158.735 184.497 161.727 188.282C162.2 182.867 164.53 177.788 168.315 173.921C172.101 170.054 177.104 167.642 182.463 167.1C187.821 166.558 193.199 167.921 197.669 170.953C202.139 173.985 205.421 178.497 206.949 183.71C208.47 178.499 211.745 173.987 216.207 170.951C220.67 167.915 226.041 166.544 231.397 167.075C236.752 167.607 241.757 170.006 245.549 173.861C249.341 177.716 251.682 182.785 252.17 188.195C255.162 184.409 259.246 181.656 263.856 180.317C268.466 178.979 273.375 179.12 277.902 180.721C282.429 182.323 286.351 185.305 289.124 189.256C291.898 193.207 293.386 197.931 293.382 202.774C293.374 203.891 293.283 205.006 293.11 206.109C297.298 203.445 302.223 202.208 307.159 202.579C312.096 202.95 316.784 204.91 320.536 208.171C324.287 211.431 326.902 215.821 327.998 220.694C329.094 225.567 328.613 230.666 326.624 235.243C331.427 233.871 336.54 234.106 341.199 235.912C345.858 237.719 349.813 240.999 352.471 245.263C355.129 249.527 356.348 254.545 355.946 259.567C355.543 264.589 353.541 269.344 350.238 273.121H350.72C355.917 273.121 360.963 274.888 365.044 278.137C369.124 281.386 372.002 285.928 373.213 291.03C374.424 296.131 373.898 301.496 371.719 306.259C369.54 311.022 365.835 314.905 361.203 317.283V317.296Z" fill="#FFD916"/>
<rect x="276.235" y="339.751" width="54.7198" height="7.29597" rx="3.64799" transform="rotate(-165 276.235 339.751)" fill="#071EC3"/>
<rect x="163.12" y="307.086" width="35.1915" height="7.29597" rx="3.64799" transform="rotate(-15 163.12 307.086)" fill="#071EC3"/>
<rect x="169.08" y="319.464" width="35.1915" height="7.29597" rx="3.64799" transform="rotate(-60 169.08 319.464)" fill="#071EC3"/>
<rect x="182.031" y="324.102" width="35.1915" height="7.29597" rx="3.64799" transform="rotate(-105 182.031 324.102)" fill="#071EC3"/>
<rect x="194.395" y="318.102" width="35.1915" height="7.29597" rx="3.64799" transform="rotate(-150 194.395 318.102)" fill="#071EC3"/>
</svg>
