<svg width="473" height="515" viewBox="0 0 473 515" fill="none" xmlns="http://www.w3.org/2000/svg">
<path d="M43.0931 338.798C43.0931 247.66 116.975 173.778 208.113 173.778C299.251 173.778 373.133 247.66 373.133 338.798C373.133 429.936 299.251 503.818 208.113 503.818C116.975 503.818 43.0931 429.936 43.0931 338.798Z" fill="#FFD916"/>
<rect x="188.686" y="266.365" width="55.3184" height="7.81886" rx="3.90943" transform="rotate(15 188.686 266.365)" fill="#071EC3"/>
<rect x="198.196" y="317.213" width="55.4526" height="7.81886" rx="3.90943" transform="rotate(-45 198.196 317.213)" fill="#071EC3"/>
<path d="M347.764 177.844C356.123 163.019 374.918 157.776 389.743 166.136C404.569 174.495 409.811 193.29 401.452 208.115L340.909 315.492C332.55 330.317 313.755 335.56 298.929 327.2C284.104 318.841 278.862 300.046 287.221 285.221L347.764 177.844Z" fill="#FF5903"/>
<path d="M435.522 271.141C452.559 270.968 466.511 284.621 466.685 301.636C466.858 318.652 453.187 332.587 436.15 332.761L312.753 334.019C295.716 334.192 281.764 320.539 281.59 303.524C281.417 286.508 295.088 272.573 312.125 272.399L435.522 271.141Z" fill="#FF5903"/>
</svg>
