<svg width="473" height="515" viewBox="0 0 473 515" fill="none" xmlns="http://www.w3.org/2000/svg">
<path d="M52.0888 362.078C46.7354 361.106 41.8907 358.265 38.4015 354.053C34.9124 349.841 33.0007 344.525 33.0007 339.034C33.0007 333.544 34.9124 328.228 38.4015 324.016C41.8907 319.803 46.7354 316.963 52.0888 315.991C47.4744 313.588 43.7916 309.693 41.6293 304.928C39.4671 300.163 38.9503 294.803 40.1618 289.707C41.3732 284.61 44.2428 280.071 48.3116 276.815C52.3805 273.559 57.4134 271.775 62.6055 271.747L63.0897 271.747C59.7489 267.963 57.7166 263.186 57.2986 258.134C56.8807 253.083 58.0998 248.031 60.7723 243.74C63.4449 239.449 67.4263 236.15 72.117 234.341C76.8076 232.531 81.9537 232.309 86.7802 233.708C84.7755 229.116 84.2852 223.996 85.3815 219.102C86.4778 214.208 89.1027 209.799 92.8693 206.524C96.6359 203.25 101.345 201.284 106.302 200.916C111.26 200.548 116.203 201.797 120.404 204.479C120.231 203.372 120.139 202.254 120.131 201.133C120.13 196.276 121.624 191.538 124.408 187.576C127.192 183.614 131.126 180.624 135.668 179.019C140.209 177.413 145.133 177.273 149.757 178.617C154.381 179.96 158.476 182.722 161.477 186.519C161.965 181.09 164.312 176.003 168.116 172.134C171.919 168.265 176.94 165.856 182.313 165.322C187.687 164.787 193.077 166.161 197.555 169.206C202.033 172.252 205.319 176.779 206.847 182.006C208.374 176.779 211.66 172.252 216.138 169.206C220.617 166.161 226.007 164.787 231.38 165.322C236.754 165.856 241.775 168.265 245.578 172.134C249.381 176.003 251.729 181.09 252.216 186.519C255.218 182.721 259.315 179.959 263.94 178.616C268.565 177.272 273.49 177.414 278.032 179.021C282.574 180.627 286.508 183.62 289.291 187.584C292.074 191.548 293.566 196.287 293.563 201.145C293.554 202.266 293.463 203.385 293.29 204.492C297.491 201.822 302.429 200.582 307.379 200.955C312.33 201.327 317.031 203.292 320.793 206.561C324.556 209.83 327.18 214.231 328.282 219.117C329.383 224.003 328.904 229.117 326.913 233.708C331.738 232.319 336.879 232.548 341.563 234.361C346.248 236.173 350.224 239.47 352.894 243.757C355.564 248.045 356.784 253.091 356.371 258.138C355.958 263.185 353.935 267.96 350.604 271.747L351.088 271.747C356.302 271.748 361.364 273.521 365.458 276.78C369.552 280.04 372.439 284.596 373.654 289.715C374.869 294.833 374.341 300.215 372.155 304.994C369.969 309.772 366.253 313.668 361.605 316.054C366.958 317.026 371.803 319.866 375.292 324.078C378.781 328.29 380.693 333.606 380.693 339.097C380.693 344.588 378.781 349.904 375.292 354.116C371.803 358.328 366.958 361.168 361.605 362.14C366.253 364.526 369.969 368.422 372.155 373.2C374.341 377.979 374.869 383.361 373.654 388.48C372.439 393.598 369.552 398.154 365.458 401.414C361.364 404.674 356.302 406.446 351.088 406.447L350.604 406.447C353.888 410.239 355.871 415 356.259 420.021C356.647 425.043 355.419 430.056 352.757 434.316C350.095 438.577 346.142 441.855 341.485 443.665C336.829 445.475 331.718 445.719 326.913 444.361C328.899 448.95 329.375 454.062 328.271 458.944C327.167 463.827 324.541 468.223 320.779 471.488C317.017 474.753 312.317 476.714 307.369 477.083C302.421 477.452 297.487 476.21 293.29 473.539C293.463 474.647 293.554 475.765 293.563 476.886C293.566 481.744 292.074 486.483 289.291 490.447C286.508 494.411 282.574 497.404 278.032 499.011C273.49 500.617 268.565 500.759 263.94 499.415C259.315 498.072 255.218 495.31 252.216 491.513C251.742 496.946 249.404 502.041 245.606 505.921C241.808 509.8 236.789 512.22 231.413 512.764C226.036 513.307 220.641 511.94 216.156 508.898C211.672 505.856 208.379 501.33 206.847 496.1C205.32 501.328 202.035 505.854 197.558 508.9C193.081 511.946 187.692 513.321 182.319 512.788C176.946 512.256 171.925 509.848 168.12 505.981C164.316 502.113 161.967 497.028 161.477 491.6C158.476 495.398 154.379 498.16 149.754 499.503C145.128 500.846 140.204 500.705 135.662 499.098C131.12 497.491 127.185 494.499 124.403 490.535C121.62 486.571 120.127 481.832 120.131 476.974C120.139 475.853 120.231 474.734 120.404 473.627C116.202 476.3 111.262 477.541 106.309 477.169C101.356 476.797 96.6522 474.831 92.8889 471.559C89.1255 468.288 86.5011 463.884 85.4015 458.995C84.302 454.106 84.7852 448.99 86.7802 444.399C81.9621 445.775 76.8321 445.539 72.1577 443.727C67.4834 441.915 63.516 438.623 60.8491 434.345C58.1822 430.067 56.9592 425.033 57.3631 419.995C57.767 414.957 59.7761 410.186 63.0897 406.397L62.6055 406.397C57.3914 406.396 52.3293 404.623 48.2354 401.364C44.1415 398.104 41.2544 393.548 40.0394 388.429C38.8245 383.311 39.3526 377.929 41.5386 373.15C43.7246 368.372 47.441 364.476 52.0888 362.09L52.0888 362.078Z" fill="#FFD916"/>
<rect x="188.687" y="266.365" width="55.3183" height="7.81885" rx="3.90942" transform="rotate(15 188.687 266.365)" fill="#071EC3"/>
<rect x="198.196" y="317.213" width="55.4525" height="7.81884" rx="3.90942" transform="rotate(-45 198.196 317.213)" fill="#071EC3"/>
<path d="M347.764 177.844C356.123 163.018 374.918 157.776 389.744 166.136C404.569 174.495 409.811 193.29 401.452 208.115L340.91 315.492C332.55 330.317 313.755 335.559 298.93 327.2C284.104 318.841 278.862 300.046 287.222 285.22L347.764 177.844Z" fill="#FF5903"/>
<path d="M435.522 271.141C452.56 270.967 466.512 284.62 466.685 301.636C466.859 318.651 453.188 332.586 436.15 332.76L312.754 334.018C295.717 334.191 281.764 320.538 281.591 303.523C281.418 286.507 295.088 272.572 312.126 272.399L435.522 271.141Z" fill="#FF5903"/>
</svg>
