<svg width="473" height="515" viewBox="0 0 473 515" fill="none" xmlns="http://www.w3.org/2000/svg">
<path fill-rule="evenodd" clip-rule="evenodd" d="M55.9153 316.465L33.5636 339.059L55.9153 361.653L40.9521 389.82L67.9355 404.443L61.5902 434.743L91.2434 441.095L93.3419 471.659L123.691 469.525L134.146 498.433L163.303 487.688L181.755 512.868L207.41 493.625L233.065 512.868L251.555 487.688L280.674 498.433L291.092 469.563L321.441 471.697L323.577 441.095L353.23 434.743L346.884 404.443L373.893 389.782L358.905 361.615L381.256 339.021L358.905 316.428L373.806 288.261L346.798 273.6L353.143 243.299L323.49 236.948L321.391 206.383L291.043 208.517L280.624 179.647L251.468 190.392L233.065 165.175L207.41 184.467L181.743 165.175L163.265 190.367L134.146 179.66L123.715 208.53L93.3792 206.396L91.2806 236.96L61.6274 243.312L67.9728 273.612L40.9645 288.273L55.9153 316.465Z" fill="#FFD916"/>
<rect x="188.686" y="266.365" width="55.3184" height="7.81886" rx="3.90943" transform="rotate(15 188.686 266.365)" fill="#071EC3"/>
<rect x="198.195" y="317.213" width="55.4526" height="7.81886" rx="3.90943" transform="rotate(-45 198.195 317.213)" fill="#071EC3"/>
<path d="M347.764 177.844C356.123 163.019 374.918 157.776 389.743 166.136C404.569 174.495 409.811 193.29 401.452 208.115L340.909 315.492C332.55 330.317 313.755 335.56 298.929 327.2C284.104 318.841 278.862 300.046 287.221 285.221L347.764 177.844Z" fill="#FF5903"/>
<path d="M435.521 271.141C452.559 270.967 466.511 284.62 466.684 301.636C466.858 318.652 453.187 332.587 436.149 332.76L312.753 334.018C295.715 334.192 281.763 320.539 281.59 303.523C281.416 286.508 295.087 272.573 312.125 272.399L435.521 271.141Z" fill="#FF5903"/>
</svg>
