<svg width="473" height="514" viewBox="0 0 473 514" fill="none" xmlns="http://www.w3.org/2000/svg">
<path fill-rule="evenodd" clip-rule="evenodd" d="M358.133 362.609L380.479 340.02L358.133 317.432L373.092 289.272L346.115 274.652L352.459 244.359L322.813 238.009L320.715 207.452L290.374 209.585L279.921 180.684L250.771 191.426L232.323 166.253L206.674 185.491L181.025 166.253L162.54 191.426L133.428 180.684L123.012 209.547L92.6705 207.414L90.5352 238.009L60.889 244.359L67.2329 274.652L40.231 289.309L55.2155 317.47L32.8691 340.058L55.2155 362.646L40.3179 390.806L67.3198 405.464L60.9759 435.757L90.6221 442.107L92.7201 472.664L123.062 470.531L133.477 499.394L162.627 488.652L181.025 513.863L206.674 494.575L232.335 513.863L250.808 488.677L279.921 499.381L290.349 470.518L320.678 472.652L322.776 442.095L352.422 435.745L346.078 405.451L373.08 390.794L358.133 362.609Z" fill="#FF5903"/>
<path d="M92.8323 340.167C92.8323 277.233 143.869 226.216 206.826 226.216C269.783 226.216 320.819 277.233 320.819 340.167C320.819 403.101 269.783 454.119 206.826 454.119C143.869 454.119 92.8323 403.101 92.8323 340.167Z" fill="#FFD916"/>
<rect x="259.642" y="324.415" width="36.4991" height="6.08318" rx="3.04159" transform="rotate(45 259.642 324.415)" fill="#071EC3"/>
<rect x="233.614" y="350.224" width="36.4991" height="6.08318" rx="3.04159" transform="rotate(-45 233.614 350.224)" fill="#071EC3"/>
<rect x="154.49" y="324.415" width="36.4991" height="6.08318" rx="3.04159" transform="rotate(45 154.49 324.415)" fill="#071EC3"/>
<rect x="128.463" y="350.224" width="36.4991" height="6.08318" rx="3.04159" transform="rotate(-45 128.463 350.224)" fill="#071EC3"/>
</svg>
