<svg width="473" height="515" viewBox="0 0 473 515" fill="none" xmlns="http://www.w3.org/2000/svg">
<path d="M51.9584 363.205C46.605 362.233 41.7603 359.392 38.2712 355.18C34.782 350.968 32.8703 345.652 32.8703 340.161C32.8703 334.671 34.782 329.355 38.2712 325.143C41.7603 320.931 46.605 318.09 51.9584 317.118C47.344 314.716 43.6612 310.82 41.4989 306.055C39.3367 301.29 38.8199 295.93 40.0314 290.834C41.2428 285.737 44.1125 281.198 48.1813 277.942C52.2501 274.686 57.283 272.902 62.4751 272.875L62.9593 272.875C59.6186 269.09 57.5862 264.313 57.1683 259.261C56.7503 254.21 57.9694 249.158 60.642 244.867C63.3145 240.576 67.2959 237.277 71.9866 235.468C76.6773 233.658 81.8233 233.436 86.6498 234.835C84.6452 230.243 84.1548 225.123 85.2511 220.229C86.3474 215.335 88.9723 210.926 92.7389 207.651C96.5055 204.377 101.215 202.411 106.172 202.043C111.129 201.675 116.073 202.924 120.273 205.606C120.1 204.499 120.009 203.381 120 202.26C119.999 197.403 121.494 192.665 124.278 188.703C127.061 184.741 130.996 181.751 135.537 180.146C140.079 178.541 145.002 178.4 149.626 179.744C154.25 181.087 158.346 183.849 161.347 187.646C161.835 182.217 164.182 177.13 167.985 173.261C171.789 169.392 176.809 166.983 182.183 166.449C187.557 165.914 192.947 167.288 197.425 170.334C201.903 173.379 205.189 177.906 206.716 183.134C208.244 177.906 211.53 173.379 216.008 170.334C220.486 167.288 225.876 165.914 231.25 166.449C236.623 166.983 241.644 169.392 245.447 173.261C249.251 177.13 251.598 182.217 252.086 187.646C255.087 183.848 259.184 181.086 263.81 179.743C268.435 178.4 273.359 178.541 277.901 180.148C282.443 181.755 286.378 184.747 289.161 188.711C291.943 192.675 293.436 197.414 293.433 202.272C293.424 203.393 293.333 204.512 293.159 205.619C297.36 202.949 302.298 201.709 307.249 202.082C312.199 202.454 316.901 204.419 320.663 207.688C324.425 210.958 327.05 215.358 328.151 220.244C329.253 225.13 328.773 230.244 326.783 234.835C331.608 233.447 336.748 233.676 341.433 235.488C346.118 237.3 350.094 240.597 352.764 244.884C355.434 249.172 356.654 254.218 356.241 259.265C355.828 264.312 353.804 269.087 350.473 272.875L350.958 272.875C356.172 272.875 361.234 274.648 365.328 277.907C369.422 281.167 372.309 285.723 373.524 290.842C374.739 295.96 374.211 301.342 372.025 306.121C369.839 310.899 366.122 314.795 361.474 317.181C366.828 318.153 371.672 320.993 375.162 325.205C378.651 329.417 380.562 334.734 380.562 340.224C380.562 345.715 378.651 351.031 375.162 355.243C371.672 359.455 366.828 362.295 361.474 363.267C366.122 365.653 369.839 369.549 372.025 374.327C374.211 379.106 374.739 384.488 373.524 389.607C372.309 394.725 369.422 399.282 365.328 402.541C361.234 405.801 356.172 407.573 350.958 407.574L350.473 407.574C353.757 411.366 355.741 416.127 356.129 421.148C356.517 426.17 355.288 431.183 352.626 435.444C349.964 439.704 346.011 442.982 341.355 444.792C336.698 446.602 331.588 446.846 326.783 445.488C328.769 450.077 329.245 455.189 328.141 460.071C327.037 464.954 324.411 469.35 320.649 472.615C316.887 475.88 312.186 477.841 307.239 478.21C302.291 478.579 297.356 477.337 293.159 474.666C293.333 475.774 293.424 476.892 293.432 478.013C293.436 482.871 291.943 487.61 289.161 491.574C286.378 495.538 282.443 498.531 277.901 500.138C273.359 501.744 268.435 501.886 263.81 500.543C259.184 499.199 255.087 496.437 252.086 492.64C251.611 498.073 249.274 503.168 245.476 507.048C241.678 510.927 236.658 513.347 231.282 513.891C225.906 514.434 220.511 513.067 216.026 510.025C211.542 506.983 208.249 502.457 206.716 497.227C205.19 502.455 201.905 506.981 197.428 510.027C192.951 513.073 187.562 514.448 182.188 513.916C176.815 513.383 171.794 510.975 167.99 507.108C164.186 503.24 161.837 498.155 161.347 492.727C158.345 496.525 154.248 499.287 149.623 500.63C144.998 501.974 140.073 501.832 135.532 500.225C130.99 498.619 127.055 495.626 124.272 491.662C121.49 487.698 119.997 482.959 120 478.101C120.009 476.98 120.1 475.861 120.273 474.754C116.072 477.427 111.131 478.668 106.178 478.296C101.226 477.924 96.5218 475.958 92.7585 472.686C88.9951 469.415 86.3708 465.011 85.2712 460.122C84.1716 455.233 84.6548 450.117 86.6498 445.526C81.8317 446.902 76.7017 446.666 72.0274 444.854C67.353 443.042 63.3856 439.75 60.7187 435.472C58.0518 431.194 56.8288 426.16 57.2327 421.122C57.6366 416.084 59.6457 411.313 62.9593 407.524L62.4751 407.524C57.261 407.523 52.1989 405.75 48.105 402.491C44.0111 399.231 41.124 394.675 39.9091 389.557C38.6941 384.438 39.2222 379.056 41.4082 374.277C43.5942 369.499 47.3106 365.603 51.9584 363.217L51.9584 363.205Z" fill="#FF5903"/>
<path d="M92.8328 340.167C92.8328 277.233 143.869 226.216 206.826 226.216C269.783 226.216 320.82 277.233 320.82 340.167C320.82 403.101 269.783 454.119 206.826 454.119C143.869 454.119 92.8328 403.101 92.8328 340.167Z" fill="#FFD916"/>
<rect x="259.642" y="324.415" width="36.4991" height="6.08318" rx="3.04159" transform="rotate(45 259.642 324.415)" fill="#071EC3"/>
<rect x="233.616" y="350.224" width="36.4991" height="6.08318" rx="3.04159" transform="rotate(-45 233.616 350.224)" fill="#071EC3"/>
<rect x="154.491" y="324.415" width="36.4991" height="6.08318" rx="3.04159" transform="rotate(45 154.491 324.415)" fill="#071EC3"/>
<rect x="128.465" y="350.224" width="36.4991" height="6.08318" rx="3.04159" transform="rotate(-45 128.465 350.224)" fill="#071EC3"/>
</svg>
