<svg width="473" height="514" viewBox="0 0 473 514" fill="none" xmlns="http://www.w3.org/2000/svg">
<path d="M42.2933 339.983C42.2933 248.845 116.175 174.963 207.313 174.963C298.451 174.963 372.333 248.845 372.333 339.983C372.333 431.121 298.451 505.003 207.313 505.003C116.175 505.003 42.2933 431.121 42.2933 339.983Z" fill="#FF5903"/>
<path d="M92.6038 340.167C92.6038 277.233 143.64 226.216 206.597 226.216C269.554 226.216 320.591 277.233 320.591 340.167C320.591 403.101 269.554 454.119 206.597 454.119C143.64 454.119 92.6038 403.101 92.6038 340.167Z" fill="#FFD916"/>
<rect x="259.413" y="324.415" width="36.4991" height="6.08318" rx="3.04159" transform="rotate(45 259.413 324.415)" fill="#071EC3"/>
<rect x="233.387" y="350.224" width="36.4991" height="6.08318" rx="3.04159" transform="rotate(-45 233.387 350.224)" fill="#071EC3"/>
<rect x="154.261" y="324.415" width="36.4991" height="6.08318" rx="3.04159" transform="rotate(45 154.261 324.415)" fill="#071EC3"/>
<rect x="128.234" y="350.224" width="36.4991" height="6.08318" rx="3.04159" transform="rotate(-45 128.234 350.224)" fill="#071EC3"/>
</svg>
