<svg width="99" height="99" viewBox="0 0 99 99" fill="none" xmlns="http://www.w3.org/2000/svg">
<path d="M93.565 42.9446C95.0893 43.2213 96.4687 44.0301 97.4622 45.2294C98.4557 46.4287 99 47.9424 99 49.5058C99 51.0692 98.4557 52.5828 97.4622 53.7821C96.4687 54.9815 95.0893 55.7902 93.565 56.067C94.8788 56.7511 95.9275 57.8603 96.5431 59.2171C97.1588 60.5739 97.3059 62.0999 96.961 63.551C96.6161 65.0022 95.799 66.2947 94.6404 67.2217C93.4819 68.1488 92.0489 68.6569 90.5705 68.6647H90.4326C91.3838 69.7422 91.9625 71.1026 92.0815 72.5408C92.2005 73.9791 91.8534 75.4175 91.0925 76.6394C90.3315 77.8613 89.1978 78.8005 87.8622 79.3157C86.5266 79.8309 85.0614 79.8942 83.6871 79.4959C84.2579 80.8033 84.3975 82.2612 84.0854 83.6547C83.7732 85.0482 83.0258 86.3037 81.9533 87.236C80.8809 88.1683 79.54 88.7281 78.1285 88.8329C76.717 88.9378 75.3094 88.5821 74.1133 87.8183C74.1626 88.1335 74.1886 88.452 74.1911 88.7711C74.1914 90.1541 73.7658 91.5031 72.9732 92.6311C72.1806 93.7592 71.0602 94.6108 69.7671 95.0678C68.474 95.5249 67.0722 95.5649 65.7556 95.1823C64.439 94.7997 63.2727 94.0134 62.4183 92.9323C62.2794 94.478 61.611 95.9263 60.5281 97.028C59.4452 98.1297 58.0156 98.8157 56.4855 98.9679C54.9555 99.12 53.4207 98.7288 52.1457 97.8617C50.8706 96.9945 49.935 95.7056 49.5 94.2171C49.065 95.7056 48.1294 96.9945 46.8543 97.8617C45.5793 98.7288 44.0445 99.12 42.5145 98.9679C40.9844 98.8157 39.5548 98.1297 38.4719 97.028C37.389 95.9263 36.7206 94.478 36.5817 92.9323C35.7271 94.0137 34.5605 94.8 33.2436 95.1825C31.9266 95.565 30.5245 95.5247 29.2312 95.0672C27.938 94.6097 26.8176 93.7576 26.0253 92.629C25.233 91.5003 24.8079 90.1509 24.8089 88.7676C24.8114 88.4484 24.8374 88.1299 24.8867 87.8147C23.6906 88.5749 22.2845 88.9279 20.8749 88.8218C19.4654 88.7158 18.1267 88.1563 17.0554 87.2254C15.9842 86.2946 15.2369 85.0416 14.9232 83.6503C14.6096 82.2591 14.7462 80.803 15.3129 79.4959C13.9392 79.8912 12.4754 79.826 11.1415 79.3101C9.80765 78.7941 8.67557 77.8552 7.9153 76.6345C7.15502 75.4137 6.80759 73.9769 6.92518 72.5399C7.04276 71.1028 7.61901 69.743 8.56739 68.6647H8.42951C6.94488 68.6646 5.50353 68.1598 4.33786 67.2317C3.17218 66.3036 2.35011 65.0063 2.00418 63.5489C1.65824 62.0914 1.80861 60.5589 2.43103 59.1983C3.05346 57.8377 4.11166 56.7284 5.43505 56.0491C3.91075 55.7724 2.5313 54.9636 1.53781 53.7643C0.544318 52.565 0 51.0513 0 49.4879C0 47.9245 0.544318 46.4109 1.53781 45.2116C2.5313 44.0122 3.91075 43.2035 5.43505 42.9268C4.11166 42.2475 3.05346 41.1381 2.43103 39.7775C1.80861 38.417 1.65824 36.8844 2.00418 35.427C2.35011 33.9696 3.17218 32.6723 4.33786 31.7442C5.50353 30.816 6.94488 30.3112 8.42951 30.3112H8.56739C7.63236 29.2314 7.06761 27.8758 6.95716 26.446C6.84672 25.0163 7.19647 23.5887 7.95441 22.3757C8.71234 21.1627 9.83794 20.2291 11.1638 19.7138C12.4896 19.1985 13.9448 19.129 15.3129 19.5156C14.7474 18.2089 14.6118 16.7535 14.9262 15.3633C15.2406 13.9731 15.9883 12.7212 17.0595 11.7916C18.1307 10.862 19.469 10.3037 20.8778 10.1985C22.2866 10.0934 23.6917 10.447 24.8867 11.2075C24.8374 10.8923 24.8114 10.5738 24.8089 10.2547C24.8079 8.87137 25.233 7.52196 26.0253 6.39329C26.8176 5.26462 27.938 4.41254 29.2312 3.95504C30.5245 3.49754 31.9266 3.45724 33.2436 3.83974C34.5605 4.22223 35.7271 5.0086 36.5817 6.08994C36.7169 4.54299 37.3825 3.09213 38.4639 1.98753C39.5452 0.882923 40.9745 0.193823 42.5053 0.0390472C44.036 -0.115728 45.5723 0.27352 46.8492 1.13968C48.1261 2.00584 49.0636 3.29461 49.5 4.78377C49.9347 3.29529 50.87 2.00642 52.1448 1.13908C53.4196 0.271749 54.954 -0.119759 56.484 0.0319748C58.0139 0.183708 59.4436 0.869181 60.5267 1.97037C61.6099 3.07155 62.2788 4.51954 62.4183 6.06496C63.2729 4.98362 64.4395 4.19726 65.7564 3.81477C67.0734 3.43227 68.4755 3.47255 69.7688 3.93005C71.0621 4.38756 72.1824 5.23963 72.9747 6.3683C73.767 7.49697 74.1921 8.84638 74.1911 10.2297C74.1886 10.5488 74.1626 10.8673 74.1133 11.1826C75.3097 10.4215 76.7164 10.068 78.1266 10.174C79.5369 10.28 80.8762 10.8399 81.9478 11.7714C83.0193 12.7029 83.7666 13.9568 84.0797 15.3489C84.3927 16.7409 84.2552 18.1977 83.6871 19.5049C85.059 19.1131 86.5197 19.1802 87.8506 19.6962C89.1816 20.2122 90.3112 21.1494 91.0706 22.3674C91.83 23.5855 92.1782 25.0191 92.0632 26.4536C91.9482 27.8881 91.3761 29.2465 90.4326 30.3254H90.5705C92.0551 30.3255 93.4965 30.8303 94.6621 31.7584C95.8278 32.6865 96.6499 33.9839 96.9958 35.4413C97.3418 36.8987 97.1914 38.4312 96.569 39.7918C95.9465 41.1524 94.8883 42.2618 93.565 42.941V42.9446Z" fill="#FF1A87"/>
</svg>
