<svg width="99" height="99" viewBox="0 0 99 99" fill="none" xmlns="http://www.w3.org/2000/svg">
<path d="M92.6357 55.9225L99 49.4893L92.6357 43.0561L96.8963 35.036L89.2132 30.8723L91.0199 22.2446L82.5766 20.4362L81.9791 11.7335L73.3378 12.341L70.3607 4.11011L62.0589 7.16946L56.8048 0L49.5 5.47895L42.1952 0L36.9305 7.16946L28.6393 4.11011L25.6728 12.3303L17.0315 11.7227L16.4234 20.4362L7.98011 22.2446L9.78686 30.8723L2.09668 35.0467L6.36429 43.0668L0 49.5L6.36429 55.9332L2.12143 63.9533L9.81161 68.1277L8.00486 76.7554L16.4481 78.5638L17.0457 87.2665L25.687 86.6589L28.6534 94.8792L36.9553 91.8198L42.1952 99L49.5 93.5068L56.8083 99L62.0695 91.827L70.3607 94.8756L73.3307 86.6554L81.9685 87.263L82.566 78.5602L91.0093 76.7518L89.2025 68.1241L96.8927 63.9497L92.6357 55.9225Z" fill="#FF5903"/>
</svg>
