<svg width="473" height="515" viewBox="0 0 473 515" fill="none" xmlns="http://www.w3.org/2000/svg">
<path d="M390.927 125.936C391.561 124.199 391.683 122.318 391.279 120.515C390.874 118.712 389.959 117.062 388.643 115.76C390.516 115.603 392.302 114.908 393.786 113.758C395.269 112.609 396.386 111.055 397.001 109.285C397.616 107.515 397.702 105.605 397.249 103.788C396.796 101.97 395.823 100.323 394.449 99.0454C396.504 98.9011 398.46 98.1092 400.033 96.7842C401.607 95.4592 402.718 93.6697 403.204 91.6744C403.69 89.6792 403.526 87.5816 402.738 85.6848C401.949 83.7881 400.575 82.1906 398.815 81.1232C400.797 80.5745 402.553 79.4123 403.829 77.8045C405.105 76.1966 405.836 74.2262 405.915 72.1777C405.995 70.1292 405.419 68.1084 404.271 66.4071C403.124 64.7058 401.463 63.412 399.53 62.7123C399.455 62.6843 399.381 62.6684 399.307 62.6444C400.951 61.4959 402.196 59.8676 402.871 57.9841C403.547 56.1006 403.62 54.0546 403.079 52.1282C402.539 50.2018 401.412 48.4899 399.855 47.2285C398.297 45.9671 396.385 45.2183 394.383 45.0854C395.627 43.5183 396.354 41.6054 396.462 39.6099C396.571 37.6144 396.057 35.6343 394.99 33.9421C393.923 32.2499 392.357 30.9287 390.505 30.1603C388.654 29.3918 386.61 29.214 384.653 29.6511C384.727 29.4776 384.809 29.31 384.873 29.1324C385.563 27.2455 385.647 25.1914 385.113 23.2549C384.579 21.3184 383.453 19.5955 381.892 18.3251C380.332 17.0547 378.413 16.2998 376.402 16.1649C374.392 16.0301 372.389 16.5221 370.671 17.5727C371.059 15.4486 370.723 13.2562 369.716 11.3446C368.709 9.43304 367.089 7.9123 365.114 7.02464C363.14 6.13698 360.923 5.93345 358.819 6.44649C356.715 6.95953 354.843 8.15961 353.502 9.85558C353.419 7.71348 352.625 5.65956 351.243 4.01636C349.862 2.37316 347.972 1.23376 345.87 0.777097C343.768 0.320432 341.574 0.572365 339.632 1.49333C337.689 2.4143 336.109 3.95214 335.138 5.86534C334.368 4.08713 333.079 2.58046 331.44 1.54045C329.8 0.500433 327.885 -0.0250078 325.942 0.0321708C323.999 0.0893494 322.118 0.726513 320.543 1.86115C318.968 2.99578 317.771 4.57561 317.107 6.39605C316.978 6.75248 316.871 7.11624 316.786 7.48538C315.458 5.99668 313.701 4.95289 311.755 4.49653C309.809 4.04017 307.769 4.1935 305.914 4.93556C304.059 5.67763 302.479 6.97226 301.39 8.64269C300.3 10.3131 299.755 12.2779 299.828 14.2688C298.602 13.4919 297.217 12.9993 295.775 12.8272C294.332 12.655 292.869 12.8078 291.494 13.2743C290.119 13.7408 288.866 14.509 287.829 15.5223C286.791 16.5356 285.996 17.7681 285.5 19.1289C284.729 21.2279 284.715 23.5287 285.46 25.637C283.456 24.9842 281.293 24.9997 279.299 25.681C277.305 26.3623 275.588 27.6725 274.407 29.4131C273.227 31.1538 272.648 33.2303 272.757 35.3283C272.866 37.4264 273.659 39.4319 275.014 41.0413C273.013 40.8193 270.992 41.2235 269.232 42.1976C267.471 43.1717 266.059 44.6676 265.19 46.4777C264.322 48.2879 264.04 50.3226 264.384 52.2996C264.728 54.2766 265.68 56.0979 267.11 57.511C265.263 57.6651 263.498 58.3434 262.026 59.4657C260.553 60.588 259.434 62.1072 258.801 63.8435C258.168 65.5798 258.047 67.4605 258.453 69.2631C258.859 71.0656 259.775 72.7145 261.092 74.0146C259.246 74.1685 257.482 74.8461 256.011 75.9673C254.539 77.0884 253.42 78.6062 252.786 80.3412C252.152 82.0761 252.031 83.9555 252.435 85.7573C252.839 87.559 253.753 89.2077 255.068 90.5082C253.222 90.6623 251.459 91.3399 249.987 92.4609C248.515 93.5818 247.396 95.0994 246.762 96.8341C246.128 98.5688 246.005 100.448 246.409 102.25C246.813 104.052 247.726 105.701 249.04 107.002C247.195 107.157 245.432 107.835 243.961 108.956C242.49 110.078 241.372 111.595 240.739 113.33C240.106 115.064 239.984 116.943 240.389 118.744C240.793 120.545 241.706 122.193 243.02 123.494C241.174 123.647 239.41 124.324 237.937 125.445C236.465 126.566 235.345 128.084 234.712 129.819C234.078 131.554 233.956 133.434 234.361 135.236C234.766 137.038 235.68 138.687 236.996 139.987C235.15 140.141 233.386 140.818 231.914 141.94C230.441 143.061 229.322 144.579 228.688 146.314C228.055 148.05 227.933 149.929 228.338 151.732C228.743 153.534 229.657 155.182 230.972 156.483C229.127 156.637 227.364 157.314 225.892 158.435C224.42 159.556 223.302 161.073 222.668 162.807C222.034 164.542 221.912 166.421 222.316 168.222C222.721 170.024 223.634 171.672 224.948 172.972C222.997 173.135 221.14 173.882 219.623 175.116C218.105 176.35 216.997 178.012 216.445 179.885C215.893 181.757 215.923 183.753 216.529 185.608C217.136 187.464 218.292 189.093 219.845 190.282C217.75 190.523 215.79 191.438 214.262 192.888C212.735 194.338 211.723 196.245 211.38 198.319C211.037 200.394 211.382 202.523 212.362 204.385C213.342 206.247 214.905 207.74 216.812 208.637C214.97 209.508 213.451 210.937 212.471 212.72C211.492 214.503 211.103 216.548 211.36 218.565C211.616 220.581 212.505 222.465 213.9 223.947C215.295 225.43 217.124 226.436 219.127 226.821C217.678 228.194 216.69 229.979 216.298 231.933C215.906 233.887 216.13 235.914 216.938 237.737C217.746 239.559 219.099 241.089 220.812 242.116C222.526 243.143 224.516 243.617 226.51 243.474C226.203 243.986 225.945 244.526 225.739 245.086C225.097 246.838 224.977 248.738 225.394 250.557C225.811 252.376 226.747 254.035 228.089 255.336C229.431 256.636 231.122 257.522 232.958 257.886C234.794 258.25 236.696 258.077 238.436 257.388C237.83 259.418 237.911 261.591 238.664 263.571C239.418 265.552 240.803 267.231 242.607 268.35C244.411 269.47 246.534 269.969 248.65 269.77C250.766 269.571 252.758 268.685 254.319 267.248C254.128 269.405 254.668 271.563 255.853 273.378C257.038 275.193 258.801 276.559 260.857 277.257C262.914 277.955 265.146 277.945 267.197 277.229C269.247 276.513 270.997 275.132 272.167 273.307C272.631 275.34 273.743 277.169 275.335 278.521C276.927 279.874 278.916 280.677 281.004 280.812C283.091 280.946 285.167 280.405 286.921 279.268C288.675 278.132 290.014 276.461 290.737 274.504C291.717 276.017 293.101 277.227 294.734 277.997C296.367 278.768 298.184 279.069 299.979 278.867C301.774 278.664 303.477 277.966 304.896 276.851C306.314 275.735 307.392 274.248 308.008 272.555C308.28 271.797 308.458 271.008 308.536 270.207C310.063 271.5 311.953 272.29 313.949 272.469C315.944 272.648 317.946 272.207 319.68 271.206C321.413 270.205 322.793 268.694 323.63 266.88C324.466 265.066 324.719 263.038 324.352 261.075C324.608 261.195 324.868 261.308 325.141 261.406C327 262.083 329.023 262.177 330.938 261.676C332.852 261.175 334.568 260.102 335.853 258.601C337.138 257.101 337.933 255.244 338.129 253.281C338.326 251.318 337.915 249.342 336.952 247.618C339.004 248.044 341.139 247.796 343.038 246.911C344.936 246.027 346.496 244.553 347.485 242.712C348.473 240.87 348.836 238.759 348.52 236.694C348.204 234.629 347.225 232.722 345.731 231.258C347.648 231.247 349.519 230.671 351.107 229.601C352.696 228.532 353.93 227.017 354.656 225.249C355.381 223.481 355.564 221.538 355.182 219.665C354.8 217.793 353.87 216.076 352.509 214.73C354.356 214.576 356.119 213.899 357.591 212.778C359.063 211.656 360.182 210.139 360.815 208.404C361.449 206.669 361.571 204.789 361.166 202.988C360.762 201.186 359.848 199.537 358.533 198.237C360.377 198.08 362.137 197.401 363.607 196.28C365.076 195.159 366.193 193.643 366.826 191.91C367.458 190.177 367.581 188.299 367.178 186.5C366.776 184.7 365.865 183.052 364.553 181.751C366.399 181.597 368.163 180.919 369.635 179.798C371.107 178.677 372.225 177.159 372.859 175.424C373.493 173.69 373.615 171.81 373.21 170.008C372.806 168.207 371.892 166.558 370.577 165.257C372.423 165.103 374.187 164.426 375.659 163.305C377.13 162.184 378.249 160.666 378.883 158.931C379.517 157.196 379.638 155.316 379.234 153.515C378.83 151.713 377.916 150.064 376.601 148.764C378.446 148.608 380.207 147.929 381.678 146.807C383.148 145.686 384.265 144.168 384.898 142.434C385.531 140.7 385.652 138.822 385.248 137.021C384.845 135.221 383.932 133.573 382.619 132.272C384.466 132.117 386.23 131.437 387.703 130.314C389.175 129.191 390.294 127.672 390.927 125.936V125.936Z" fill="#FF1A87"/>
<path d="M50.3761 204.206C51.0104 205.941 52.1296 207.458 53.6014 208.579C55.0732 209.7 56.8363 210.378 58.6822 210.533C57.3495 211.853 56.4298 213.53 56.0347 215.361C55.6396 217.192 55.7862 219.098 56.4566 220.848C57.1269 222.597 58.2923 224.115 59.8114 225.218C61.3305 226.32 63.1379 226.959 65.0144 227.058C63.5337 228.485 62.5465 230.343 62.1954 232.366C61.8442 234.388 62.1474 236.469 63.0611 238.309C63.9748 240.148 65.4516 241.65 67.2782 242.598C69.1048 243.546 71.1865 243.891 73.2225 243.582C72.057 245.272 71.4605 247.287 71.5194 249.337C71.5782 251.387 72.2892 253.365 73.5498 254.986C74.8103 256.607 76.5552 257.786 78.5323 258.354C80.5095 258.923 82.6167 258.85 84.5496 258.146C84.6237 258.12 84.6917 258.084 84.7638 258.057C84.2441 259.99 84.3392 262.037 85.036 263.914C85.7328 265.791 86.9971 267.407 88.6543 268.538C90.3115 269.669 92.28 270.259 94.2883 270.228C96.2966 270.197 98.2456 269.545 99.8666 268.363C99.9252 270.36 100.603 272.29 101.807 273.888C103.011 275.485 104.682 276.671 106.59 277.284C108.498 277.896 110.55 277.904 112.463 277.307C114.376 276.71 116.057 275.537 117.274 273.95C117.328 274.129 117.374 274.311 117.44 274.488C118.128 276.376 119.388 278.004 121.046 279.146C122.705 280.287 124.678 280.886 126.694 280.86C128.709 280.833 130.666 280.182 132.293 278.996C133.92 277.811 135.137 276.15 135.774 274.245C136.846 276.121 138.518 277.585 140.522 278.404C142.527 279.224 144.748 279.351 146.834 278.766C148.919 278.181 150.748 276.917 152.029 275.176C153.31 273.436 153.97 271.317 153.904 269.159C155.347 270.755 157.281 271.827 159.403 272.206C161.525 272.584 163.713 272.249 165.622 271.251C167.531 270.254 169.053 268.652 169.947 266.697C170.842 264.743 171.058 262.547 170.562 260.457C172.386 261.38 174.456 261.704 176.477 261.383C178.497 261.061 180.363 260.11 181.808 258.667C183.253 257.223 184.202 255.361 184.519 253.347C184.836 251.332 184.506 249.27 183.575 247.454C185.553 247.743 187.572 247.416 189.357 246.519C191.142 245.621 192.605 244.196 193.547 242.439C194.488 240.681 194.863 238.677 194.619 236.699C194.375 234.722 193.524 232.867 192.183 231.39C193.624 231.201 195.004 230.692 196.22 229.9C197.437 229.108 198.459 228.054 199.212 226.815C199.965 225.576 200.429 224.185 200.57 222.743C200.71 221.302 200.524 219.847 200.025 218.487C199.259 216.384 197.784 214.611 195.851 213.474C197.807 212.691 199.455 211.294 200.543 209.494C201.632 207.695 202.103 205.591 201.884 203.501C201.666 201.411 200.77 199.449 199.332 197.912C197.894 196.375 195.993 195.347 193.917 194.983C195.593 193.871 196.881 192.267 197.601 190.393C198.322 188.519 198.439 186.468 197.937 184.525C197.435 182.581 196.338 180.842 194.799 179.548C193.26 178.253 191.355 177.469 189.348 177.302C190.665 176.002 191.58 174.353 191.986 172.55C192.391 170.747 192.27 168.867 191.636 167.131C191.002 165.395 189.883 163.876 188.41 162.754C186.936 161.633 185.172 160.955 183.324 160.803C184.64 159.502 185.555 157.854 185.959 156.052C186.364 154.25 186.243 152.37 185.609 150.634C184.975 148.899 183.856 147.381 182.383 146.26C180.911 145.139 179.147 144.462 177.3 144.309C178.615 143.008 179.529 141.36 179.933 139.558C180.338 137.756 180.216 135.877 179.582 134.142C178.949 132.407 177.83 130.889 176.358 129.768C174.886 128.647 173.123 127.969 171.277 127.815C172.59 126.514 173.502 124.866 173.906 123.065C174.31 121.263 174.187 119.385 173.554 117.651C172.92 115.916 171.802 114.399 170.331 113.278C168.86 112.157 167.098 111.479 165.253 111.324C166.568 110.023 167.481 108.374 167.886 106.573C168.29 104.771 168.168 102.891 167.535 101.156C166.901 99.4215 165.782 97.9037 164.31 96.7826C162.838 95.6614 161.075 94.9838 159.229 94.8299C160.543 93.5291 161.457 91.8803 161.861 90.0785C162.266 88.2767 162.144 86.3972 161.51 84.6623C160.876 82.9273 159.758 81.4094 158.286 80.288C156.814 79.1666 155.051 78.4887 153.205 78.3343C154.519 77.0335 155.431 75.3852 155.835 73.5841C156.238 71.7829 156.116 69.9043 155.483 68.1701C154.849 66.436 153.731 64.9188 152.26 63.7979C150.789 62.677 149.026 61.9992 147.181 61.8446C148.57 60.4698 149.509 58.7087 149.876 56.7924C150.242 54.876 150.019 52.894 149.235 51.1065C148.451 49.3189 147.143 47.8093 145.483 46.7758C143.823 45.7422 141.888 45.233 139.932 45.315C141.377 43.7868 142.284 41.8314 142.516 39.7441C142.747 37.6568 142.291 35.5512 141.216 33.7452C140.14 31.9392 138.504 30.5311 136.555 29.7335C134.606 28.9359 132.449 28.7922 130.411 29.3242C131.195 27.5887 131.449 25.661 131.139 23.7826C130.83 21.9042 129.971 20.1585 128.671 18.764C127.371 17.3696 125.687 16.3884 123.83 15.9434C121.972 15.4984 120.025 15.6092 118.231 16.2621C117.776 16.4292 117.334 16.6293 116.909 16.8607C117.134 14.8805 116.74 12.8795 115.78 11.1314C114.82 9.38326 113.341 7.97344 111.547 7.09485C109.752 6.21626 107.729 5.91182 105.754 6.22319C103.778 6.53456 101.948 7.44652 100.513 8.83429C100.185 6.84323 99.239 5.00458 97.809 3.57608C96.379 2.14759 94.5363 1.20089 92.5391 0.868701C90.542 0.53651 88.4907 0.835487 86.6727 1.72372C84.8547 2.61194 83.3611 4.04489 82.4015 5.82167C81.5559 3.87848 80.0934 2.26578 78.2388 1.2314C76.3842 0.197012 74.24 -0.201819 72.1359 0.0961945C70.0317 0.394208 68.084 1.37257 66.5919 2.88094C65.0999 4.38931 64.1462 6.34422 63.8773 8.44525C62.6334 6.67069 60.8281 5.36328 58.7504 4.73222C56.6726 4.10117 54.4425 4.18295 52.4169 4.9645C50.3913 5.74604 48.6873 7.18215 47.5776 9.04302C46.4679 10.9039 46.0167 13.082 46.2961 15.2287C44.6294 13.9696 42.5991 13.2807 40.5077 13.2647C38.4163 13.2487 36.3757 13.9064 34.6898 15.1399C33.0038 16.3733 31.7628 18.1165 31.1515 20.1098C30.5403 22.1031 30.5914 24.2398 31.2974 26.2018C29.3719 25.6019 27.3065 25.6159 25.3894 26.2419C23.4722 26.8679 21.799 28.0746 20.603 29.6937C19.407 31.3129 18.748 33.2637 18.7178 35.274C18.6877 37.2842 19.2879 39.2538 20.4348 40.9078C18.4324 40.8958 16.4754 41.5018 14.8324 42.6426C13.1895 43.7834 11.9412 45.4031 11.2589 47.2793C10.5767 49.1555 10.494 51.1962 11.0221 53.1211C11.5503 55.046 12.6634 56.7608 14.2087 58.0299C13.9364 58.1038 13.6621 58.1836 13.3919 58.2813C11.5314 58.9547 9.92192 60.179 8.77941 61.7899C7.63691 63.4007 7.01595 65.3213 6.99983 67.2939C6.98371 69.2665 7.57319 71.1968 8.68922 72.826C9.80525 74.4553 11.3945 75.7055 13.2437 76.409C11.3976 77.3972 9.92226 78.9546 9.03833 80.8481C8.1544 82.7417 7.90945 84.8695 8.34013 86.9133C8.7708 88.9572 9.85395 90.8071 11.4275 92.1863C13.0011 93.5655 14.9804 94.3999 17.0695 94.5646C15.608 95.8008 14.5469 97.4409 14.0201 99.2778C13.4933 101.115 13.5244 103.066 14.1096 104.885C14.6949 106.704 15.8078 108.31 17.3081 109.499C18.8083 110.688 20.6285 111.408 22.5388 111.567C21.2239 112.868 20.3102 114.516 19.9058 116.318C19.5014 118.12 19.6233 119.999 20.2569 121.734C20.8905 123.469 22.0095 124.987 23.4814 126.108C24.9533 127.229 26.7166 127.907 28.5627 128.061C27.248 129.361 26.3345 131.01 25.9302 132.812C25.526 134.614 25.6478 136.493 26.2814 138.228C26.915 139.963 28.0338 141.481 29.5056 142.602C30.9773 143.724 32.7405 144.402 34.5866 144.556C33.2717 145.857 32.358 147.505 31.9536 149.307C31.5492 151.109 31.6711 152.988 32.3047 154.723C32.9383 156.458 34.0573 157.976 35.5292 159.097C37.0011 160.218 38.7644 160.896 40.6105 161.05C39.2954 162.351 38.3817 164 37.9776 165.802C37.5734 167.604 37.6958 169.484 38.3301 171.219C38.9645 172.955 40.0842 174.472 41.557 175.593C43.0297 176.714 44.7938 177.391 46.6404 177.544C45.3257 178.844 44.4122 180.493 44.008 182.295C43.6037 184.097 43.7255 185.976 44.3591 187.711C44.9927 189.446 46.1115 190.964 47.5833 192.085C49.055 193.207 50.8182 193.885 52.6643 194.039C51.349 195.339 50.4345 196.988 50.029 198.789C49.6236 200.591 49.744 202.471 50.3761 204.206V204.206Z" fill="#FF1A87"/>
<path d="M40.9598 341.02C40.9598 249.882 114.842 176 205.98 176C297.118 176 371 249.882 371 341.02C371 432.158 297.118 506.04 205.98 506.04C114.842 506.04 40.9598 432.158 40.9598 341.02Z" fill="#FFD916"/>
<path d="M210.089 300.348V302.645C210.089 304.833 211.869 306.607 214.065 306.607H255.627C257.823 306.607 259.603 304.833 259.603 302.645V300.348C259.603 298.16 257.823 296.386 255.627 296.386H214.065C211.869 296.386 210.089 298.16 210.089 300.348Z" fill="#071EC3"/>
<path d="M235.993 276.826H233.689C231.493 276.826 229.713 278.6 229.713 280.788V322.209C229.713 324.397 231.493 326.171 233.689 326.171H235.993C238.189 326.171 239.969 324.397 239.969 322.209V280.788C239.969 278.6 238.189 276.826 235.993 276.826Z" fill="#071EC3"/>
<path d="M216.524 318.131L218.153 319.755C219.706 321.302 222.223 321.302 223.776 319.755L253.165 290.466C254.718 288.919 254.718 286.41 253.165 284.863L251.536 283.239C249.983 281.692 247.466 281.692 245.913 283.239L216.524 312.528C214.971 314.075 214.971 316.584 216.524 318.131Z" fill="#071EC3"/>
<path d="M218.155 283.239L216.525 284.863C214.973 286.41 214.973 288.919 216.525 290.467L245.915 319.755C247.467 321.303 249.985 321.303 251.537 319.755L253.167 318.132C254.719 316.584 254.719 314.075 253.167 312.528L223.777 283.239C222.225 281.692 219.707 281.692 218.155 283.239Z" fill="#071EC3"/>
<path d="M148.028 269.394L146.399 271.018C144.846 272.565 144.846 275.074 146.399 276.621L175.788 305.91C177.341 307.458 179.858 307.458 181.411 305.91L183.04 304.287C184.593 302.739 184.593 300.23 183.04 298.683L153.651 269.394C152.098 267.847 149.581 267.847 148.028 269.394Z" fill="#071EC3"/>
<path d="M146.404 331.98L148.033 333.604C149.586 335.151 152.103 335.151 153.656 333.604L183.045 304.315C184.598 302.768 184.598 300.259 183.045 298.712L181.416 297.088C179.863 295.54 177.345 295.54 175.793 297.088L146.404 326.377C144.851 327.924 144.851 330.433 146.404 331.98Z" fill="#071EC3"/>
</svg>
