<svg width="473" height="514" viewBox="0 0 473 514" fill="none" xmlns="http://www.w3.org/2000/svg">
<path d="M390.927 127.936C391.561 126.199 391.683 124.318 391.279 122.515C390.874 120.712 389.959 119.062 388.643 117.76C390.516 117.603 392.302 116.908 393.786 115.758C395.269 114.609 396.386 113.055 397.001 111.285C397.616 109.515 397.702 107.605 397.249 105.788C396.796 103.97 395.823 102.323 394.449 101.045C396.504 100.901 398.46 100.109 400.033 98.7842C401.607 97.4592 402.718 95.6697 403.204 93.6744C403.69 91.6792 403.526 89.5816 402.738 87.6848C401.949 85.7881 400.575 84.1906 398.815 83.1232C400.797 82.5745 402.553 81.4123 403.829 79.8045C405.105 78.1966 405.836 76.2262 405.915 74.1777C405.995 72.1292 405.419 70.1084 404.271 68.4071C403.124 66.7058 401.463 65.412 399.53 64.7123C399.455 64.6843 399.381 64.6684 399.307 64.6444C400.951 63.4959 402.196 61.8676 402.871 59.9841C403.547 58.1006 403.62 56.0546 403.079 54.1282C402.539 52.2018 401.412 50.4899 399.855 49.2285C398.297 47.9671 396.385 47.2183 394.383 47.0854C395.627 45.5183 396.354 43.6054 396.462 41.6099C396.571 39.6144 396.057 37.6343 394.99 35.9421C393.923 34.2499 392.357 32.9287 390.505 32.1603C388.654 31.3918 386.61 31.214 384.653 31.6511C384.727 31.4776 384.809 31.31 384.873 31.1324C385.563 29.2455 385.647 27.1914 385.113 25.2549C384.579 23.3184 383.453 21.5955 381.892 20.3251C380.332 19.0547 378.413 18.2998 376.402 18.1649C374.392 18.0301 372.389 18.5221 370.671 19.5727C371.059 17.4486 370.723 15.2562 369.716 13.3446C368.709 11.433 367.089 9.9123 365.114 9.02464C363.14 8.13698 360.923 7.93345 358.819 8.44649C356.715 8.95953 354.843 10.1596 353.502 11.8556C353.419 9.71348 352.625 7.65956 351.243 6.01636C349.862 4.37316 347.972 3.23376 345.87 2.7771C343.768 2.32043 341.574 2.57237 339.632 3.49333C337.689 4.4143 336.109 5.95214 335.138 7.86534C334.368 6.08713 333.079 4.58046 331.44 3.54045C329.8 2.50043 327.885 1.97499 325.942 2.03217C323.999 2.08935 322.118 2.72651 320.543 3.86115C318.968 4.99578 317.771 6.57561 317.107 8.39605C316.978 8.75248 316.871 9.11624 316.786 9.48538C315.458 7.99668 313.701 6.95289 311.755 6.49653C309.809 6.04017 307.769 6.1935 305.914 6.93556C304.059 7.67763 302.479 8.97226 301.39 10.6427C300.3 12.3131 299.755 14.2779 299.828 16.2688C298.602 15.4919 297.217 14.9993 295.775 14.8272C294.332 14.655 292.869 14.8078 291.494 15.2743C290.119 15.7408 288.866 16.509 287.829 17.5223C286.791 18.5356 285.996 19.7681 285.5 21.1289C284.729 23.2279 284.715 25.5287 285.46 27.637C283.456 26.9842 281.293 26.9997 279.299 27.681C277.305 28.3623 275.588 29.6725 274.407 31.4131C273.227 33.1538 272.648 35.2303 272.757 37.3283C272.866 39.4264 273.659 41.4319 275.014 43.0413C273.013 42.8193 270.992 43.2235 269.232 44.1976C267.471 45.1717 266.059 46.6676 265.19 48.4777C264.322 50.2879 264.04 52.3226 264.384 54.2996C264.728 56.2766 265.68 58.0979 267.11 59.511C265.263 59.6651 263.498 60.3434 262.026 61.4657C260.553 62.588 259.434 64.1072 258.801 65.8435C258.168 67.5798 258.047 69.4605 258.453 71.2631C258.859 73.0656 259.775 74.7145 261.092 76.0146C259.246 76.1685 257.482 76.8461 256.011 77.9673C254.539 79.0884 253.42 80.6062 252.786 82.3412C252.152 84.0761 252.031 85.9555 252.435 87.7573C252.839 89.559 253.753 91.2077 255.068 92.5082C253.222 92.6623 251.459 93.3399 249.987 94.4609C248.515 95.5818 247.396 97.0994 246.762 98.8341C246.128 100.569 246.005 102.448 246.409 104.25C246.813 106.052 247.726 107.701 249.04 109.002C247.195 109.157 245.432 109.835 243.961 110.956C242.49 112.078 241.372 113.595 240.739 115.33C240.106 117.064 239.984 118.943 240.389 120.744C240.793 122.545 241.706 124.193 243.02 125.494C241.174 125.647 239.41 126.324 237.937 127.445C236.465 128.566 235.345 130.084 234.712 131.819C234.078 133.554 233.956 135.434 234.361 137.236C234.766 139.038 235.68 140.687 236.996 141.987C235.15 142.141 233.386 142.818 231.914 143.94C230.441 145.061 229.322 146.579 228.688 148.314C228.055 150.05 227.933 151.929 228.338 153.732C228.743 155.534 229.657 157.182 230.972 158.483C229.127 158.637 227.364 159.314 225.892 160.435C224.42 161.556 223.302 163.073 222.668 164.807C222.034 166.542 221.912 168.421 222.316 170.222C222.721 172.024 223.634 173.672 224.948 174.972C222.997 175.135 221.14 175.882 219.623 177.116C218.105 178.35 216.997 180.012 216.445 181.885C215.893 183.757 215.923 185.753 216.529 187.608C217.136 189.464 218.292 191.093 219.845 192.282C217.75 192.523 215.79 193.438 214.262 194.888C212.735 196.338 211.723 198.245 211.38 200.319C211.037 202.394 211.382 204.523 212.362 206.385C213.342 208.247 214.905 209.74 216.812 210.637C214.97 211.508 213.451 212.937 212.471 214.72C211.492 216.503 211.103 218.548 211.36 220.565C211.616 222.581 212.505 224.465 213.9 225.947C215.295 227.43 217.124 228.436 219.127 228.821C217.678 230.194 216.69 231.979 216.298 233.933C215.906 235.887 216.13 237.914 216.938 239.737C217.746 241.559 219.099 243.089 220.812 244.116C222.526 245.143 224.516 245.617 226.51 245.474C226.203 245.986 225.945 246.526 225.739 247.086C225.097 248.838 224.977 250.738 225.394 252.557C225.811 254.376 226.747 256.035 228.089 257.336C229.431 258.636 231.122 259.522 232.958 259.886C234.794 260.25 236.696 260.077 238.436 259.388C237.83 261.418 237.911 263.591 238.664 265.571C239.418 267.552 240.803 269.231 242.607 270.35C244.411 271.47 246.534 271.969 248.65 271.77C250.766 271.571 252.758 270.685 254.319 269.248C254.128 271.405 254.668 273.563 255.853 275.378C257.038 277.193 258.801 278.559 260.857 279.257C262.914 279.955 265.146 279.945 267.197 279.229C269.247 278.513 270.997 277.132 272.167 275.307C272.631 277.34 273.743 279.169 275.335 280.521C276.927 281.874 278.916 282.677 281.004 282.812C283.091 282.946 285.167 282.405 286.921 281.268C288.675 280.132 290.014 278.461 290.737 276.504C291.717 278.017 293.101 279.227 294.734 279.997C296.367 280.768 298.184 281.069 299.979 280.867C301.774 280.664 303.477 279.966 304.896 278.851C306.314 277.735 307.392 276.248 308.008 274.555C308.28 273.797 308.458 273.008 308.536 272.207C310.063 273.5 311.953 274.29 313.949 274.469C315.944 274.648 317.946 274.207 319.68 273.206C321.413 272.205 322.793 270.694 323.63 268.88C324.466 267.066 324.719 265.038 324.352 263.075C324.608 263.195 324.868 263.308 325.141 263.406C327 264.083 329.023 264.177 330.938 263.676C332.852 263.175 334.568 262.102 335.853 260.601C337.138 259.101 337.933 257.244 338.129 255.281C338.326 253.318 337.915 251.342 336.952 249.618C339.004 250.044 341.139 249.796 343.038 248.911C344.936 248.027 346.496 246.553 347.485 244.712C348.473 242.87 348.836 240.759 348.52 238.694C348.204 236.629 347.225 234.722 345.731 233.258C347.648 233.247 349.519 232.671 351.107 231.601C352.696 230.532 353.93 229.017 354.656 227.249C355.381 225.481 355.564 223.538 355.182 221.665C354.8 219.793 353.87 218.076 352.509 216.73C354.356 216.576 356.119 215.899 357.591 214.778C359.063 213.656 360.182 212.139 360.815 210.404C361.449 208.669 361.571 206.789 361.166 204.988C360.762 203.186 359.848 201.537 358.533 200.237C360.377 200.08 362.137 199.401 363.607 198.28C365.076 197.159 366.193 195.643 366.826 193.91C367.458 192.177 367.581 190.299 367.178 188.5C366.776 186.7 365.865 185.052 364.553 183.751C366.399 183.597 368.163 182.919 369.635 181.798C371.107 180.677 372.225 179.159 372.859 177.424C373.493 175.69 373.615 173.81 373.21 172.008C372.806 170.207 371.892 168.558 370.577 167.257C372.423 167.103 374.187 166.426 375.659 165.305C377.13 164.184 378.249 162.666 378.883 160.931C379.517 159.196 379.638 157.316 379.234 155.515C378.83 153.713 377.916 152.064 376.601 150.764C378.446 150.608 380.207 149.929 381.678 148.807C383.148 147.686 384.265 146.168 384.898 144.434C385.531 142.7 385.652 140.822 385.248 139.021C384.845 137.221 383.932 135.573 382.619 134.272C384.466 134.117 386.23 133.437 387.703 132.314C389.175 131.191 390.294 129.672 390.927 127.936V127.936Z" fill="#FF1A87"/>
<path d="M50.3761 206.206C51.0104 207.941 52.1296 209.458 53.6014 210.579C55.0732 211.7 56.8363 212.378 58.6822 212.533C57.3495 213.853 56.4298 215.53 56.0347 217.361C55.6396 219.192 55.7862 221.098 56.4566 222.848C57.1269 224.597 58.2923 226.115 59.8114 227.218C61.3305 228.32 63.1379 228.959 65.0144 229.058C63.5337 230.485 62.5465 232.343 62.1954 234.366C61.8442 236.388 62.1474 238.469 63.0611 240.309C63.9748 242.148 65.4516 243.65 67.2782 244.598C69.1048 245.546 71.1865 245.891 73.2225 245.582C72.057 247.272 71.4605 249.287 71.5194 251.337C71.5782 253.387 72.2892 255.365 73.5498 256.986C74.8103 258.607 76.5552 259.786 78.5323 260.354C80.5095 260.923 82.6167 260.85 84.5496 260.146C84.6237 260.12 84.6917 260.084 84.7638 260.057C84.2441 261.99 84.3392 264.037 85.036 265.914C85.7328 267.791 86.9971 269.407 88.6543 270.538C90.3115 271.669 92.28 272.259 94.2883 272.228C96.2966 272.197 98.2456 271.545 99.8666 270.363C99.9252 272.36 100.603 274.29 101.807 275.888C103.011 277.485 104.682 278.671 106.59 279.284C108.498 279.896 110.55 279.904 112.463 279.307C114.376 278.71 116.057 277.537 117.274 275.95C117.328 276.129 117.374 276.311 117.44 276.488C118.128 278.376 119.388 280.004 121.046 281.146C122.705 282.287 124.678 282.886 126.694 282.86C128.709 282.833 130.666 282.182 132.293 280.996C133.92 279.811 135.137 278.15 135.774 276.245C136.846 278.121 138.518 279.585 140.522 280.404C142.527 281.224 144.748 281.351 146.834 280.766C148.919 280.181 150.748 278.917 152.029 277.176C153.31 275.436 153.97 273.317 153.904 271.159C155.347 272.755 157.281 273.827 159.403 274.206C161.525 274.584 163.713 274.249 165.622 273.251C167.531 272.254 169.053 270.652 169.947 268.697C170.842 266.743 171.058 264.547 170.562 262.457C172.386 263.38 174.456 263.704 176.477 263.383C178.497 263.061 180.363 262.11 181.808 260.667C183.253 259.223 184.202 257.361 184.519 255.347C184.836 253.332 184.506 251.27 183.575 249.454C185.553 249.743 187.572 249.416 189.357 248.519C191.142 247.621 192.605 246.196 193.547 244.439C194.488 242.681 194.863 240.677 194.619 238.699C194.375 236.722 193.524 234.867 192.183 233.39C193.624 233.201 195.004 232.692 196.22 231.9C197.437 231.108 198.459 230.054 199.212 228.815C199.965 227.576 200.429 226.185 200.57 224.743C200.71 223.302 200.524 221.847 200.025 220.487C199.259 218.384 197.784 216.611 195.851 215.474C197.807 214.691 199.455 213.294 200.543 211.494C201.632 209.695 202.103 207.591 201.884 205.501C201.666 203.411 200.77 201.449 199.332 199.912C197.894 198.375 195.993 197.347 193.917 196.983C195.593 195.871 196.881 194.267 197.601 192.393C198.322 190.519 198.439 188.468 197.937 186.525C197.435 184.581 196.338 182.842 194.799 181.548C193.26 180.253 191.355 179.469 189.348 179.302C190.665 178.002 191.58 176.353 191.986 174.55C192.391 172.747 192.27 170.867 191.636 169.131C191.002 167.395 189.883 165.876 188.41 164.754C186.936 163.633 185.172 162.955 183.324 162.803C184.64 161.502 185.555 159.854 185.959 158.052C186.364 156.25 186.243 154.37 185.609 152.634C184.975 150.899 183.856 149.381 182.383 148.26C180.911 147.139 179.147 146.462 177.3 146.309C178.615 145.008 179.529 143.36 179.933 141.558C180.338 139.756 180.216 137.877 179.582 136.142C178.949 134.407 177.83 132.889 176.358 131.768C174.886 130.647 173.123 129.969 171.277 129.815C172.59 128.514 173.502 126.866 173.906 125.065C174.31 123.263 174.187 121.385 173.554 119.651C172.92 117.916 171.802 116.399 170.331 115.278C168.86 114.157 167.098 113.479 165.253 113.324C166.568 112.023 167.481 110.374 167.886 108.573C168.29 106.771 168.168 104.891 167.535 103.156C166.901 101.422 165.782 99.9037 164.31 98.7826C162.838 97.6614 161.075 96.9838 159.229 96.8299C160.543 95.5291 161.457 93.8803 161.861 92.0785C162.266 90.2767 162.144 88.3972 161.51 86.6623C160.876 84.9273 159.758 83.4094 158.286 82.288C156.814 81.1666 155.051 80.4887 153.205 80.3343C154.519 79.0335 155.431 77.3852 155.835 75.5841C156.238 73.7829 156.116 71.9043 155.483 70.1701C154.849 68.436 153.731 66.9188 152.26 65.7979C150.789 64.677 149.026 63.9992 147.181 63.8446C148.57 62.4698 149.509 60.7087 149.876 58.7924C150.242 56.876 150.019 54.894 149.235 53.1065C148.451 51.3189 147.143 49.8093 145.483 48.7758C143.823 47.7422 141.888 47.233 139.932 47.315C141.377 45.7868 142.284 43.8314 142.516 41.7441C142.747 39.6568 142.291 37.5512 141.216 35.7452C140.14 33.9392 138.504 32.5311 136.555 31.7335C134.606 30.9359 132.449 30.7922 130.411 31.3242C131.195 29.5887 131.449 27.661 131.139 25.7826C130.83 23.9042 129.971 22.1585 128.671 20.764C127.371 19.3696 125.687 18.3884 123.83 17.9434C121.972 17.4984 120.025 17.6092 118.231 18.2621C117.776 18.4292 117.334 18.6293 116.909 18.8607C117.134 16.8805 116.74 14.8795 115.78 13.1314C114.82 11.3833 113.341 9.97344 111.547 9.09485C109.752 8.21626 107.729 7.91182 105.754 8.22319C103.778 8.53456 101.948 9.44652 100.513 10.8343C100.185 8.84323 99.239 7.00458 97.809 5.57608C96.379 4.14759 94.5363 3.20089 92.5391 2.8687C90.542 2.53651 88.4907 2.83549 86.6727 3.72372C84.8547 4.61194 83.3611 6.04489 82.4015 7.82167C81.5559 5.87848 80.0934 4.26578 78.2388 3.2314C76.3842 2.19701 74.24 1.79818 72.1359 2.09619C70.0317 2.39421 68.084 3.37257 66.5919 4.88094C65.0999 6.38931 64.1462 8.34422 63.8773 10.4452C62.6334 8.67069 60.8281 7.36328 58.7504 6.73222C56.6726 6.10117 54.4425 6.18295 52.4169 6.9645C50.3913 7.74604 48.6873 9.18215 47.5776 11.043C46.4679 12.9039 46.0167 15.082 46.2961 17.2287C44.6294 15.9696 42.5991 15.2807 40.5077 15.2647C38.4163 15.2487 36.3757 15.9064 34.6898 17.1399C33.0038 18.3733 31.7628 20.1165 31.1515 22.1098C30.5403 24.1031 30.5914 26.2398 31.2974 28.2018C29.3719 27.6019 27.3065 27.6159 25.3894 28.2419C23.4722 28.8679 21.799 30.0746 20.603 31.6937C19.407 33.3129 18.748 35.2637 18.7178 37.274C18.6877 39.2842 19.2879 41.2538 20.4348 42.9078C18.4324 42.8958 16.4754 43.5018 14.8324 44.6426C13.1895 45.7834 11.9412 47.4031 11.2589 49.2793C10.5767 51.1555 10.494 53.1962 11.0221 55.1211C11.5503 57.046 12.6634 58.7608 14.2087 60.0299C13.9364 60.1038 13.6621 60.1836 13.3919 60.2813C11.5314 60.9547 9.92192 62.179 8.77941 63.7899C7.63691 65.4007 7.01595 67.3213 6.99983 69.2939C6.98371 71.2665 7.57319 73.1968 8.68922 74.826C9.80525 76.4553 11.3945 77.7055 13.2437 78.409C11.3976 79.3972 9.92226 80.9546 9.03833 82.8481C8.1544 84.7417 7.90945 86.8695 8.34013 88.9133C8.7708 90.9572 9.85395 92.8071 11.4275 94.1863C13.0011 95.5655 14.9804 96.3999 17.0695 96.5646C15.608 97.8008 14.5469 99.4409 14.0201 101.278C13.4933 103.115 13.5244 105.066 14.1096 106.885C14.6949 108.704 15.8078 110.31 17.3081 111.499C18.8083 112.688 20.6285 113.408 22.5388 113.567C21.2239 114.868 20.3102 116.516 19.9058 118.318C19.5014 120.12 19.6233 121.999 20.2569 123.734C20.8905 125.469 22.0095 126.987 23.4814 128.108C24.9533 129.229 26.7166 129.907 28.5627 130.061C27.248 131.361 26.3345 133.01 25.9302 134.812C25.526 136.614 25.6478 138.493 26.2814 140.228C26.915 141.963 28.0338 143.481 29.5056 144.602C30.9773 145.724 32.7405 146.402 34.5866 146.556C33.2717 147.857 32.358 149.505 31.9536 151.307C31.5492 153.109 31.6711 154.988 32.3047 156.723C32.9383 158.458 34.0573 159.976 35.5292 161.097C37.0011 162.218 38.7644 162.896 40.6105 163.05C39.2954 164.351 38.3817 166 37.9776 167.802C37.5734 169.604 37.6958 171.484 38.3301 173.219C38.9645 174.955 40.0842 176.472 41.557 177.593C43.0297 178.714 44.7938 179.391 46.6404 179.544C45.3257 180.844 44.4122 182.493 44.008 184.295C43.6037 186.097 43.7255 187.976 44.3591 189.711C44.9927 191.446 46.1115 192.964 47.5833 194.085C49.055 195.207 50.8182 195.885 52.6643 196.039C51.349 197.339 50.4345 198.988 50.029 200.789C49.6236 202.591 49.744 204.471 50.3761 206.206V206.206Z" fill="#FF1A87"/>
<path fill-rule="evenodd" clip-rule="evenodd" d="M54.6585 317.597L32.3068 340.191L54.6585 362.785L39.6953 390.952L66.6787 405.575L60.3333 435.876L89.9865 442.227L92.0851 472.791L122.434 470.658L132.889 499.565L162.046 488.82L180.498 514L206.153 494.758L231.808 514L250.298 488.821L279.417 499.565L289.835 470.695L320.184 472.829L322.32 442.227L351.973 435.876L345.628 405.575L372.636 390.914L357.648 362.747L380 340.154L357.648 317.56L372.549 289.393L345.541 274.732L351.886 244.431L322.233 238.08L320.134 207.516L289.786 209.65L279.367 180.78L250.211 191.524L231.808 166.307L206.153 185.6L180.486 166.307L162.009 191.499L132.889 180.792L122.459 209.662L92.1224 207.528L90.0238 238.093L60.3706 244.444L66.716 274.745L39.7077 289.406L54.6585 317.597Z" fill="#FFD916"/>
<path d="M210.089 302.348V304.645C210.089 306.833 211.869 308.607 214.065 308.607H255.627C257.823 308.607 259.603 306.833 259.603 304.645V302.348C259.603 300.16 257.823 298.386 255.627 298.386H214.065C211.869 298.386 210.089 300.16 210.089 302.348Z" fill="#071EC3"/>
<path d="M235.993 278.826H233.689C231.493 278.826 229.713 280.6 229.713 282.788V324.209C229.713 326.397 231.493 328.171 233.689 328.171H235.993C238.189 328.171 239.969 326.397 239.969 324.209V282.788C239.969 280.6 238.189 278.826 235.993 278.826Z" fill="#071EC3"/>
<path d="M216.524 320.131L218.153 321.755C219.706 323.302 222.223 323.302 223.776 321.755L253.165 292.466C254.718 290.919 254.718 288.41 253.165 286.863L251.536 285.239C249.983 283.692 247.466 283.692 245.913 285.239L216.524 314.528C214.971 316.075 214.971 318.584 216.524 320.131Z" fill="#071EC3"/>
<path d="M218.155 285.239L216.525 286.863C214.973 288.41 214.973 290.919 216.525 292.467L245.915 321.755C247.467 323.303 249.985 323.303 251.537 321.755L253.167 320.132C254.719 318.584 254.719 316.075 253.167 314.528L223.777 285.239C222.225 283.692 219.707 283.692 218.155 285.239Z" fill="#071EC3"/>
<path d="M148.028 271.394L146.399 273.018C144.846 274.565 144.846 277.074 146.399 278.621L175.788 307.91C177.341 309.458 179.858 309.458 181.411 307.91L183.04 306.287C184.593 304.739 184.593 302.23 183.04 300.683L153.651 271.394C152.098 269.847 149.581 269.847 148.028 271.394Z" fill="#071EC3"/>
<path d="M146.404 333.98L148.033 335.604C149.586 337.151 152.103 337.151 153.656 335.604L183.045 306.315C184.598 304.768 184.598 302.259 183.045 300.712L181.416 299.088C179.863 297.54 177.345 297.54 175.793 299.088L146.404 328.377C144.851 329.924 144.851 332.433 146.404 333.98Z" fill="#071EC3"/>
</svg>
