<svg width="1262" height="14" viewBox="0 0 1262 14" fill="none" xmlns="http://www.w3.org/2000/svg">
<path d="M1 7C22 -1 43 -1 64 7C85 15 106 15 127 7C148 -1 169 -1 190 7C211 15 232 15 253 7C274 -1 295 -1 316 7C337 15 358 15 379 7C400 -1 421 -1 442 7C463 15 484 15 505 7C526 -1 547 -1 568 7C589 15 610 15 631 7C652 -1 673 -1 694 7C715 15 736 15 757 7C778 -1 799 -1 820 7C841 15 862 15 883 7C904 -1 925 -1 946 7C967 15 988 15 1009 7C1030 -1 1051 -1 1072 7C1093 15 1114 15 1135 7C1156 -1 1177 -1 1198 7C1219 15 1240 15 1261 7" stroke="#F2F2F2" stroke-width="2"/>
</svg>
