<svg width="121" height="100" viewBox="0 0 121 100" fill="none" xmlns="http://www.w3.org/2000/svg">
<path d="M26.6998 100L37.1103 67.0481L17.7887 73.2413V54.5103L0 50.8246L12.9541 35.6782L4.71669 16.4759L24.3415 19.6062L37.1103 0L47.5207 14.894L58.487 0L71.0368 15.2979L86.2986 2.74318L94.1991 16.863L109.511 15.685L107.945 29.6365L121 39.5995L107.153 47.8458L109.545 65.4493L90.2741 61.242L82.9296 72.2652L69.0827 62.033L60.4916 73.2413L53.3828 64.7089L26.6998 100Z" fill="#F2F2F2"/>
<path d="M32.5449 32.8002H42.1131V35.779H35.6276V47.122H32.5449V32.8002Z" fill="#071EC3"/>
<path d="M50.3525 47.4252C48.8657 47.4247 47.4122 46.9844 46.1754 46.1599C44.9387 45.3353 43.9739 44.1634 43.4028 42.7919C42.8317 41.4204 42.6798 39.9107 42.9663 38.4531C43.2528 36.9954 43.9648 35.6552 45.0126 34.6012C45.7138 33.9006 46.5463 33.3449 47.4626 32.9657C48.3788 32.5866 49.3608 32.3914 50.3525 32.3914C51.3443 32.3914 52.3263 32.5866 53.2425 32.9657C54.1587 33.3449 54.9913 33.9006 55.6925 34.6012C56.3938 35.3018 56.95 36.1335 57.3296 37.0489C57.7091 37.9643 57.9044 38.9453 57.9044 39.9361C57.9044 40.9269 57.7091 41.908 57.3296 42.8233C56.95 43.7387 56.3938 44.5704 55.6925 45.271C54.9966 45.975 54.1638 46.5292 53.2455 46.8997C52.3271 47.2701 51.3426 47.449 50.3525 47.4252ZM45.9054 39.9361C45.9054 41.1145 46.3739 42.2445 47.2079 43.0778C48.0419 43.911 49.1731 44.3791 50.3525 44.3791C51.532 44.3791 52.6632 43.911 53.4972 43.0778C54.3312 42.2445 54.7997 41.1145 54.7997 39.9361C54.7997 38.7578 54.3312 37.6277 53.4972 36.7945C52.6632 35.9613 51.532 35.4932 50.3525 35.4932C49.1731 35.4932 48.0419 35.9613 47.2079 36.7945C46.3739 37.6277 45.9054 38.7578 45.9054 39.9361Z" fill="#071EC3"/>
<path d="M69.0658 39.33V32.8002H72.1485V47.122H69.0658V42.2414C67.9115 42.6642 66.6902 42.8751 65.4609 42.8641C63.9385 42.9552 62.4352 42.4884 61.2327 41.5514C60.7161 41.0611 60.3139 40.4631 60.0548 39.7999C59.7956 39.1367 59.6859 38.4247 59.7334 37.7143V32.8002H62.7993V37.4282C62.7993 39.1112 63.8269 39.9863 65.8651 39.9863C66.9667 39.9983 68.058 39.7745 69.0658 39.33Z" fill="#071EC3"/>
<path d="M78.7883 41.8375L86.0823 32.8002H88.4574V47.122H85.4253V38.0004L78.1313 47.122H75.8066V32.8002H78.8388L78.7883 41.8375Z" fill="#071EC3"/>
</svg>
